<?xml version='1.0' encoding='utf-8'?>
<svg xmlns="http://www.w3.org/2000/svg" version="1.1" x="0px" y="0px" width="300" height="300" viewBox="1079.9 170.7 300 300" style="enable-background:new 1079.9 170.7 300 300;" xml:space="preserve"><style type="text/css">
	.st0{fill:#FFFFFF;}
	.st1{fill:#F1F2F2;}
	.st2{fill:#00AEEF;}
	.st3{fill:#E6E7E8;}
	.st4{fill:#D1D3D4;}
	.st5{fill:#E65565;}
	.st6{fill:#DA2428;}
	.st7{fill:#1C75BC;}
	.st8{fill:#F9C713;}
	.st9{fill:#F7941E;}
	.st10{fill:#804968;}
	.st11{fill:#C0707D;}
	.st12{fill:#414042;}
	.st13{fill:#FFF0A6;}
</style>
<g>
			<g>
				<path class="st1" d="M1229.9,448.4c70.5,0,127.7-57.2,127.7-127.7h-255.3C1102.2,391.2,1159.4,448.4,1229.9,448.4z" />
				<path d="M1229.9,456.7c-75,0-136-61-136-136v-8.3h272v8.3C1365.9,395.7,1304.9,456.7,1229.9,456.7z M1110.8,329      c4.3,61.9,56,111,119.1,111c63,0,114.8-49.1,119.1-111H1110.8z" />
			</g>
			<g>
				<path class="st9" d="M1229.9,193c-70.5,0-127.7,57.2-127.7,127.7h255.3C1357.5,250.2,1300.4,193,1229.9,193z" />
				<path d="M1365.9,329h-272v-8.3c0-75,61-136,136-136c75,0,136,61,136,136V329z M1110.8,312.4h238.1c-4.3-61.9-56-111-119.1-111      C1166.9,201.4,1115.1,250.4,1110.8,312.4z" />
			</g>
			<g>
				<path class="st0" d="M1159.5,252c-2.3,0-4.5-0.9-6.1-2.7c-3.1-3.4-2.9-8.7,0.5-11.8c10.8-9.9,23.3-17.5,37-22.6      c4.3-1.6,9.1,0.6,10.7,4.9c1.6,4.3-0.6,9.1-4.9,10.7c-11.7,4.3-22.3,10.8-31.5,19.2C1163.5,251.3,1161.5,252,1159.5,252z" />
			</g>
			<g>
				<path class="st0" d="M1136.5,282.4c-1.3,0-2.5-0.3-3.7-0.9c-4.1-2.1-5.8-7.1-3.7-11.2c1.3-2.6,2.7-5.2,4.2-7.6      c2.4-3.9,7.5-5.2,11.4-2.8c3.9,2.4,5.2,7.5,2.8,11.4c-1.3,2.1-2.5,4.3-3.6,6.5C1142.5,280.7,1139.6,282.4,1136.5,282.4z" />
			</g>
			<g>
				<circle class="st3" cx="1229.9" cy="320.7" r="36.1" />
				<path d="M1229.9,362.9c-23.3,0-42.2-18.9-42.2-42.2s18.9-42.2,42.2-42.2c23.3,0,42.2,18.9,42.2,42.2S1253.2,362.9,1229.9,362.9z       M1229.9,290.7c-16.5,0-30,13.5-30,30c0,16.5,13.5,30,30,30s30-13.5,30-30C1259.9,304.2,1246.4,290.7,1229.9,290.7z" />
			</g>
			<g>
				<circle class="st4" cx="1229.9" cy="320.7" r="17.1" />
				<path d="M1229.9,341.1c-11.3,0-20.4-9.2-20.4-20.4c0-11.3,9.2-20.4,20.4-20.4c11.3,0,20.4,9.2,20.4,20.4      C1250.3,332,1241.1,341.1,1229.9,341.1z M1229.9,306.9c-7.6,0-13.8,6.2-13.8,13.8c0,7.6,6.2,13.8,13.8,13.8      c7.6,0,13.8-6.2,13.8-13.8C1243.6,313.1,1237.5,306.9,1229.9,306.9z" />
			</g>
			<g>
				<circle class="st8" cx="1229.9" cy="239.9" r="17.1" />
				<path d="M1229.9,263.1c-12.8,0-23.2-10.4-23.2-23.2s10.4-23.2,23.2-23.2c12.8,0,23.2,10.4,23.2,23.2S1242.7,263.1,1229.9,263.1z       M1229.9,228.9c-6.1,0-11,4.9-11,11s4.9,11,11,11s11-4.9,11-11S1235.9,228.9,1229.9,228.9z" />
			</g>
		</g>
		</svg>