<?xml version='1.0' encoding='utf-8'?>
<svg xmlns="http://www.w3.org/2000/svg" version="1.1" x="0px" y="0px" width="300" height="300" viewBox="371.9 170.7 300 300" style="enable-background:new 371.9 170.7 300 300;" xml:space="preserve"><style type="text/css">
	.st0{fill:#FFFFFF;}
	.st1{fill:#F1F2F2;}
	.st2{fill:#00AEEF;}
	.st3{fill:#E6E7E8;}
	.st4{fill:#D1D3D4;}
	.st5{fill:#E65565;}
	.st6{fill:#DA2428;}
	.st7{fill:#1C75BC;}
	.st8{fill:#F9C713;}
	.st9{fill:#F7941E;}
	.st10{fill:#804968;}
	.st11{fill:#C0707D;}
	.st12{fill:#414042;}
	.st13{fill:#FFF0A6;}
</style>
<g>
			<g>
				<path class="st1" d="M521.9,448.4c70.5,0,127.7-57.2,127.7-127.7H394.2C394.2,391.2,451.4,448.4,521.9,448.4z" />
				<path d="M521.9,456.7c-75,0-136-61-136-136v-8.3h272v8.3C657.9,395.7,596.9,456.7,521.9,456.7z M402.8,329      c4.3,61.9,56,111,119.1,111S636.7,391,640.9,329H402.8z" />
			</g>
			<g>
				<path class="st2" d="M521.9,193c-70.5,0-127.7,57.2-127.7,127.7h255.3C649.6,250.2,592.4,193,521.9,193z" />
				<path d="M657.9,329h-272v-8.3c0-75,61-136,136-136c75,0,136,61,136,136V329z M402.8,312.4h238.1c-4.3-61.9-56-111-119.1-111      S407.1,250.4,402.8,312.4z" />
			</g>
			<g>
				<path class="st0" d="M540.4,225.2c-0.5,0-1,0-1.5-0.1c-5.6-1-11.3-1.5-17.1-1.5c-4.6,0-8.3-3.7-8.3-8.3c0-4.6,3.7-8.3,8.3-8.3      c6.7,0,13.4,0.6,20,1.8c4.5,0.8,7.5,5.1,6.7,9.7C547.9,222.4,544.4,225.2,540.4,225.2z" />
			</g>
			<g>
				<circle class="st3" cx="521.9" cy="320.7" r="36.1" />
				<path d="M521.9,362.9c-23.3,0-42.2-18.9-42.2-42.2s18.9-42.2,42.2-42.2c23.3,0,42.2,18.9,42.2,42.2S545.2,362.9,521.9,362.9z       M521.9,290.7c-16.5,0-30,13.5-30,30c0,16.5,13.5,30,30,30c16.5,0,30-13.5,30-30C551.9,304.2,538.4,290.7,521.9,290.7z" />
			</g>
			<g>
				<circle class="st4" cx="521.9" cy="320.7" r="17.1" />
				<path d="M521.9,341.1c-11.3,0-20.4-9.2-20.4-20.4c0-11.3,9.2-20.4,20.4-20.4c11.3,0,20.4,9.2,20.4,20.4      C542.3,332,533.1,341.1,521.9,341.1z M521.9,306.9c-7.6,0-13.8,6.2-13.8,13.8c0,7.6,6.2,13.8,13.8,13.8s13.8-6.2,13.8-13.8      C535.6,313.1,529.5,306.9,521.9,306.9z" />
			</g>
			<g>
				<path class="st5" d="M489.2,249L459,195.7c-25.6,12.9-46.7,33.5-60.4,58.6l59.9,24.5L489.2,249z" />
				<path d="M458.5,285c-0.8,0-1.6-0.1-2.3-0.5L396.3,260c-1.6-0.7-2.9-2-3.4-3.6c-0.6-1.6-0.4-3.4,0.4-5      c14.3-26.5,36.1-47.6,63-61.2c2.9-1.5,6.5-0.4,8.1,2.4l30.2,53.3c1.4,2.4,0.9,5.4-1,7.4l-30.6,29.9      C461.6,284.4,460.1,285,458.5,285z M407.4,251.3l49.8,20.4l24.4-23.8l-24.9-44C436.3,215.2,419.4,231.5,407.4,251.3z" />
			</g>
			<g>
				<path class="st5" d="M585.1,279.3l60.1-24.2c-13.5-25.3-34.5-45.9-60-59l-30.5,53.1L585.1,279.3z" />
				<path d="M585.1,285.4c-1.6,0-3.1-0.6-4.3-1.8l-30.4-30.1c-2-1.9-2.4-5-1-7.4l30.5-53.1c1.6-2.8,5.2-3.9,8.1-2.4      c26.8,13.7,48.5,35,62.6,61.6c0.8,1.5,0.9,3.3,0.4,5c-0.6,1.6-1.9,2.9-3.5,3.6l-60.1,24.2C586.6,285.2,585.9,285.4,585.1,285.4z       M562.3,248.2l24.2,23.9l49.9-20.1c-12-19.9-28.7-36.3-48.9-47.7L562.3,248.2z" />
			</g>
		</g>
		</svg>