<?xml version='1.0' encoding='utf-8'?>
<svg xmlns="http://www.w3.org/2000/svg" version="1.1" x="0px" y="0px" width="300" height="300" viewBox="724.7 170.7 300 300" style="enable-background:new 724.7 170.7 300 300;" xml:space="preserve"><style type="text/css">
	.st0{fill:#FFFFFF;}
	.st1{fill:#F1F2F2;}
	.st2{fill:#00AEEF;}
	.st3{fill:#E6E7E8;}
	.st4{fill:#D1D3D4;}
	.st5{fill:#E65565;}
	.st6{fill:#DA2428;}
	.st7{fill:#1C75BC;}
	.st8{fill:#F9C713;}
	.st9{fill:#F7941E;}
	.st10{fill:#804968;}
	.st11{fill:#C0707D;}
	.st12{fill:#414042;}
	.st13{fill:#FFF0A6;}
</style>
<g>
			<g>
				<path class="st13" d="M874.7,448.4c70.5,0,127.7-57.2,127.7-127.7H747C747,391.2,804.2,448.4,874.7,448.4z" />
				<path d="M874.7,456.7c-75,0-136-61-136-136v-8.3h272v8.3C1010.7,395.7,949.7,456.7,874.7,456.7z M755.6,329      c4.3,61.9,56,111,119.1,111S989.4,391,993.7,329H755.6z" />
			</g>
			<g>
				<path class="st13" d="M874.7,193C804.2,193,747,250.2,747,320.7h255.3C1002.4,250.2,945.2,193,874.7,193z" />
				<path d="M1010.7,329h-272v-8.3c0-75,61-136,136-136s136,61,136,136V329z M755.6,312.4h238.1c-4.3-61.9-56-111-119.1-111      S759.9,250.4,755.6,312.4z" />
			</g>
			<g>
				<path class="st11" d="M874.7,398.4c42.9,0,77.7-34.8,77.7-77.7H797C797,363.6,831.8,398.4,874.7,398.4z" />
				<path d="M874.7,406.7c-47.4,0-86-38.6-86-86v-8.3h172.1v8.3C960.7,368.1,922.1,406.7,874.7,406.7z M805.8,329      c4.1,34.3,33.4,61.1,68.9,61.1s64.8-26.7,68.9-61.1H805.8z" />
			</g>
			<g>
				<path class="st11" d="M956,256.9h29.3c-22.1-38.2-63.3-63.8-110.6-63.8c-47.3,0-88.5,25.7-110.6,63.8h29.3      c12.7,0,20.5,13.8,14.1,24.8c-6.7,11.5-10.5,24.8-10.5,39.1h155.4c0-14.2-3.8-27.6-10.5-39.1C935.5,270.7,943.2,256.9,956,256.9      z" />
				<path d="M960.7,329H788.6v-8.3c0-15.2,4-30.2,11.7-43.3c2.2-3.7,0.8-7,0.1-8.2c-0.7-1.2-2.8-4-7-4h-43.7l7.2-12.5      c24.3-41.9,69.4-68,117.8-68c48.4,0,93.5,26.1,117.8,68l7.2,12.5H956c-4.2,0-6.3,2.8-7,4c-0.7,1.2-2.1,4.5,0.1,8.2      c7.6,13.1,11.7,28,11.7,43.3V329z M805.8,312.4h137.8c-1.1-9.4-4.1-18.4-8.9-26.5c-4.5-7.8-4.6-17.1-0.1-24.9      c4.4-7.7,12.4-12.4,21.4-12.4h13.8c-22.4-29.4-57.6-47.2-95.1-47.2c-37.4,0-72.6,17.8-95.1,47.2h13.8c8.9,0,16.9,4.6,21.4,12.4      c4.5,7.8,4.4,17.1-0.1,24.9C809.9,294,806.9,303,805.8,312.4z" />
			</g>
			<g>
				<g>
					<path class="st0" d="M847.1,227.5c-3.7,0-7.1-2.5-8-6.2c-1.2-4.4,1.5-9,5.9-10.2c14.2-3.8,28.7-4.7,43.2-2.9       c4.6,0.6,7.8,4.8,7.2,9.3c-0.6,4.6-4.8,7.8-9.3,7.2c-12.3-1.6-24.7-0.8-36.8,2.4C848.6,227.4,847.8,227.5,847.1,227.5z" />
				</g>
				<g>
					<path class="st0" d="M812.7,243.7c-2.6,0-5.1-1.2-6.8-3.5c-2.7-3.7-1.8-8.9,1.9-11.6c2.3-1.7,4.8-3.3,7.3-4.8       c3.9-2.4,9.1-1.1,11.4,2.8c2.4,3.9,1.1,9.1-2.8,11.4c-2.1,1.3-4.2,2.7-6.2,4.1C816.1,243.2,814.4,243.7,812.7,243.7z" />
				</g>
			</g>
			<g>
				<circle class="st3" cx="874.7" cy="320.7" r="36.1" />
				<path d="M874.7,362.9c-23.3,0-42.2-18.9-42.2-42.2s18.9-42.2,42.2-42.2c23.3,0,42.2,18.9,42.2,42.2S898,362.9,874.7,362.9z       M874.7,290.7c-16.5,0-30,13.5-30,30c0,16.5,13.5,30,30,30c16.5,0,30-13.5,30-30C904.7,304.2,891.2,290.7,874.7,290.7z" />
			</g>
			<g>
				<circle class="st4" cx="874.7" cy="320.7" r="17.1" />
				<path d="M874.7,341.1c-11.3,0-20.4-9.2-20.4-20.4c0-11.3,9.2-20.4,20.4-20.4c11.3,0,20.4,9.2,20.4,20.4      C895.1,332,885.9,341.1,874.7,341.1z M874.7,306.9c-7.6,0-13.8,6.2-13.8,13.8c0,7.6,6.2,13.8,13.8,13.8      c7.6,0,13.8-6.2,13.8-13.8C888.4,313.1,882.3,306.9,874.7,306.9z" />
			</g>
		</g>
		</svg>