<?xml version='1.0' encoding='utf-8'?>
<svg xmlns="http://www.w3.org/2000/svg" version="1.1" x="0px" y="0px" width="300" height="300" viewBox="724.7 509.3 300 300" style="enable-background:new 724.7 509.3 300 300;" xml:space="preserve"><style type="text/css">
	.st0{fill:#FFFFFF;}
	.st1{fill:#F1F2F2;}
	.st2{fill:#00AEEF;}
	.st3{fill:#E6E7E8;}
	.st4{fill:#D1D3D4;}
	.st5{fill:#E65565;}
	.st6{fill:#DA2428;}
	.st7{fill:#1C75BC;}
	.st8{fill:#F9C713;}
	.st9{fill:#F7941E;}
	.st10{fill:#804968;}
	.st11{fill:#C0707D;}
	.st12{fill:#414042;}
	.st13{fill:#FFF0A6;}
</style>
<g>
			<g>
				<path class="st1" d="M874.7,787c70.5,0,127.7-57.2,127.7-127.7H747C747,729.8,804.2,787,874.7,787z" />
				<path d="M874.7,795.3c-75,0-136-61-136-136V651h272v8.3C1010.7,734.3,949.7,795.3,874.7,795.3z M755.6,667.6      c4.3,61.9,56,111,119.1,111s114.8-49.1,119.1-111H755.6z" />
			</g>
			<g>
				<path class="st12" d="M874.7,606.9c-35.4,0-67.4-14.4-90.5-37.6c-23,23.1-37.2,54.9-37.2,90h255.3c0-35.1-14.2-67-37.2-90      C942.1,592.5,910.1,606.9,874.7,606.9z" />
				<path d="M1010.7,667.6h-272v-8.3c0-36.2,14.1-70.3,39.6-95.9l5.9-5.9l5.9,5.9c22.6,22.7,52.6,35.2,84.6,35.2      c32,0,62-12.5,84.6-35.2l5.9-5.9l5.9,5.9c25.5,25.7,39.6,59.7,39.6,95.9V667.6z M755.6,651h238.1c-1.8-25.9-11.9-50.3-28.9-69.9      c-24.9,22.1-56.6,34.1-90.1,34.1c-33.6,0-65.2-12.1-90.1-34.1C767.5,600.7,757.4,625,755.6,651z" />
			</g>
			<g>
				<circle class="st3" cx="874.7" cy="659.3" r="36.1" />
				<path d="M874.7,701.5c-23.3,0-42.2-18.9-42.2-42.2c0-23.3,18.9-42.2,42.2-42.2c23.3,0,42.2,18.9,42.2,42.2      C916.9,682.6,898,701.5,874.7,701.5z M874.7,629.3c-16.5,0-30,13.5-30,30c0,16.5,13.5,30,30,30c16.5,0,30-13.5,30-30      C904.7,642.8,891.2,629.3,874.7,629.3z" />
			</g>
			<g>
				<circle class="st4" cx="874.7" cy="659.3" r="17.1" />
				<path d="M874.7,679.7c-11.3,0-20.4-9.2-20.4-20.4s9.2-20.4,20.4-20.4c11.3,0,20.4,9.2,20.4,20.4S885.9,679.7,874.7,679.7z       M874.7,645.5c-7.6,0-13.8,6.2-13.8,13.8c0,7.6,6.2,13.8,13.8,13.8c7.6,0,13.8-6.2,13.8-13.8      C888.4,651.7,882.3,645.5,874.7,645.5z" />
			</g>
			<g>
				<path class="st6" d="M939.5,549.3c-19,11.2-41.2,17.7-64.8,17.7c-23.7,0-45.8-6.5-64.8-17.7c-9.4,5.5-18,12.3-25.7,19.9      c23.1,23.2,55.1,37.6,90.5,37.6c35.4,0,67.4-14.4,90.5-37.6C957.5,561.6,948.9,554.9,939.5,549.3z" />
				<path d="M874.7,615.2c-36.5,0-70.7-14.2-96.4-40.1l-5.8-5.9l5.8-5.9c8.2-8.2,17.4-15.3,27.3-21.2l4.2-2.5l4.2,2.5      c18.3,10.8,39.3,16.5,60.6,16.5s42.3-5.7,60.6-16.5l4.2-2.5l4.2,2.5c10,5.9,19.2,13,27.3,21.2l5.8,5.9l-5.8,5.9      C945.4,601,911.1,615.2,874.7,615.2z M796.4,569.3c21.7,19,49.2,29.3,78.3,29.3c29.1,0,56.6-10.3,78.3-29.3      c-4.3-3.7-8.9-7.2-13.7-10.3c-19.8,10.7-42,16.3-64.7,16.3c-22.6,0-44.9-5.6-64.7-16.3C805.2,562.1,800.7,565.5,796.4,569.3z" />
			</g>
			<g>
				<path class="st12" d="M809.8,549.3c19,11.2,41.2,17.7,64.8,17.7c23.7,0,45.8-6.5,64.8-17.7c-19-11.2-41.2-17.7-64.8-17.7      C851,531.6,828.8,538.1,809.8,549.3z" />
				<path d="M874.7,575.3c-24.3,0-48.2-6.5-69.1-18.8l-12.1-7.2l12.1-7.2c20.9-12.3,44.7-18.8,69.1-18.8c24.3,0,48.2,6.5,69.1,18.8      l12.1,7.2l-12.1,7.2C922.9,568.8,899,575.3,874.7,575.3z M828.3,549.3c14.6,6.2,30.4,9.4,46.4,9.4c16,0,31.8-3.2,46.4-9.4      c-14.6-6.2-30.4-9.4-46.4-9.4C858.7,540,842.9,543.2,828.3,549.3z" />
			</g>
			<g>
				<g>
					<path class="st0" d="M804.2,590.6c-2.3,0-4.5-0.9-6.1-2.7c-3.1-3.4-2.9-8.7,0.5-11.8c10.8-9.9,23.3-17.5,37-22.6       c4.3-1.6,9.1,0.6,10.7,4.9c1.6,4.3-0.6,9.1-4.9,10.7c-11.7,4.3-22.3,10.8-31.5,19.2C808.2,589.9,806.2,590.6,804.2,590.6z" />
				</g>
				<g>
					<path class="st0" d="M781.2,621c-1.3,0-2.5-0.3-3.7-0.9c-4.1-2.1-5.8-7.1-3.7-11.2c1.3-2.6,2.7-5.1,4.2-7.6       c2.4-3.9,7.5-5.2,11.4-2.8c3.9,2.4,5.2,7.5,2.8,11.4c-1.3,2.1-2.5,4.3-3.6,6.5C787.2,619.3,784.3,621,781.2,621z" />
				</g>
			</g>
		</g>
	</svg>