<?xml version='1.0' encoding='utf-8'?>
<svg xmlns="http://www.w3.org/2000/svg" version="1.1" x="0px" y="0px" width="300" height="300" viewBox="1079.9 509.3 300 300" style="enable-background:new 1079.9 509.3 300 300;" xml:space="preserve"><style type="text/css">
	.st0{fill:#FFFFFF;}
	.st1{fill:#F1F2F2;}
	.st2{fill:#00AEEF;}
	.st3{fill:#E6E7E8;}
	.st4{fill:#D1D3D4;}
	.st5{fill:#E65565;}
	.st6{fill:#DA2428;}
	.st7{fill:#1C75BC;}
	.st8{fill:#F9C713;}
	.st9{fill:#F7941E;}
	.st10{fill:#804968;}
	.st11{fill:#C0707D;}
	.st12{fill:#414042;}
	.st13{fill:#FFF0A6;}
</style>
<g>
			<g>
				<path class="st1" d="M1229.9,787c70.5,0,127.7-57.2,127.7-127.7h-255.3C1102.2,729.8,1159.4,787,1229.9,787z" />
				<path d="M1229.9,795.3c-75,0-136-61-136-136V651h272v8.3C1365.9,734.3,1304.9,795.3,1229.9,795.3z M1110.8,667.6      c4.3,61.9,56,111,119.1,111c63,0,114.8-49.1,119.1-111H1110.8z" />
			</g>
			<g>
				<path class="st10" d="M1229.9,531.6c-70.5,0-127.7,57.2-127.7,127.7h255.3C1357.5,588.8,1300.4,531.6,1229.9,531.6z" />
				<path d="M1365.9,667.6h-272v-8.3c0-75,61-136,136-136c75,0,136,61,136,136V667.6z M1110.8,651h238.1c-4.3-61.9-56-111-119.1-111      C1166.9,540,1115.1,589,1110.8,651z" />
			</g>
			<g>
				<circle class="st3" cx="1229.9" cy="659.3" r="36.1" />
				<path d="M1229.9,701.5c-23.3,0-42.2-18.9-42.2-42.2c0-23.3,18.9-42.2,42.2-42.2c23.3,0,42.2,18.9,42.2,42.2      C1272.1,682.6,1253.2,701.5,1229.9,701.5z M1229.9,629.3c-16.5,0-30,13.5-30,30c0,16.5,13.5,30,30,30s30-13.5,30-30      C1259.9,642.8,1246.4,629.3,1229.9,629.3z" />
			</g>
			<g>
				<circle class="st4" cx="1229.9" cy="659.3" r="17.1" />
				<path d="M1229.9,679.7c-11.3,0-20.4-9.2-20.4-20.4s9.2-20.4,20.4-20.4c11.3,0,20.4,9.2,20.4,20.4S1241.1,679.7,1229.9,679.7z       M1229.9,645.5c-7.6,0-13.8,6.2-13.8,13.8c0,7.6,6.2,13.8,13.8,13.8c7.6,0,13.8-6.2,13.8-13.8      C1243.6,651.7,1237.5,645.5,1229.9,645.5z" />
			</g>
			<g>
				
					<ellipse transform="matrix(0.7807 0.6248 -0.6248 0.7807 616.5037 -591.5695)" class="st11" cx="1151.2" cy="582.7" rx="36.1" ry="51.1" />
				<path d="M1137.3,636.8c-8.8,0-16.8-2.7-23.2-7.8c-9.7-7.8-14.6-20.1-13.7-34.6c0.8-13.5,6.5-27.5,16.1-39.5      c13.2-16.5,31.4-26.4,48.6-26.4c8.8,0,16.8,2.7,23.2,7.8c9.7,7.8,14.6,20.1,13.7,34.6c-0.8,13.5-6.5,27.5-16.1,39.5      C1172.6,627,1154.5,636.8,1137.3,636.8z M1165.2,545.2c-12,0-25.7,7.7-35.6,20.1c-14.5,18.1-16.8,41.3-5,50.7      c3.4,2.7,7.7,4.1,12.8,4.1c12,0,25.7-7.7,35.6-20.1c14.5-18.1,16.8-41.3,5-50.7C1174.5,546.6,1170.2,545.2,1165.2,545.2z" />
			</g>
			<g>
				
					<ellipse transform="matrix(-0.7807 0.6248 -0.6248 -0.7807 2694.2876 219.9907)" class="st11" cx="1308.5" cy="582.7" rx="36.1" ry="51.1" />
				<path d="M1322.5,636.8C1322.5,636.8,1322.5,636.8,1322.5,636.8c-17.2,0-35.4-9.9-48.6-26.4c-9.6-12-15.3-26-16.1-39.5      c-0.9-14.6,4-26.9,13.7-34.6c6.3-5.1,14.4-7.8,23.2-7.8c17.2,0,35.4,9.9,48.6,26.4c9.6,12,15.3,26,16.1,39.5      c0.9,14.6-4,26.9-13.7,34.6C1339.3,634.1,1331.3,636.8,1322.5,636.8z M1294.6,545.2c-5.1,0-9.3,1.4-12.8,4.1      c-5.4,4.3-8,11.6-7.5,20.6c0.6,10.1,5,20.8,12.5,30.1c9.9,12.4,23.6,20.1,35.6,20.1h0c5.1,0,9.3-1.4,12.8-4.1      c11.7-9.4,9.4-32.6-5-50.7C1320.3,552.9,1306.6,545.2,1294.6,545.2z" />
			</g>
			<g>
				
					<ellipse transform="matrix(-0.4739 -0.8806 0.8806 -0.4739 1210.6763 1845.8544)" class="st0" cx="1156.8" cy="561.3" rx="7.8" ry="15.7" />
			</g>
			<g>
				
					<ellipse transform="matrix(-0.8597 -0.5108 0.5108 -0.8597 1815.2482 1656.8284)" class="st0" cx="1135.2" cy="579.1" rx="5.5" ry="6.4" />
			</g>
		</g>
		</svg>