<?xml version='1.0' encoding='utf-8'?>
<svg xmlns="http://www.w3.org/2000/svg" version="1.1" x="0px" y="0px" width="300" height="300" viewBox="20.1 509.3 300 300" style="enable-background:new 20.1 509.3 300 300;" xml:space="preserve"><style type="text/css">
	.st0{fill:#FFFFFF;}
	.st1{fill:#F1F2F2;}
	.st2{fill:#00AEEF;}
	.st3{fill:#E6E7E8;}
	.st4{fill:#D1D3D4;}
	.st5{fill:#E65565;}
	.st6{fill:#DA2428;}
	.st7{fill:#1C75BC;}
	.st8{fill:#F9C713;}
	.st9{fill:#F7941E;}
	.st10{fill:#804968;}
	.st11{fill:#C0707D;}
	.st12{fill:#414042;}
	.st13{fill:#FFF0A6;}
</style>
<g>
			<g>
				<path class="st1" d="M170.1,787c70.5,0,127.7-57.2,127.7-127.7H42.5C42.5,729.8,99.6,787,170.1,787z" />
				<path d="M170.1,795.3c-75,0-136-61-136-136V651h272v8.3C306.1,734.3,245.1,795.3,170.1,795.3z M51.1,667.6      c4.3,61.9,56,111,119.1,111s114.8-49.1,119.1-111H51.1z" />
			</g>
			<g>
				<path class="st6" d="M170.1,531.6c-70.5,0-127.7,57.2-127.7,127.7h255.3C297.8,588.8,240.6,531.6,170.1,531.6z" />
				<path d="M306.1,667.6h-272v-8.3c0-75,61-136,136-136c75,0,136,61,136,136V667.6z M51.1,651h238.1c-4.3-61.9-56-111-119.1-111      S55.4,589,51.1,651z" />
			</g>
			<g>
				<path class="st0" d="M99.8,590.6c-2.3,0-4.5-0.9-6.1-2.7c-3.1-3.4-2.9-8.7,0.5-11.8c10.8-9.9,23.3-17.5,37-22.6      c4.3-1.6,9.1,0.6,10.7,4.9c1.6,4.3-0.6,9.1-4.9,10.7c-11.7,4.3-22.3,10.8-31.5,19.2C103.8,589.9,101.8,590.6,99.8,590.6z" />
			</g>
			<g>
				<path class="st0" d="M76.8,621c-1.3,0-2.5-0.3-3.7-0.9c-4.1-2.1-5.8-7.1-3.7-11.2c1.3-2.6,2.7-5.1,4.2-7.6      c2.4-3.9,7.5-5.2,11.4-2.8c3.9,2.4,5.2,7.5,2.8,11.4c-1.3,2.1-2.5,4.3-3.6,6.5C82.8,619.3,79.8,621,76.8,621z" />
			</g>
			<g>
				<circle class="st3" cx="170.1" cy="659.3" r="36.1" />
				<path d="M170.1,701.5c-23.3,0-42.2-18.9-42.2-42.2c0-23.3,18.9-42.2,42.2-42.2s42.2,18.9,42.2,42.2      C212.3,682.6,193.4,701.5,170.1,701.5z M170.1,629.3c-16.5,0-30,13.5-30,30c0,16.5,13.5,30,30,30s30-13.5,30-30      C200.1,642.8,186.7,629.3,170.1,629.3z" />
			</g>
			<g>
				<circle class="st4" cx="170.1" cy="659.3" r="17.1" />
				<path d="M170.1,679.7c-11.3,0-20.4-9.2-20.4-20.4s9.2-20.4,20.4-20.4s20.4,9.2,20.4,20.4S181.4,679.7,170.1,679.7z M170.1,645.5      c-7.6,0-13.8,6.2-13.8,13.8c0,7.6,6.2,13.8,13.8,13.8s13.8-6.2,13.8-13.8C183.9,651.7,177.7,645.5,170.1,645.5z" />
			</g>
		</g>
		</svg>