<?xml version='1.0' encoding='utf-8'?>
<svg xmlns="http://www.w3.org/2000/svg" version="1.1" x="0px" y="0px" width="300" height="300" viewBox="371.9 509.3 300 300" style="enable-background:new 371.9 509.3 300 300;" xml:space="preserve"><style type="text/css">
	.st0{fill:#FFFFFF;}
	.st1{fill:#F1F2F2;}
	.st2{fill:#00AEEF;}
	.st3{fill:#E6E7E8;}
	.st4{fill:#D1D3D4;}
	.st5{fill:#E65565;}
	.st6{fill:#DA2428;}
	.st7{fill:#1C75BC;}
	.st8{fill:#F9C713;}
	.st9{fill:#F7941E;}
	.st10{fill:#804968;}
	.st11{fill:#C0707D;}
	.st12{fill:#414042;}
	.st13{fill:#FFF0A6;}
</style>
<g>
			<g>
				<path class="st7" d="M521.9,787c70.5,0,127.7-57.2,127.7-127.7H394.2C394.2,729.8,451.4,787,521.9,787z" />
				<path d="M521.9,795.3c-75,0-136-61-136-136c0-4.6,3.7-8.3,8.3-8.3h255.3c4.6,0,8.3,3.7,8.3,8.3      C657.9,734.3,596.9,795.3,521.9,795.3z M402.8,667.6c4.3,61.9,56,111,119.1,111s114.8-49.1,119.1-111H402.8z" />
			</g>
			<g>
				<path class="st7" d="M521.9,531.6c-70.5,0-127.7,57.2-127.7,127.7h255.3C649.6,588.8,592.4,531.6,521.9,531.6z" />
				<path d="M649.6,667.6H394.2c-4.6,0-8.3-3.7-8.3-8.3c0-75,61-136,136-136c75,0,136,61,136,136      C657.9,663.9,654.2,667.6,649.6,667.6z M402.8,651h238.1c-4.3-61.9-56-111-119.1-111S407.1,589,402.8,651z" />
			</g>
			<g>
				<path class="st8" d="M623.9,736l-76.7-76.7l76.7-76.7c-7.2-9.6-15.8-18.1-25.3-25.3L521.9,634l-76.7-76.7      c-9.6,7.2-18.1,15.8-25.3,25.3l76.7,76.7L419.8,736c7.2,9.6,15.8,18.1,25.3,25.3l76.7-76.7l76.7,76.7      C608.2,754.1,616.7,745.6,623.9,736z" />
				<path d="M598.6,767.5c-1.6,0-3.1-0.6-4.3-1.8l-72.4-72.4l-72.4,72.4c-2.2,2.2-5.6,2.4-8,0.6c-10-7.6-19-16.5-26.5-26.5      c-1.8-2.4-1.6-5.8,0.6-8l72.4-72.4l-72.4-72.4c-2.2-2.2-2.4-5.6-0.6-8c7.6-10,16.5-19,26.5-26.5c2.4-1.8,5.8-1.6,8,0.6      l72.4,72.4l72.4-72.4c2.2-2.2,5.6-2.4,8-0.6c10,7.6,19,16.5,26.5,26.5c1.8,2.4,1.6,5.8-0.6,8l-72.4,72.4l72.4,72.4      c2.2,2.2,2.4,5.6,0.6,8c-7.6,10-16.5,19-26.5,26.5C601.2,767,599.9,767.5,598.6,767.5z M521.9,678.5c1.6,0,3.1,0.6,4.3,1.8      l72.9,72.9c6.1-5,11.7-10.6,16.7-16.7l-72.9-72.9c-2.4-2.4-2.4-6.2,0-8.6l72.9-72.9c-5-6.1-10.6-11.7-16.7-16.7l-72.9,72.9      c-2.4,2.4-6.2,2.4-8.6,0l-72.9-72.9c-6.1,5-11.7,10.6-16.7,16.7l72.9,72.9c2.4,2.4,2.4,6.2,0,8.6L428,736.5      c5,6.1,10.6,11.7,16.7,16.7l72.9-72.9C518.8,679.1,520.3,678.5,521.9,678.5z" />
			</g>
			<g>
				<g>
					<polygon class="st8" points="521.9,748.8 611.4,659.3 432.4,659.3      " />
					<path d="M521.9,754.9c-1.6,0-3.2-0.6-4.3-1.8l-89.5-89.5c-1.7-1.7-2.3-4.4-1.3-6.7c0.9-2.3,3.2-3.8,5.6-3.8h179       c2.5,0,4.7,1.5,5.6,3.8c0.9,2.3,0.4,4.9-1.3,6.7l-89.5,89.5C525.1,754.3,523.5,754.9,521.9,754.9z M447.1,665.4l74.8,74.8       l74.8-74.8H447.1z" />
				</g>
				<g>
					<polygon class="st8" points="432.4,659.3 611.4,659.3 521.9,569.8      " />
					<path d="M611.4,665.4h-179c-2.5,0-4.7-1.5-5.6-3.8c-0.9-2.3-0.4-4.9,1.3-6.7l89.5-89.5c2.4-2.4,6.2-2.4,8.6,0l89.5,89.5       c1.7,1.7,2.3,4.4,1.3,6.7C616.1,663.9,613.9,665.4,611.4,665.4z M447.1,653.2h149.5l-74.8-74.8L447.1,653.2z" />
				</g>
			</g>
			<g>
				<path class="st0" d="M451.5,590.6c-2.3,0-4.5-0.9-6.1-2.7c-3.1-3.4-2.9-8.7,0.5-11.8c10.8-9.9,23.3-17.5,37-22.6      c4.3-1.6,9.1,0.6,10.7,4.9c1.6,4.3-0.6,9.1-4.9,10.7c-11.7,4.3-22.3,10.8-31.5,19.2C455.6,589.9,453.5,590.6,451.5,590.6z" />
			</g>
			<g>
				<path class="st0" d="M428.6,621c-1.3,0-2.5-0.3-3.7-0.9c-4.1-2.1-5.8-7.1-3.7-11.2c1.3-2.6,2.7-5.1,4.2-7.6      c2.4-3.9,7.5-5.2,11.4-2.8c3.9,2.4,5.2,7.5,2.8,11.4c-1.3,2.1-2.5,4.3-3.6,6.5C434.5,619.3,431.6,621,428.6,621z" />
			</g>
			<g>
				<circle class="st3" cx="521.9" cy="659.3" r="36.1" />
				<path d="M521.9,701.5c-23.3,0-42.2-18.9-42.2-42.2c0-23.3,18.9-42.2,42.2-42.2c23.3,0,42.2,18.9,42.2,42.2      C564.1,682.6,545.2,701.5,521.9,701.5z M521.9,629.3c-16.5,0-30,13.5-30,30c0,16.5,13.5,30,30,30c16.5,0,30-13.5,30-30      C551.9,642.8,538.4,629.3,521.9,629.3z" />
			</g>
			<g>
				<circle class="st4" cx="521.9" cy="659.3" r="17.1" />
				<path d="M521.9,679.7c-11.3,0-20.4-9.2-20.4-20.4s9.2-20.4,20.4-20.4c11.3,0,20.4,9.2,20.4,20.4S533.1,679.7,521.9,679.7z       M521.9,645.5c-7.6,0-13.8,6.2-13.8,13.8c0,7.6,6.2,13.8,13.8,13.8s13.8-6.2,13.8-13.8C535.6,651.7,529.5,645.5,521.9,645.5z" />
			</g>
		</g>
		</svg>