<?xml version='1.0' encoding='utf-8'?>
<svg xmlns="http://www.w3.org/2000/svg" version="1.1" x="0px" y="0px" width="300" height="300" viewBox="20.1 170.7 300 300" style="enable-background:new 20.1 170.7 300 300;" xml:space="preserve"><style type="text/css">
	.st0{fill:#FFFFFF;}
	.st1{fill:#F1F2F2;}
	.st2{fill:#00AEEF;}
	.st3{fill:#E6E7E8;}
	.st4{fill:#D1D3D4;}
	.st5{fill:#E65565;}
	.st6{fill:#DA2428;}
	.st7{fill:#1C75BC;}
	.st8{fill:#F9C713;}
	.st9{fill:#F7941E;}
	.st10{fill:#804968;}
	.st11{fill:#C0707D;}
	.st12{fill:#414042;}
	.st13{fill:#FFF0A6;}
</style>
<g>
			<g>
				<path class="st1" d="M170.1,448.4c70.5,0,127.7-57.2,127.7-127.7H42.5C42.5,391.2,99.6,448.4,170.1,448.4z" />
				<path d="M170.1,456.7c-75,0-136-61-136-136v-8.3h272v8.3C306.1,395.7,245.1,456.7,170.1,456.7z M51.1,329      c4.3,61.9,56,111,119.1,111S284.9,391,289.2,329H51.1z" />
			</g>
			<g>
				<path class="st12" d="M170.1,193c-70.5,0-127.7,57.2-127.7,127.7h255.3C297.8,250.2,240.6,193,170.1,193z" />
				<path d="M306.1,329h-272v-8.3c0-75,61-136,136-136c75,0,136,61,136,136V329z M51.1,312.4h238.1c-4.3-61.9-56-111-119.1-111      S55.4,250.4,51.1,312.4z" />
			</g>
			<g>
				<circle class="st3" cx="170.1" cy="320.7" r="36.1" />
				<path d="M170.1,362.9c-23.3,0-42.2-18.9-42.2-42.2s18.9-42.2,42.2-42.2c23.3,0,42.2,18.9,42.2,42.2S193.4,362.9,170.1,362.9z       M170.1,290.7c-16.5,0-30,13.5-30,30c0,16.5,13.5,30,30,30c16.5,0,30-13.5,30-30C200.1,304.2,186.7,290.7,170.1,290.7z" />
			</g>
			<g>
				<circle class="st4" cx="170.1" cy="320.7" r="17.1" />
				<path d="M170.1,341.1c-11.3,0-20.4-9.2-20.4-20.4c0-11.3,9.2-20.4,20.4-20.4s20.4,9.2,20.4,20.4      C190.5,332,181.4,341.1,170.1,341.1z M170.1,306.9c-7.6,0-13.8,6.2-13.8,13.8c0,7.6,6.2,13.8,13.8,13.8s13.8-6.2,13.8-13.8      C183.9,313.1,177.7,306.9,170.1,306.9z" />
			</g>
			<g>
				<path class="st8" d="M243.5,216.2c-20.8-14.6-46.1-23.2-73.4-23.2c-27.3,0-52.6,8.6-73.4,23.2c-13.8,26.1-24.7,54.7-29.7,104.5      h49.8c0,0,0.7-53.8,11.8-74.4c11.1-8.9,31.8-13.1,41.4-13.1c9.6,0,30.3,4.2,41.4,13.1c11.1,20.5,11.8,74.4,11.8,74.4h49.8      C268.2,270.9,257.3,242.4,243.5,216.2z" />
				<path d="M273.2,326.8h-49.8c-3.3,0-6.1-2.7-6.1-6c-0.2-14.2-2.4-53.9-10.5-70.4c-9.7-7.1-27.6-11-36.6-11s-26.9,3.9-36.6,11      c-8,16.5-10.3,56.2-10.5,70.4c0,3.3-2.8,6-6.1,6H67.1c-1.7,0-3.4-0.7-4.5-2c-1.2-1.3-1.7-3-1.5-4.7      c5.4-53.5,17.8-82.9,30.4-106.7c0.5-0.9,1.1-1.6,1.9-2.1c22.6-15.9,49.2-24.3,76.9-24.3s54.3,8.4,76.9,24.3      c0.8,0.6,1.4,1.3,1.9,2.1c12.6,23.8,25,53.2,30.4,106.7c0.2,1.7-0.4,3.4-1.5,4.7C276.6,326.1,274.9,326.8,273.2,326.8z       M229.3,314.6h37.1c-5-43.6-14.7-69.6-27.6-94.2c-20.3-13.9-44-21.2-68.6-21.2c-24.7,0-48.4,7.3-68.6,21.2      C88.6,245,78.9,271,73.9,314.6h37.1c0.5-15,2.9-53.6,12.4-71.2c0.4-0.7,0.9-1.4,1.6-1.9c12.3-9.8,34.3-14.4,45.3-14.4      c11,0,33,4.6,45.3,14.4c0.6,0.5,1.2,1.1,1.6,1.9C226.4,261,228.8,299.6,229.3,314.6z" />
			</g>
			<g>
				<path class="st0" d="M99.8,252c-2.3,0-4.5-0.9-6.1-2.7c-3.1-3.4-2.9-8.7,0.5-11.8c10.8-9.9,23.3-17.5,37-22.6      c4.3-1.6,9.1,0.6,10.7,4.9c1.6,4.3-0.6,9.1-4.9,10.7c-11.7,4.3-22.3,10.8-31.5,19.2C103.8,251.3,101.8,252,99.8,252z" />
			</g>
			<g>
				<path class="st0" d="M76.8,282.4c-1.3,0-2.5-0.3-3.7-0.9c-4.1-2.1-5.8-7.1-3.7-11.2c1.3-2.6,2.7-5.2,4.2-7.6      c2.4-3.9,7.5-5.2,11.4-2.8c3.9,2.4,5.2,7.5,2.8,11.4c-1.3,2.1-2.5,4.3-3.6,6.5C82.8,280.7,79.8,282.4,76.8,282.4z" />
			</g>
		</g>
		</svg>