<?xml version="1.0" encoding="utf-8"?>
<svg xmlns="http://www.w3.org/2000/svg" xmlns:xlink="http://www.w3.org/1999/xlink"
     viewBox="892.7 416.6 148.0 148.0" width="128" height="128">
<style type="text/css">
	.st0{fill:#181918;}
	.st1{fill:#E42E25;}
	.st2{fill:#E8E8EA;}
	.st3{fill:#F7F7F7;}
	.st4{fill:#BAB6B6;}
	.st5{fill:#51A0D8;}
	.st6{fill:#3E4649;}
	.st7{fill:#138CB2;}
	.st8{fill:#F6978C;}
	.st9{fill:#329646;}
	.st10{fill:#F7EC2E;}
	.st11{fill:#4167B1;}
	.st12{fill:#F47722;}
	.st13{fill:#77712E;}
	.st14{fill:#D5C929;}
	.st15{fill:#F3EB91;}
	.st16{fill:#6D7172;}
</style>
<style type="text/css">
	.st0{fill:#181918;}
	.st1{fill:#E42E25;}
	.st2{fill:#E8E8EA;}
	.st3{fill:#F7F7F7;}
	.st4{fill:#BAB6B6;}
	.st5{fill:#51A0D8;}
	.st6{fill:#3E4649;}
	.st7{fill:#138CB2;}
	.st8{fill:#F6978C;}
	.st9{fill:#329646;}
	.st10{fill:#F7EC2E;}
	.st11{fill:#4167B1;}
	.st12{fill:#F47722;}
	.st13{fill:#77712E;}
	.st14{fill:#D5C929;}
	.st15{fill:#F3EB91;}
	.st16{fill:#6D7172;}
</style>
<g>
	<g>
		<circle class="st0" cx="346.9" cy="490" r="196.1"/>
		<path class="st1" d="M555,468.2c-10.9-105.3-99.9-187.5-208.1-187.5s-197.2,82.1-208.1,187.5H555z"/>
		<path class="st2" d="M138.8,511.8c10.9,105.3,99.9,187.5,208.1,187.5S544.1,617.1,555,511.8H138.8z"/>
		<g>
			<circle class="st0" cx="346.9" cy="490" r="65.9"/>
			<circle class="st3" cx="346.9" cy="490" r="51.5"/>
			<circle class="st4" cx="346.9" cy="490" r="34.7"/>
			<circle class="st3" cx="346.9" cy="490" r="32.2"/>
		</g>
	</g>
	<g>
		<g>
			<circle class="st0" cx="742.9" cy="276.7" r="66.5"/>
			<path class="st5" d="M813.4,269.3c-3.7-35.7-33.9-63.6-70.6-63.6s-66.9,27.9-70.6,63.6H813.4z"/>
			<path class="st2" d="M672.3,284.1c3.7,35.7,33.9,63.6,70.6,63.6s66.9-27.9,70.6-63.6H672.3z"/>
			<g>
				<circle class="st0" cx="742.9" cy="276.7" r="22.4"/>
				<circle class="st3" cx="742.9" cy="276.7" r="17.5"/>
				<circle class="st4" cx="742.9" cy="276.7" r="11.8"/>
				<circle class="st3" cx="742.9" cy="276.7" r="10.9"/>
			</g>
			<g>
				<path class="st1" d="M721.1,249.4c-1.1,1.8-2.2,3.7-3.2,5.5c-1.3,2.4-4.3,3.2-6.7,1.9c-10.3-5.9-19.4-12.3-27.2-18.7
					c-1.7-1.4-1.9-3.9-0.5-5.5c2.8-3.3,5.9-6.6,9.1-9.8c1.6-1.6,4.2-1.5,5.7,0.2c5.9,6.8,13.1,13.6,21.6,20.2
					C721.9,244.5,722.4,247.3,721.1,249.4z"/>
				<path class="st1" d="M764.6,249.4c1.1,1.8,2.2,3.7,3.2,5.5c1.3,2.4,4.3,3.2,6.7,1.9c10.3-5.9,19.4-12.3,27.2-18.7
					c1.7-1.4,1.9-3.9,0.5-5.5c-2.8-3.3-5.9-6.6-9.1-9.8c-1.6-1.6-4.2-1.5-5.7,0.2c-5.9,6.8-13.1,13.6-21.6,20.2
					C763.8,244.5,763.3,247.3,764.6,249.4z"/>
			</g>
		</g>
		<g>
			<circle class="st0" cx="966.7" cy="276.7" r="66.5"/>
			<path class="st6" d="M1037.3,269.3c-3.7-35.7-33.9-63.6-70.6-63.6s-66.9,27.9-70.6,63.6H1037.3z"/>
			<path class="st2" d="M896.1,284.1c3.7,35.7,33.9,63.6,70.6,63.6s66.9-27.9,70.6-63.6H896.1z"/>
			<g>
				<circle class="st0" cx="966.7" cy="276.7" r="22.4"/>
				<circle class="st3" cx="966.7" cy="276.7" r="17.5"/>
				<circle class="st4" cx="966.7" cy="276.7" r="11.8"/>
				<circle class="st3" cx="966.7" cy="276.7" r="10.9"/>
			</g>
			<path class="st1" d="M958.7,249.2v-9.3h8.9l4.4,9.3h5l-4.5-9.6c3.9-0.9,6.8-4.5,6.8-8.6c0-4.9-4-8.9-8.9-8.9h-16.3v2.3v15.5v9.3
				H958.7z M958.7,226.7h11.7c2.4,0,4.3,1.9,4.3,4.3c0,2.4-1.9,4.3-4.3,4.3h-11.7V226.7z"/>
		</g>
		<g>
			<circle class="st0" cx="1190.6" cy="276.7" r="66.5"/>
			<path class="st5" d="M1261.2,269.3c-3.7-35.7-33.9-63.6-70.6-63.6c-36.7,0-66.9,27.9-70.6,63.6H1261.2z"/>
			<path class="st2" d="M1120,284.1c3.7,35.7,33.9,63.6,70.6,63.6c36.7,0,66.9-27.9,70.6-63.6H1120z"/>
			<g>
				<circle class="st0" cx="1190.6" cy="276.7" r="22.4"/>
				<circle class="st3" cx="1190.6" cy="276.7" r="17.5"/>
				<circle class="st4" cx="1190.6" cy="276.7" r="11.8"/>
				<circle class="st3" cx="1190.6" cy="276.7" r="10.9"/>
			</g>
			<g>
				<path class="st1" d="M1122.5,256.7c2.4,0.4,4.9,0.6,7.5,0.6c25.2,0,45.6-20.4,45.6-45.6c0-1.5-0.1-2.9-0.2-4.3
					C1150,212.9,1129.7,232,1122.5,256.7z"/>
				<path class="st1" d="M1205.8,207.4c-0.1,1.4-0.2,2.9-0.2,4.3c0,25.2,20.4,45.6,45.6,45.6c2.5,0,5-0.2,7.5-0.6
					C1251.5,232,1231.2,212.9,1205.8,207.4z"/>
			</g>
			<polygon class="st3" points="1178.7,254.2 1182.8,241 1190.6,253.9 1198.4,241 1202.5,254.2 1207.3,254.2 1199.8,230 
				1190.6,245.1 1181.4,230 1173.9,254.2 			"/>
		</g>
		<g>
			<circle class="st0" cx="742.9" cy="703.3" r="66.5"/>
			<path class="st7" d="M813.4,695.9c-3.7-35.7-33.9-63.6-70.6-63.6s-66.9,27.9-70.6,63.6H813.4z"/>
			<path class="st2" d="M672.3,710.7c3.7,35.7,33.9,63.6,70.6,63.6s66.9-27.9,70.6-63.6H672.3z"/>
			<path class="st1" d="M787.6,677.5l-24.1-24.1l12.7-12.7c-9.9-5.3-21.3-8.3-33.3-8.3s-23.4,3-33.3,8.3l12.7,12.7l-24.1,24.1
				l18.4,18.4h52.5L787.6,677.5z"/>
			<g>
				<circle class="st0" cx="742.9" cy="703.3" r="22.4"/>
				<circle class="st3" cx="742.9" cy="703.3" r="17.5"/>
				<circle class="st4" cx="742.9" cy="703.3" r="11.8"/>
				<circle class="st3" cx="742.9" cy="703.3" r="10.9"/>
			</g>
			<g>
				<rect x="731" y="658.9" class="st8" width="4.9" height="18.9"/>
				<rect x="740.4" y="658.9" class="st8" width="4.9" height="18.9"/>
				<rect x="749.8" y="658.9" class="st8" width="4.9" height="18.9"/>
			</g>
		</g>
		<g>
			<circle class="st0" cx="742.9" cy="490.6" r="66.5"/>
			<path class="st9" d="M813.4,483.2c-3.7-35.7-33.9-63.6-70.6-63.6s-66.9,27.9-70.6,63.6H813.4z"/>
			<path class="st2" d="M672.3,498c3.7,35.7,33.9,63.6,70.6,63.6s66.9-27.9,70.6-63.6H672.3z"/>
			<g>
				<circle class="st0" cx="742.9" cy="490.6" r="22.4"/>
				<circle class="st3" cx="742.9" cy="490.6" r="17.5"/>
				<circle class="st4" cx="742.9" cy="490.6" r="11.8"/>
				<circle class="st3" cx="742.9" cy="490.6" r="10.9"/>
			</g>
			<g>
				<path d="M733.5,456.6l2.9-0.3c0.1,1.2,0.5,2.1,1,2.9c0.5,0.8,1.3,1.4,2.4,1.8c1.1,0.5,2.3,0.7,3.6,0.7c1.2,0,2.2-0.2,3.2-0.5
					c0.9-0.4,1.6-0.8,2-1.5c0.4-0.6,0.7-1.3,0.7-2c0-0.7-0.2-1.4-0.6-1.9c-0.4-0.6-1.1-1-2.1-1.4c-0.6-0.2-2-0.6-4.2-1.1
					c-2.2-0.5-3.7-1-4.6-1.5c-1.1-0.6-2-1.3-2.5-2.2c-0.6-0.9-0.8-1.9-0.8-2.9c0-1.2,0.3-2.3,1-3.3c0.7-1,1.7-1.8,3-2.4
					c1.3-0.5,2.7-0.8,4.3-0.8c1.7,0,3.3,0.3,4.6,0.8c1.3,0.6,2.4,1.4,3.1,2.5c0.7,1.1,1.1,2.3,1.2,3.7l-3,0.2
					c-0.2-1.5-0.7-2.6-1.6-3.4c-0.9-0.8-2.3-1.1-4.1-1.1c-1.9,0-3.3,0.3-4.1,1c-0.9,0.7-1.3,1.5-1.3,2.5c0,0.8,0.3,1.5,0.9,2.1
					c0.6,0.5,2.2,1.1,4.7,1.7c2.5,0.6,4.3,1.1,5.2,1.5c1.4,0.6,2.4,1.4,3,2.4c0.7,1,1,2.1,1,3.4c0,1.3-0.4,2.4-1.1,3.5
					c-0.7,1.1-1.8,2-3.1,2.6c-1.3,0.6-2.9,0.9-4.5,0.9c-2.1,0-3.9-0.3-5.4-0.9c-1.4-0.6-2.6-1.6-3.4-2.8
					C734,459.5,733.5,458.1,733.5,456.6z"/>
			</g>
		</g>
		<g>
			<circle class="st0" cx="966.7" cy="490.6" r="66.5"/>
			<path class="st1" d="M1037.3,483.2c-3.7-35.7-33.9-63.6-70.6-63.6s-66.9,27.9-70.6,63.6H1037.3z"/>
			<path class="st2" d="M896.1,498c3.7,35.7,33.9,63.6,70.6,63.6s66.9-27.9,70.6-63.6H896.1z"/>
			<g>
				<circle class="st0" cx="966.7" cy="490.6" r="22.4"/>
				<circle class="st3" cx="966.7" cy="490.6" r="17.5"/>
				<circle class="st4" cx="966.7" cy="490.6" r="11.8"/>
				<circle class="st3" cx="966.7" cy="490.6" r="10.9"/>
			</g>
			<polygon class="st10" points="969.9,443.8 986.8,436.2 981.8,425 954.5,437.3 959.5,448.5 942.6,456.1 947.6,467.3 974.9,455 			
				"/>
			<g>
				<g>
					<path class="st10" d="M925.1,498h-29c1.5,14.9,7.7,28.4,17,39.1C919.8,525.4,924,512.1,925.1,498z"/>
					<path class="st10" d="M896.1,483.2h29c-1.1-14.1-5.3-27.4-12-39.1C903.8,454.8,897.7,468.3,896.1,483.2z"/>
					<path class="st10" d="M1008.3,483.2h29c-1.5-14.9-7.7-28.4-17-39.1C1013.7,455.8,1009.4,469,1008.3,483.2z"/>
					<path class="st10" d="M1037.3,498h-29c1.1,14.1,5.3,27.4,12,39.1C1029.6,526.4,1035.8,512.8,1037.3,498z"/>
				</g>
			</g>
		</g>
		<g>
			<circle class="st0" cx="1190.6" cy="703.3" r="66.5"/>
			<path class="st11" d="M1261.2,695.9c-3.7-35.7-33.9-63.6-70.6-63.6c-36.7,0-66.9,27.9-70.6,63.6H1261.2z"/>
			<path class="st11" d="M1120,710.7c3.7,35.7,33.9,63.6,70.6,63.6c36.7,0,66.9-27.9,70.6-63.6H1120z"/>
			<g>
				<path class="st10" d="M1223.4,724.7l14-14h-93.7l14,14l-22.7,22.7c3.4,4.2,7.2,8.1,11.4,11.4l22.7-22.7l21.4,21.4l21.4-21.4
					l22.7,22.7c4.2-3.4,8-7.2,11.4-11.4L1223.4,724.7z"/>
				<path class="st10" d="M1234.8,647.7l-22.7,22.7l-21.4-21.4l-21.4,21.4l-22.7-22.7c-4.2,3.4-8,7.2-11.4,11.4l22.7,22.7l-14,14
					h93.7l-14-14l22.7-22.7C1242.8,654.9,1239,651.1,1234.8,647.7z"/>
			</g>
			<g>
				<circle class="st0" cx="1190.6" cy="703.3" r="22.4"/>
				<circle class="st3" cx="1190.6" cy="703.3" r="17.5"/>
				<circle class="st4" cx="1190.6" cy="703.3" r="11.8"/>
				<circle class="st3" cx="1190.6" cy="703.3" r="10.9"/>
			</g>
		</g>
		<g>
			<circle class="st0" cx="1190.6" cy="490.6" r="66.5"/>
			<path class="st12" d="M1261.2,483.2c-3.7-35.7-33.9-63.6-70.6-63.6c-36.7,0-66.9,27.9-70.6,63.6H1261.2z"/>
			<path class="st2" d="M1120,498c3.7,35.7,33.9,63.6,70.6,63.6c36.7,0,66.9-27.9,70.6-63.6H1120z"/>
			<g>
				<circle class="st0" cx="1190.6" cy="490.6" r="22.4"/>
				<circle class="st3" cx="1190.6" cy="490.6" r="17.5"/>
				<circle class="st4" cx="1190.6" cy="490.6" r="11.8"/>
				<circle class="st3" cx="1190.6" cy="490.6" r="10.9"/>
			</g>
			<g>
				<circle class="st10" cx="1190.6" cy="448.5" r="6.1"/>
				<g>
					<path class="st10" d="M1182.5,444.3c1.5-2.9,4.6-4.9,8.1-4.9s6.5,2,8.1,4.9h3.7c-1.7-4.8-6.4-8.3-11.8-8.3s-10,3.5-11.8,8.3
						H1182.5z"/>
					<path class="st10" d="M1198.7,452.7c-1.5,2.9-4.6,4.9-8.1,4.9s-6.5-2-8.1-4.9h-3.7c1.7,4.8,6.4,8.3,11.8,8.3s10-3.5,11.8-8.3
						H1198.7z"/>
				</g>
			</g>
		</g>
		<g>
			<circle class="st10" cx="966.7" cy="703.3" r="66.5"/>
			<g>
				<circle class="st10" cx="966.7" cy="703.3" r="22.4"/>
				<circle class="st13" cx="966.7" cy="703.3" r="18.7"/>
				<circle class="st14" cx="966.7" cy="703.3" r="17.5"/>
				<circle class="st13" cx="966.7" cy="703.3" r="11.8"/>
				<circle class="st15" cx="966.7" cy="703.3" r="10.9"/>
			</g>
			<path class="st6" d="M966.7,680.9c9.8,0,18.1,6.3,21.1,15h49.5c-3.7-35.7-33.9-63.6-70.6-63.6s-66.9,27.9-70.6,63.6h49.5
				C948.7,687.2,957,680.9,966.7,680.9z"/>
			<path class="st16" d="M990.7,691.6c-4.4-9.1-13.7-15-24-15s-19.6,5.9-24,15h-46c-0.2,1.4-0.4,2.9-0.6,4.3h49.5
				c3.1-8.7,11.3-15,21.1-15c9.8,0,18.1,6.3,21.1,15h49.5c-0.2-1.5-0.4-2.9-0.6-4.3H990.7z"/>
			<path class="st6" d="M966.7,725.7c-9.8,0-18.1-6.3-21.1-15h-49.5c3.7,35.7,33.9,63.6,70.6,63.6s66.9-27.9,70.6-63.6h-49.5
				C984.8,719.4,976.5,725.7,966.7,725.7z"/>
			<path class="st16" d="M942.7,715c4.4,9.1,13.7,15,24,15s19.6-5.9,24-15h46c0.2-1.4,0.4-2.9,0.6-4.3h-49.5
				c-3.1,8.7-11.3,15-21.1,15c-9.8,0-18.1-6.3-21.1-15h-49.5c0.2,1.5,0.4,2.9,0.6,4.3H942.7z"/>
			<path class="st10" d="M917.4,652.3c-3.5,3.4-6.7,7.2-9.5,11.3c39,4.1,78.6,4.1,117.6,0c-2.8-4.1-6-7.9-9.5-11.3
				C983.3,655.2,950.2,655.2,917.4,652.3z"/>
			<path class="st1" d="M915.6,654.1c-2.3,2.4-4.5,5-6.4,7.7c38.2,3.9,76.9,3.9,115.1,0c-2-2.7-4.1-5.3-6.4-7.7
				C983.9,657.2,949.6,657.2,915.6,654.1z"/>
		</g>
	</g>
</g>
</svg>