<svg xmlns="http://www.w3.org/2000/svg" viewBox="0 0 200 130" width="200" height="130">

  <!-- full aluminum shroud streamlined -->
  <path d="M12,68 Q22,36 50,32 L178,32 L182,68 L178,104 L50,104 Q22,100 12,68 Z" fill="#D8D8D8"/>
  <!-- NYC gray stripe -->
  <path d="M50,52 L178,52 L178,84 L50,84 Q30,80 18,68 Q30,56 50,52 Z" fill="#A8A8A8"/>
  <!-- black nose accent -->
  <path d="M12,68 Q18,52 34,48 L34,88 Q18,84 12,68 Z" fill="#111" opacity="0.5"/>
  <!-- cab window -->
  <rect x="148" y="38" width="18" height="15" rx="2" fill="#87CEEB" opacity="0.7"/>
  <!-- Century lettering band -->
  <rect x="50" y="62" width="128" height="12" fill="#888" opacity="0.4"/>
  <!-- headlight -->
  <circle cx="15" cy="68" r="8" fill="#FFE040" opacity="0.9"/>
  <!-- 4-6-4 -->
  <circle cx="44" cy="108" r="8" fill="#888" stroke="#C0C0C0" stroke-width="2"/>
<line x1="52.0" y1="108.0" x2="36.0" y2="108.0" stroke="#C0C0C0" stroke-width="1.2"/>
<line x1="49.7" y1="113.7" x2="38.3" y2="102.3" stroke="#C0C0C0" stroke-width="1.2"/>
<line x1="44.0" y1="116.0" x2="44.0" y2="100.0" stroke="#C0C0C0" stroke-width="1.2"/>
<line x1="38.3" y1="113.7" x2="49.7" y2="102.3" stroke="#C0C0C0" stroke-width="1.2"/>
<circle cx="44" cy="108" r="1.8" fill="#C0C0C0"/>

  <circle cx="62" cy="108" r="8" fill="#888" stroke="#C0C0C0" stroke-width="2"/>
<line x1="70.0" y1="108.0" x2="54.0" y2="108.0" stroke="#C0C0C0" stroke-width="1.2"/>
<line x1="67.7" y1="113.7" x2="56.3" y2="102.3" stroke="#C0C0C0" stroke-width="1.2"/>
<line x1="62.0" y1="116.0" x2="62.0" y2="100.0" stroke="#C0C0C0" stroke-width="1.2"/>
<line x1="56.3" y1="113.7" x2="67.7" y2="102.3" stroke="#C0C0C0" stroke-width="1.2"/>
<circle cx="62" cy="108" r="1.8" fill="#C0C0C0"/>

  <circle cx="86" cy="108" r="13" fill="#888" stroke="#C0C0C0" stroke-width="2"/>
<line x1="99.0" y1="108.0" x2="73.0" y2="108.0" stroke="#C0C0C0" stroke-width="1.2"/>
<line x1="97.3" y1="114.5" x2="74.7" y2="101.5" stroke="#C0C0C0" stroke-width="1.2"/>
<line x1="92.5" y1="119.3" x2="79.5" y2="96.7" stroke="#C0C0C0" stroke-width="1.2"/>
<line x1="86.0" y1="121.0" x2="86.0" y2="95.0" stroke="#C0C0C0" stroke-width="1.2"/>
<line x1="79.5" y1="119.3" x2="92.5" y2="96.7" stroke="#C0C0C0" stroke-width="1.2"/>
<line x1="74.7" y1="114.5" x2="97.3" y2="101.5" stroke="#C0C0C0" stroke-width="1.2"/>
<circle cx="86" cy="108" r="2.9" fill="#C0C0C0"/>

  <circle cx="109" cy="108" r="13" fill="#888" stroke="#C0C0C0" stroke-width="2"/>
<line x1="122.0" y1="108.0" x2="96.0" y2="108.0" stroke="#C0C0C0" stroke-width="1.2"/>
<line x1="120.3" y1="114.5" x2="97.7" y2="101.5" stroke="#C0C0C0" stroke-width="1.2"/>
<line x1="115.5" y1="119.3" x2="102.5" y2="96.7" stroke="#C0C0C0" stroke-width="1.2"/>
<line x1="109.0" y1="121.0" x2="109.0" y2="95.0" stroke="#C0C0C0" stroke-width="1.2"/>
<line x1="102.5" y1="119.3" x2="115.5" y2="96.7" stroke="#C0C0C0" stroke-width="1.2"/>
<line x1="97.7" y1="114.5" x2="120.3" y2="101.5" stroke="#C0C0C0" stroke-width="1.2"/>
<circle cx="109" cy="108" r="2.9" fill="#C0C0C0"/>

  <circle cx="132" cy="108" r="13" fill="#888" stroke="#C0C0C0" stroke-width="2"/>
<line x1="145.0" y1="108.0" x2="119.0" y2="108.0" stroke="#C0C0C0" stroke-width="1.2"/>
<line x1="143.3" y1="114.5" x2="120.7" y2="101.5" stroke="#C0C0C0" stroke-width="1.2"/>
<line x1="138.5" y1="119.3" x2="125.5" y2="96.7" stroke="#C0C0C0" stroke-width="1.2"/>
<line x1="132.0" y1="121.0" x2="132.0" y2="95.0" stroke="#C0C0C0" stroke-width="1.2"/>
<line x1="125.5" y1="119.3" x2="138.5" y2="96.7" stroke="#C0C0C0" stroke-width="1.2"/>
<line x1="120.7" y1="114.5" x2="143.3" y2="101.5" stroke="#C0C0C0" stroke-width="1.2"/>
<circle cx="132" cy="108" r="2.9" fill="#C0C0C0"/>

  <circle cx="158" cy="108" r="9" fill="#888" stroke="#C0C0C0" stroke-width="2"/>
<line x1="167.0" y1="108.0" x2="149.0" y2="108.0" stroke="#C0C0C0" stroke-width="1.2"/>
<line x1="164.4" y1="114.4" x2="151.6" y2="101.6" stroke="#C0C0C0" stroke-width="1.2"/>
<line x1="158.0" y1="117.0" x2="158.0" y2="99.0" stroke="#C0C0C0" stroke-width="1.2"/>
<line x1="151.6" y1="114.4" x2="164.4" y2="101.6" stroke="#C0C0C0" stroke-width="1.2"/>
<circle cx="158" cy="108" r="2.0" fill="#C0C0C0"/>

  <circle cx="175" cy="108" r="9" fill="#888" stroke="#C0C0C0" stroke-width="2"/>
<line x1="184.0" y1="108.0" x2="166.0" y2="108.0" stroke="#C0C0C0" stroke-width="1.2"/>
<line x1="181.4" y1="114.4" x2="168.6" y2="101.6" stroke="#C0C0C0" stroke-width="1.2"/>
<line x1="175.0" y1="117.0" x2="175.0" y2="99.0" stroke="#C0C0C0" stroke-width="1.2"/>
<line x1="168.6" y1="114.4" x2="181.4" y2="101.6" stroke="#C0C0C0" stroke-width="1.2"/>
<circle cx="175" cy="108" r="2.0" fill="#C0C0C0"/>

  <line x1="10" y1="112" x2="196" y2="112" stroke="#888" stroke-width="2.5"/>


  <text x="100" y="126" font-family="Arial,sans-serif" font-size="7" fill="#555" text-anchor="middle">20th Century Limited · 1938</text>
</svg>