<svg xmlns="http://www.w3.org/2000/svg" viewBox="0 0 200 130" width="200" height="130">

  <!-- Coradia: regional EMU, blue/silver -->
  <path d="M10,68 Q16,48 30,44 L185,44 L188,68 L185,92 L30,92 Q16,88 10,68 Z" fill="#003399"/>
  <rect x="30" y="44" width="158" height="48" rx="0" fill="#003399"/>
  <!-- silver upper stripe -->
  <rect x="30" y="44" width="158" height="16" rx="0" fill="#C0C0C0"/>
  <path d="M10,68 Q13,56 22,52 L26,52 L26,58 Q16,60 12,68 Z" fill="#C0C0C0"/>
  <!-- windshield -->
  <rect x="14" y="50" width="22" height="16" rx="2" fill="#87CEEB" opacity="0.8"/>
  <!-- windows -->
  <rect x="38" y="58" width="10" height="12" rx="1" fill="#87CEEB" opacity="0.6"/>
  <rect x="54" y="58" width="10" height="12" rx="1" fill="#87CEEB" opacity="0.6"/>
  <rect x="70" y="58" width="10" height="12" rx="1" fill="#87CEEB" opacity="0.6"/>
  <rect x="86" y="58" width="10" height="12" rx="1" fill="#87CEEB" opacity="0.6"/>
  <!-- cab end -->
  <rect x="152" y="44" width="36" height="48" rx="3" fill="#002288"/>
  <rect x="156" y="48" width="16" height="14" rx="2" fill="#87CEEB" opacity="0.7"/>
  <circle cx="30" cy="100" r="7" fill="#002288" stroke="#C0C0C0" stroke-width="2"/>
<line x1="37.0" y1="100.0" x2="23.0" y2="100.0" stroke="#C0C0C0" stroke-width="1.2"/>
<line x1="34.9" y1="104.9" x2="25.1" y2="95.1" stroke="#C0C0C0" stroke-width="1.2"/>
<line x1="30.0" y1="107.0" x2="30.0" y2="93.0" stroke="#C0C0C0" stroke-width="1.2"/>
<line x1="25.1" y1="104.9" x2="34.9" y2="95.1" stroke="#C0C0C0" stroke-width="1.2"/>
<circle cx="30" cy="100" r="1.5" fill="#C0C0C0"/>

  <circle cx="54" cy="100" r="7" fill="#002288" stroke="#C0C0C0" stroke-width="2"/>
<line x1="61.0" y1="100.0" x2="47.0" y2="100.0" stroke="#C0C0C0" stroke-width="1.2"/>
<line x1="58.9" y1="104.9" x2="49.1" y2="95.1" stroke="#C0C0C0" stroke-width="1.2"/>
<line x1="54.0" y1="107.0" x2="54.0" y2="93.0" stroke="#C0C0C0" stroke-width="1.2"/>
<line x1="49.1" y1="104.9" x2="58.9" y2="95.1" stroke="#C0C0C0" stroke-width="1.2"/>
<circle cx="54" cy="100" r="1.5" fill="#C0C0C0"/>

  <circle cx="100" cy="100" r="7" fill="#002288" stroke="#C0C0C0" stroke-width="2"/>
<line x1="107.0" y1="100.0" x2="93.0" y2="100.0" stroke="#C0C0C0" stroke-width="1.2"/>
<line x1="104.9" y1="104.9" x2="95.1" y2="95.1" stroke="#C0C0C0" stroke-width="1.2"/>
<line x1="100.0" y1="107.0" x2="100.0" y2="93.0" stroke="#C0C0C0" stroke-width="1.2"/>
<line x1="95.1" y1="104.9" x2="104.9" y2="95.1" stroke="#C0C0C0" stroke-width="1.2"/>
<circle cx="100" cy="100" r="1.5" fill="#C0C0C0"/>

  <circle cx="140" cy="100" r="7" fill="#002288" stroke="#C0C0C0" stroke-width="2"/>
<line x1="147.0" y1="100.0" x2="133.0" y2="100.0" stroke="#C0C0C0" stroke-width="1.2"/>
<line x1="144.9" y1="104.9" x2="135.1" y2="95.1" stroke="#C0C0C0" stroke-width="1.2"/>
<line x1="140.0" y1="107.0" x2="140.0" y2="93.0" stroke="#C0C0C0" stroke-width="1.2"/>
<line x1="135.1" y1="104.9" x2="144.9" y2="95.1" stroke="#C0C0C0" stroke-width="1.2"/>
<circle cx="140" cy="100" r="1.5" fill="#C0C0C0"/>

  <circle cx="166" cy="100" r="7" fill="#002288" stroke="#C0C0C0" stroke-width="2"/>
<line x1="173.0" y1="100.0" x2="159.0" y2="100.0" stroke="#C0C0C0" stroke-width="1.2"/>
<line x1="170.9" y1="104.9" x2="161.1" y2="95.1" stroke="#C0C0C0" stroke-width="1.2"/>
<line x1="166.0" y1="107.0" x2="166.0" y2="93.0" stroke="#C0C0C0" stroke-width="1.2"/>
<line x1="161.1" y1="104.9" x2="170.9" y2="95.1" stroke="#C0C0C0" stroke-width="1.2"/>
<circle cx="166" cy="100" r="1.5" fill="#C0C0C0"/>

  <line x1="5" y1="112" x2="198" y2="112" stroke="#888" stroke-width="2.5"/>


  <text x="100" y="126" font-family="Arial,sans-serif" font-size="7" fill="#555" text-anchor="middle">Alstom Coradia · 2000</text>
</svg>