<svg xmlns="http://www.w3.org/2000/svg" viewBox="0 0 200 130" width="200" height="130">

  <path d="M10,68 Q18,40 40,36 L185,36 L188,68 L185,100 L40,100 Q18,96 10,68 Z" fill="#003399"/>
  <!-- Alstom Prima distinctive angular headlight arrangement -->
  <rect x="14" y="48" width="22" height="12" rx="2" fill="#FFE040" opacity="0.8"/>
  <rect x="14" y="64" width="22" height="12" rx="2" fill="#FFE040" opacity="0.8"/>
  <!-- silver band -->
  <rect x="36" y="58" width="152" height="20" fill="#C0C0C0"/>
  <path d="M10,68 Q14,62 26,60 L26,68 Q16,68 12,68 Z" fill="#C0C0C0"/>
  <rect x="152" y="36" width="36" height="64" rx="4" fill="#002288"/>
  <rect x="155" y="40" width="18" height="16" rx="2" fill="#87CEEB" opacity="0.7"/>
  <!-- pantograph -->
  <line x1="90" y1="36" x2="86" y2="18" stroke="#888" stroke-width="1.5"/>
  <line x1="108" y1="36" x2="112" y2="18" stroke="#888" stroke-width="1.5"/>
  <line x1="84" y1="18" x2="114" y2="18" stroke="#aaa" stroke-width="2.5"/>
  <circle cx="28" cy="108" r="9" fill="#002288" stroke="#C0C0C0" stroke-width="2"/>
<line x1="37.0" y1="108.0" x2="19.0" y2="108.0" stroke="#C0C0C0" stroke-width="1.2"/>
<line x1="34.4" y1="114.4" x2="21.6" y2="101.6" stroke="#C0C0C0" stroke-width="1.2"/>
<line x1="28.0" y1="117.0" x2="28.0" y2="99.0" stroke="#C0C0C0" stroke-width="1.2"/>
<line x1="21.6" y1="114.4" x2="34.4" y2="101.6" stroke="#C0C0C0" stroke-width="1.2"/>
<circle cx="28" cy="108" r="2.0" fill="#C0C0C0"/>

  <circle cx="54" cy="108" r="9" fill="#002288" stroke="#C0C0C0" stroke-width="2"/>
<line x1="63.0" y1="108.0" x2="45.0" y2="108.0" stroke="#C0C0C0" stroke-width="1.2"/>
<line x1="60.4" y1="114.4" x2="47.6" y2="101.6" stroke="#C0C0C0" stroke-width="1.2"/>
<line x1="54.0" y1="117.0" x2="54.0" y2="99.0" stroke="#C0C0C0" stroke-width="1.2"/>
<line x1="47.6" y1="114.4" x2="60.4" y2="101.6" stroke="#C0C0C0" stroke-width="1.2"/>
<circle cx="54" cy="108" r="2.0" fill="#C0C0C0"/>

  <circle cx="130" cy="108" r="9" fill="#002288" stroke="#C0C0C0" stroke-width="2"/>
<line x1="139.0" y1="108.0" x2="121.0" y2="108.0" stroke="#C0C0C0" stroke-width="1.2"/>
<line x1="136.4" y1="114.4" x2="123.6" y2="101.6" stroke="#C0C0C0" stroke-width="1.2"/>
<line x1="130.0" y1="117.0" x2="130.0" y2="99.0" stroke="#C0C0C0" stroke-width="1.2"/>
<line x1="123.6" y1="114.4" x2="136.4" y2="101.6" stroke="#C0C0C0" stroke-width="1.2"/>
<circle cx="130" cy="108" r="2.0" fill="#C0C0C0"/>

  <circle cx="158" cy="108" r="9" fill="#002288" stroke="#C0C0C0" stroke-width="2"/>
<line x1="167.0" y1="108.0" x2="149.0" y2="108.0" stroke="#C0C0C0" stroke-width="1.2"/>
<line x1="164.4" y1="114.4" x2="151.6" y2="101.6" stroke="#C0C0C0" stroke-width="1.2"/>
<line x1="158.0" y1="117.0" x2="158.0" y2="99.0" stroke="#C0C0C0" stroke-width="1.2"/>
<line x1="151.6" y1="114.4" x2="164.4" y2="101.6" stroke="#C0C0C0" stroke-width="1.2"/>
<circle cx="158" cy="108" r="2.0" fill="#C0C0C0"/>

  <line x1="5" y1="112" x2="198" y2="112" stroke="#888" stroke-width="2.5"/>


  <text x="100" y="126" font-family="Arial,sans-serif" font-size="7" fill="#555" text-anchor="middle">Alstom Prima II · 2004</text>
</svg>