<svg xmlns="http://www.w3.org/2000/svg" viewBox="0 0 200 130" width="200" height="130">

  <!-- elegant long boiler -->
  <rect x="18" y="54" width="145" height="30" rx="10" fill="#111"/>
  <rect x="26" y="60" width="100" height="19" rx="8" fill="#1a1a1a"/>
  <!-- slender elegant chimney -->
  <rect x="30" y="20" width="11" height="36" rx="4" fill="#0d0d0d"/>
  <rect x="26" y="16" width="19" height="7" rx="3" fill="#333"/>
  <circle cx="22" cy="67" r="14" fill="#0d0d0d"/>
  <ellipse cx="105" cy="56" rx="12" ry="8" fill="#0d0d0d"/>
  <rect x="148" y="47" width="35" height="37" rx="4" fill="#0d0d0d"/>
  <rect x="151" y="51" width="13" height="13" rx="2" fill="#87CEEB" opacity="0.6"/>
  <!-- 2+2+1 = 4-4-2 -->
  <circle cx="36" cy="100" r="7" fill="#111" stroke="#888" stroke-width="2"/>
<line x1="43.0" y1="100.0" x2="29.0" y2="100.0" stroke="#888" stroke-width="1.2"/>
<line x1="40.9" y1="104.9" x2="31.1" y2="95.1" stroke="#888" stroke-width="1.2"/>
<line x1="36.0" y1="107.0" x2="36.0" y2="93.0" stroke="#888" stroke-width="1.2"/>
<line x1="31.1" y1="104.9" x2="40.9" y2="95.1" stroke="#888" stroke-width="1.2"/>
<circle cx="36" cy="100" r="1.5" fill="#888"/>

  <circle cx="55" cy="100" r="7" fill="#111" stroke="#888" stroke-width="2"/>
<line x1="62.0" y1="100.0" x2="48.0" y2="100.0" stroke="#888" stroke-width="1.2"/>
<line x1="59.9" y1="104.9" x2="50.1" y2="95.1" stroke="#888" stroke-width="1.2"/>
<line x1="55.0" y1="107.0" x2="55.0" y2="93.0" stroke="#888" stroke-width="1.2"/>
<line x1="50.1" y1="104.9" x2="59.9" y2="95.1" stroke="#888" stroke-width="1.2"/>
<circle cx="55" cy="100" r="1.5" fill="#888"/>

  <circle cx="82" cy="100" r="13" fill="#111" stroke="#888" stroke-width="2"/>
<line x1="95.0" y1="100.0" x2="69.0" y2="100.0" stroke="#888" stroke-width="1.2"/>
<line x1="93.3" y1="106.5" x2="70.7" y2="93.5" stroke="#888" stroke-width="1.2"/>
<line x1="88.5" y1="111.3" x2="75.5" y2="88.7" stroke="#888" stroke-width="1.2"/>
<line x1="82.0" y1="113.0" x2="82.0" y2="87.0" stroke="#888" stroke-width="1.2"/>
<line x1="75.5" y1="111.3" x2="88.5" y2="88.7" stroke="#888" stroke-width="1.2"/>
<line x1="70.7" y1="106.5" x2="93.3" y2="93.5" stroke="#888" stroke-width="1.2"/>
<circle cx="82" cy="100" r="2.9" fill="#888"/>

  <circle cx="108" cy="100" r="13" fill="#111" stroke="#888" stroke-width="2"/>
<line x1="121.0" y1="100.0" x2="95.0" y2="100.0" stroke="#888" stroke-width="1.2"/>
<line x1="119.3" y1="106.5" x2="96.7" y2="93.5" stroke="#888" stroke-width="1.2"/>
<line x1="114.5" y1="111.3" x2="101.5" y2="88.7" stroke="#888" stroke-width="1.2"/>
<line x1="108.0" y1="113.0" x2="108.0" y2="87.0" stroke="#888" stroke-width="1.2"/>
<line x1="101.5" y1="111.3" x2="114.5" y2="88.7" stroke="#888" stroke-width="1.2"/>
<line x1="96.7" y1="106.5" x2="119.3" y2="93.5" stroke="#888" stroke-width="1.2"/>
<circle cx="108" cy="100" r="2.9" fill="#888"/>

  <circle cx="150" cy="100" r="9" fill="#111" stroke="#888" stroke-width="2"/>
<line x1="159.0" y1="100.0" x2="141.0" y2="100.0" stroke="#888" stroke-width="1.2"/>
<line x1="156.4" y1="106.4" x2="143.6" y2="93.6" stroke="#888" stroke-width="1.2"/>
<line x1="150.0" y1="109.0" x2="150.0" y2="91.0" stroke="#888" stroke-width="1.2"/>
<line x1="143.6" y1="106.4" x2="156.4" y2="93.6" stroke="#888" stroke-width="1.2"/>
<circle cx="150" cy="100" r="2.0" fill="#888"/>

  <rect x="82" y="98" width="26" height="4" rx="2" fill="#555" opacity="0.8"/>
  <line x1="10" y1="112" x2="192" y2="112" stroke="#888" stroke-width="2.5"/>


  <text x="100" y="126" font-family="Arial,sans-serif" font-size="7" fill="#555" text-anchor="middle">Atlantic 4-4-2 · 1900</text>
</svg>