<svg xmlns="http://www.w3.org/2000/svg" viewBox="0 0 195 105" width="195" height="105">
  <ellipse cx="36" cy="10" rx="9" ry="5" fill="#AAA" opacity="0.5"/>
  <rect x="28" y="12" width="16" height="28" rx="2" fill="#555"/>
  <path d="M24,10 Q36,4 48,10 Q36,8 24,10Z" fill="#333"/>
  <rect x="36" y="30" width="100" height="32" rx="9" fill="#2A2A1A"/>
  <ellipse cx="95" cy="28" rx="13" ry="8" fill="#2A2A1A"/>
  <rect x="130" y="20" width="44" height="42" rx="3" fill="#7A7A3A"/>
  <rect x="127" y="14" width="50" height="8" rx="2" fill="#2A2A1A"/>
  <rect x="136" y="25" width="13" height="10" rx="2" fill="#87CEEB" opacity="0.7"/>
  <rect x="154" y="25" width="13" height="10" rx="2" fill="#87CEEB" opacity="0.7"/>
  <rect x="30" y="60" width="144" height="7" rx="2" fill="#7A7A3A"/>
  <path d="M30,60 L8,70 L8,75 L30,68Z" fill="#2A2A1A"/>
  <line x1="10" y1="66" x2="30" y2="61" stroke="#7A7A3A" stroke-width="1.2"/>
  <line x1="14" y1="69" x2="30" y2="64" stroke="#7A7A3A" stroke-width="1.2"/>
  <line x1="18" y1="72" x2="30" y2="68" stroke="#7A7A3A" stroke-width="1.2"/>
  <circle cx="28" cy="52" r="5" fill="#FFE040" opacity="0.9"/>
  <circle cx="62" cy="82" r="16" fill="#14140A" stroke="#7A7A3A" stroke-width="2.5"/>
  <line x1="78.0" y1="82.0" x2="46.0" y2="82.0" stroke="#7A7A3A" stroke-width="1.2"/>
  <line x1="76.8" y1="88.1" x2="47.2" y2="75.9" stroke="#7A7A3A" stroke-width="1.2"/>
  <line x1="73.3" y1="93.3" x2="50.7" y2="70.7" stroke="#7A7A3A" stroke-width="1.2"/>
  <line x1="68.1" y1="96.8" x2="55.9" y2="67.2" stroke="#7A7A3A" stroke-width="1.2"/>
  <line x1="62.0" y1="98.0" x2="62.0" y2="66.0" stroke="#7A7A3A" stroke-width="1.2"/>
  <line x1="55.9" y1="96.8" x2="68.1" y2="67.2" stroke="#7A7A3A" stroke-width="1.2"/>
  <line x1="50.7" y1="93.3" x2="73.3" y2="70.7" stroke="#7A7A3A" stroke-width="1.2"/>
  <line x1="47.2" y1="88.1" x2="76.8" y2="75.9" stroke="#7A7A3A" stroke-width="1.2"/>
  <circle cx="62" cy="82" r="3.5" fill="#7A7A3A"/>
  <circle cx="96" cy="82" r="16" fill="#14140A" stroke="#7A7A3A" stroke-width="2.5"/>
  <line x1="112.0" y1="82.0" x2="80.0" y2="82.0" stroke="#7A7A3A" stroke-width="1.2"/>
  <line x1="110.8" y1="88.1" x2="81.2" y2="75.9" stroke="#7A7A3A" stroke-width="1.2"/>
  <line x1="107.3" y1="93.3" x2="84.7" y2="70.7" stroke="#7A7A3A" stroke-width="1.2"/>
  <line x1="102.1" y1="96.8" x2="89.9" y2="67.2" stroke="#7A7A3A" stroke-width="1.2"/>
  <line x1="96.0" y1="98.0" x2="96.0" y2="66.0" stroke="#7A7A3A" stroke-width="1.2"/>
  <line x1="89.9" y1="96.8" x2="102.1" y2="67.2" stroke="#7A7A3A" stroke-width="1.2"/>
  <line x1="84.7" y1="93.3" x2="107.3" y2="70.7" stroke="#7A7A3A" stroke-width="1.2"/>
  <line x1="81.2" y1="88.1" x2="110.8" y2="75.9" stroke="#7A7A3A" stroke-width="1.2"/>
  <circle cx="96" cy="82" r="3.5" fill="#7A7A3A"/>
  <circle cx="130" cy="82" r="16" fill="#14140A" stroke="#7A7A3A" stroke-width="2.5"/>
  <line x1="146.0" y1="82.0" x2="114.0" y2="82.0" stroke="#7A7A3A" stroke-width="1.2"/>
  <line x1="144.8" y1="88.1" x2="115.2" y2="75.9" stroke="#7A7A3A" stroke-width="1.2"/>
  <line x1="141.3" y1="93.3" x2="118.7" y2="70.7" stroke="#7A7A3A" stroke-width="1.2"/>
  <line x1="136.1" y1="96.8" x2="123.9" y2="67.2" stroke="#7A7A3A" stroke-width="1.2"/>
  <line x1="130.0" y1="98.0" x2="130.0" y2="66.0" stroke="#7A7A3A" stroke-width="1.2"/>
  <line x1="123.9" y1="96.8" x2="136.1" y2="67.2" stroke="#7A7A3A" stroke-width="1.2"/>
  <line x1="118.7" y1="93.3" x2="141.3" y2="70.7" stroke="#7A7A3A" stroke-width="1.2"/>
  <line x1="115.2" y1="88.1" x2="144.8" y2="75.9" stroke="#7A7A3A" stroke-width="1.2"/>
  <circle cx="130" cy="82" r="3.5" fill="#7A7A3A"/>
  <circle cx="162" cy="82" r="16" fill="#14140A" stroke="#7A7A3A" stroke-width="2.5"/>
  <line x1="178.0" y1="82.0" x2="146.0" y2="82.0" stroke="#7A7A3A" stroke-width="1.2"/>
  <line x1="176.8" y1="88.1" x2="147.2" y2="75.9" stroke="#7A7A3A" stroke-width="1.2"/>
  <line x1="173.3" y1="93.3" x2="150.7" y2="70.7" stroke="#7A7A3A" stroke-width="1.2"/>
  <line x1="168.1" y1="96.8" x2="155.9" y2="67.2" stroke="#7A7A3A" stroke-width="1.2"/>
  <line x1="162.0" y1="98.0" x2="162.0" y2="66.0" stroke="#7A7A3A" stroke-width="1.2"/>
  <line x1="155.9" y1="96.8" x2="168.1" y2="67.2" stroke="#7A7A3A" stroke-width="1.2"/>
  <line x1="150.7" y1="93.3" x2="173.3" y2="70.7" stroke="#7A7A3A" stroke-width="1.2"/>
  <line x1="147.2" y1="88.1" x2="176.8" y2="75.9" stroke="#7A7A3A" stroke-width="1.2"/>
  <circle cx="162" cy="82" r="3.5" fill="#7A7A3A"/>
  <circle cx="38" cy="82" r="10" fill="#14140A" stroke="#7A7A3A" stroke-width="2.5"/>
  <line x1="48.0" y1="82.0" x2="28.0" y2="82.0" stroke="#7A7A3A" stroke-width="1.2"/>
  <line x1="45.1" y1="89.1" x2="30.9" y2="74.9" stroke="#7A7A3A" stroke-width="1.2"/>
  <line x1="38.0" y1="92.0" x2="38.0" y2="72.0" stroke="#7A7A3A" stroke-width="1.2"/>
  <line x1="30.9" y1="89.1" x2="45.1" y2="74.9" stroke="#7A7A3A" stroke-width="1.2"/>
  <circle cx="38" cy="82" r="2.2" fill="#7A7A3A"/>

  <text x="97" y="101" font-family="Arial,sans-serif" font-size="7" fill="#666" text-anchor="middle">Atlantic 4-4-2 · 1900</text>
</svg>