<svg xmlns="http://www.w3.org/2000/svg" viewBox="0 0 205 106" width="205" height="106">
  <path d="M4,54 Q20,24 40,24 L195,24 L195,82 L40,82 Q20,82 4,54 Z" fill="#C8C8C8"/>
  <path d="M4,54 Q12,36 40,30 L40,78 Q12,70 4,54 Z" fill="#C83020" opacity="0.25"/>
  <rect x="46" y="30" width="14" height="13" rx="2" fill="#87CEEB" opacity="0.65"/>
  <rect x="66" y="30" width="14" height="13" rx="2" fill="#87CEEB" opacity="0.65"/>
  <rect x="86" y="30" width="14" height="13" rx="2" fill="#87CEEB" opacity="0.65"/>
  <rect x="106" y="30" width="14" height="13" rx="2" fill="#87CEEB" opacity="0.65"/>
  <path d="M4,55 L195,55" stroke="#C83020" stroke-width="2.5" opacity="0.3"/>
  <line x1="100" y1="24" x2="94"  y2="12" stroke="#C83020" stroke-width="1.5"/>
  <line x1="114" y1="24" x2="120" y2="12" stroke="#C83020" stroke-width="1.5"/>
  <line x1="86"  y1="12" x2="128" y2="12" stroke="#C83020" stroke-width="2.5"/>
  <circle cx="5" cy="54" r="4" fill="#FFE040" opacity="0.9"/>
  <circle cx="54" cy="90" r="11" fill="#5A5A5A" stroke="#C83020" stroke-width="2.5"/>
  <line x1="65.0" y1="90.0" x2="43.0" y2="90.0" stroke="#C83020" stroke-width="1.2"/>
  <line x1="63.5" y1="95.5" x2="44.5" y2="84.5" stroke="#C83020" stroke-width="1.2"/>
  <line x1="59.5" y1="99.5" x2="48.5" y2="80.5" stroke="#C83020" stroke-width="1.2"/>
  <line x1="54.0" y1="101.0" x2="54.0" y2="79.0" stroke="#C83020" stroke-width="1.2"/>
  <line x1="48.5" y1="99.5" x2="59.5" y2="80.5" stroke="#C83020" stroke-width="1.2"/>
  <line x1="44.5" y1="95.5" x2="63.5" y2="84.5" stroke="#C83020" stroke-width="1.2"/>
  <circle cx="54" cy="90" r="2.4" fill="#C83020"/>
  <circle cx="84" cy="90" r="11" fill="#5A5A5A" stroke="#C83020" stroke-width="2.5"/>
  <line x1="95.0" y1="90.0" x2="73.0" y2="90.0" stroke="#C83020" stroke-width="1.2"/>
  <line x1="93.5" y1="95.5" x2="74.5" y2="84.5" stroke="#C83020" stroke-width="1.2"/>
  <line x1="89.5" y1="99.5" x2="78.5" y2="80.5" stroke="#C83020" stroke-width="1.2"/>
  <line x1="84.0" y1="101.0" x2="84.0" y2="79.0" stroke="#C83020" stroke-width="1.2"/>
  <line x1="78.5" y1="99.5" x2="89.5" y2="80.5" stroke="#C83020" stroke-width="1.2"/>
  <line x1="74.5" y1="95.5" x2="93.5" y2="84.5" stroke="#C83020" stroke-width="1.2"/>
  <circle cx="84" cy="90" r="2.4" fill="#C83020"/>
  <circle cx="130" cy="90" r="11" fill="#5A5A5A" stroke="#C83020" stroke-width="2.5"/>
  <line x1="141.0" y1="90.0" x2="119.0" y2="90.0" stroke="#C83020" stroke-width="1.2"/>
  <line x1="139.5" y1="95.5" x2="120.5" y2="84.5" stroke="#C83020" stroke-width="1.2"/>
  <line x1="135.5" y1="99.5" x2="124.5" y2="80.5" stroke="#C83020" stroke-width="1.2"/>
  <line x1="130.0" y1="101.0" x2="130.0" y2="79.0" stroke="#C83020" stroke-width="1.2"/>
  <line x1="124.5" y1="99.5" x2="135.5" y2="80.5" stroke="#C83020" stroke-width="1.2"/>
  <line x1="120.5" y1="95.5" x2="139.5" y2="84.5" stroke="#C83020" stroke-width="1.2"/>
  <circle cx="130" cy="90" r="2.4" fill="#C83020"/>
  <circle cx="165" cy="90" r="11" fill="#5A5A5A" stroke="#C83020" stroke-width="2.5"/>
  <line x1="176.0" y1="90.0" x2="154.0" y2="90.0" stroke="#C83020" stroke-width="1.2"/>
  <line x1="174.5" y1="95.5" x2="155.5" y2="84.5" stroke="#C83020" stroke-width="1.2"/>
  <line x1="170.5" y1="99.5" x2="159.5" y2="80.5" stroke="#C83020" stroke-width="1.2"/>
  <line x1="165.0" y1="101.0" x2="165.0" y2="79.0" stroke="#C83020" stroke-width="1.2"/>
  <line x1="159.5" y1="99.5" x2="170.5" y2="80.5" stroke="#C83020" stroke-width="1.2"/>
  <line x1="155.5" y1="95.5" x2="174.5" y2="84.5" stroke="#C83020" stroke-width="1.2"/>
  <circle cx="165" cy="90" r="2.4" fill="#C83020"/>

  <text x="102" y="102" font-family="Arial,sans-serif" font-size="7" fill="#666" text-anchor="middle">AVE 103 Velaro · 2006</text>
</svg>