<svg xmlns="http://www.w3.org/2000/svg" viewBox="0 0 200 130" width="200" height="130">

  <path d="M10,68 Q16,42 34,38 L185,38 L188,68 L185,98 L34,98 Q16,94 10,68 Z" fill="#1a5cab"/>
  <rect x="34" y="38" width="154" height="60" rx="0" fill="#1a5cab"/>
  <!-- different blue shade + yellow stripe -->
  <rect x="28" y="64" width="160" height="10" fill="#FFD700"/>
  <rect x="152" y="38" width="36" height="60" rx="3" fill="#1448a0"/>
  <rect x="155" y="42" width="18" height="16" rx="2" fill="#87CEEB" opacity="0.7"/>
  <circle cx="13" cy="68" r="6" fill="#FFE040" opacity="0.9"/>
  <!-- slightly different front treatment - rounded more -->
  <path d="M10,68 Q14,52 30,48 L30,88 Q14,84 10,68 Z" fill="#2465bb"/>
  <circle cx="30" cy="106" r="8" fill="#143a8a" stroke="#FFD700" stroke-width="2"/>
<line x1="38.0" y1="106.0" x2="22.0" y2="106.0" stroke="#FFD700" stroke-width="1.2"/>
<line x1="35.7" y1="111.7" x2="24.3" y2="100.3" stroke="#FFD700" stroke-width="1.2"/>
<line x1="30.0" y1="114.0" x2="30.0" y2="98.0" stroke="#FFD700" stroke-width="1.2"/>
<line x1="24.3" y1="111.7" x2="35.7" y2="100.3" stroke="#FFD700" stroke-width="1.2"/>
<circle cx="30" cy="106" r="1.8" fill="#FFD700"/>

  <circle cx="58" cy="106" r="8" fill="#143a8a" stroke="#FFD700" stroke-width="2"/>
<line x1="66.0" y1="106.0" x2="50.0" y2="106.0" stroke="#FFD700" stroke-width="1.2"/>
<line x1="63.7" y1="111.7" x2="52.3" y2="100.3" stroke="#FFD700" stroke-width="1.2"/>
<line x1="58.0" y1="114.0" x2="58.0" y2="98.0" stroke="#FFD700" stroke-width="1.2"/>
<line x1="52.3" y1="111.7" x2="63.7" y2="100.3" stroke="#FFD700" stroke-width="1.2"/>
<circle cx="58" cy="106" r="1.8" fill="#FFD700"/>

  <circle cx="100" cy="106" r="8" fill="#143a8a" stroke="#FFD700" stroke-width="2"/>
<line x1="108.0" y1="106.0" x2="92.0" y2="106.0" stroke="#FFD700" stroke-width="1.2"/>
<line x1="105.7" y1="111.7" x2="94.3" y2="100.3" stroke="#FFD700" stroke-width="1.2"/>
<line x1="100.0" y1="114.0" x2="100.0" y2="98.0" stroke="#FFD700" stroke-width="1.2"/>
<line x1="94.3" y1="111.7" x2="105.7" y2="100.3" stroke="#FFD700" stroke-width="1.2"/>
<circle cx="100" cy="106" r="1.8" fill="#FFD700"/>

  <circle cx="140" cy="106" r="8" fill="#143a8a" stroke="#FFD700" stroke-width="2"/>
<line x1="148.0" y1="106.0" x2="132.0" y2="106.0" stroke="#FFD700" stroke-width="1.2"/>
<line x1="145.7" y1="111.7" x2="134.3" y2="100.3" stroke="#FFD700" stroke-width="1.2"/>
<line x1="140.0" y1="114.0" x2="140.0" y2="98.0" stroke="#FFD700" stroke-width="1.2"/>
<line x1="134.3" y1="111.7" x2="145.7" y2="100.3" stroke="#FFD700" stroke-width="1.2"/>
<circle cx="140" cy="106" r="1.8" fill="#FFD700"/>

  <line x1="10" y1="112" x2="195" y2="112" stroke="#888" stroke-width="2.5"/>


  <text x="100" y="126" font-family="Arial,sans-serif" font-size="7" fill="#555" text-anchor="middle">BB302 Indonesia · 1980</text>
</svg>