<svg xmlns="http://www.w3.org/2000/svg" viewBox="0 0 178 106" width="178" height="106">
  <rect x="8" y="28" width="160" height="48" rx="4" fill="#C85A00"/>
  <rect x="8" y="26" width="62" height="52" rx="4" fill="#F09020"/>
  <rect x="14" y="32" width="16" height="14" rx="2" fill="#87CEEB" opacity="0.75"/>
  <rect x="36" y="32" width="14" height="14" rx="2" fill="#87CEEB" opacity="0.65"/>
  <path d="M8,52 L168,52" stroke="#F09020" stroke-width="2" opacity="0.4"/>
  <rect x="78" y="16" width="9" height="14" rx="2" fill="#555"/>
  <rect x="74" y="13" width="17" height="5" rx="1" fill="#444"/>
  <rect x="105" y="18" width="9" height="12" rx="2" fill="#555"/>
  <rect x="135" y="18" width="9" height="12" rx="2" fill="#555"/>
  <circle cx="10" cy="52" r="5" fill="#FFE040" opacity="0.9"/>
  <circle cx="166" cy="52" r="4" fill="#FFE040" opacity="0.5"/>
  <circle cx="28" cy="88" r="13" fill="#5A2800" stroke="#F09020" stroke-width="2.5"/>
  <line x1="41.0" y1="88.0" x2="15.0" y2="88.0" stroke="#F09020" stroke-width="1.2"/>
  <line x1="39.3" y1="94.5" x2="16.7" y2="81.5" stroke="#F09020" stroke-width="1.2"/>
  <line x1="34.5" y1="99.3" x2="21.5" y2="76.7" stroke="#F09020" stroke-width="1.2"/>
  <line x1="28.0" y1="101.0" x2="28.0" y2="75.0" stroke="#F09020" stroke-width="1.2"/>
  <line x1="21.5" y1="99.3" x2="34.5" y2="76.7" stroke="#F09020" stroke-width="1.2"/>
  <line x1="16.7" y1="94.5" x2="39.3" y2="81.5" stroke="#F09020" stroke-width="1.2"/>
  <circle cx="28" cy="88" r="2.9" fill="#F09020"/>
  <circle cx="58" cy="88" r="13" fill="#5A2800" stroke="#F09020" stroke-width="2.5"/>
  <line x1="71.0" y1="88.0" x2="45.0" y2="88.0" stroke="#F09020" stroke-width="1.2"/>
  <line x1="69.3" y1="94.5" x2="46.7" y2="81.5" stroke="#F09020" stroke-width="1.2"/>
  <line x1="64.5" y1="99.3" x2="51.5" y2="76.7" stroke="#F09020" stroke-width="1.2"/>
  <line x1="58.0" y1="101.0" x2="58.0" y2="75.0" stroke="#F09020" stroke-width="1.2"/>
  <line x1="51.5" y1="99.3" x2="64.5" y2="76.7" stroke="#F09020" stroke-width="1.2"/>
  <line x1="46.7" y1="94.5" x2="69.3" y2="81.5" stroke="#F09020" stroke-width="1.2"/>
  <circle cx="58" cy="88" r="2.9" fill="#F09020"/>
  <circle cx="110" cy="88" r="13" fill="#5A2800" stroke="#F09020" stroke-width="2.5"/>
  <line x1="123.0" y1="88.0" x2="97.0" y2="88.0" stroke="#F09020" stroke-width="1.2"/>
  <line x1="121.3" y1="94.5" x2="98.7" y2="81.5" stroke="#F09020" stroke-width="1.2"/>
  <line x1="116.5" y1="99.3" x2="103.5" y2="76.7" stroke="#F09020" stroke-width="1.2"/>
  <line x1="110.0" y1="101.0" x2="110.0" y2="75.0" stroke="#F09020" stroke-width="1.2"/>
  <line x1="103.5" y1="99.3" x2="116.5" y2="76.7" stroke="#F09020" stroke-width="1.2"/>
  <line x1="98.7" y1="94.5" x2="121.3" y2="81.5" stroke="#F09020" stroke-width="1.2"/>
  <circle cx="110" cy="88" r="2.9" fill="#F09020"/>
  <circle cx="144" cy="88" r="13" fill="#5A2800" stroke="#F09020" stroke-width="2.5"/>
  <line x1="157.0" y1="88.0" x2="131.0" y2="88.0" stroke="#F09020" stroke-width="1.2"/>
  <line x1="155.3" y1="94.5" x2="132.7" y2="81.5" stroke="#F09020" stroke-width="1.2"/>
  <line x1="150.5" y1="99.3" x2="137.5" y2="76.7" stroke="#F09020" stroke-width="1.2"/>
  <line x1="144.0" y1="101.0" x2="144.0" y2="75.0" stroke="#F09020" stroke-width="1.2"/>
  <line x1="137.5" y1="99.3" x2="150.5" y2="76.7" stroke="#F09020" stroke-width="1.2"/>
  <line x1="132.7" y1="94.5" x2="155.3" y2="81.5" stroke="#F09020" stroke-width="1.2"/>
  <circle cx="144" cy="88" r="2.9" fill="#F09020"/>

  <text x="89" y="102" font-family="Arial,sans-serif" font-size="7" fill="#666" text-anchor="middle">BB301 Indonesia · 1977</text>
</svg>