<svg xmlns="http://www.w3.org/2000/svg" viewBox="0 0 200 130" width="200" height="130">

  <!-- LARGE boiler, wide firebox rear -->
  <rect x="14" y="48" width="155" height="40" rx="8" fill="#111"/>
  <rect x="20" y="55" width="100" height="26" rx="8" fill="#1e1e1e"/>
  <!-- wide firebox -->
  <rect x="120" y="44" width="50" height="44" rx="5" fill="#0d0d0d"/>
  <!-- cab on top of firebox -->
  <rect x="155" y="36" width="36" height="52" rx="4" fill="#0d0d0d"/>
  <rect x="158" y="40" width="14" height="15" rx="2" fill="#87CEEB" opacity="0.6"/>
  <rect x="26" y="14" width="14" height="36" rx="3" fill="#0d0d0d"/>
  <rect x="22" y="10" width="22" height="8" rx="2" fill="#333"/>
  <circle cx="18" cy="65" r="17" fill="#0d0d0d"/>
  <ellipse cx="100" cy="50" rx="14" ry="10" fill="#0d0d0d"/>
  <!-- 1 pony + 4 drivers + 2 trailing -->
  <circle cx="32" cy="101" r="7" fill="#111" stroke="#666" stroke-width="2"/>
<line x1="39.0" y1="101.0" x2="25.0" y2="101.0" stroke="#666" stroke-width="1.2"/>
<line x1="36.9" y1="105.9" x2="27.1" y2="96.1" stroke="#666" stroke-width="1.2"/>
<line x1="32.0" y1="108.0" x2="32.0" y2="94.0" stroke="#666" stroke-width="1.2"/>
<line x1="27.1" y1="105.9" x2="36.9" y2="96.1" stroke="#666" stroke-width="1.2"/>
<circle cx="32" cy="101" r="1.5" fill="#666"/>

  <circle cx="55" cy="101" r="12" fill="#111" stroke="#666" stroke-width="2"/>
<line x1="67.0" y1="101.0" x2="43.0" y2="101.0" stroke="#666" stroke-width="1.2"/>
<line x1="65.4" y1="107.0" x2="44.6" y2="95.0" stroke="#666" stroke-width="1.2"/>
<line x1="61.0" y1="111.4" x2="49.0" y2="90.6" stroke="#666" stroke-width="1.2"/>
<line x1="55.0" y1="113.0" x2="55.0" y2="89.0" stroke="#666" stroke-width="1.2"/>
<line x1="49.0" y1="111.4" x2="61.0" y2="90.6" stroke="#666" stroke-width="1.2"/>
<line x1="44.6" y1="107.0" x2="65.4" y2="95.0" stroke="#666" stroke-width="1.2"/>
<circle cx="55" cy="101" r="2.6" fill="#666"/>

  <circle cx="76" cy="101" r="12" fill="#111" stroke="#666" stroke-width="2"/>
<line x1="88.0" y1="101.0" x2="64.0" y2="101.0" stroke="#666" stroke-width="1.2"/>
<line x1="86.4" y1="107.0" x2="65.6" y2="95.0" stroke="#666" stroke-width="1.2"/>
<line x1="82.0" y1="111.4" x2="70.0" y2="90.6" stroke="#666" stroke-width="1.2"/>
<line x1="76.0" y1="113.0" x2="76.0" y2="89.0" stroke="#666" stroke-width="1.2"/>
<line x1="70.0" y1="111.4" x2="82.0" y2="90.6" stroke="#666" stroke-width="1.2"/>
<line x1="65.6" y1="107.0" x2="86.4" y2="95.0" stroke="#666" stroke-width="1.2"/>
<circle cx="76" cy="101" r="2.6" fill="#666"/>

  <circle cx="97" cy="101" r="12" fill="#111" stroke="#666" stroke-width="2"/>
<line x1="109.0" y1="101.0" x2="85.0" y2="101.0" stroke="#666" stroke-width="1.2"/>
<line x1="107.4" y1="107.0" x2="86.6" y2="95.0" stroke="#666" stroke-width="1.2"/>
<line x1="103.0" y1="111.4" x2="91.0" y2="90.6" stroke="#666" stroke-width="1.2"/>
<line x1="97.0" y1="113.0" x2="97.0" y2="89.0" stroke="#666" stroke-width="1.2"/>
<line x1="91.0" y1="111.4" x2="103.0" y2="90.6" stroke="#666" stroke-width="1.2"/>
<line x1="86.6" y1="107.0" x2="107.4" y2="95.0" stroke="#666" stroke-width="1.2"/>
<circle cx="97" cy="101" r="2.6" fill="#666"/>

  <circle cx="118" cy="101" r="12" fill="#111" stroke="#666" stroke-width="2"/>
<line x1="130.0" y1="101.0" x2="106.0" y2="101.0" stroke="#666" stroke-width="1.2"/>
<line x1="128.4" y1="107.0" x2="107.6" y2="95.0" stroke="#666" stroke-width="1.2"/>
<line x1="124.0" y1="111.4" x2="112.0" y2="90.6" stroke="#666" stroke-width="1.2"/>
<line x1="118.0" y1="113.0" x2="118.0" y2="89.0" stroke="#666" stroke-width="1.2"/>
<line x1="112.0" y1="111.4" x2="124.0" y2="90.6" stroke="#666" stroke-width="1.2"/>
<line x1="107.6" y1="107.0" x2="128.4" y2="95.0" stroke="#666" stroke-width="1.2"/>
<circle cx="118" cy="101" r="2.6" fill="#666"/>

  <circle cx="144" cy="101" r="9" fill="#111" stroke="#666" stroke-width="2"/>
<line x1="153.0" y1="101.0" x2="135.0" y2="101.0" stroke="#666" stroke-width="1.2"/>
<line x1="150.4" y1="107.4" x2="137.6" y2="94.6" stroke="#666" stroke-width="1.2"/>
<line x1="144.0" y1="110.0" x2="144.0" y2="92.0" stroke="#666" stroke-width="1.2"/>
<line x1="137.6" y1="107.4" x2="150.4" y2="94.6" stroke="#666" stroke-width="1.2"/>
<circle cx="144" cy="101" r="2.0" fill="#666"/>

  <circle cx="163" cy="101" r="9" fill="#111" stroke="#666" stroke-width="2"/>
<line x1="172.0" y1="101.0" x2="154.0" y2="101.0" stroke="#666" stroke-width="1.2"/>
<line x1="169.4" y1="107.4" x2="156.6" y2="94.6" stroke="#666" stroke-width="1.2"/>
<line x1="163.0" y1="110.0" x2="163.0" y2="92.0" stroke="#666" stroke-width="1.2"/>
<line x1="156.6" y1="107.4" x2="169.4" y2="94.6" stroke="#666" stroke-width="1.2"/>
<circle cx="163" cy="101" r="2.0" fill="#666"/>

  <rect x="55" y="99" width="63" height="4" rx="2" fill="#555" opacity="0.8"/>
  <line x1="8" y1="112" x2="195" y2="112" stroke="#888" stroke-width="2.5"/>


  <text x="100" y="126" font-family="Arial,sans-serif" font-size="7" fill="#555" text-anchor="middle">Berkshire 2-8-4 · 1925</text>
</svg>