<svg xmlns="http://www.w3.org/2000/svg" viewBox="0 0 200 130" width="200" height="130">

  <!-- RhB Bernina narrow gauge: RED, panoramic windows -->
  <rect x="8" y="46" width="180" height="60" rx="6" fill="#CC0000"/>
  <!-- panoramic large windows - key feature -->
  <rect x="14" y="52" width="24" height="28" rx="3" fill="#87CEEB" opacity="0.8"/>
  <rect x="44" y="52" width="28" height="28" rx="3" fill="#87CEEB" opacity="0.8"/>
  <rect x="78" y="52" width="28" height="28" rx="3" fill="#87CEEB" opacity="0.8"/>
  <rect x="112" y="52" width="28" height="28" rx="3" fill="#87CEEB" opacity="0.8"/>
  <rect x="146" y="52" width="28" height="28" rx="3" fill="#87CEEB" opacity="0.8"/>
  <!-- white RhB stripe bottom -->
  <rect x="8" y="90" width="180" height="10" fill="#fff"/>
  <!-- narrow gauge small wheels -->
  <circle cx="24" cy="114" r="7" fill="#880000" stroke="#fff" stroke-width="2"/>
<line x1="31.0" y1="114.0" x2="17.0" y2="114.0" stroke="#fff" stroke-width="1.2"/>
<line x1="28.9" y1="118.9" x2="19.1" y2="109.1" stroke="#fff" stroke-width="1.2"/>
<line x1="24.0" y1="121.0" x2="24.0" y2="107.0" stroke="#fff" stroke-width="1.2"/>
<line x1="19.1" y1="118.9" x2="28.9" y2="109.1" stroke="#fff" stroke-width="1.2"/>
<circle cx="24" cy="114" r="1.5" fill="#fff"/>

  <circle cx="48" cy="114" r="7" fill="#880000" stroke="#fff" stroke-width="2"/>
<line x1="55.0" y1="114.0" x2="41.0" y2="114.0" stroke="#fff" stroke-width="1.2"/>
<line x1="52.9" y1="118.9" x2="43.1" y2="109.1" stroke="#fff" stroke-width="1.2"/>
<line x1="48.0" y1="121.0" x2="48.0" y2="107.0" stroke="#fff" stroke-width="1.2"/>
<line x1="43.1" y1="118.9" x2="52.9" y2="109.1" stroke="#fff" stroke-width="1.2"/>
<circle cx="48" cy="114" r="1.5" fill="#fff"/>

  <circle cx="86" cy="114" r="7" fill="#880000" stroke="#fff" stroke-width="2"/>
<line x1="93.0" y1="114.0" x2="79.0" y2="114.0" stroke="#fff" stroke-width="1.2"/>
<line x1="90.9" y1="118.9" x2="81.1" y2="109.1" stroke="#fff" stroke-width="1.2"/>
<line x1="86.0" y1="121.0" x2="86.0" y2="107.0" stroke="#fff" stroke-width="1.2"/>
<line x1="81.1" y1="118.9" x2="90.9" y2="109.1" stroke="#fff" stroke-width="1.2"/>
<circle cx="86" cy="114" r="1.5" fill="#fff"/>

  <circle cx="110" cy="114" r="7" fill="#880000" stroke="#fff" stroke-width="2"/>
<line x1="117.0" y1="114.0" x2="103.0" y2="114.0" stroke="#fff" stroke-width="1.2"/>
<line x1="114.9" y1="118.9" x2="105.1" y2="109.1" stroke="#fff" stroke-width="1.2"/>
<line x1="110.0" y1="121.0" x2="110.0" y2="107.0" stroke="#fff" stroke-width="1.2"/>
<line x1="105.1" y1="118.9" x2="114.9" y2="109.1" stroke="#fff" stroke-width="1.2"/>
<circle cx="110" cy="114" r="1.5" fill="#fff"/>

  <circle cx="148" cy="114" r="7" fill="#880000" stroke="#fff" stroke-width="2"/>
<line x1="155.0" y1="114.0" x2="141.0" y2="114.0" stroke="#fff" stroke-width="1.2"/>
<line x1="152.9" y1="118.9" x2="143.1" y2="109.1" stroke="#fff" stroke-width="1.2"/>
<line x1="148.0" y1="121.0" x2="148.0" y2="107.0" stroke="#fff" stroke-width="1.2"/>
<line x1="143.1" y1="118.9" x2="152.9" y2="109.1" stroke="#fff" stroke-width="1.2"/>
<circle cx="148" cy="114" r="1.5" fill="#fff"/>

  <circle cx="172" cy="114" r="7" fill="#880000" stroke="#fff" stroke-width="2"/>
<line x1="179.0" y1="114.0" x2="165.0" y2="114.0" stroke="#fff" stroke-width="1.2"/>
<line x1="176.9" y1="118.9" x2="167.1" y2="109.1" stroke="#fff" stroke-width="1.2"/>
<line x1="172.0" y1="121.0" x2="172.0" y2="107.0" stroke="#fff" stroke-width="1.2"/>
<line x1="167.1" y1="118.9" x2="176.9" y2="109.1" stroke="#fff" stroke-width="1.2"/>
<circle cx="172" cy="114" r="1.5" fill="#fff"/>

  <line x1="5" y1="112" x2="198" y2="112" stroke="#888" stroke-width="2.5"/>


  <text x="100" y="126" font-family="Arial,sans-serif" font-size="7" fill="#555" text-anchor="middle">Bernina Express · RhB</text>
</svg>