<svg xmlns="http://www.w3.org/2000/svg" viewBox="0 0 200 130" width="200" height="130">

  <!-- fat barrel vertical boiler - very round, key feature -->
  <ellipse cx="85" cy="68" rx="30" ry="32" fill="#5a1a00"/>
  <!-- boiler bands -->
  <ellipse cx="85" cy="55" rx="30" ry="5" fill="none" stroke="#3a1000" stroke-width="2"/>
  <ellipse cx="85" cy="70" rx="30" ry="5" fill="none" stroke="#3a1000" stroke-width="2"/>
  <ellipse cx="85" cy="82" rx="29" ry="4" fill="none" stroke="#3a1000" stroke-width="2"/>
  <!-- firebox at base -->
  <rect x="68" y="88" width="34" height="12" rx="3" fill="#8B2500"/>
  <!-- thin chimney from center top -->
  <rect x="81" y="16" width="8" height="24" rx="2" fill="#222"/>
  <rect x="77" y="13" width="16" height="7" rx="3" fill="#333"/>
  <!-- smoke -->
  <circle cx="85" cy="10" r="4" fill="#ccc" opacity="0.4"/>
  <!-- frame -->
  <rect x="35" y="94" width="110" height="7" rx="3" fill="#3a1000"/>
  <!-- 4 wheels 0-4-0 - all same size -->
  <circle cx="52" cy="108" r="10" fill="#2a0e00" stroke="#c87820" stroke-width="2"/>
<line x1="62.0" y1="108.0" x2="42.0" y2="108.0" stroke="#c87820" stroke-width="1.2"/>
<line x1="60.7" y1="113.0" x2="43.3" y2="103.0" stroke="#c87820" stroke-width="1.2"/>
<line x1="57.0" y1="116.7" x2="47.0" y2="99.3" stroke="#c87820" stroke-width="1.2"/>
<line x1="52.0" y1="118.0" x2="52.0" y2="98.0" stroke="#c87820" stroke-width="1.2"/>
<line x1="47.0" y1="116.7" x2="57.0" y2="99.3" stroke="#c87820" stroke-width="1.2"/>
<line x1="43.3" y1="113.0" x2="60.7" y2="103.0" stroke="#c87820" stroke-width="1.2"/>
<circle cx="52" cy="108" r="2.2" fill="#c87820"/>

  <circle cx="75" cy="108" r="10" fill="#2a0e00" stroke="#c87820" stroke-width="2"/>
<line x1="85.0" y1="108.0" x2="65.0" y2="108.0" stroke="#c87820" stroke-width="1.2"/>
<line x1="83.7" y1="113.0" x2="66.3" y2="103.0" stroke="#c87820" stroke-width="1.2"/>
<line x1="80.0" y1="116.7" x2="70.0" y2="99.3" stroke="#c87820" stroke-width="1.2"/>
<line x1="75.0" y1="118.0" x2="75.0" y2="98.0" stroke="#c87820" stroke-width="1.2"/>
<line x1="70.0" y1="116.7" x2="80.0" y2="99.3" stroke="#c87820" stroke-width="1.2"/>
<line x1="66.3" y1="113.0" x2="83.7" y2="103.0" stroke="#c87820" stroke-width="1.2"/>
<circle cx="75" cy="108" r="2.2" fill="#c87820"/>

  <circle cx="98" cy="108" r="10" fill="#2a0e00" stroke="#c87820" stroke-width="2"/>
<line x1="108.0" y1="108.0" x2="88.0" y2="108.0" stroke="#c87820" stroke-width="1.2"/>
<line x1="106.7" y1="113.0" x2="89.3" y2="103.0" stroke="#c87820" stroke-width="1.2"/>
<line x1="103.0" y1="116.7" x2="93.0" y2="99.3" stroke="#c87820" stroke-width="1.2"/>
<line x1="98.0" y1="118.0" x2="98.0" y2="98.0" stroke="#c87820" stroke-width="1.2"/>
<line x1="93.0" y1="116.7" x2="103.0" y2="99.3" stroke="#c87820" stroke-width="1.2"/>
<line x1="89.3" y1="113.0" x2="106.7" y2="103.0" stroke="#c87820" stroke-width="1.2"/>
<circle cx="98" cy="108" r="2.2" fill="#c87820"/>

  <circle cx="121" cy="108" r="10" fill="#2a0e00" stroke="#c87820" stroke-width="2"/>
<line x1="131.0" y1="108.0" x2="111.0" y2="108.0" stroke="#c87820" stroke-width="1.2"/>
<line x1="129.7" y1="113.0" x2="112.3" y2="103.0" stroke="#c87820" stroke-width="1.2"/>
<line x1="126.0" y1="116.7" x2="116.0" y2="99.3" stroke="#c87820" stroke-width="1.2"/>
<line x1="121.0" y1="118.0" x2="121.0" y2="98.0" stroke="#c87820" stroke-width="1.2"/>
<line x1="116.0" y1="116.7" x2="126.0" y2="99.3" stroke="#c87820" stroke-width="1.2"/>
<line x1="112.3" y1="113.0" x2="129.7" y2="103.0" stroke="#c87820" stroke-width="1.2"/>
<circle cx="121" cy="108" r="2.2" fill="#c87820"/>

  <!-- coupling rod -->
  <rect x="52" y="106" width="69" height="4" rx="2" fill="#c87820" opacity="0.8"/>
  <line x1="30" y1="112" x2="170" y2="112" stroke="#888" stroke-width="2.5"/>


  <text x="100" y="126" font-family="Arial,sans-serif" font-size="7" fill="#555" text-anchor="middle">Best Friend Charleston · 1830</text>
</svg>