<svg xmlns="http://www.w3.org/2000/svg" viewBox="0 0 300 115">
  <!-- chimney -->
  <rect x="24" y="10" width="16" height="32" rx="2" fill="#333"/>
  <rect x="20" y="7"  width="24" height="6"  rx="2" fill="#222"/>
  <ellipse cx="32" cy="8" rx="10" ry="5" fill="#aaa" opacity=".5"/>
  <!-- HUGE boiler (two sections: front engine + rear engine) -->
  <rect x="36" y="28" width="224" height="38" rx="10" fill="#1A1A1A"/>
  <!-- articulation joint in middle -->
  <rect x="146" y="24" width="12" height="46" rx="2" fill="#333"/>
  <!-- domes -->
  <ellipse cx="80"  cy="26" rx="14" ry="10" fill="#111"/>
  <ellipse cx="200" cy="26" rx="14" ry="10" fill="#111"/>
  <!-- sand domes -->
  <ellipse cx="110" cy="28" rx="8" ry="6"  fill="#111"/>
  <!-- big cab at rear -->
  <rect x="256" y="18" width="42" height="48" rx="3" fill="#0A0A0A"/>
  <path d="M252,18 L298,18 L298,14 Q275,8 252,14Z" fill="#444"/>
  <rect x="262" y="24" width="14" height="11" rx="2" fill="#87CEEB" opacity=".75"/>
  <rect x="280" y="24" width="14" height="11" rx="2" fill="#87CEEB" opacity=".75"/>
  <!-- running board -->
  <rect x="14" y="64" width="284" height="8" rx="2" fill="#0A0A0A"/>
  <!-- cowcatcher -->
  <path d="M14,66 L2,76 L2,80 L14,74Z" fill="#1A1A1A"/>
  <!-- headlamp -->
  <circle cx="18" cy="54" r="6" fill="#FFD700" opacity=".9"/>
  <!-- FRONT ENGINE: 4 pairs of 8 big drive wheels + 2 pony wheels -->
  <circle cx="22"  cy="88" r="10" fill="#111" stroke="#555" stroke-width="2.5"/>
  <circle cx="22"  cy="88" r="3"  fill="#555"/>
  <circle cx="44"  cy="88" r="16" fill="#111" stroke="#555" stroke-width="3.5"/>
  <circle cx="44"  cy="88" r="4"  fill="#555"/>
  <circle cx="72"  cy="88" r="16" fill="#111" stroke="#555" stroke-width="3.5"/>
  <circle cx="72"  cy="88" r="4"  fill="#555"/>
  <circle cx="100" cy="88" r="16" fill="#111" stroke="#555" stroke-width="3.5"/>
  <circle cx="100" cy="88" r="4"  fill="#555"/>
  <circle cx="128" cy="88" r="16" fill="#111" stroke="#555" stroke-width="3.5"/>
  <circle cx="128" cy="88" r="4"  fill="#555"/>
  <!-- coupling rod front set -->
  <rect x="30" y="85" width="112" height="5" rx="2" fill="#555" opacity=".7"/>
  <!-- REAR ENGINE: 4 pairs of drive wheels -->
  <circle cx="162" cy="88" r="16" fill="#111" stroke="#555" stroke-width="3.5"/>
  <circle cx="162" cy="88" r="4"  fill="#555"/>
  <circle cx="190" cy="88" r="16" fill="#111" stroke="#555" stroke-width="3.5"/>
  <circle cx="190" cy="88" r="4"  fill="#555"/>
  <circle cx="218" cy="88" r="16" fill="#111" stroke="#555" stroke-width="3.5"/>
  <circle cx="218" cy="88" r="4"  fill="#555"/>
  <circle cx="246" cy="88" r="16" fill="#111" stroke="#555" stroke-width="3.5"/>
  <circle cx="246" cy="88" r="4"  fill="#555"/>
  <!-- trailing wheel -->
  <circle cx="274" cy="90" r="12" fill="#111" stroke="#555" stroke-width="2.5"/>
  <circle cx="274" cy="90" r="3"  fill="#555"/>
  <!-- coupling rod rear set -->
  <rect x="150" y="85" width="108" height="5" rx="2" fill="#555" opacity=".7"/>
  <text x="150" y="112" font-family="Arial" font-size="7" fill="#888" text-anchor="middle">Big Boy 4-8-8-4 · Union Pacific · 1941</text>
</svg>