<svg xmlns="http://www.w3.org/2000/svg" viewBox="0 0 200 130" width="200" height="130">

  <!-- boiler horizontal -->
  <rect x="40" y="48" width="90" height="32" rx="8" fill="#5C2A00"/>
  <rect x="125" y="56" width="25" height="20" rx="3" fill="#3a1a00"/>
  <!-- chimney tall tapered -->
  <rect x="55" y="20" width="14" height="30" rx="4" fill="#2a1400"/>
  <rect x="51" y="16" width="22" height="8" rx="3" fill="#1a0a00"/>
  <!-- smoke puffs -->
  <circle cx="62" cy="12" r="5" fill="#aaa" opacity="0.5"/>
  <circle cx="70" cy="9" r="4" fill="#aaa" opacity="0.35"/>
  <!-- rack gear on rail - key feature -->
  <rect x="30" y="108" width="140" height="5" rx="1" fill="#777"/>
  <rect x="30" y="113" width="140" height="3" rx="1" fill="#555"/>
  <!-- rack teeth -->
  <rect x="30" y="107" width="4" height="7" fill="#444"/><rect x="38" y="107" width="4" height="7" fill="#444"/><rect x="46" y="107" width="4" height="7" fill="#444"/><rect x="54" y="107" width="4" height="7" fill="#444"/><rect x="62" y="107" width="4" height="7" fill="#444"/><rect x="70" y="107" width="4" height="7" fill="#444"/><rect x="78" y="107" width="4" height="7" fill="#444"/><rect x="86" y="107" width="4" height="7" fill="#444"/><rect x="94" y="107" width="4" height="7" fill="#444"/><rect x="102" y="107" width="4" height="7" fill="#444"/><rect x="110" y="107" width="4" height="7" fill="#444"/><rect x="118" y="107" width="4" height="7" fill="#444"/><rect x="126" y="107" width="4" height="7" fill="#444"/><rect x="134" y="107" width="4" height="7" fill="#444"/><rect x="142" y="107" width="4" height="7" fill="#444"/><rect x="150" y="107" width="4" height="7" fill="#444"/><rect x="158" y="107" width="4" height="7" fill="#444"/><rect x="166" y="107" width="4" height="7" fill="#444"/>
  <!-- 4 drive wheels -->
  <circle cx="65" cy="100" r="11" fill="#2C1A0E" stroke="#8B6914" stroke-width="2"/>
<line x1="76.0" y1="100.0" x2="54.0" y2="100.0" stroke="#8B6914" stroke-width="1.2"/>
<line x1="74.5" y1="105.5" x2="55.5" y2="94.5" stroke="#8B6914" stroke-width="1.2"/>
<line x1="70.5" y1="109.5" x2="59.5" y2="90.5" stroke="#8B6914" stroke-width="1.2"/>
<line x1="65.0" y1="111.0" x2="65.0" y2="89.0" stroke="#8B6914" stroke-width="1.2"/>
<line x1="59.5" y1="109.5" x2="70.5" y2="90.5" stroke="#8B6914" stroke-width="1.2"/>
<line x1="55.5" y1="105.5" x2="74.5" y2="94.5" stroke="#8B6914" stroke-width="1.2"/>
<circle cx="65" cy="100" r="2.4" fill="#8B6914"/>

  <circle cx="88" cy="100" r="11" fill="#2C1A0E" stroke="#8B6914" stroke-width="2"/>
<line x1="99.0" y1="100.0" x2="77.0" y2="100.0" stroke="#8B6914" stroke-width="1.2"/>
<line x1="97.5" y1="105.5" x2="78.5" y2="94.5" stroke="#8B6914" stroke-width="1.2"/>
<line x1="93.5" y1="109.5" x2="82.5" y2="90.5" stroke="#8B6914" stroke-width="1.2"/>
<line x1="88.0" y1="111.0" x2="88.0" y2="89.0" stroke="#8B6914" stroke-width="1.2"/>
<line x1="82.5" y1="109.5" x2="93.5" y2="90.5" stroke="#8B6914" stroke-width="1.2"/>
<line x1="78.5" y1="105.5" x2="97.5" y2="94.5" stroke="#8B6914" stroke-width="1.2"/>
<circle cx="88" cy="100" r="2.4" fill="#8B6914"/>

  <circle cx="111" cy="100" r="11" fill="#2C1A0E" stroke="#8B6914" stroke-width="2"/>
<line x1="122.0" y1="100.0" x2="100.0" y2="100.0" stroke="#8B6914" stroke-width="1.2"/>
<line x1="120.5" y1="105.5" x2="101.5" y2="94.5" stroke="#8B6914" stroke-width="1.2"/>
<line x1="116.5" y1="109.5" x2="105.5" y2="90.5" stroke="#8B6914" stroke-width="1.2"/>
<line x1="111.0" y1="111.0" x2="111.0" y2="89.0" stroke="#8B6914" stroke-width="1.2"/>
<line x1="105.5" y1="109.5" x2="116.5" y2="90.5" stroke="#8B6914" stroke-width="1.2"/>
<line x1="101.5" y1="105.5" x2="120.5" y2="94.5" stroke="#8B6914" stroke-width="1.2"/>
<circle cx="111" cy="100" r="2.4" fill="#8B6914"/>

  <circle cx="134" cy="100" r="11" fill="#2C1A0E" stroke="#8B6914" stroke-width="2"/>
<line x1="145.0" y1="100.0" x2="123.0" y2="100.0" stroke="#8B6914" stroke-width="1.2"/>
<line x1="143.5" y1="105.5" x2="124.5" y2="94.5" stroke="#8B6914" stroke-width="1.2"/>
<line x1="139.5" y1="109.5" x2="128.5" y2="90.5" stroke="#8B6914" stroke-width="1.2"/>
<line x1="134.0" y1="111.0" x2="134.0" y2="89.0" stroke="#8B6914" stroke-width="1.2"/>
<line x1="128.5" y1="109.5" x2="139.5" y2="90.5" stroke="#8B6914" stroke-width="1.2"/>
<line x1="124.5" y1="105.5" x2="143.5" y2="94.5" stroke="#8B6914" stroke-width="1.2"/>
<circle cx="134" cy="100" r="2.4" fill="#8B6914"/>

  <!-- coupling rod -->
  <rect x="65" y="98" width="69" height="4" rx="2" fill="#8B6914" opacity="0.8"/>
  <!-- cab window -->
  <rect x="128" y="58" width="14" height="10" rx="2" fill="#87CEEB" opacity="0.7"/>

  <text x="100" y="126" font-family="Arial,sans-serif" font-size="7" fill="#555" text-anchor="middle">Blenkinsop Rack · 1812</text>
</svg>