<svg xmlns="http://www.w3.org/2000/svg" viewBox="0 0 200 130" width="200" height="130">

  <!-- dark blue electric loco -->
  <rect x="8" y="42" width="72" height="60" rx="5" fill="#00205B"/>
  <rect x="12" y="46" width="26" height="18" rx="3" fill="#87CEEB" opacity="0.7"/>
  <rect x="8" y="66" width="72" height="10" fill="#C0C0C0"/>
  <!-- pantograph -->
  <line x1="30" y1="42" x2="26" y2="24" stroke="#888" stroke-width="1.5"/>
  <line x1="50" y1="42" x2="54" y2="24" stroke="#888" stroke-width="1.5"/>
  <line x1="24" y1="24" x2="56" y2="24" stroke="#888" stroke-width="2"/>
  <!-- blue luxury cars -->
  <rect x="83" y="42" width="55" height="60" rx="3" fill="#00205B"/>
  <rect x="141" y="42" width="52" height="60" rx="3" fill="#00205B"/>
  <rect x="83" y="66" width="55" height="10" fill="#C0C0C0"/>
  <rect x="141" y="66" width="52" height="10" fill="#C0C0C0"/>
  <!-- windows with curtain hint -->
  <rect x="88" y="50" width="9" height="12" rx="1" fill="#87CEEB" opacity="0.5"/>
  <rect x="102" y="50" width="9" height="12" rx="1" fill="#87CEEB" opacity="0.5"/>
  <rect x="116" y="50" width="9" height="12" rx="1" fill="#87CEEB" opacity="0.5"/>
  <rect x="146" y="50" width="9" height="12" rx="1" fill="#87CEEB" opacity="0.5"/>
  <rect x="160" y="50" width="9" height="12" rx="1" fill="#87CEEB" opacity="0.5"/>
  <rect x="174" y="50" width="9" height="12" rx="1" fill="#87CEEB" opacity="0.5"/>
  <circle cx="12" cy="72" r="5" fill="#FFE040" opacity="0.9"/>
  <circle cx="22" cy="110" r="7" fill="#00205B" stroke="#C0C0C0" stroke-width="2"/>
<line x1="29.0" y1="110.0" x2="15.0" y2="110.0" stroke="#C0C0C0" stroke-width="1.2"/>
<line x1="26.9" y1="114.9" x2="17.1" y2="105.1" stroke="#C0C0C0" stroke-width="1.2"/>
<line x1="22.0" y1="117.0" x2="22.0" y2="103.0" stroke="#C0C0C0" stroke-width="1.2"/>
<line x1="17.1" y1="114.9" x2="26.9" y2="105.1" stroke="#C0C0C0" stroke-width="1.2"/>
<circle cx="22" cy="110" r="1.5" fill="#C0C0C0"/>

  <circle cx="48" cy="110" r="7" fill="#00205B" stroke="#C0C0C0" stroke-width="2"/>
<line x1="55.0" y1="110.0" x2="41.0" y2="110.0" stroke="#C0C0C0" stroke-width="1.2"/>
<line x1="52.9" y1="114.9" x2="43.1" y2="105.1" stroke="#C0C0C0" stroke-width="1.2"/>
<line x1="48.0" y1="117.0" x2="48.0" y2="103.0" stroke="#C0C0C0" stroke-width="1.2"/>
<line x1="43.1" y1="114.9" x2="52.9" y2="105.1" stroke="#C0C0C0" stroke-width="1.2"/>
<circle cx="48" cy="110" r="1.5" fill="#C0C0C0"/>

  <circle cx="96" cy="110" r="7" fill="#00205B" stroke="#C0C0C0" stroke-width="2"/>
<line x1="103.0" y1="110.0" x2="89.0" y2="110.0" stroke="#C0C0C0" stroke-width="1.2"/>
<line x1="100.9" y1="114.9" x2="91.1" y2="105.1" stroke="#C0C0C0" stroke-width="1.2"/>
<line x1="96.0" y1="117.0" x2="96.0" y2="103.0" stroke="#C0C0C0" stroke-width="1.2"/>
<line x1="91.1" y1="114.9" x2="100.9" y2="105.1" stroke="#C0C0C0" stroke-width="1.2"/>
<circle cx="96" cy="110" r="1.5" fill="#C0C0C0"/>

  <circle cx="120" cy="110" r="7" fill="#00205B" stroke="#C0C0C0" stroke-width="2"/>
<line x1="127.0" y1="110.0" x2="113.0" y2="110.0" stroke="#C0C0C0" stroke-width="1.2"/>
<line x1="124.9" y1="114.9" x2="115.1" y2="105.1" stroke="#C0C0C0" stroke-width="1.2"/>
<line x1="120.0" y1="117.0" x2="120.0" y2="103.0" stroke="#C0C0C0" stroke-width="1.2"/>
<line x1="115.1" y1="114.9" x2="124.9" y2="105.1" stroke="#C0C0C0" stroke-width="1.2"/>
<circle cx="120" cy="110" r="1.5" fill="#C0C0C0"/>

  <circle cx="152" cy="110" r="7" fill="#00205B" stroke="#C0C0C0" stroke-width="2"/>
<line x1="159.0" y1="110.0" x2="145.0" y2="110.0" stroke="#C0C0C0" stroke-width="1.2"/>
<line x1="156.9" y1="114.9" x2="147.1" y2="105.1" stroke="#C0C0C0" stroke-width="1.2"/>
<line x1="152.0" y1="117.0" x2="152.0" y2="103.0" stroke="#C0C0C0" stroke-width="1.2"/>
<line x1="147.1" y1="114.9" x2="156.9" y2="105.1" stroke="#C0C0C0" stroke-width="1.2"/>
<circle cx="152" cy="110" r="1.5" fill="#C0C0C0"/>

  <circle cx="174" cy="110" r="7" fill="#00205B" stroke="#C0C0C0" stroke-width="2"/>
<line x1="181.0" y1="110.0" x2="167.0" y2="110.0" stroke="#C0C0C0" stroke-width="1.2"/>
<line x1="178.9" y1="114.9" x2="169.1" y2="105.1" stroke="#C0C0C0" stroke-width="1.2"/>
<line x1="174.0" y1="117.0" x2="174.0" y2="103.0" stroke="#C0C0C0" stroke-width="1.2"/>
<line x1="169.1" y1="114.9" x2="178.9" y2="105.1" stroke="#C0C0C0" stroke-width="1.2"/>
<circle cx="174" cy="110" r="1.5" fill="#C0C0C0"/>

  <line x1="5" y1="112" x2="198" y2="112" stroke="#888" stroke-width="2.5"/>


  <text x="100" y="126" font-family="Arial,sans-serif" font-size="7" fill="#555" text-anchor="middle">Blue Train SA · 1939</text>
</svg>