<svg xmlns="http://www.w3.org/2000/svg" viewBox="0 0 200 130" width="200" height="130">

  <path d="M14,68 Q28,36 52,32 L176,32 L180,68 L176,104 L52,104 Q28,100 14,68 Z" fill="#8B0000"/>
  <!-- gold stripe -->
  <path d="M52,56 L176,56 L176,80 L52,80 Q34,76 18,68 Q34,60 52,56 Z" fill="#C09000"/>
  <!-- dark maroon shroud sides -->
  <path d="M14,68 Q24,52 42,50 L42,86 Q24,84 14,68 Z" fill="#600000" opacity="0.7"/>
  <rect x="148" y="38" width="18" height="15" rx="2" fill="#87CEEB" opacity="0.7"/>
  <circle cx="16" cy="68" r="8" fill="#FFE040" opacity="0.9"/>
  <!-- 4-6-4 -->
  <circle cx="46" cy="108" r="8" fill="#600000" stroke="#C09000" stroke-width="2"/>
<line x1="54.0" y1="108.0" x2="38.0" y2="108.0" stroke="#C09000" stroke-width="1.2"/>
<line x1="51.7" y1="113.7" x2="40.3" y2="102.3" stroke="#C09000" stroke-width="1.2"/>
<line x1="46.0" y1="116.0" x2="46.0" y2="100.0" stroke="#C09000" stroke-width="1.2"/>
<line x1="40.3" y1="113.7" x2="51.7" y2="102.3" stroke="#C09000" stroke-width="1.2"/>
<circle cx="46" cy="108" r="1.8" fill="#C09000"/>

  <circle cx="64" cy="108" r="8" fill="#600000" stroke="#C09000" stroke-width="2"/>
<line x1="72.0" y1="108.0" x2="56.0" y2="108.0" stroke="#C09000" stroke-width="1.2"/>
<line x1="69.7" y1="113.7" x2="58.3" y2="102.3" stroke="#C09000" stroke-width="1.2"/>
<line x1="64.0" y1="116.0" x2="64.0" y2="100.0" stroke="#C09000" stroke-width="1.2"/>
<line x1="58.3" y1="113.7" x2="69.7" y2="102.3" stroke="#C09000" stroke-width="1.2"/>
<circle cx="64" cy="108" r="1.8" fill="#C09000"/>

  <circle cx="88" cy="108" r="13" fill="#600000" stroke="#C09000" stroke-width="2"/>
<line x1="101.0" y1="108.0" x2="75.0" y2="108.0" stroke="#C09000" stroke-width="1.2"/>
<line x1="99.3" y1="114.5" x2="76.7" y2="101.5" stroke="#C09000" stroke-width="1.2"/>
<line x1="94.5" y1="119.3" x2="81.5" y2="96.7" stroke="#C09000" stroke-width="1.2"/>
<line x1="88.0" y1="121.0" x2="88.0" y2="95.0" stroke="#C09000" stroke-width="1.2"/>
<line x1="81.5" y1="119.3" x2="94.5" y2="96.7" stroke="#C09000" stroke-width="1.2"/>
<line x1="76.7" y1="114.5" x2="99.3" y2="101.5" stroke="#C09000" stroke-width="1.2"/>
<circle cx="88" cy="108" r="2.9" fill="#C09000"/>

  <circle cx="111" cy="108" r="13" fill="#600000" stroke="#C09000" stroke-width="2"/>
<line x1="124.0" y1="108.0" x2="98.0" y2="108.0" stroke="#C09000" stroke-width="1.2"/>
<line x1="122.3" y1="114.5" x2="99.7" y2="101.5" stroke="#C09000" stroke-width="1.2"/>
<line x1="117.5" y1="119.3" x2="104.5" y2="96.7" stroke="#C09000" stroke-width="1.2"/>
<line x1="111.0" y1="121.0" x2="111.0" y2="95.0" stroke="#C09000" stroke-width="1.2"/>
<line x1="104.5" y1="119.3" x2="117.5" y2="96.7" stroke="#C09000" stroke-width="1.2"/>
<line x1="99.7" y1="114.5" x2="122.3" y2="101.5" stroke="#C09000" stroke-width="1.2"/>
<circle cx="111" cy="108" r="2.9" fill="#C09000"/>

  <circle cx="134" cy="108" r="13" fill="#600000" stroke="#C09000" stroke-width="2"/>
<line x1="147.0" y1="108.0" x2="121.0" y2="108.0" stroke="#C09000" stroke-width="1.2"/>
<line x1="145.3" y1="114.5" x2="122.7" y2="101.5" stroke="#C09000" stroke-width="1.2"/>
<line x1="140.5" y1="119.3" x2="127.5" y2="96.7" stroke="#C09000" stroke-width="1.2"/>
<line x1="134.0" y1="121.0" x2="134.0" y2="95.0" stroke="#C09000" stroke-width="1.2"/>
<line x1="127.5" y1="119.3" x2="140.5" y2="96.7" stroke="#C09000" stroke-width="1.2"/>
<line x1="122.7" y1="114.5" x2="145.3" y2="101.5" stroke="#C09000" stroke-width="1.2"/>
<circle cx="134" cy="108" r="2.9" fill="#C09000"/>

  <circle cx="160" cy="108" r="9" fill="#600000" stroke="#C09000" stroke-width="2"/>
<line x1="169.0" y1="108.0" x2="151.0" y2="108.0" stroke="#C09000" stroke-width="1.2"/>
<line x1="166.4" y1="114.4" x2="153.6" y2="101.6" stroke="#C09000" stroke-width="1.2"/>
<line x1="160.0" y1="117.0" x2="160.0" y2="99.0" stroke="#C09000" stroke-width="1.2"/>
<line x1="153.6" y1="114.4" x2="166.4" y2="101.6" stroke="#C09000" stroke-width="1.2"/>
<circle cx="160" cy="108" r="2.0" fill="#C09000"/>

  <circle cx="177" cy="108" r="9" fill="#600000" stroke="#C09000" stroke-width="2"/>
<line x1="186.0" y1="108.0" x2="168.0" y2="108.0" stroke="#C09000" stroke-width="1.2"/>
<line x1="183.4" y1="114.4" x2="170.6" y2="101.6" stroke="#C09000" stroke-width="1.2"/>
<line x1="177.0" y1="117.0" x2="177.0" y2="99.0" stroke="#C09000" stroke-width="1.2"/>
<line x1="170.6" y1="114.4" x2="183.4" y2="101.6" stroke="#C09000" stroke-width="1.2"/>
<circle cx="177" cy="108" r="2.0" fill="#C09000"/>

  <line x1="10" y1="112" x2="195" y2="112" stroke="#888" stroke-width="2.5"/>


  <text x="100" y="126" font-family="Arial,sans-serif" font-size="7" fill="#555" text-anchor="middle">Broadway Limited · 1938</text>
</svg>