<svg xmlns="http://www.w3.org/2000/svg" viewBox="0 0 200 130" width="200" height="130">

  <!-- BTS Skytrain: green/yellow, elevated -->
  <rect x="8" y="46" width="180" height="58" rx="5" fill="#1a7c3a"/>
  <!-- yellow BTS stripe -->
  <rect x="8" y="60" width="180" height="14" fill="#FFD700"/>
  <!-- elevated guideway pillars -->
  <rect x="50" y="104" width="8" height="18" fill="#888"/>
  <rect x="130" y="104" width="8" height="18" fill="#888"/>
  <rect x="8" y="104" width="180" height="5" rx="2" fill="#999"/>
  <!-- windows -->
  <rect x="14" y="50" width="22" height="8" rx="1" fill="#87CEEB" opacity="0.7"/>
  <rect x="48" y="50" width="18" height="8" rx="1" fill="#87CEEB" opacity="0.7"/>
  <rect x="82" y="50" width="18" height="8" rx="1" fill="#87CEEB" opacity="0.7"/>
  <rect x="116" y="50" width="18" height="8" rx="1" fill="#87CEEB" opacity="0.7"/>
  <rect x="152" y="50" width="18" height="8" rx="1" fill="#87CEEB" opacity="0.7"/>
  <circle cx="22" cy="112" r="7" fill="#1a5c2a" stroke="#FFD700" stroke-width="2"/>
<line x1="29.0" y1="112.0" x2="15.0" y2="112.0" stroke="#FFD700" stroke-width="1.2"/>
<line x1="26.9" y1="116.9" x2="17.1" y2="107.1" stroke="#FFD700" stroke-width="1.2"/>
<line x1="22.0" y1="119.0" x2="22.0" y2="105.0" stroke="#FFD700" stroke-width="1.2"/>
<line x1="17.1" y1="116.9" x2="26.9" y2="107.1" stroke="#FFD700" stroke-width="1.2"/>
<circle cx="22" cy="112" r="1.5" fill="#FFD700"/>

  <circle cx="48" cy="112" r="7" fill="#1a5c2a" stroke="#FFD700" stroke-width="2"/>
<line x1="55.0" y1="112.0" x2="41.0" y2="112.0" stroke="#FFD700" stroke-width="1.2"/>
<line x1="52.9" y1="116.9" x2="43.1" y2="107.1" stroke="#FFD700" stroke-width="1.2"/>
<line x1="48.0" y1="119.0" x2="48.0" y2="105.0" stroke="#FFD700" stroke-width="1.2"/>
<line x1="43.1" y1="116.9" x2="52.9" y2="107.1" stroke="#FFD700" stroke-width="1.2"/>
<circle cx="48" cy="112" r="1.5" fill="#FFD700"/>

  <circle cx="88" cy="112" r="7" fill="#1a5c2a" stroke="#FFD700" stroke-width="2"/>
<line x1="95.0" y1="112.0" x2="81.0" y2="112.0" stroke="#FFD700" stroke-width="1.2"/>
<line x1="92.9" y1="116.9" x2="83.1" y2="107.1" stroke="#FFD700" stroke-width="1.2"/>
<line x1="88.0" y1="119.0" x2="88.0" y2="105.0" stroke="#FFD700" stroke-width="1.2"/>
<line x1="83.1" y1="116.9" x2="92.9" y2="107.1" stroke="#FFD700" stroke-width="1.2"/>
<circle cx="88" cy="112" r="1.5" fill="#FFD700"/>

  <circle cx="122" cy="112" r="7" fill="#1a5c2a" stroke="#FFD700" stroke-width="2"/>
<line x1="129.0" y1="112.0" x2="115.0" y2="112.0" stroke="#FFD700" stroke-width="1.2"/>
<line x1="126.9" y1="116.9" x2="117.1" y2="107.1" stroke="#FFD700" stroke-width="1.2"/>
<line x1="122.0" y1="119.0" x2="122.0" y2="105.0" stroke="#FFD700" stroke-width="1.2"/>
<line x1="117.1" y1="116.9" x2="126.9" y2="107.1" stroke="#FFD700" stroke-width="1.2"/>
<circle cx="122" cy="112" r="1.5" fill="#FFD700"/>

  <circle cx="158" cy="112" r="7" fill="#1a5c2a" stroke="#FFD700" stroke-width="2"/>
<line x1="165.0" y1="112.0" x2="151.0" y2="112.0" stroke="#FFD700" stroke-width="1.2"/>
<line x1="162.9" y1="116.9" x2="153.1" y2="107.1" stroke="#FFD700" stroke-width="1.2"/>
<line x1="158.0" y1="119.0" x2="158.0" y2="105.0" stroke="#FFD700" stroke-width="1.2"/>
<line x1="153.1" y1="116.9" x2="162.9" y2="107.1" stroke="#FFD700" stroke-width="1.2"/>
<circle cx="158" cy="112" r="1.5" fill="#FFD700"/>

  <line x1="5" y1="112" x2="198" y2="112" stroke="#888" stroke-width="2.5"/>


  <text x="100" y="126" font-family="Arial,sans-serif" font-size="7" fill="#555" text-anchor="middle">BTS Bangkok Skytrain · 1999</text>
</svg>