<svg xmlns="http://www.w3.org/2000/svg" viewBox="0 0 200 130" width="200" height="130">

  <rect x="18" y="52" width="148" height="34" rx="7" fill="#1B5E20"/>
  <rect x="24" y="58" width="98" height="22" rx="7" fill="#2E7D32"/>
  <rect x="30" y="18" width="13" height="36" rx="3" fill="#1a1a1a"/>
  <rect x="26" y="14" width="21" height="8" rx="3" fill="#b87333"/>
  <circle cx="22" cy="67" r="16" fill="#1B5E20"/>
  <ellipse cx="90" cy="54" rx="13" ry="9" fill="#1B5E20"/>
  <circle cx="90" cy="54" r="8" fill="#b87333"/>
  <circle cx="90" cy="54" r="5" fill="#1B5E20"/>
  <rect x="148" y="45" width="36" height="41" rx="4" fill="#1a4c1a"/>
  <rect x="151" y="49" width="14" height="14" rx="2" fill="#87CEEB" opacity="0.6"/>
  <rect x="25" y="78" width="120" height="5" fill="#CC0000"/>
  <circle cx="34" cy="101" r="8" fill="#1B5E20" stroke="#b87333" stroke-width="2"/>
<line x1="42.0" y1="101.0" x2="26.0" y2="101.0" stroke="#b87333" stroke-width="1.2"/>
<line x1="39.7" y1="106.7" x2="28.3" y2="95.3" stroke="#b87333" stroke-width="1.2"/>
<line x1="34.0" y1="109.0" x2="34.0" y2="93.0" stroke="#b87333" stroke-width="1.2"/>
<line x1="28.3" y1="106.7" x2="39.7" y2="95.3" stroke="#b87333" stroke-width="1.2"/>
<circle cx="34" cy="101" r="1.8" fill="#b87333"/>

  <circle cx="54" cy="101" r="8" fill="#1B5E20" stroke="#b87333" stroke-width="2"/>
<line x1="62.0" y1="101.0" x2="46.0" y2="101.0" stroke="#b87333" stroke-width="1.2"/>
<line x1="59.7" y1="106.7" x2="48.3" y2="95.3" stroke="#b87333" stroke-width="1.2"/>
<line x1="54.0" y1="109.0" x2="54.0" y2="93.0" stroke="#b87333" stroke-width="1.2"/>
<line x1="48.3" y1="106.7" x2="59.7" y2="95.3" stroke="#b87333" stroke-width="1.2"/>
<circle cx="54" cy="101" r="1.8" fill="#b87333"/>

  <circle cx="80" cy="101" r="13" fill="#1B5E20" stroke="#b87333" stroke-width="2"/>
<line x1="93.0" y1="101.0" x2="67.0" y2="101.0" stroke="#b87333" stroke-width="1.2"/>
<line x1="91.3" y1="107.5" x2="68.7" y2="94.5" stroke="#b87333" stroke-width="1.2"/>
<line x1="86.5" y1="112.3" x2="73.5" y2="89.7" stroke="#b87333" stroke-width="1.2"/>
<line x1="80.0" y1="114.0" x2="80.0" y2="88.0" stroke="#b87333" stroke-width="1.2"/>
<line x1="73.5" y1="112.3" x2="86.5" y2="89.7" stroke="#b87333" stroke-width="1.2"/>
<line x1="68.7" y1="107.5" x2="91.3" y2="94.5" stroke="#b87333" stroke-width="1.2"/>
<circle cx="80" cy="101" r="2.9" fill="#b87333"/>

  <circle cx="103" cy="101" r="13" fill="#1B5E20" stroke="#b87333" stroke-width="2"/>
<line x1="116.0" y1="101.0" x2="90.0" y2="101.0" stroke="#b87333" stroke-width="1.2"/>
<line x1="114.3" y1="107.5" x2="91.7" y2="94.5" stroke="#b87333" stroke-width="1.2"/>
<line x1="109.5" y1="112.3" x2="96.5" y2="89.7" stroke="#b87333" stroke-width="1.2"/>
<line x1="103.0" y1="114.0" x2="103.0" y2="88.0" stroke="#b87333" stroke-width="1.2"/>
<line x1="96.5" y1="112.3" x2="109.5" y2="89.7" stroke="#b87333" stroke-width="1.2"/>
<line x1="91.7" y1="107.5" x2="114.3" y2="94.5" stroke="#b87333" stroke-width="1.2"/>
<circle cx="103" cy="101" r="2.9" fill="#b87333"/>

  <circle cx="126" cy="101" r="13" fill="#1B5E20" stroke="#b87333" stroke-width="2"/>
<line x1="139.0" y1="101.0" x2="113.0" y2="101.0" stroke="#b87333" stroke-width="1.2"/>
<line x1="137.3" y1="107.5" x2="114.7" y2="94.5" stroke="#b87333" stroke-width="1.2"/>
<line x1="132.5" y1="112.3" x2="119.5" y2="89.7" stroke="#b87333" stroke-width="1.2"/>
<line x1="126.0" y1="114.0" x2="126.0" y2="88.0" stroke="#b87333" stroke-width="1.2"/>
<line x1="119.5" y1="112.3" x2="132.5" y2="89.7" stroke="#b87333" stroke-width="1.2"/>
<line x1="114.7" y1="107.5" x2="137.3" y2="94.5" stroke="#b87333" stroke-width="1.2"/>
<circle cx="126" cy="101" r="2.9" fill="#b87333"/>

  <rect x="80" y="99" width="46" height="4" rx="2" fill="#b87333" opacity="0.8"/>
  <line x1="10" y1="112" x2="195" y2="112" stroke="#888" stroke-width="2.5"/>


  <text x="100" y="126" font-family="Arial,sans-serif" font-size="7" fill="#555" text-anchor="middle">Castle Class GWR · 1923</text>
</svg>