<svg xmlns="http://www.w3.org/2000/svg" viewBox="0 0 208 106" width="208" height="106">
  <rect x="8" y="28" width="188" height="48" rx="4" fill="#1A3A6B"/>
  <rect x="8" y="26" width="70" height="52" rx="4" fill="#F0C820"/>
  <rect x="14" y="32" width="18" height="14" rx="2" fill="#87CEEB" opacity="0.75"/>
  <rect x="38" y="32" width="16" height="14" rx="2" fill="#87CEEB" opacity="0.65"/>
  <path d="M8,50 L196,50" stroke="#F0C820" stroke-width="2.5" opacity="0.4"/>
  <rect x="84" y="16" width="10" height="14" rx="2" fill="#555"/>
  <rect x="80" y="13" width="18" height="5" rx="1" fill="#444"/>
  <rect x="110" y="18" width="9" height="12" rx="2" fill="#555"/>
  <rect x="140" y="18" width="9" height="12" rx="2" fill="#555"/>
  <rect x="164" y="16" width="9" height="12" rx="2" fill="#555"/>
  <circle cx="10" cy="52" r="5" fill="#FFE040" opacity="0.9"/>
  <circle cx="196" cy="52" r="4" fill="#FFE040" opacity="0.5"/>
  <path d="M8,74 L4,80 L4,84 L8,82Z" fill="#1A3A6B"/>
  <circle cx="28" cy="88" r="13" fill="#0A1428" stroke="#F0C820" stroke-width="2.5"/>
  <line x1="41.0" y1="88.0" x2="15.0" y2="88.0" stroke="#F0C820" stroke-width="1.2"/>
  <line x1="39.3" y1="94.5" x2="16.7" y2="81.5" stroke="#F0C820" stroke-width="1.2"/>
  <line x1="34.5" y1="99.3" x2="21.5" y2="76.7" stroke="#F0C820" stroke-width="1.2"/>
  <line x1="28.0" y1="101.0" x2="28.0" y2="75.0" stroke="#F0C820" stroke-width="1.2"/>
  <line x1="21.5" y1="99.3" x2="34.5" y2="76.7" stroke="#F0C820" stroke-width="1.2"/>
  <line x1="16.7" y1="94.5" x2="39.3" y2="81.5" stroke="#F0C820" stroke-width="1.2"/>
  <circle cx="28" cy="88" r="2.9" fill="#F0C820"/>
  <circle cx="58" cy="88" r="13" fill="#0A1428" stroke="#F0C820" stroke-width="2.5"/>
  <line x1="71.0" y1="88.0" x2="45.0" y2="88.0" stroke="#F0C820" stroke-width="1.2"/>
  <line x1="69.3" y1="94.5" x2="46.7" y2="81.5" stroke="#F0C820" stroke-width="1.2"/>
  <line x1="64.5" y1="99.3" x2="51.5" y2="76.7" stroke="#F0C820" stroke-width="1.2"/>
  <line x1="58.0" y1="101.0" x2="58.0" y2="75.0" stroke="#F0C820" stroke-width="1.2"/>
  <line x1="51.5" y1="99.3" x2="64.5" y2="76.7" stroke="#F0C820" stroke-width="1.2"/>
  <line x1="46.7" y1="94.5" x2="69.3" y2="81.5" stroke="#F0C820" stroke-width="1.2"/>
  <circle cx="58" cy="88" r="2.9" fill="#F0C820"/>
  <circle cx="104" cy="88" r="13" fill="#0A1428" stroke="#F0C820" stroke-width="2.5"/>
  <line x1="117.0" y1="88.0" x2="91.0" y2="88.0" stroke="#F0C820" stroke-width="1.2"/>
  <line x1="115.3" y1="94.5" x2="92.7" y2="81.5" stroke="#F0C820" stroke-width="1.2"/>
  <line x1="110.5" y1="99.3" x2="97.5" y2="76.7" stroke="#F0C820" stroke-width="1.2"/>
  <line x1="104.0" y1="101.0" x2="104.0" y2="75.0" stroke="#F0C820" stroke-width="1.2"/>
  <line x1="97.5" y1="99.3" x2="110.5" y2="76.7" stroke="#F0C820" stroke-width="1.2"/>
  <line x1="92.7" y1="94.5" x2="115.3" y2="81.5" stroke="#F0C820" stroke-width="1.2"/>
  <circle cx="104" cy="88" r="2.9" fill="#F0C820"/>
  <circle cx="138" cy="88" r="13" fill="#0A1428" stroke="#F0C820" stroke-width="2.5"/>
  <line x1="151.0" y1="88.0" x2="125.0" y2="88.0" stroke="#F0C820" stroke-width="1.2"/>
  <line x1="149.3" y1="94.5" x2="126.7" y2="81.5" stroke="#F0C820" stroke-width="1.2"/>
  <line x1="144.5" y1="99.3" x2="131.5" y2="76.7" stroke="#F0C820" stroke-width="1.2"/>
  <line x1="138.0" y1="101.0" x2="138.0" y2="75.0" stroke="#F0C820" stroke-width="1.2"/>
  <line x1="131.5" y1="99.3" x2="144.5" y2="76.7" stroke="#F0C820" stroke-width="1.2"/>
  <line x1="126.7" y1="94.5" x2="149.3" y2="81.5" stroke="#F0C820" stroke-width="1.2"/>
  <circle cx="138" cy="88" r="2.9" fill="#F0C820"/>
  <circle cx="168" cy="88" r="13" fill="#0A1428" stroke="#F0C820" stroke-width="2.5"/>
  <line x1="181.0" y1="88.0" x2="155.0" y2="88.0" stroke="#F0C820" stroke-width="1.2"/>
  <line x1="179.3" y1="94.5" x2="156.7" y2="81.5" stroke="#F0C820" stroke-width="1.2"/>
  <line x1="174.5" y1="99.3" x2="161.5" y2="76.7" stroke="#F0C820" stroke-width="1.2"/>
  <line x1="168.0" y1="101.0" x2="168.0" y2="75.0" stroke="#F0C820" stroke-width="1.2"/>
  <line x1="161.5" y1="99.3" x2="174.5" y2="76.7" stroke="#F0C820" stroke-width="1.2"/>
  <line x1="156.7" y1="94.5" x2="179.3" y2="81.5" stroke="#F0C820" stroke-width="1.2"/>
  <circle cx="168" cy="88" r="2.9" fill="#F0C820"/>

  <text x="104" y="102" font-family="Arial,sans-serif" font-size="7" fill="#666" text-anchor="middle">CC203 Indonesia · 1995</text>
</svg>