<svg xmlns="http://www.w3.org/2000/svg" viewBox="0 0 200 130" width="200" height="130">

  <!-- wider nose different from CC201 -->
  <path d="M8,68 Q12,42 28,38 L185,38 L188,68 L185,98 L28,98 Q12,94 8,68 Z" fill="#2255a0"/>
  <!-- wider nose box -->
  <rect x="8" y="48" width="30" height="40" rx="4" fill="#2255a0"/>
  <rect x="12" y="52" width="18" height="14" rx="2" fill="#87CEEB" opacity="0.7"/>
  <!-- orange wide stripe -->
  <rect x="28" y="62" width="160" height="14" fill="#FF6600"/>
  <rect x="8" y="68" width="24" height="8" fill="#FF6600"/>
  <rect x="152" y="38" width="36" height="60" rx="3" fill="#1a4080"/>
  <rect x="155" y="42" width="18" height="16" rx="2" fill="#87CEEB" opacity="0.7"/>
  <circle cx="12" cy="63" r="5" fill="#FFE040" opacity="0.9"/>
  <circle cx="12" cy="79" r="5" fill="#FFE040" opacity="0.9"/>
  <circle cx="26" cy="106" r="8" fill="#1a3a80" stroke="#FF6600" stroke-width="2"/>
<line x1="34.0" y1="106.0" x2="18.0" y2="106.0" stroke="#FF6600" stroke-width="1.2"/>
<line x1="31.7" y1="111.7" x2="20.3" y2="100.3" stroke="#FF6600" stroke-width="1.2"/>
<line x1="26.0" y1="114.0" x2="26.0" y2="98.0" stroke="#FF6600" stroke-width="1.2"/>
<line x1="20.3" y1="111.7" x2="31.7" y2="100.3" stroke="#FF6600" stroke-width="1.2"/>
<circle cx="26" cy="106" r="1.8" fill="#FF6600"/>

  <circle cx="52" cy="106" r="8" fill="#1a3a80" stroke="#FF6600" stroke-width="2"/>
<line x1="60.0" y1="106.0" x2="44.0" y2="106.0" stroke="#FF6600" stroke-width="1.2"/>
<line x1="57.7" y1="111.7" x2="46.3" y2="100.3" stroke="#FF6600" stroke-width="1.2"/>
<line x1="52.0" y1="114.0" x2="52.0" y2="98.0" stroke="#FF6600" stroke-width="1.2"/>
<line x1="46.3" y1="111.7" x2="57.7" y2="100.3" stroke="#FF6600" stroke-width="1.2"/>
<circle cx="52" cy="106" r="1.8" fill="#FF6600"/>

  <circle cx="80" cy="106" r="8" fill="#1a3a80" stroke="#FF6600" stroke-width="2"/>
<line x1="88.0" y1="106.0" x2="72.0" y2="106.0" stroke="#FF6600" stroke-width="1.2"/>
<line x1="85.7" y1="111.7" x2="74.3" y2="100.3" stroke="#FF6600" stroke-width="1.2"/>
<line x1="80.0" y1="114.0" x2="80.0" y2="98.0" stroke="#FF6600" stroke-width="1.2"/>
<line x1="74.3" y1="111.7" x2="85.7" y2="100.3" stroke="#FF6600" stroke-width="1.2"/>
<circle cx="80" cy="106" r="1.8" fill="#FF6600"/>

  <circle cx="112" cy="106" r="8" fill="#1a3a80" stroke="#FF6600" stroke-width="2"/>
<line x1="120.0" y1="106.0" x2="104.0" y2="106.0" stroke="#FF6600" stroke-width="1.2"/>
<line x1="117.7" y1="111.7" x2="106.3" y2="100.3" stroke="#FF6600" stroke-width="1.2"/>
<line x1="112.0" y1="114.0" x2="112.0" y2="98.0" stroke="#FF6600" stroke-width="1.2"/>
<line x1="106.3" y1="111.7" x2="117.7" y2="100.3" stroke="#FF6600" stroke-width="1.2"/>
<circle cx="112" cy="106" r="1.8" fill="#FF6600"/>

  <circle cx="148" cy="106" r="8" fill="#1a3a80" stroke="#FF6600" stroke-width="2"/>
<line x1="156.0" y1="106.0" x2="140.0" y2="106.0" stroke="#FF6600" stroke-width="1.2"/>
<line x1="153.7" y1="111.7" x2="142.3" y2="100.3" stroke="#FF6600" stroke-width="1.2"/>
<line x1="148.0" y1="114.0" x2="148.0" y2="98.0" stroke="#FF6600" stroke-width="1.2"/>
<line x1="142.3" y1="111.7" x2="153.7" y2="100.3" stroke="#FF6600" stroke-width="1.2"/>
<circle cx="148" cy="106" r="1.8" fill="#FF6600"/>

  <circle cx="174" cy="106" r="8" fill="#1a3a80" stroke="#FF6600" stroke-width="2"/>
<line x1="182.0" y1="106.0" x2="166.0" y2="106.0" stroke="#FF6600" stroke-width="1.2"/>
<line x1="179.7" y1="111.7" x2="168.3" y2="100.3" stroke="#FF6600" stroke-width="1.2"/>
<line x1="174.0" y1="114.0" x2="174.0" y2="98.0" stroke="#FF6600" stroke-width="1.2"/>
<line x1="168.3" y1="111.7" x2="179.7" y2="100.3" stroke="#FF6600" stroke-width="1.2"/>
<circle cx="174" cy="106" r="1.8" fill="#FF6600"/>

  <line x1="5" y1="112" x2="198" y2="112" stroke="#888" stroke-width="2.5"/>


  <text x="100" y="126" font-family="Arial,sans-serif" font-size="7" fill="#555" text-anchor="middle">CC203 Indonesia · 1995</text>
</svg>