<svg xmlns="http://www.w3.org/2000/svg" viewBox="0 0 215 110">
  <!-- main body -->
  <rect x="6" y="26" width="200" height="54" rx="4" fill="#1A4A1A"/>
  <!-- full-width cab at left end -->
  <rect x="6" y="24" width="72" height="58" rx="4" fill="#1A4A1A"/>
  <!-- orange diagonal stripe (iconic PTKAI/KAI marking) -->
  <path d="M6,26 L78,26 L78,80 L6,80Z" fill="#1A4A1A"/>
  <path d="M6,26 Q40,26 72,60 L6,80Z" fill="#E87800" opacity=".7"/>
  <!-- cab windows -->
  <rect x="14" y="32" width="20" height="16" rx="2" fill="#87CEEB" opacity=".75"/>
  <rect x="40" y="32" width="18" height="16" rx="2" fill="#87CEEB" opacity=".65"/>
  <!-- orange waist stripe along hood -->
  <rect x="78" y="44" width="128" height="8" rx="2" fill="#E87800" opacity=".7"/>
  <!-- exhaust stacks on hood -->
  <rect x="92"  y="14" width="9" height="14" rx="2" fill="#333"/>
  <rect x="88"  y="11" width="17" height="5" rx="1" fill="#222"/>
  <rect x="122" y="16" width="8" height="12" rx="2" fill="#333"/>
  <rect x="152" y="16" width="8" height="12" rx="2" fill="#333"/>
  <rect x="180" y="16" width="8" height="12" rx="2" fill="#333"/>
  <!-- dynamic brake grid at rear top -->
  <rect x="150" y="26" width="54" height="10" rx="2" fill="#0A2A0A"/>
  <line x1="158" y1="26" x2="158" y2="36" stroke="#1A4A1A" stroke-width="2"/>
  <line x1="166" y1="26" x2="166" y2="36" stroke="#1A4A1A" stroke-width="2"/>
  <line x1="174" y1="26" x2="174" y2="36" stroke="#1A4A1A" stroke-width="2"/>
  <line x1="182" y1="26" x2="182" y2="36" stroke="#1A4A1A" stroke-width="2"/>
  <line x1="190" y1="26" x2="190" y2="36" stroke="#1A4A1A" stroke-width="2"/>
  <!-- headlamp -->
  <circle cx="8"  cy="52" r="6" fill="#FFE040" opacity=".9"/>
  <!-- coupler -->
  <rect x="200" y="46" width="10" height="10" rx="2" fill="#555"/>
  <path d="M6,78 L2,82 L2,86 L6,84Z" fill="#1A4A1A"/>
  <!-- 3 bogies (Co-Co = 3 axle per bogie) with 6 total wheels -->
  <circle cx="28"  cy="92" r="12" fill="#111" stroke="#E87800" stroke-width="2.5"/>
  <circle cx="56"  cy="92" r="12" fill="#111" stroke="#E87800" stroke-width="2.5"/>
  <circle cx="84"  cy="92" r="12" fill="#111" stroke="#E87800" stroke-width="2.5"/>
  <circle cx="128" cy="92" r="12" fill="#111" stroke="#E87800" stroke-width="2.5"/>
  <circle cx="156" cy="92" r="12" fill="#111" stroke="#E87800" stroke-width="2.5"/>
  <circle cx="184" cy="92" r="12" fill="#111" stroke="#E87800" stroke-width="2.5"/>
  <circle cx="28"  cy="92" r="3.5" fill="#E87800"/>
  <circle cx="56"  cy="92" r="3.5" fill="#E87800"/>
  <circle cx="84"  cy="92" r="3.5" fill="#E87800"/>
  <circle cx="128" cy="92" r="3.5" fill="#E87800"/>
  <circle cx="156" cy="92" r="3.5" fill="#E87800"/>
  <circle cx="184" cy="92" r="3.5" fill="#E87800"/>
  <text x="108" y="108" font-family="Arial" font-size="7" fill="#888" text-anchor="middle">CC201 · KAI Indonesia · 1976</text>
</svg>