<svg xmlns="http://www.w3.org/2000/svg" viewBox="0 0 200 130" width="200" height="130">

  <!-- CC300 modern electric Indonesia, blue -->
  <path d="M10,68 Q20,42 40,38 L185,38 L188,68 L185,98 L40,98 Q20,94 10,68 Z" fill="#1a5cab"/>
  <polygon points="10,38 10,98 38,90 38,46" fill="#1448a0"/>
  <rect x="14" y="50" width="18" height="14" rx="2" fill="#87CEEB" opacity="0.7"/>
  <!-- orange KAI stripe -->
  <rect x="38" y="62" width="150" height="12" fill="#FF6600"/>
  <rect x="10" y="62" width="30" height="12" fill="#FF6600"/>
  <rect x="152" y="38" width="36" height="60" rx="4" fill="#1448a0"/>
  <rect x="155" y="42" width="18" height="16" rx="2" fill="#87CEEB" opacity="0.7"/>
  <!-- prominent modern pantograph CC300 -->
  <line x1="70" y1="38" x2="64" y2="18" stroke="#aaa" stroke-width="2"/>
  <line x1="100" y1="38" x2="106" y2="18" stroke="#aaa" stroke-width="2"/>
  <line x1="62" y1="18" x2="108" y2="18" stroke="#ccc" stroke-width="3"/>
  <line x1="85" y1="18" x2="85" y2="10" stroke="#aaa" stroke-width="1.5"/>
  <line x1="76" y1="10" x2="94" y2="10" stroke="#ccc" stroke-width="2.5"/>
  <circle cx="26" cy="106" r="9" fill="#1a3a7c" stroke="#FF6600" stroke-width="2"/>
<line x1="35.0" y1="106.0" x2="17.0" y2="106.0" stroke="#FF6600" stroke-width="1.2"/>
<line x1="32.4" y1="112.4" x2="19.6" y2="99.6" stroke="#FF6600" stroke-width="1.2"/>
<line x1="26.0" y1="115.0" x2="26.0" y2="97.0" stroke="#FF6600" stroke-width="1.2"/>
<line x1="19.6" y1="112.4" x2="32.4" y2="99.6" stroke="#FF6600" stroke-width="1.2"/>
<circle cx="26" cy="106" r="2.0" fill="#FF6600"/>

  <circle cx="52" cy="106" r="9" fill="#1a3a7c" stroke="#FF6600" stroke-width="2"/>
<line x1="61.0" y1="106.0" x2="43.0" y2="106.0" stroke="#FF6600" stroke-width="1.2"/>
<line x1="58.4" y1="112.4" x2="45.6" y2="99.6" stroke="#FF6600" stroke-width="1.2"/>
<line x1="52.0" y1="115.0" x2="52.0" y2="97.0" stroke="#FF6600" stroke-width="1.2"/>
<line x1="45.6" y1="112.4" x2="58.4" y2="99.6" stroke="#FF6600" stroke-width="1.2"/>
<circle cx="52" cy="106" r="2.0" fill="#FF6600"/>

  <circle cx="80" cy="106" r="9" fill="#1a3a7c" stroke="#FF6600" stroke-width="2"/>
<line x1="89.0" y1="106.0" x2="71.0" y2="106.0" stroke="#FF6600" stroke-width="1.2"/>
<line x1="86.4" y1="112.4" x2="73.6" y2="99.6" stroke="#FF6600" stroke-width="1.2"/>
<line x1="80.0" y1="115.0" x2="80.0" y2="97.0" stroke="#FF6600" stroke-width="1.2"/>
<line x1="73.6" y1="112.4" x2="86.4" y2="99.6" stroke="#FF6600" stroke-width="1.2"/>
<circle cx="80" cy="106" r="2.0" fill="#FF6600"/>

  <circle cx="112" cy="106" r="9" fill="#1a3a7c" stroke="#FF6600" stroke-width="2"/>
<line x1="121.0" y1="106.0" x2="103.0" y2="106.0" stroke="#FF6600" stroke-width="1.2"/>
<line x1="118.4" y1="112.4" x2="105.6" y2="99.6" stroke="#FF6600" stroke-width="1.2"/>
<line x1="112.0" y1="115.0" x2="112.0" y2="97.0" stroke="#FF6600" stroke-width="1.2"/>
<line x1="105.6" y1="112.4" x2="118.4" y2="99.6" stroke="#FF6600" stroke-width="1.2"/>
<circle cx="112" cy="106" r="2.0" fill="#FF6600"/>

  <circle cx="148" cy="106" r="9" fill="#1a3a7c" stroke="#FF6600" stroke-width="2"/>
<line x1="157.0" y1="106.0" x2="139.0" y2="106.0" stroke="#FF6600" stroke-width="1.2"/>
<line x1="154.4" y1="112.4" x2="141.6" y2="99.6" stroke="#FF6600" stroke-width="1.2"/>
<line x1="148.0" y1="115.0" x2="148.0" y2="97.0" stroke="#FF6600" stroke-width="1.2"/>
<line x1="141.6" y1="112.4" x2="154.4" y2="99.6" stroke="#FF6600" stroke-width="1.2"/>
<circle cx="148" cy="106" r="2.0" fill="#FF6600"/>

  <circle cx="174" cy="106" r="9" fill="#1a3a7c" stroke="#FF6600" stroke-width="2"/>
<line x1="183.0" y1="106.0" x2="165.0" y2="106.0" stroke="#FF6600" stroke-width="1.2"/>
<line x1="180.4" y1="112.4" x2="167.6" y2="99.6" stroke="#FF6600" stroke-width="1.2"/>
<line x1="174.0" y1="115.0" x2="174.0" y2="97.0" stroke="#FF6600" stroke-width="1.2"/>
<line x1="167.6" y1="112.4" x2="180.4" y2="99.6" stroke="#FF6600" stroke-width="1.2"/>
<circle cx="174" cy="106" r="2.0" fill="#FF6600"/>

  <line x1="5" y1="112" x2="198" y2="112" stroke="#888" stroke-width="2.5"/>


  <text x="100" y="126" font-family="Arial,sans-serif" font-size="7" fill="#555" text-anchor="middle">CC300 Indonesia · 2018</text>
</svg>