<svg xmlns="http://www.w3.org/2000/svg" viewBox="0 0 285 108" width="285" height="108">
  <ellipse cx="38" cy="12" rx="8" ry="5" fill="#BBB" opacity="0.5"/>
  <rect x="30" y="14" width="15" height="26" rx="2" fill="#555"/>
  <rect x="26" y="10" width="23" height="6" rx="2" fill="#333"/>
  <rect x="38" y="30" width="200" height="36" rx="8" fill="#2A1A0A"/>
  <ellipse cx="88" cy="28" rx="12" ry="8" fill="#2A1A0A"/>
  <ellipse cx="148" cy="28" rx="12" ry="8" fill="#2A1A0A"/>
  <rect x="5" y="30" width="5" height="36" rx="1" fill="#2A1A0A"/>
  <rect x="228" y="22" width="45" height="44" rx="3" fill="#7A5A2A"/>
  <rect x="225" y="16" width="51" height="8" rx="2" fill="#2A1A0A"/>
  <rect x="234" y="27" width="12" height="9" rx="2" fill="#87CEEB" opacity="0.7"/>
  <rect x="251" y="27" width="12" height="9" rx="2" fill="#87CEEB" opacity="0.7"/>
  <rect x="36" y="64" width="237" height="8" rx="2" fill="#7A5A2A" opacity="0.5"/>
  <path d="M36,64 L10,74 L10,78 L36,72Z" fill="#2A1A0A"/>
  <circle cx="22" cy="52" r="5" fill="#FFE040" opacity="0.9"/>
  <rect x="116" y="56" width="8" height="18" rx="2" fill="#666" opacity="0.5"/>
  <circle cx="52" cy="84" r="16" fill="#100800" stroke="#7A5A2A" stroke-width="2.5"/>
  <line x1="68.0" y1="84.0" x2="36.0" y2="84.0" stroke="#7A5A2A" stroke-width="1.2"/>
  <line x1="66.8" y1="90.1" x2="37.2" y2="77.9" stroke="#7A5A2A" stroke-width="1.2"/>
  <line x1="63.3" y1="95.3" x2="40.7" y2="72.7" stroke="#7A5A2A" stroke-width="1.2"/>
  <line x1="58.1" y1="98.8" x2="45.9" y2="69.2" stroke="#7A5A2A" stroke-width="1.2"/>
  <line x1="52.0" y1="100.0" x2="52.0" y2="68.0" stroke="#7A5A2A" stroke-width="1.2"/>
  <line x1="45.9" y1="98.8" x2="58.1" y2="69.2" stroke="#7A5A2A" stroke-width="1.2"/>
  <line x1="40.7" y1="95.3" x2="63.3" y2="72.7" stroke="#7A5A2A" stroke-width="1.2"/>
  <line x1="37.2" y1="90.1" x2="66.8" y2="77.9" stroke="#7A5A2A" stroke-width="1.2"/>
  <circle cx="52" cy="84" r="3.5" fill="#7A5A2A"/>
  <circle cx="82" cy="84" r="16" fill="#100800" stroke="#7A5A2A" stroke-width="2.5"/>
  <line x1="98.0" y1="84.0" x2="66.0" y2="84.0" stroke="#7A5A2A" stroke-width="1.2"/>
  <line x1="96.8" y1="90.1" x2="67.2" y2="77.9" stroke="#7A5A2A" stroke-width="1.2"/>
  <line x1="93.3" y1="95.3" x2="70.7" y2="72.7" stroke="#7A5A2A" stroke-width="1.2"/>
  <line x1="88.1" y1="98.8" x2="75.9" y2="69.2" stroke="#7A5A2A" stroke-width="1.2"/>
  <line x1="82.0" y1="100.0" x2="82.0" y2="68.0" stroke="#7A5A2A" stroke-width="1.2"/>
  <line x1="75.9" y1="98.8" x2="88.1" y2="69.2" stroke="#7A5A2A" stroke-width="1.2"/>
  <line x1="70.7" y1="95.3" x2="93.3" y2="72.7" stroke="#7A5A2A" stroke-width="1.2"/>
  <line x1="67.2" y1="90.1" x2="96.8" y2="77.9" stroke="#7A5A2A" stroke-width="1.2"/>
  <circle cx="82" cy="84" r="3.5" fill="#7A5A2A"/>
  <circle cx="112" cy="84" r="16" fill="#100800" stroke="#7A5A2A" stroke-width="2.5"/>
  <line x1="128.0" y1="84.0" x2="96.0" y2="84.0" stroke="#7A5A2A" stroke-width="1.2"/>
  <line x1="126.8" y1="90.1" x2="97.2" y2="77.9" stroke="#7A5A2A" stroke-width="1.2"/>
  <line x1="123.3" y1="95.3" x2="100.7" y2="72.7" stroke="#7A5A2A" stroke-width="1.2"/>
  <line x1="118.1" y1="98.8" x2="105.9" y2="69.2" stroke="#7A5A2A" stroke-width="1.2"/>
  <line x1="112.0" y1="100.0" x2="112.0" y2="68.0" stroke="#7A5A2A" stroke-width="1.2"/>
  <line x1="105.9" y1="98.8" x2="118.1" y2="69.2" stroke="#7A5A2A" stroke-width="1.2"/>
  <line x1="100.7" y1="95.3" x2="123.3" y2="72.7" stroke="#7A5A2A" stroke-width="1.2"/>
  <line x1="97.2" y1="90.1" x2="126.8" y2="77.9" stroke="#7A5A2A" stroke-width="1.2"/>
  <circle cx="112" cy="84" r="3.5" fill="#7A5A2A"/>
  <circle cx="172" cy="84" r="16" fill="#100800" stroke="#7A5A2A" stroke-width="2.5"/>
  <line x1="188.0" y1="84.0" x2="156.0" y2="84.0" stroke="#7A5A2A" stroke-width="1.2"/>
  <line x1="186.8" y1="90.1" x2="157.2" y2="77.9" stroke="#7A5A2A" stroke-width="1.2"/>
  <line x1="183.3" y1="95.3" x2="160.7" y2="72.7" stroke="#7A5A2A" stroke-width="1.2"/>
  <line x1="178.1" y1="98.8" x2="165.9" y2="69.2" stroke="#7A5A2A" stroke-width="1.2"/>
  <line x1="172.0" y1="100.0" x2="172.0" y2="68.0" stroke="#7A5A2A" stroke-width="1.2"/>
  <line x1="165.9" y1="98.8" x2="178.1" y2="69.2" stroke="#7A5A2A" stroke-width="1.2"/>
  <line x1="160.7" y1="95.3" x2="183.3" y2="72.7" stroke="#7A5A2A" stroke-width="1.2"/>
  <line x1="157.2" y1="90.1" x2="186.8" y2="77.9" stroke="#7A5A2A" stroke-width="1.2"/>
  <circle cx="172" cy="84" r="3.5" fill="#7A5A2A"/>
  <circle cx="202" cy="84" r="16" fill="#100800" stroke="#7A5A2A" stroke-width="2.5"/>
  <line x1="218.0" y1="84.0" x2="186.0" y2="84.0" stroke="#7A5A2A" stroke-width="1.2"/>
  <line x1="216.8" y1="90.1" x2="187.2" y2="77.9" stroke="#7A5A2A" stroke-width="1.2"/>
  <line x1="213.3" y1="95.3" x2="190.7" y2="72.7" stroke="#7A5A2A" stroke-width="1.2"/>
  <line x1="208.1" y1="98.8" x2="195.9" y2="69.2" stroke="#7A5A2A" stroke-width="1.2"/>
  <line x1="202.0" y1="100.0" x2="202.0" y2="68.0" stroke="#7A5A2A" stroke-width="1.2"/>
  <line x1="195.9" y1="98.8" x2="208.1" y2="69.2" stroke="#7A5A2A" stroke-width="1.2"/>
  <line x1="190.7" y1="95.3" x2="213.3" y2="72.7" stroke="#7A5A2A" stroke-width="1.2"/>
  <line x1="187.2" y1="90.1" x2="216.8" y2="77.9" stroke="#7A5A2A" stroke-width="1.2"/>
  <circle cx="202" cy="84" r="3.5" fill="#7A5A2A"/>
  <circle cx="232" cy="84" r="16" fill="#100800" stroke="#7A5A2A" stroke-width="2.5"/>
  <line x1="248.0" y1="84.0" x2="216.0" y2="84.0" stroke="#7A5A2A" stroke-width="1.2"/>
  <line x1="246.8" y1="90.1" x2="217.2" y2="77.9" stroke="#7A5A2A" stroke-width="1.2"/>
  <line x1="243.3" y1="95.3" x2="220.7" y2="72.7" stroke="#7A5A2A" stroke-width="1.2"/>
  <line x1="238.1" y1="98.8" x2="225.9" y2="69.2" stroke="#7A5A2A" stroke-width="1.2"/>
  <line x1="232.0" y1="100.0" x2="232.0" y2="68.0" stroke="#7A5A2A" stroke-width="1.2"/>
  <line x1="225.9" y1="98.8" x2="238.1" y2="69.2" stroke="#7A5A2A" stroke-width="1.2"/>
  <line x1="220.7" y1="95.3" x2="243.3" y2="72.7" stroke="#7A5A2A" stroke-width="1.2"/>
  <line x1="217.2" y1="90.1" x2="246.8" y2="77.9" stroke="#7A5A2A" stroke-width="1.2"/>
  <circle cx="232" cy="84" r="3.5" fill="#7A5A2A"/>
  <circle cx="35" cy="86" r="10" fill="#100800" stroke="#7A5A2A" stroke-width="2.5"/>
  <line x1="45.0" y1="86.0" x2="25.0" y2="86.0" stroke="#7A5A2A" stroke-width="1.2"/>
  <line x1="42.1" y1="93.1" x2="27.9" y2="78.9" stroke="#7A5A2A" stroke-width="1.2"/>
  <line x1="35.0" y1="96.0" x2="35.0" y2="76.0" stroke="#7A5A2A" stroke-width="1.2"/>
  <line x1="27.9" y1="93.1" x2="42.1" y2="78.9" stroke="#7A5A2A" stroke-width="1.2"/>
  <circle cx="35" cy="86" r="2.2" fill="#7A5A2A"/>
  <circle cx="258" cy="86" r="10" fill="#100800" stroke="#7A5A2A" stroke-width="2.5"/>
  <line x1="268.0" y1="86.0" x2="248.0" y2="86.0" stroke="#7A5A2A" stroke-width="1.2"/>
  <line x1="265.1" y1="93.1" x2="250.9" y2="78.9" stroke="#7A5A2A" stroke-width="1.2"/>
  <line x1="258.0" y1="96.0" x2="258.0" y2="76.0" stroke="#7A5A2A" stroke-width="1.2"/>
  <line x1="250.9" y1="93.1" x2="265.1" y2="78.9" stroke="#7A5A2A" stroke-width="1.2"/>
  <circle cx="258" cy="86" r="2.2" fill="#7A5A2A"/>

  <text x="142" y="104" font-family="Arial,sans-serif" font-size="7" fill="#666" text-anchor="middle">Challenger 4-6-6-4 · 1936</text>
</svg>