<svg xmlns="http://www.w3.org/2000/svg" viewBox="0 0 200 130" width="200" height="130">

  <!-- UP gray body -->
  <rect x="8" y="50" width="180" height="40" rx="8" fill="#7a7a7a"/>
  <!-- articulation joint - key feature, slight S curve in body -->
  <line x1="96" y1="48" x2="96" y2="94" stroke="#555" stroke-width="3" stroke-dasharray="3,2"/>
  <rect x="93" y="50" width="6" height="40" fill="#666"/>
  <!-- front unit boiler -->
  <rect x="14" y="55" width="80" height="28" rx="7" fill="#898989"/>
  <!-- rear unit boiler -->
  <rect x="100" y="55" width="78" height="28" rx="7" fill="#898989"/>
  <!-- cab -->
  <rect x="166" y="42" width="32" height="48" rx="4" fill="#6a6a6a"/>
  <rect x="169" y="46" width="13" height="14" rx="2" fill="#87CEEB" opacity="0.6"/>
  <!-- chimney front -->
  <rect x="22" y="16" width="14" height="36" rx="4" fill="#555"/>
  <rect x="18" y="12" width="22" height="8" rx="2" fill="#666"/>
  <!-- yellow UP stripe -->
  <rect x="8" y="62" width="180" height="8" fill="#FFD700" opacity="0.8"/>
  <!-- smokebox -->
  <circle cx="12" cy="68" r="16" fill="#555"/>
  <!-- 2+3+3+2 = 4-6-6-4 -->
  <circle cx="22" cy="103" r="8" fill="#555" stroke="#FFD700" stroke-width="2"/>
<line x1="30.0" y1="103.0" x2="14.0" y2="103.0" stroke="#FFD700" stroke-width="1.2"/>
<line x1="27.7" y1="108.7" x2="16.3" y2="97.3" stroke="#FFD700" stroke-width="1.2"/>
<line x1="22.0" y1="111.0" x2="22.0" y2="95.0" stroke="#FFD700" stroke-width="1.2"/>
<line x1="16.3" y1="108.7" x2="27.7" y2="97.3" stroke="#FFD700" stroke-width="1.2"/>
<circle cx="22" cy="103" r="1.8" fill="#FFD700"/>

  <circle cx="42" cy="103" r="8" fill="#555" stroke="#FFD700" stroke-width="2"/>
<line x1="50.0" y1="103.0" x2="34.0" y2="103.0" stroke="#FFD700" stroke-width="1.2"/>
<line x1="47.7" y1="108.7" x2="36.3" y2="97.3" stroke="#FFD700" stroke-width="1.2"/>
<line x1="42.0" y1="111.0" x2="42.0" y2="95.0" stroke="#FFD700" stroke-width="1.2"/>
<line x1="36.3" y1="108.7" x2="47.7" y2="97.3" stroke="#FFD700" stroke-width="1.2"/>
<circle cx="42" cy="103" r="1.8" fill="#FFD700"/>

  <circle cx="62" cy="103" r="12" fill="#555" stroke="#FFD700" stroke-width="2"/>
<line x1="74.0" y1="103.0" x2="50.0" y2="103.0" stroke="#FFD700" stroke-width="1.2"/>
<line x1="72.4" y1="109.0" x2="51.6" y2="97.0" stroke="#FFD700" stroke-width="1.2"/>
<line x1="68.0" y1="113.4" x2="56.0" y2="92.6" stroke="#FFD700" stroke-width="1.2"/>
<line x1="62.0" y1="115.0" x2="62.0" y2="91.0" stroke="#FFD700" stroke-width="1.2"/>
<line x1="56.0" y1="113.4" x2="68.0" y2="92.6" stroke="#FFD700" stroke-width="1.2"/>
<line x1="51.6" y1="109.0" x2="72.4" y2="97.0" stroke="#FFD700" stroke-width="1.2"/>
<circle cx="62" cy="103" r="2.6" fill="#FFD700"/>

  <circle cx="80" cy="103" r="12" fill="#555" stroke="#FFD700" stroke-width="2"/>
<line x1="92.0" y1="103.0" x2="68.0" y2="103.0" stroke="#FFD700" stroke-width="1.2"/>
<line x1="90.4" y1="109.0" x2="69.6" y2="97.0" stroke="#FFD700" stroke-width="1.2"/>
<line x1="86.0" y1="113.4" x2="74.0" y2="92.6" stroke="#FFD700" stroke-width="1.2"/>
<line x1="80.0" y1="115.0" x2="80.0" y2="91.0" stroke="#FFD700" stroke-width="1.2"/>
<line x1="74.0" y1="113.4" x2="86.0" y2="92.6" stroke="#FFD700" stroke-width="1.2"/>
<line x1="69.6" y1="109.0" x2="90.4" y2="97.0" stroke="#FFD700" stroke-width="1.2"/>
<circle cx="80" cy="103" r="2.6" fill="#FFD700"/>

  <circle cx="98" cy="103" r="12" fill="#555" stroke="#FFD700" stroke-width="2"/>
<line x1="110.0" y1="103.0" x2="86.0" y2="103.0" stroke="#FFD700" stroke-width="1.2"/>
<line x1="108.4" y1="109.0" x2="87.6" y2="97.0" stroke="#FFD700" stroke-width="1.2"/>
<line x1="104.0" y1="113.4" x2="92.0" y2="92.6" stroke="#FFD700" stroke-width="1.2"/>
<line x1="98.0" y1="115.0" x2="98.0" y2="91.0" stroke="#FFD700" stroke-width="1.2"/>
<line x1="92.0" y1="113.4" x2="104.0" y2="92.6" stroke="#FFD700" stroke-width="1.2"/>
<line x1="87.6" y1="109.0" x2="108.4" y2="97.0" stroke="#FFD700" stroke-width="1.2"/>
<circle cx="98" cy="103" r="2.6" fill="#FFD700"/>

  <circle cx="116" cy="103" r="12" fill="#555" stroke="#FFD700" stroke-width="2"/>
<line x1="128.0" y1="103.0" x2="104.0" y2="103.0" stroke="#FFD700" stroke-width="1.2"/>
<line x1="126.4" y1="109.0" x2="105.6" y2="97.0" stroke="#FFD700" stroke-width="1.2"/>
<line x1="122.0" y1="113.4" x2="110.0" y2="92.6" stroke="#FFD700" stroke-width="1.2"/>
<line x1="116.0" y1="115.0" x2="116.0" y2="91.0" stroke="#FFD700" stroke-width="1.2"/>
<line x1="110.0" y1="113.4" x2="122.0" y2="92.6" stroke="#FFD700" stroke-width="1.2"/>
<line x1="105.6" y1="109.0" x2="126.4" y2="97.0" stroke="#FFD700" stroke-width="1.2"/>
<circle cx="116" cy="103" r="2.6" fill="#FFD700"/>

  <circle cx="134" cy="103" r="12" fill="#555" stroke="#FFD700" stroke-width="2"/>
<line x1="146.0" y1="103.0" x2="122.0" y2="103.0" stroke="#FFD700" stroke-width="1.2"/>
<line x1="144.4" y1="109.0" x2="123.6" y2="97.0" stroke="#FFD700" stroke-width="1.2"/>
<line x1="140.0" y1="113.4" x2="128.0" y2="92.6" stroke="#FFD700" stroke-width="1.2"/>
<line x1="134.0" y1="115.0" x2="134.0" y2="91.0" stroke="#FFD700" stroke-width="1.2"/>
<line x1="128.0" y1="113.4" x2="140.0" y2="92.6" stroke="#FFD700" stroke-width="1.2"/>
<line x1="123.6" y1="109.0" x2="144.4" y2="97.0" stroke="#FFD700" stroke-width="1.2"/>
<circle cx="134" cy="103" r="2.6" fill="#FFD700"/>

  <circle cx="152" cy="103" r="12" fill="#555" stroke="#FFD700" stroke-width="2"/>
<line x1="164.0" y1="103.0" x2="140.0" y2="103.0" stroke="#FFD700" stroke-width="1.2"/>
<line x1="162.4" y1="109.0" x2="141.6" y2="97.0" stroke="#FFD700" stroke-width="1.2"/>
<line x1="158.0" y1="113.4" x2="146.0" y2="92.6" stroke="#FFD700" stroke-width="1.2"/>
<line x1="152.0" y1="115.0" x2="152.0" y2="91.0" stroke="#FFD700" stroke-width="1.2"/>
<line x1="146.0" y1="113.4" x2="158.0" y2="92.6" stroke="#FFD700" stroke-width="1.2"/>
<line x1="141.6" y1="109.0" x2="162.4" y2="97.0" stroke="#FFD700" stroke-width="1.2"/>
<circle cx="152" cy="103" r="2.6" fill="#FFD700"/>

  <circle cx="170" cy="103" r="8" fill="#555" stroke="#FFD700" stroke-width="2"/>
<line x1="178.0" y1="103.0" x2="162.0" y2="103.0" stroke="#FFD700" stroke-width="1.2"/>
<line x1="175.7" y1="108.7" x2="164.3" y2="97.3" stroke="#FFD700" stroke-width="1.2"/>
<line x1="170.0" y1="111.0" x2="170.0" y2="95.0" stroke="#FFD700" stroke-width="1.2"/>
<line x1="164.3" y1="108.7" x2="175.7" y2="97.3" stroke="#FFD700" stroke-width="1.2"/>
<circle cx="170" cy="103" r="1.8" fill="#FFD700"/>

  <circle cx="185" cy="103" r="8" fill="#555" stroke="#FFD700" stroke-width="2"/>
<line x1="193.0" y1="103.0" x2="177.0" y2="103.0" stroke="#FFD700" stroke-width="1.2"/>
<line x1="190.7" y1="108.7" x2="179.3" y2="97.3" stroke="#FFD700" stroke-width="1.2"/>
<line x1="185.0" y1="111.0" x2="185.0" y2="95.0" stroke="#FFD700" stroke-width="1.2"/>
<line x1="179.3" y1="108.7" x2="190.7" y2="97.3" stroke="#FFD700" stroke-width="1.2"/>
<circle cx="185" cy="103" r="1.8" fill="#FFD700"/>

  <line x1="5" y1="112" x2="198" y2="112" stroke="#888" stroke-width="2.5"/>


  <text x="100" y="126" font-family="Arial,sans-serif" font-size="7" fill="#555" text-anchor="middle">Challenger 4-6-6-4 · 1936</text>
</svg>