<svg xmlns="http://www.w3.org/2000/svg" viewBox="0 0 200 130" width="200" height="130">

  <rect x="14" y="48" width="160" height="40" rx="8" fill="#111"/>
  <rect x="20" y="54" width="110" height="26" rx="8" fill="#1a1a1a"/>
  <rect x="26" y="14" width="10" height="36" rx="3" fill="#0d0d0d"/>
  <rect x="40" y="18" width="10" height="32" rx="3" fill="#0d0d0d"/>
  <rect x="22" y="10" width="32" height="8" rx="2" fill="#222"/>
  <circle cx="20" cy="67" r="17" fill="#0d0d0d"/>
  <ellipse cx="105" cy="51" rx="14" ry="9" fill="#0d0d0d"/>
  <rect x="158" y="42" width="32" height="46" rx="4" fill="#0d0d0d"/>
  <rect x="161" y="46" width="14" height="14" rx="2" fill="#87CEEB" opacity="0.6"/>
  <circle cx="30" cy="102" r="8" fill="#111" stroke="#777" stroke-width="2"/>
<line x1="38.0" y1="102.0" x2="22.0" y2="102.0" stroke="#777" stroke-width="1.2"/>
<line x1="35.7" y1="107.7" x2="24.3" y2="96.3" stroke="#777" stroke-width="1.2"/>
<line x1="30.0" y1="110.0" x2="30.0" y2="94.0" stroke="#777" stroke-width="1.2"/>
<line x1="24.3" y1="107.7" x2="35.7" y2="96.3" stroke="#777" stroke-width="1.2"/>
<circle cx="30" cy="102" r="1.8" fill="#777"/>

  <circle cx="50" cy="102" r="8" fill="#111" stroke="#777" stroke-width="2"/>
<line x1="58.0" y1="102.0" x2="42.0" y2="102.0" stroke="#777" stroke-width="1.2"/>
<line x1="55.7" y1="107.7" x2="44.3" y2="96.3" stroke="#777" stroke-width="1.2"/>
<line x1="50.0" y1="110.0" x2="50.0" y2="94.0" stroke="#777" stroke-width="1.2"/>
<line x1="44.3" y1="107.7" x2="55.7" y2="96.3" stroke="#777" stroke-width="1.2"/>
<circle cx="50" cy="102" r="1.8" fill="#777"/>

  <circle cx="72" cy="102" r="13" fill="#111" stroke="#777" stroke-width="2"/>
<line x1="85.0" y1="102.0" x2="59.0" y2="102.0" stroke="#777" stroke-width="1.2"/>
<line x1="83.3" y1="108.5" x2="60.7" y2="95.5" stroke="#777" stroke-width="1.2"/>
<line x1="78.5" y1="113.3" x2="65.5" y2="90.7" stroke="#777" stroke-width="1.2"/>
<line x1="72.0" y1="115.0" x2="72.0" y2="89.0" stroke="#777" stroke-width="1.2"/>
<line x1="65.5" y1="113.3" x2="78.5" y2="90.7" stroke="#777" stroke-width="1.2"/>
<line x1="60.7" y1="108.5" x2="83.3" y2="95.5" stroke="#777" stroke-width="1.2"/>
<circle cx="72" cy="102" r="2.9" fill="#777"/>

  <circle cx="92" cy="102" r="13" fill="#111" stroke="#777" stroke-width="2"/>
<line x1="105.0" y1="102.0" x2="79.0" y2="102.0" stroke="#777" stroke-width="1.2"/>
<line x1="103.3" y1="108.5" x2="80.7" y2="95.5" stroke="#777" stroke-width="1.2"/>
<line x1="98.5" y1="113.3" x2="85.5" y2="90.7" stroke="#777" stroke-width="1.2"/>
<line x1="92.0" y1="115.0" x2="92.0" y2="89.0" stroke="#777" stroke-width="1.2"/>
<line x1="85.5" y1="113.3" x2="98.5" y2="90.7" stroke="#777" stroke-width="1.2"/>
<line x1="80.7" y1="108.5" x2="103.3" y2="95.5" stroke="#777" stroke-width="1.2"/>
<circle cx="92" cy="102" r="2.9" fill="#777"/>

  <circle cx="112" cy="102" r="13" fill="#111" stroke="#777" stroke-width="2"/>
<line x1="125.0" y1="102.0" x2="99.0" y2="102.0" stroke="#777" stroke-width="1.2"/>
<line x1="123.3" y1="108.5" x2="100.7" y2="95.5" stroke="#777" stroke-width="1.2"/>
<line x1="118.5" y1="113.3" x2="105.5" y2="90.7" stroke="#777" stroke-width="1.2"/>
<line x1="112.0" y1="115.0" x2="112.0" y2="89.0" stroke="#777" stroke-width="1.2"/>
<line x1="105.5" y1="113.3" x2="118.5" y2="90.7" stroke="#777" stroke-width="1.2"/>
<line x1="100.7" y1="108.5" x2="123.3" y2="95.5" stroke="#777" stroke-width="1.2"/>
<circle cx="112" cy="102" r="2.9" fill="#777"/>

  <circle cx="132" cy="102" r="13" fill="#111" stroke="#777" stroke-width="2"/>
<line x1="145.0" y1="102.0" x2="119.0" y2="102.0" stroke="#777" stroke-width="1.2"/>
<line x1="143.3" y1="108.5" x2="120.7" y2="95.5" stroke="#777" stroke-width="1.2"/>
<line x1="138.5" y1="113.3" x2="125.5" y2="90.7" stroke="#777" stroke-width="1.2"/>
<line x1="132.0" y1="115.0" x2="132.0" y2="89.0" stroke="#777" stroke-width="1.2"/>
<line x1="125.5" y1="113.3" x2="138.5" y2="90.7" stroke="#777" stroke-width="1.2"/>
<line x1="120.7" y1="108.5" x2="143.3" y2="95.5" stroke="#777" stroke-width="1.2"/>
<circle cx="132" cy="102" r="2.9" fill="#777"/>

  <circle cx="154" cy="102" r="9" fill="#111" stroke="#777" stroke-width="2"/>
<line x1="163.0" y1="102.0" x2="145.0" y2="102.0" stroke="#777" stroke-width="1.2"/>
<line x1="160.4" y1="108.4" x2="147.6" y2="95.6" stroke="#777" stroke-width="1.2"/>
<line x1="154.0" y1="111.0" x2="154.0" y2="93.0" stroke="#777" stroke-width="1.2"/>
<line x1="147.6" y1="108.4" x2="160.4" y2="95.6" stroke="#777" stroke-width="1.2"/>
<circle cx="154" cy="102" r="2.0" fill="#777"/>

  <circle cx="172" cy="102" r="9" fill="#111" stroke="#777" stroke-width="2"/>
<line x1="181.0" y1="102.0" x2="163.0" y2="102.0" stroke="#777" stroke-width="1.2"/>
<line x1="178.4" y1="108.4" x2="165.6" y2="95.6" stroke="#777" stroke-width="1.2"/>
<line x1="172.0" y1="111.0" x2="172.0" y2="93.0" stroke="#777" stroke-width="1.2"/>
<line x1="165.6" y1="108.4" x2="178.4" y2="95.6" stroke="#777" stroke-width="1.2"/>
<circle cx="172" cy="102" r="2.0" fill="#777"/>

  <rect x="72" y="100" width="60" height="4" rx="2" fill="#555" opacity="0.8"/>
  <line x1="8" y1="112" x2="196" y2="112" stroke="#888" stroke-width="2.5"/>


  <text x="100" y="126" font-family="Arial,sans-serif" font-size="7" fill="#555" text-anchor="middle">Chapelon 242 A1 · 1942</text>
</svg>