<svg xmlns="http://www.w3.org/2000/svg" viewBox="0 0 200 130" width="200" height="130">

  <!-- EWS dark maroon -->
  <rect x="8" y="40" width="180" height="62" rx="5" fill="#5a1a1a"/>
  <path d="M8,71 Q8,40 20,38 L188,38 L188,40 L8,40 Z" fill="#6a2a2a"/>
  <!-- EWS gold stripe -->
  <rect x="8" y="66" width="180" height="10" fill="#C8A800"/>
  <!-- cab end -->
  <rect x="140" y="40" width="48" height="62" rx="4" fill="#4a1010"/>
  <rect x="144" y="44" width="20" height="18" rx="2" fill="#87CEEB" opacity="0.7"/>
  <!-- Class 66 characteristic nose slope -->
  <polygon points="8,40 8,102 30,102 30,50" fill="#6a1a1a"/>
  <circle cx="14" cy="71" r="6" fill="#FFE040" opacity="0.9"/>
  <!-- exhaust -->
  <rect x="48" y="26" width="10" height="16" rx="3" fill="#1a1a1a"/>
  <!-- 6 axles -->
  <circle cx="24" cy="110" r="8" fill="#3a0a0a" stroke="#C8A800" stroke-width="2"/>
<line x1="32.0" y1="110.0" x2="16.0" y2="110.0" stroke="#C8A800" stroke-width="1.2"/>
<line x1="29.7" y1="115.7" x2="18.3" y2="104.3" stroke="#C8A800" stroke-width="1.2"/>
<line x1="24.0" y1="118.0" x2="24.0" y2="102.0" stroke="#C8A800" stroke-width="1.2"/>
<line x1="18.3" y1="115.7" x2="29.7" y2="104.3" stroke="#C8A800" stroke-width="1.2"/>
<circle cx="24" cy="110" r="1.8" fill="#C8A800"/>

  <circle cx="48" cy="110" r="8" fill="#3a0a0a" stroke="#C8A800" stroke-width="2"/>
<line x1="56.0" y1="110.0" x2="40.0" y2="110.0" stroke="#C8A800" stroke-width="1.2"/>
<line x1="53.7" y1="115.7" x2="42.3" y2="104.3" stroke="#C8A800" stroke-width="1.2"/>
<line x1="48.0" y1="118.0" x2="48.0" y2="102.0" stroke="#C8A800" stroke-width="1.2"/>
<line x1="42.3" y1="115.7" x2="53.7" y2="104.3" stroke="#C8A800" stroke-width="1.2"/>
<circle cx="48" cy="110" r="1.8" fill="#C8A800"/>

  <circle cx="76" cy="110" r="8" fill="#3a0a0a" stroke="#C8A800" stroke-width="2"/>
<line x1="84.0" y1="110.0" x2="68.0" y2="110.0" stroke="#C8A800" stroke-width="1.2"/>
<line x1="81.7" y1="115.7" x2="70.3" y2="104.3" stroke="#C8A800" stroke-width="1.2"/>
<line x1="76.0" y1="118.0" x2="76.0" y2="102.0" stroke="#C8A800" stroke-width="1.2"/>
<line x1="70.3" y1="115.7" x2="81.7" y2="104.3" stroke="#C8A800" stroke-width="1.2"/>
<circle cx="76" cy="110" r="1.8" fill="#C8A800"/>

  <circle cx="104" cy="110" r="8" fill="#3a0a0a" stroke="#C8A800" stroke-width="2"/>
<line x1="112.0" y1="110.0" x2="96.0" y2="110.0" stroke="#C8A800" stroke-width="1.2"/>
<line x1="109.7" y1="115.7" x2="98.3" y2="104.3" stroke="#C8A800" stroke-width="1.2"/>
<line x1="104.0" y1="118.0" x2="104.0" y2="102.0" stroke="#C8A800" stroke-width="1.2"/>
<line x1="98.3" y1="115.7" x2="109.7" y2="104.3" stroke="#C8A800" stroke-width="1.2"/>
<circle cx="104" cy="110" r="1.8" fill="#C8A800"/>

  <circle cx="140" cy="110" r="8" fill="#3a0a0a" stroke="#C8A800" stroke-width="2"/>
<line x1="148.0" y1="110.0" x2="132.0" y2="110.0" stroke="#C8A800" stroke-width="1.2"/>
<line x1="145.7" y1="115.7" x2="134.3" y2="104.3" stroke="#C8A800" stroke-width="1.2"/>
<line x1="140.0" y1="118.0" x2="140.0" y2="102.0" stroke="#C8A800" stroke-width="1.2"/>
<line x1="134.3" y1="115.7" x2="145.7" y2="104.3" stroke="#C8A800" stroke-width="1.2"/>
<circle cx="140" cy="110" r="1.8" fill="#C8A800"/>

  <circle cx="166" cy="110" r="8" fill="#3a0a0a" stroke="#C8A800" stroke-width="2"/>
<line x1="174.0" y1="110.0" x2="158.0" y2="110.0" stroke="#C8A800" stroke-width="1.2"/>
<line x1="171.7" y1="115.7" x2="160.3" y2="104.3" stroke="#C8A800" stroke-width="1.2"/>
<line x1="166.0" y1="118.0" x2="166.0" y2="102.0" stroke="#C8A800" stroke-width="1.2"/>
<line x1="160.3" y1="115.7" x2="171.7" y2="104.3" stroke="#C8A800" stroke-width="1.2"/>
<circle cx="166" cy="110" r="1.8" fill="#C8A800"/>

  <line x1="5" y1="112" x2="198" y2="112" stroke="#888" stroke-width="2.5"/>


  <text x="100" y="126" font-family="Arial,sans-serif" font-size="7" fill="#555" text-anchor="middle">Class 66 EMD · 1998</text>
</svg>