<svg xmlns="http://www.w3.org/2000/svg" viewBox="0 0 200 130" width="200" height="130">

  <path d="M15,68 Q22,44 42,40 L174,40 L178,68 L174,96 L42,96 Q22,92 15,68 Z" fill="#1a4a1a"/>
  <rect x="42" y="40" width="136" height="56" rx="0" fill="#1a4a1a"/>
  <rect x="42" y="52" width="136" height="6" fill="#C8A800"/>
  <rect x="42" y="78" width="136" height="5" fill="#C8A800"/>
  <rect x="152" y="40" width="26" height="56" rx="3" fill="#133a13"/>
  <rect x="155" y="44" width="14" height="15" rx="2" fill="#87CEEB" opacity="0.65"/>
  <rect x="34" y="16" width="13" height="26" rx="3" fill="#0d1a0d"/>
  <circle cx="17" cy="68" r="8" fill="#FFE040" opacity="0.9"/>
  <polygon points="158,76 161,70 164,76 167,70 170,76" fill="#C8A800" opacity="0.8"/>
  <circle cx="38" cy="104" r="8" fill="#0d2a0d" stroke="#C8A800" stroke-width="2"/>
<line x1="46.0" y1="104.0" x2="30.0" y2="104.0" stroke="#C8A800" stroke-width="1.2"/>
<line x1="43.7" y1="109.7" x2="32.3" y2="98.3" stroke="#C8A800" stroke-width="1.2"/>
<line x1="38.0" y1="112.0" x2="38.0" y2="96.0" stroke="#C8A800" stroke-width="1.2"/>
<line x1="32.3" y1="109.7" x2="43.7" y2="98.3" stroke="#C8A800" stroke-width="1.2"/>
<circle cx="38" cy="104" r="1.8" fill="#C8A800"/>

  <circle cx="57" cy="104" r="8" fill="#0d2a0d" stroke="#C8A800" stroke-width="2"/>
<line x1="65.0" y1="104.0" x2="49.0" y2="104.0" stroke="#C8A800" stroke-width="1.2"/>
<line x1="62.7" y1="109.7" x2="51.3" y2="98.3" stroke="#C8A800" stroke-width="1.2"/>
<line x1="57.0" y1="112.0" x2="57.0" y2="96.0" stroke="#C8A800" stroke-width="1.2"/>
<line x1="51.3" y1="109.7" x2="62.7" y2="98.3" stroke="#C8A800" stroke-width="1.2"/>
<circle cx="57" cy="104" r="1.8" fill="#C8A800"/>

  <circle cx="80" cy="104" r="13" fill="#0d2a0d" stroke="#C8A800" stroke-width="2"/>
<line x1="93.0" y1="104.0" x2="67.0" y2="104.0" stroke="#C8A800" stroke-width="1.2"/>
<line x1="91.3" y1="110.5" x2="68.7" y2="97.5" stroke="#C8A800" stroke-width="1.2"/>
<line x1="86.5" y1="115.3" x2="73.5" y2="92.7" stroke="#C8A800" stroke-width="1.2"/>
<line x1="80.0" y1="117.0" x2="80.0" y2="91.0" stroke="#C8A800" stroke-width="1.2"/>
<line x1="73.5" y1="115.3" x2="86.5" y2="92.7" stroke="#C8A800" stroke-width="1.2"/>
<line x1="68.7" y1="110.5" x2="91.3" y2="97.5" stroke="#C8A800" stroke-width="1.2"/>
<circle cx="80" cy="104" r="2.9" fill="#C8A800"/>

  <circle cx="103" cy="104" r="13" fill="#0d2a0d" stroke="#C8A800" stroke-width="2"/>
<line x1="116.0" y1="104.0" x2="90.0" y2="104.0" stroke="#C8A800" stroke-width="1.2"/>
<line x1="114.3" y1="110.5" x2="91.7" y2="97.5" stroke="#C8A800" stroke-width="1.2"/>
<line x1="109.5" y1="115.3" x2="96.5" y2="92.7" stroke="#C8A800" stroke-width="1.2"/>
<line x1="103.0" y1="117.0" x2="103.0" y2="91.0" stroke="#C8A800" stroke-width="1.2"/>
<line x1="96.5" y1="115.3" x2="109.5" y2="92.7" stroke="#C8A800" stroke-width="1.2"/>
<line x1="91.7" y1="110.5" x2="114.3" y2="97.5" stroke="#C8A800" stroke-width="1.2"/>
<circle cx="103" cy="104" r="2.9" fill="#C8A800"/>

  <circle cx="126" cy="104" r="13" fill="#0d2a0d" stroke="#C8A800" stroke-width="2"/>
<line x1="139.0" y1="104.0" x2="113.0" y2="104.0" stroke="#C8A800" stroke-width="1.2"/>
<line x1="137.3" y1="110.5" x2="114.7" y2="97.5" stroke="#C8A800" stroke-width="1.2"/>
<line x1="132.5" y1="115.3" x2="119.5" y2="92.7" stroke="#C8A800" stroke-width="1.2"/>
<line x1="126.0" y1="117.0" x2="126.0" y2="91.0" stroke="#C8A800" stroke-width="1.2"/>
<line x1="119.5" y1="115.3" x2="132.5" y2="92.7" stroke="#C8A800" stroke-width="1.2"/>
<line x1="114.7" y1="110.5" x2="137.3" y2="97.5" stroke="#C8A800" stroke-width="1.2"/>
<circle cx="126" cy="104" r="2.9" fill="#C8A800"/>

  <circle cx="152" cy="104" r="9" fill="#0d2a0d" stroke="#C8A800" stroke-width="2"/>
<line x1="161.0" y1="104.0" x2="143.0" y2="104.0" stroke="#C8A800" stroke-width="1.2"/>
<line x1="158.4" y1="110.4" x2="145.6" y2="97.6" stroke="#C8A800" stroke-width="1.2"/>
<line x1="152.0" y1="113.0" x2="152.0" y2="95.0" stroke="#C8A800" stroke-width="1.2"/>
<line x1="145.6" y1="110.4" x2="158.4" y2="97.6" stroke="#C8A800" stroke-width="1.2"/>
<circle cx="152" cy="104" r="2.0" fill="#C8A800"/>

  <circle cx="170" cy="104" r="9" fill="#0d2a0d" stroke="#C8A800" stroke-width="2"/>
<line x1="179.0" y1="104.0" x2="161.0" y2="104.0" stroke="#C8A800" stroke-width="1.2"/>
<line x1="176.4" y1="110.4" x2="163.6" y2="97.6" stroke="#C8A800" stroke-width="1.2"/>
<line x1="170.0" y1="113.0" x2="170.0" y2="95.0" stroke="#C8A800" stroke-width="1.2"/>
<line x1="163.6" y1="110.4" x2="176.4" y2="97.6" stroke="#C8A800" stroke-width="1.2"/>
<circle cx="170" cy="104" r="2.0" fill="#C8A800"/>

  <line x1="10" y1="112" x2="195" y2="112" stroke="#888" stroke-width="2.5"/>


  <text x="100" y="126" font-family="Arial,sans-serif" font-size="7" fill="#555" text-anchor="middle">CPR Royal Hudson · 1937</text>
</svg>