<svg xmlns="http://www.w3.org/2000/svg" viewBox="0 0 205 105" width="205" height="105">
  <ellipse cx="38" cy="12" rx="7" ry="5" fill="#CCC" opacity="0.5"/>
  <rect x="30" y="14" width="12" height="24" rx="3" fill="#444"/>
  <rect x="27" y="11" width="18" height="5" rx="2" fill="#333"/>
  <rect x="38" y="28" width="120" height="34" rx="10" fill="#1A2A3A"/>
  <ellipse cx="78" cy="26" rx="10" ry="7" fill="#3A5A7A"/>
  <rect x="152" y="18" width="42" height="44" rx="4" fill="#3A5A7A"/>
  <path d="M148,18 L194,18 L194,14 Q171,8 148,14Z" fill="#1A2A3A"/>
  <rect x="156" y="24" width="11" height="9" rx="2" fill="#87CEEB" opacity="0.7"/>
  <rect x="173" y="24" width="11" height="9" rx="2" fill="#87CEEB" opacity="0.7"/>
  <rect x="38" y="60" width="156" height="7" rx="2" fill="#3A5A7A" opacity="0.6"/>
  <path d="M38,60 L18,68 L18,72 L38,68Z" fill="#1A2A3A"/>
  <circle cx="25" cy="50" r="5" fill="#FFE040" opacity="0.9"/>
  <rect x="54" y="55" width="20" height="10" rx="3" fill="#1A2A3A" opacity="0.5"/>
  <rect x="88" y="55" width="20" height="10" rx="3" fill="#1A2A3A" opacity="0.5"/>
  <rect x="122" y="55" width="20" height="10" rx="3" fill="#1A2A3A" opacity="0.5"/>
  <circle cx="64" cy="82" r="17" fill="#080A0E" stroke="#3A5A7A" stroke-width="2.5"/>
  <line x1="81.0" y1="82.0" x2="47.0" y2="82.0" stroke="#3A5A7A" stroke-width="1.2"/>
  <line x1="79.7" y1="88.5" x2="48.3" y2="75.5" stroke="#3A5A7A" stroke-width="1.2"/>
  <line x1="76.0" y1="94.0" x2="52.0" y2="70.0" stroke="#3A5A7A" stroke-width="1.2"/>
  <line x1="70.5" y1="97.7" x2="57.5" y2="66.3" stroke="#3A5A7A" stroke-width="1.2"/>
  <line x1="64.0" y1="99.0" x2="64.0" y2="65.0" stroke="#3A5A7A" stroke-width="1.2"/>
  <line x1="57.5" y1="97.7" x2="70.5" y2="66.3" stroke="#3A5A7A" stroke-width="1.2"/>
  <line x1="52.0" y1="94.0" x2="76.0" y2="70.0" stroke="#3A5A7A" stroke-width="1.2"/>
  <line x1="48.3" y1="88.5" x2="79.7" y2="75.5" stroke="#3A5A7A" stroke-width="1.2"/>
  <circle cx="64" cy="82" r="3.7" fill="#3A5A7A"/>
  <circle cx="100" cy="82" r="17" fill="#080A0E" stroke="#3A5A7A" stroke-width="2.5"/>
  <line x1="117.0" y1="82.0" x2="83.0" y2="82.0" stroke="#3A5A7A" stroke-width="1.2"/>
  <line x1="115.7" y1="88.5" x2="84.3" y2="75.5" stroke="#3A5A7A" stroke-width="1.2"/>
  <line x1="112.0" y1="94.0" x2="88.0" y2="70.0" stroke="#3A5A7A" stroke-width="1.2"/>
  <line x1="106.5" y1="97.7" x2="93.5" y2="66.3" stroke="#3A5A7A" stroke-width="1.2"/>
  <line x1="100.0" y1="99.0" x2="100.0" y2="65.0" stroke="#3A5A7A" stroke-width="1.2"/>
  <line x1="93.5" y1="97.7" x2="106.5" y2="66.3" stroke="#3A5A7A" stroke-width="1.2"/>
  <line x1="88.0" y1="94.0" x2="112.0" y2="70.0" stroke="#3A5A7A" stroke-width="1.2"/>
  <line x1="84.3" y1="88.5" x2="115.7" y2="75.5" stroke="#3A5A7A" stroke-width="1.2"/>
  <circle cx="100" cy="82" r="3.7" fill="#3A5A7A"/>
  <circle cx="136" cy="82" r="17" fill="#080A0E" stroke="#3A5A7A" stroke-width="2.5"/>
  <line x1="153.0" y1="82.0" x2="119.0" y2="82.0" stroke="#3A5A7A" stroke-width="1.2"/>
  <line x1="151.7" y1="88.5" x2="120.3" y2="75.5" stroke="#3A5A7A" stroke-width="1.2"/>
  <line x1="148.0" y1="94.0" x2="124.0" y2="70.0" stroke="#3A5A7A" stroke-width="1.2"/>
  <line x1="142.5" y1="97.7" x2="129.5" y2="66.3" stroke="#3A5A7A" stroke-width="1.2"/>
  <line x1="136.0" y1="99.0" x2="136.0" y2="65.0" stroke="#3A5A7A" stroke-width="1.2"/>
  <line x1="129.5" y1="97.7" x2="142.5" y2="66.3" stroke="#3A5A7A" stroke-width="1.2"/>
  <line x1="124.0" y1="94.0" x2="148.0" y2="70.0" stroke="#3A5A7A" stroke-width="1.2"/>
  <line x1="120.3" y1="88.5" x2="151.7" y2="75.5" stroke="#3A5A7A" stroke-width="1.2"/>
  <circle cx="136" cy="82" r="3.7" fill="#3A5A7A"/>
  <circle cx="42" cy="84" r="11" fill="#080A0E" stroke="#3A5A7A" stroke-width="2.5"/>
  <line x1="53.0" y1="84.0" x2="31.0" y2="84.0" stroke="#3A5A7A" stroke-width="1.2"/>
  <line x1="49.8" y1="91.8" x2="34.2" y2="76.2" stroke="#3A5A7A" stroke-width="1.2"/>
  <line x1="42.0" y1="95.0" x2="42.0" y2="73.0" stroke="#3A5A7A" stroke-width="1.2"/>
  <line x1="34.2" y1="91.8" x2="49.8" y2="76.2" stroke="#3A5A7A" stroke-width="1.2"/>
  <circle cx="42" cy="84" r="2.4" fill="#3A5A7A"/>
  <circle cx="176" cy="84" r="12" fill="#080A0E" stroke="#3A5A7A" stroke-width="2.5"/>
  <line x1="188.0" y1="84.0" x2="164.0" y2="84.0" stroke="#3A5A7A" stroke-width="1.2"/>
  <line x1="184.5" y1="92.5" x2="167.5" y2="75.5" stroke="#3A5A7A" stroke-width="1.2"/>
  <line x1="176.0" y1="96.0" x2="176.0" y2="72.0" stroke="#3A5A7A" stroke-width="1.2"/>
  <line x1="167.5" y1="92.5" x2="184.5" y2="75.5" stroke="#3A5A7A" stroke-width="1.2"/>
  <circle cx="176" cy="84" r="2.6" fill="#3A5A7A"/>

  <text x="102" y="101" font-family="Arial,sans-serif" font-size="7" fill="#666" text-anchor="middle">CPR Royal Hudson · 1937</text>
</svg>