<svg xmlns="http://www.w3.org/2000/svg" viewBox="0 0 200 130" width="200" height="130">

  <!-- CRH2: white/blue Chinese HSR, rounded Shinkansen-derived but different -->
  <path d="M8,68 Q20,44 46,36 L185,36 L188,68 L185,100 L46,100 Q20,92 8,68 Z" fill="#F8F8F8"/>
  <!-- blue stripe CRH2 different placement from Shinkansen -->
  <rect x="46" y="56" width="142" height="22" fill="#1a64cc"/>
  <path d="M8,68 Q14,62 28,58 L46,58 L46,78 L28,76 Q14,74 8,68 Z" fill="#1a64cc"/>
  <!-- Chinese rounded nose but narrower than N700 -->
  <path d="M8,68 Q18,52 40,44 L46,44 L46,36 Q26,44 12,62 Z" fill="#eee"/>
  <rect x="28" y="44" width="22" height="16" rx="2" fill="#87CEEB" opacity="0.7"/>
  <circle cx="11" cy="68" r="5" fill="#FFE040" opacity="0.9"/>
  <circle cx="38" cy="108" r="9" fill="#ddd" stroke="#1a64cc" stroke-width="2"/>
<line x1="47.0" y1="108.0" x2="29.0" y2="108.0" stroke="#1a64cc" stroke-width="1.2"/>
<line x1="44.4" y1="114.4" x2="31.6" y2="101.6" stroke="#1a64cc" stroke-width="1.2"/>
<line x1="38.0" y1="117.0" x2="38.0" y2="99.0" stroke="#1a64cc" stroke-width="1.2"/>
<line x1="31.6" y1="114.4" x2="44.4" y2="101.6" stroke="#1a64cc" stroke-width="1.2"/>
<circle cx="38" cy="108" r="2.0" fill="#1a64cc"/>

  <circle cx="62" cy="108" r="9" fill="#ddd" stroke="#1a64cc" stroke-width="2"/>
<line x1="71.0" y1="108.0" x2="53.0" y2="108.0" stroke="#1a64cc" stroke-width="1.2"/>
<line x1="68.4" y1="114.4" x2="55.6" y2="101.6" stroke="#1a64cc" stroke-width="1.2"/>
<line x1="62.0" y1="117.0" x2="62.0" y2="99.0" stroke="#1a64cc" stroke-width="1.2"/>
<line x1="55.6" y1="114.4" x2="68.4" y2="101.6" stroke="#1a64cc" stroke-width="1.2"/>
<circle cx="62" cy="108" r="2.0" fill="#1a64cc"/>

  <circle cx="108" cy="108" r="9" fill="#ddd" stroke="#1a64cc" stroke-width="2"/>
<line x1="117.0" y1="108.0" x2="99.0" y2="108.0" stroke="#1a64cc" stroke-width="1.2"/>
<line x1="114.4" y1="114.4" x2="101.6" y2="101.6" stroke="#1a64cc" stroke-width="1.2"/>
<line x1="108.0" y1="117.0" x2="108.0" y2="99.0" stroke="#1a64cc" stroke-width="1.2"/>
<line x1="101.6" y1="114.4" x2="114.4" y2="101.6" stroke="#1a64cc" stroke-width="1.2"/>
<circle cx="108" cy="108" r="2.0" fill="#1a64cc"/>

  <circle cx="148" cy="108" r="9" fill="#ddd" stroke="#1a64cc" stroke-width="2"/>
<line x1="157.0" y1="108.0" x2="139.0" y2="108.0" stroke="#1a64cc" stroke-width="1.2"/>
<line x1="154.4" y1="114.4" x2="141.6" y2="101.6" stroke="#1a64cc" stroke-width="1.2"/>
<line x1="148.0" y1="117.0" x2="148.0" y2="99.0" stroke="#1a64cc" stroke-width="1.2"/>
<line x1="141.6" y1="114.4" x2="154.4" y2="101.6" stroke="#1a64cc" stroke-width="1.2"/>
<circle cx="148" cy="108" r="2.0" fill="#1a64cc"/>

  <circle cx="172" cy="108" r="9" fill="#ddd" stroke="#1a64cc" stroke-width="2"/>
<line x1="181.0" y1="108.0" x2="163.0" y2="108.0" stroke="#1a64cc" stroke-width="1.2"/>
<line x1="178.4" y1="114.4" x2="165.6" y2="101.6" stroke="#1a64cc" stroke-width="1.2"/>
<line x1="172.0" y1="117.0" x2="172.0" y2="99.0" stroke="#1a64cc" stroke-width="1.2"/>
<line x1="165.6" y1="114.4" x2="178.4" y2="101.6" stroke="#1a64cc" stroke-width="1.2"/>
<circle cx="172" cy="108" r="2.0" fill="#1a64cc"/>

  <line x1="5" y1="112" x2="198" y2="112" stroke="#888" stroke-width="2.5"/>


  <text x="100" y="126" font-family="Arial,sans-serif" font-size="7" fill="#555" text-anchor="middle">CRH2 China · 2007</text>
</svg>