<svg xmlns="http://www.w3.org/2000/svg" viewBox="0 0 205 106" width="205" height="106">
  <path d="M4,54 Q12,26 48,24 L195,24 L195,82 L48,82 Q12,80 4,54 Z" fill="#F0F0F0"/>
  <path d="M4,54 Q10,34 42,28 L42,80 Q12,76 4,54 Z" fill="#1A3A6B" opacity="0.25"/>
  <path d="M4,54 Q12,52 195,48 L195,56 Q12,60 4,54 Z" fill="#1A3A6B" opacity="0.4"/>
  <rect x="56" y="30" width="16" height="14" rx="2" fill="#87CEEB" opacity="0.65"/>
  <rect x="78" y="30" width="16" height="14" rx="2" fill="#87CEEB" opacity="0.65"/>
  <rect x="102" y="30" width="16" height="14" rx="2" fill="#87CEEB" opacity="0.65"/>
  <rect x="126" y="30" width="16" height="14" rx="2" fill="#87CEEB" opacity="0.65"/>
  <rect x="150" y="30" width="16" height="14" rx="2" fill="#87CEEB" opacity="0.65"/>
  <rect x="174" y="30" width="14" height="14" rx="2" fill="#87CEEB" opacity="0.55"/>
  <line x1="100" y1="24" x2="94"  y2="12" stroke="#1A3A6B" stroke-width="1.5"/>
  <line x1="114" y1="24" x2="120" y2="12" stroke="#1A3A6B" stroke-width="1.5"/>
  <line x1="86"  y1="12" x2="128" y2="12" stroke="#1A3A6B" stroke-width="2.5"/>
  <circle cx="6" cy="54" r="4" fill="#FFE040" opacity="0.9"/>
  <circle cx="54" cy="90" r="11" fill="#C8C8C8" stroke="#1A3A6B" stroke-width="2.5"/>
  <line x1="65.0" y1="90.0" x2="43.0" y2="90.0" stroke="#1A3A6B" stroke-width="1.2"/>
  <line x1="63.5" y1="95.5" x2="44.5" y2="84.5" stroke="#1A3A6B" stroke-width="1.2"/>
  <line x1="59.5" y1="99.5" x2="48.5" y2="80.5" stroke="#1A3A6B" stroke-width="1.2"/>
  <line x1="54.0" y1="101.0" x2="54.0" y2="79.0" stroke="#1A3A6B" stroke-width="1.2"/>
  <line x1="48.5" y1="99.5" x2="59.5" y2="80.5" stroke="#1A3A6B" stroke-width="1.2"/>
  <line x1="44.5" y1="95.5" x2="63.5" y2="84.5" stroke="#1A3A6B" stroke-width="1.2"/>
  <circle cx="54" cy="90" r="2.4" fill="#1A3A6B"/>
  <circle cx="84" cy="90" r="11" fill="#C8C8C8" stroke="#1A3A6B" stroke-width="2.5"/>
  <line x1="95.0" y1="90.0" x2="73.0" y2="90.0" stroke="#1A3A6B" stroke-width="1.2"/>
  <line x1="93.5" y1="95.5" x2="74.5" y2="84.5" stroke="#1A3A6B" stroke-width="1.2"/>
  <line x1="89.5" y1="99.5" x2="78.5" y2="80.5" stroke="#1A3A6B" stroke-width="1.2"/>
  <line x1="84.0" y1="101.0" x2="84.0" y2="79.0" stroke="#1A3A6B" stroke-width="1.2"/>
  <line x1="78.5" y1="99.5" x2="89.5" y2="80.5" stroke="#1A3A6B" stroke-width="1.2"/>
  <line x1="74.5" y1="95.5" x2="93.5" y2="84.5" stroke="#1A3A6B" stroke-width="1.2"/>
  <circle cx="84" cy="90" r="2.4" fill="#1A3A6B"/>
  <circle cx="130" cy="90" r="11" fill="#C8C8C8" stroke="#1A3A6B" stroke-width="2.5"/>
  <line x1="141.0" y1="90.0" x2="119.0" y2="90.0" stroke="#1A3A6B" stroke-width="1.2"/>
  <line x1="139.5" y1="95.5" x2="120.5" y2="84.5" stroke="#1A3A6B" stroke-width="1.2"/>
  <line x1="135.5" y1="99.5" x2="124.5" y2="80.5" stroke="#1A3A6B" stroke-width="1.2"/>
  <line x1="130.0" y1="101.0" x2="130.0" y2="79.0" stroke="#1A3A6B" stroke-width="1.2"/>
  <line x1="124.5" y1="99.5" x2="135.5" y2="80.5" stroke="#1A3A6B" stroke-width="1.2"/>
  <line x1="120.5" y1="95.5" x2="139.5" y2="84.5" stroke="#1A3A6B" stroke-width="1.2"/>
  <circle cx="130" cy="90" r="2.4" fill="#1A3A6B"/>
  <circle cx="165" cy="90" r="11" fill="#C8C8C8" stroke="#1A3A6B" stroke-width="2.5"/>
  <line x1="176.0" y1="90.0" x2="154.0" y2="90.0" stroke="#1A3A6B" stroke-width="1.2"/>
  <line x1="174.5" y1="95.5" x2="155.5" y2="84.5" stroke="#1A3A6B" stroke-width="1.2"/>
  <line x1="170.5" y1="99.5" x2="159.5" y2="80.5" stroke="#1A3A6B" stroke-width="1.2"/>
  <line x1="165.0" y1="101.0" x2="165.0" y2="79.0" stroke="#1A3A6B" stroke-width="1.2"/>
  <line x1="159.5" y1="99.5" x2="170.5" y2="80.5" stroke="#1A3A6B" stroke-width="1.2"/>
  <line x1="155.5" y1="95.5" x2="174.5" y2="84.5" stroke="#1A3A6B" stroke-width="1.2"/>
  <circle cx="165" cy="90" r="2.4" fill="#1A3A6B"/>

  <text x="102" y="102" font-family="Arial,sans-serif" font-size="7" fill="#666" text-anchor="middle">CRH380A · 2010</text>
</svg>