<svg xmlns="http://www.w3.org/2000/svg" viewBox="0 0 200 130" width="200" height="130">

  <!-- CRH380A: much more pointed nose than CRH2, record holder -->
  <path d="M8,68 Q24,44 58,34 L185,34 L188,68 L185,102 L58,102 Q24,92 8,68 Z" fill="#F8F8F8"/>
  <!-- much longer more pointed nose - key difference -->
  <path d="M8,68 Q24,50 52,40 L58,40 L58,34 Q32,44 14,64 Z" fill="#eee"/>
  <path d="M8,68 Q24,86 52,96 L58,96 L58,102 Q32,92 14,72 Z" fill="#eee"/>
  <!-- blue stripe -->
  <rect x="58" y="60" width="130" height="18" fill="#1a64cc"/>
  <path d="M8,68 Q14,64 32,60 L58,60 L58,78 L32,76 Q14,72 8,68 Z" fill="#1a64cc"/>
  <rect x="36" y="42" width="24" height="18" rx="2" fill="#87CEEB" opacity="0.7"/>
  <circle cx="11" cy="68" r="5" fill="#FFE040" opacity="0.9"/>
  <circle cx="50" cy="110" r="9" fill="#ddd" stroke="#1a64cc" stroke-width="2"/>
<line x1="59.0" y1="110.0" x2="41.0" y2="110.0" stroke="#1a64cc" stroke-width="1.2"/>
<line x1="56.4" y1="116.4" x2="43.6" y2="103.6" stroke="#1a64cc" stroke-width="1.2"/>
<line x1="50.0" y1="119.0" x2="50.0" y2="101.0" stroke="#1a64cc" stroke-width="1.2"/>
<line x1="43.6" y1="116.4" x2="56.4" y2="103.6" stroke="#1a64cc" stroke-width="1.2"/>
<circle cx="50" cy="110" r="2.0" fill="#1a64cc"/>

  <circle cx="74" cy="110" r="9" fill="#ddd" stroke="#1a64cc" stroke-width="2"/>
<line x1="83.0" y1="110.0" x2="65.0" y2="110.0" stroke="#1a64cc" stroke-width="1.2"/>
<line x1="80.4" y1="116.4" x2="67.6" y2="103.6" stroke="#1a64cc" stroke-width="1.2"/>
<line x1="74.0" y1="119.0" x2="74.0" y2="101.0" stroke="#1a64cc" stroke-width="1.2"/>
<line x1="67.6" y1="116.4" x2="80.4" y2="103.6" stroke="#1a64cc" stroke-width="1.2"/>
<circle cx="74" cy="110" r="2.0" fill="#1a64cc"/>

  <circle cx="116" cy="110" r="9" fill="#ddd" stroke="#1a64cc" stroke-width="2"/>
<line x1="125.0" y1="110.0" x2="107.0" y2="110.0" stroke="#1a64cc" stroke-width="1.2"/>
<line x1="122.4" y1="116.4" x2="109.6" y2="103.6" stroke="#1a64cc" stroke-width="1.2"/>
<line x1="116.0" y1="119.0" x2="116.0" y2="101.0" stroke="#1a64cc" stroke-width="1.2"/>
<line x1="109.6" y1="116.4" x2="122.4" y2="103.6" stroke="#1a64cc" stroke-width="1.2"/>
<circle cx="116" cy="110" r="2.0" fill="#1a64cc"/>

  <circle cx="155" cy="110" r="9" fill="#ddd" stroke="#1a64cc" stroke-width="2"/>
<line x1="164.0" y1="110.0" x2="146.0" y2="110.0" stroke="#1a64cc" stroke-width="1.2"/>
<line x1="161.4" y1="116.4" x2="148.6" y2="103.6" stroke="#1a64cc" stroke-width="1.2"/>
<line x1="155.0" y1="119.0" x2="155.0" y2="101.0" stroke="#1a64cc" stroke-width="1.2"/>
<line x1="148.6" y1="116.4" x2="161.4" y2="103.6" stroke="#1a64cc" stroke-width="1.2"/>
<circle cx="155" cy="110" r="2.0" fill="#1a64cc"/>

  <circle cx="178" cy="110" r="9" fill="#ddd" stroke="#1a64cc" stroke-width="2"/>
<line x1="187.0" y1="110.0" x2="169.0" y2="110.0" stroke="#1a64cc" stroke-width="1.2"/>
<line x1="184.4" y1="116.4" x2="171.6" y2="103.6" stroke="#1a64cc" stroke-width="1.2"/>
<line x1="178.0" y1="119.0" x2="178.0" y2="101.0" stroke="#1a64cc" stroke-width="1.2"/>
<line x1="171.6" y1="116.4" x2="184.4" y2="103.6" stroke="#1a64cc" stroke-width="1.2"/>
<circle cx="178" cy="110" r="2.0" fill="#1a64cc"/>

  <line x1="5" y1="112" x2="198" y2="112" stroke="#888" stroke-width="2.5"/>


  <text x="100" y="126" font-family="Arial,sans-serif" font-size="7" fill="#555" text-anchor="middle">CRH380A · 2010</text>
</svg>