<svg xmlns="http://www.w3.org/2000/svg" viewBox="0 0 200 130" width="200" height="130">

  <!-- olive green boxy freight electric -->
  <rect x="10" y="40" width="178" height="62" rx="4" fill="#4a5c20"/>
  <rect x="10" y="40" width="38" height="62" rx="4" fill="#3a4a16"/>
  <rect x="14" y="44" width="20" height="18" rx="2" fill="#87CEEB" opacity="0.7"/>
  <!-- boxy body with large grille -->
  <rect x="50" y="48" width="50" height="34" rx="3" fill="#3a4a16"/>
  <!-- ventilation slats -->
  <line x1="54" y1="52" x2="96" y2="52" stroke="#4a5c20" stroke-width="3"/>
  <line x1="54" y1="57" x2="96" y2="57" stroke="#4a5c20" stroke-width="3"/>
  <line x1="54" y1="62" x2="96" y2="62" stroke="#4a5c20" stroke-width="3"/>
  <line x1="54" y1="67" x2="96" y2="67" stroke="#4a5c20" stroke-width="3"/>
  <line x1="54" y1="72" x2="96" y2="72" stroke="#4a5c20" stroke-width="3"/>
  <rect x="148" y="40" width="40" height="62" rx="4" fill="#3a4a16"/>
  <rect x="152" y="44" width="20" height="18" rx="2" fill="#87CEEB" opacity="0.7"/>
  <!-- pantograph -->
  <line x1="110" y1="40" x2="106" y2="22" stroke="#888" stroke-width="1.5"/>
  <line x1="130" y1="40" x2="134" y2="22" stroke="#888" stroke-width="1.5"/>
  <line x1="104" y1="22" x2="136" y2="22" stroke="#aaa" stroke-width="2"/>
  <circle cx="24" cy="110" r="9" fill="#3a4a16" stroke="#888" stroke-width="2"/>
<line x1="33.0" y1="110.0" x2="15.0" y2="110.0" stroke="#888" stroke-width="1.2"/>
<line x1="30.4" y1="116.4" x2="17.6" y2="103.6" stroke="#888" stroke-width="1.2"/>
<line x1="24.0" y1="119.0" x2="24.0" y2="101.0" stroke="#888" stroke-width="1.2"/>
<line x1="17.6" y1="116.4" x2="30.4" y2="103.6" stroke="#888" stroke-width="1.2"/>
<circle cx="24" cy="110" r="2.0" fill="#888"/>

  <circle cx="50" cy="110" r="9" fill="#3a4a16" stroke="#888" stroke-width="2"/>
<line x1="59.0" y1="110.0" x2="41.0" y2="110.0" stroke="#888" stroke-width="1.2"/>
<line x1="56.4" y1="116.4" x2="43.6" y2="103.6" stroke="#888" stroke-width="1.2"/>
<line x1="50.0" y1="119.0" x2="50.0" y2="101.0" stroke="#888" stroke-width="1.2"/>
<line x1="43.6" y1="116.4" x2="56.4" y2="103.6" stroke="#888" stroke-width="1.2"/>
<circle cx="50" cy="110" r="2.0" fill="#888"/>

  <circle cx="130" cy="110" r="9" fill="#3a4a16" stroke="#888" stroke-width="2"/>
<line x1="139.0" y1="110.0" x2="121.0" y2="110.0" stroke="#888" stroke-width="1.2"/>
<line x1="136.4" y1="116.4" x2="123.6" y2="103.6" stroke="#888" stroke-width="1.2"/>
<line x1="130.0" y1="119.0" x2="130.0" y2="101.0" stroke="#888" stroke-width="1.2"/>
<line x1="123.6" y1="116.4" x2="136.4" y2="103.6" stroke="#888" stroke-width="1.2"/>
<circle cx="130" cy="110" r="2.0" fill="#888"/>

  <circle cx="158" cy="110" r="9" fill="#3a4a16" stroke="#888" stroke-width="2"/>
<line x1="167.0" y1="110.0" x2="149.0" y2="110.0" stroke="#888" stroke-width="1.2"/>
<line x1="164.4" y1="116.4" x2="151.6" y2="103.6" stroke="#888" stroke-width="1.2"/>
<line x1="158.0" y1="119.0" x2="158.0" y2="101.0" stroke="#888" stroke-width="1.2"/>
<line x1="151.6" y1="116.4" x2="164.4" y2="103.6" stroke="#888" stroke-width="1.2"/>
<circle cx="158" cy="110" r="2.0" fill="#888"/>

  <line x1="5" y1="112" x2="198" y2="112" stroke="#888" stroke-width="2.5"/>


  <text x="100" y="126" font-family="Arial,sans-serif" font-size="7" fill="#555" text-anchor="middle">DB BR 140 · 1957</text>
</svg>