<svg xmlns="http://www.w3.org/2000/svg" viewBox="0 0 200 130" width="200" height="130">

  <path d="M10,68 Q18,40 38,36 L185,36 L188,68 L185,100 L38,100 Q18,96 10,68 Z" fill="#CC0000"/>
  <!-- smooth rounded modern profile -->
  <path d="M10,68 Q16,50 32,46 L32,90 Q16,86 10,68 Z" fill="#AA0000"/>
  <!-- white stripe DB modern -->
  <rect x="32" y="62" width="156" height="12" fill="#fff" opacity="0.9"/>
  <path d="M10,68 Q12,62 22,60 L22,68 Q14,68 12,68 Z" fill="#fff" opacity="0.9"/>
  <!-- DB logo area -->
  <rect x="40" y="54" width="20" height="16" rx="2" fill="#CC0000"/>
  <rect x="152" y="36" width="36" height="64" rx="4" fill="#AA0000"/>
  <rect x="156" y="40" width="18" height="16" rx="2" fill="#87CEEB" opacity="0.7"/>
  <circle cx="13" cy="68" r="6" fill="#FFE040" opacity="0.9"/>
  <!-- modern pantograph -->
  <line x1="80" y1="36" x2="76" y2="18" stroke="#888" stroke-width="1.5"/>
  <line x1="100" y1="36" x2="104" y2="18" stroke="#888" stroke-width="1.5"/>
  <line x1="74" y1="18" x2="106" y2="18" stroke="#aaa" stroke-width="2.5"/>
  <circle cx="28" cy="108" r="9" fill="#880000" stroke="#fff" stroke-width="2"/>
<line x1="37.0" y1="108.0" x2="19.0" y2="108.0" stroke="#fff" stroke-width="1.2"/>
<line x1="34.4" y1="114.4" x2="21.6" y2="101.6" stroke="#fff" stroke-width="1.2"/>
<line x1="28.0" y1="117.0" x2="28.0" y2="99.0" stroke="#fff" stroke-width="1.2"/>
<line x1="21.6" y1="114.4" x2="34.4" y2="101.6" stroke="#fff" stroke-width="1.2"/>
<circle cx="28" cy="108" r="2.0" fill="#fff"/>

  <circle cx="54" cy="108" r="9" fill="#880000" stroke="#fff" stroke-width="2"/>
<line x1="63.0" y1="108.0" x2="45.0" y2="108.0" stroke="#fff" stroke-width="1.2"/>
<line x1="60.4" y1="114.4" x2="47.6" y2="101.6" stroke="#fff" stroke-width="1.2"/>
<line x1="54.0" y1="117.0" x2="54.0" y2="99.0" stroke="#fff" stroke-width="1.2"/>
<line x1="47.6" y1="114.4" x2="60.4" y2="101.6" stroke="#fff" stroke-width="1.2"/>
<circle cx="54" cy="108" r="2.0" fill="#fff"/>

  <circle cx="130" cy="108" r="9" fill="#880000" stroke="#fff" stroke-width="2"/>
<line x1="139.0" y1="108.0" x2="121.0" y2="108.0" stroke="#fff" stroke-width="1.2"/>
<line x1="136.4" y1="114.4" x2="123.6" y2="101.6" stroke="#fff" stroke-width="1.2"/>
<line x1="130.0" y1="117.0" x2="130.0" y2="99.0" stroke="#fff" stroke-width="1.2"/>
<line x1="123.6" y1="114.4" x2="136.4" y2="101.6" stroke="#fff" stroke-width="1.2"/>
<circle cx="130" cy="108" r="2.0" fill="#fff"/>

  <circle cx="158" cy="108" r="9" fill="#880000" stroke="#fff" stroke-width="2"/>
<line x1="167.0" y1="108.0" x2="149.0" y2="108.0" stroke="#fff" stroke-width="1.2"/>
<line x1="164.4" y1="114.4" x2="151.6" y2="101.6" stroke="#fff" stroke-width="1.2"/>
<line x1="158.0" y1="117.0" x2="158.0" y2="99.0" stroke="#fff" stroke-width="1.2"/>
<line x1="151.6" y1="114.4" x2="164.4" y2="101.6" stroke="#fff" stroke-width="1.2"/>
<circle cx="158" cy="108" r="2.0" fill="#fff"/>

  <line x1="5" y1="112" x2="198" y2="112" stroke="#888" stroke-width="2.5"/>


  <text x="100" y="126" font-family="Arial,sans-serif" font-size="7" fill="#555" text-anchor="middle">DB BR 101 · 1996</text>
</svg>