<svg xmlns="http://www.w3.org/2000/svg" viewBox="0 0 200 130" width="200" height="130">

  <!-- TRAXX angular modular design -->
  <rect x="10" y="38" width="178" height="64" rx="5" fill="#CC0000"/>
  <!-- angular nose TRAXX - key feature -->
  <polygon points="10,38 10,102 32,90 32,50" fill="#AA0000"/>
  <rect x="14" y="50" width="15" height="16" rx="2" fill="#87CEEB" opacity="0.7"/>
  <!-- TRAXX modular body panels -->
  <rect x="38" y="48" width="60" height="36" rx="3" fill="#AA0000"/>
  <rect x="152" y="38" width="36" height="64" rx="4" fill="#AA0000"/>
  <rect x="155" y="42" width="18" height="16" rx="2" fill="#87CEEB" opacity="0.7"/>
  <!-- white DB stripe angular -->
  <rect x="32" y="64" width="158" height="10" fill="#fff" opacity="0.9"/>
  <line x1="10" y1="69" x2="34" y2="69" stroke="#fff" stroke-width="10" opacity="0.9"/>
  <!-- pantograph -->
  <line x1="100" y1="38" x2="96" y2="20" stroke="#888" stroke-width="1.5"/>
  <line x1="118" y1="38" x2="122" y2="20" stroke="#888" stroke-width="1.5"/>
  <line x1="94" y1="20" x2="124" y2="20" stroke="#aaa" stroke-width="2.5"/>
  <circle cx="24" cy="110" r="9" fill="#880000" stroke="#fff" stroke-width="2"/>
<line x1="33.0" y1="110.0" x2="15.0" y2="110.0" stroke="#fff" stroke-width="1.2"/>
<line x1="30.4" y1="116.4" x2="17.6" y2="103.6" stroke="#fff" stroke-width="1.2"/>
<line x1="24.0" y1="119.0" x2="24.0" y2="101.0" stroke="#fff" stroke-width="1.2"/>
<line x1="17.6" y1="116.4" x2="30.4" y2="103.6" stroke="#fff" stroke-width="1.2"/>
<circle cx="24" cy="110" r="2.0" fill="#fff"/>

  <circle cx="50" cy="110" r="9" fill="#880000" stroke="#fff" stroke-width="2"/>
<line x1="59.0" y1="110.0" x2="41.0" y2="110.0" stroke="#fff" stroke-width="1.2"/>
<line x1="56.4" y1="116.4" x2="43.6" y2="103.6" stroke="#fff" stroke-width="1.2"/>
<line x1="50.0" y1="119.0" x2="50.0" y2="101.0" stroke="#fff" stroke-width="1.2"/>
<line x1="43.6" y1="116.4" x2="56.4" y2="103.6" stroke="#fff" stroke-width="1.2"/>
<circle cx="50" cy="110" r="2.0" fill="#fff"/>

  <circle cx="130" cy="110" r="9" fill="#880000" stroke="#fff" stroke-width="2"/>
<line x1="139.0" y1="110.0" x2="121.0" y2="110.0" stroke="#fff" stroke-width="1.2"/>
<line x1="136.4" y1="116.4" x2="123.6" y2="103.6" stroke="#fff" stroke-width="1.2"/>
<line x1="130.0" y1="119.0" x2="130.0" y2="101.0" stroke="#fff" stroke-width="1.2"/>
<line x1="123.6" y1="116.4" x2="136.4" y2="103.6" stroke="#fff" stroke-width="1.2"/>
<circle cx="130" cy="110" r="2.0" fill="#fff"/>

  <circle cx="158" cy="110" r="9" fill="#880000" stroke="#fff" stroke-width="2"/>
<line x1="167.0" y1="110.0" x2="149.0" y2="110.0" stroke="#fff" stroke-width="1.2"/>
<line x1="164.4" y1="116.4" x2="151.6" y2="103.6" stroke="#fff" stroke-width="1.2"/>
<line x1="158.0" y1="119.0" x2="158.0" y2="101.0" stroke="#fff" stroke-width="1.2"/>
<line x1="151.6" y1="116.4" x2="164.4" y2="103.6" stroke="#fff" stroke-width="1.2"/>
<circle cx="158" cy="110" r="2.0" fill="#fff"/>

  <line x1="5" y1="112" x2="198" y2="112" stroke="#888" stroke-width="2.5"/>


  <text x="100" y="126" font-family="Arial,sans-serif" font-size="7" fill="#555" text-anchor="middle">DB BR 185 TRAXX · 2000</text>
</svg>