<svg xmlns="http://www.w3.org/2000/svg" viewBox="0 0 200 130" width="200" height="130">

  <!-- coach carriage trailing - stagecoach style -->
  <rect x="130" y="62" width="55" height="32" rx="5" fill="#8B4513"/>
  <rect x="134" y="66" width="14" height="12" rx="2" fill="#87CEEB" opacity="0.6"/>
  <rect x="153" y="66" width="14" height="12" rx="2" fill="#87CEEB" opacity="0.6"/>
  <circle cx="142" cy="105" r="8" fill="#3a1a00" stroke="#c8a820" stroke-width="2"/>
<line x1="150.0" y1="105.0" x2="134.0" y2="105.0" stroke="#c8a820" stroke-width="1.2"/>
<line x1="147.7" y1="110.7" x2="136.3" y2="99.3" stroke="#c8a820" stroke-width="1.2"/>
<line x1="142.0" y1="113.0" x2="142.0" y2="97.0" stroke="#c8a820" stroke-width="1.2"/>
<line x1="136.3" y1="110.7" x2="147.7" y2="99.3" stroke="#c8a820" stroke-width="1.2"/>
<circle cx="142" cy="105" r="1.8" fill="#c8a820"/>

  <circle cx="170" cy="105" r="8" fill="#3a1a00" stroke="#c8a820" stroke-width="2"/>
<line x1="178.0" y1="105.0" x2="162.0" y2="105.0" stroke="#c8a820" stroke-width="1.2"/>
<line x1="175.7" y1="110.7" x2="164.3" y2="99.3" stroke="#c8a820" stroke-width="1.2"/>
<line x1="170.0" y1="113.0" x2="170.0" y2="97.0" stroke="#c8a820" stroke-width="1.2"/>
<line x1="164.3" y1="110.7" x2="175.7" y2="99.3" stroke="#c8a820" stroke-width="1.2"/>
<circle cx="170" cy="105" r="1.8" fill="#c8a820"/>

  <!-- coupling between loco and coach -->
  <rect x="120" y="72" width="15" height="4" rx="1" fill="#666"/>
  <!-- loco body black -->
  <rect x="30" y="58" width="95" height="36" rx="5" fill="#1a1a1a"/>
  <!-- boiler barrel -->
  <rect x="35" y="63" width="65" height="24" rx="7" fill="#2a2a2a"/>
  <!-- very tall funnel chimney - key feature -->
  <rect x="48" y="18" width="12" height="42" rx="3" fill="#111"/>
  <!-- flared top - very prominent -->
  <path d="M42,20 Q44,14 54,12 Q64,14 66,20 Z" fill="#111"/>
  <rect x="42" y="12" width="24" height="8" rx="3" fill="#222"/>
  <!-- smoke puffs -->
  <circle cx="54" cy="8" r="5" fill="#ddd" opacity="0.5"/>
  <circle cx="62" cy="6" r="4" fill="#ddd" opacity="0.35"/>
  <!-- 2 small pony + 2 drive wheels, 2-2-0 -->
  <circle cx="50" cy="105" r="7" fill="#111" stroke="#888" stroke-width="2"/>
<line x1="57.0" y1="105.0" x2="43.0" y2="105.0" stroke="#888" stroke-width="1.2"/>
<line x1="54.9" y1="109.9" x2="45.1" y2="100.1" stroke="#888" stroke-width="1.2"/>
<line x1="50.0" y1="112.0" x2="50.0" y2="98.0" stroke="#888" stroke-width="1.2"/>
<line x1="45.1" y1="109.9" x2="54.9" y2="100.1" stroke="#888" stroke-width="1.2"/>
<circle cx="50" cy="105" r="1.5" fill="#888"/>

  <circle cx="68" cy="105" r="7" fill="#111" stroke="#888" stroke-width="2"/>
<line x1="75.0" y1="105.0" x2="61.0" y2="105.0" stroke="#888" stroke-width="1.2"/>
<line x1="72.9" y1="109.9" x2="63.1" y2="100.1" stroke="#888" stroke-width="1.2"/>
<line x1="68.0" y1="112.0" x2="68.0" y2="98.0" stroke="#888" stroke-width="1.2"/>
<line x1="63.1" y1="109.9" x2="72.9" y2="100.1" stroke="#888" stroke-width="1.2"/>
<circle cx="68" cy="105" r="1.5" fill="#888"/>

  <circle cx="95" cy="105" r="11" fill="#111" stroke="#888" stroke-width="2"/>
<line x1="106.0" y1="105.0" x2="84.0" y2="105.0" stroke="#888" stroke-width="1.2"/>
<line x1="104.5" y1="110.5" x2="85.5" y2="99.5" stroke="#888" stroke-width="1.2"/>
<line x1="100.5" y1="114.5" x2="89.5" y2="95.5" stroke="#888" stroke-width="1.2"/>
<line x1="95.0" y1="116.0" x2="95.0" y2="94.0" stroke="#888" stroke-width="1.2"/>
<line x1="89.5" y1="114.5" x2="100.5" y2="95.5" stroke="#888" stroke-width="1.2"/>
<line x1="85.5" y1="110.5" x2="104.5" y2="99.5" stroke="#888" stroke-width="1.2"/>
<circle cx="95" cy="105" r="2.4" fill="#888"/>

  <circle cx="118" cy="105" r="11" fill="#111" stroke="#888" stroke-width="2"/>
<line x1="129.0" y1="105.0" x2="107.0" y2="105.0" stroke="#888" stroke-width="1.2"/>
<line x1="127.5" y1="110.5" x2="108.5" y2="99.5" stroke="#888" stroke-width="1.2"/>
<line x1="123.5" y1="114.5" x2="112.5" y2="95.5" stroke="#888" stroke-width="1.2"/>
<line x1="118.0" y1="116.0" x2="118.0" y2="94.0" stroke="#888" stroke-width="1.2"/>
<line x1="112.5" y1="114.5" x2="123.5" y2="95.5" stroke="#888" stroke-width="1.2"/>
<line x1="108.5" y1="110.5" x2="127.5" y2="99.5" stroke="#888" stroke-width="1.2"/>
<circle cx="118" cy="105" r="2.4" fill="#888"/>

  <!-- cab area -->
  <rect x="98" y="58" width="28" height="36" rx="3" fill="#2a2a2a"/>
  <line x1="20" y1="112" x2="190" y2="112" stroke="#888" stroke-width="2.5"/>


  <text x="100" y="126" font-family="Arial,sans-serif" font-size="7" fill="#555" text-anchor="middle">DeWitt Clinton · 1831</text>
</svg>