<svg xmlns="http://www.w3.org/2000/svg" viewBox="0 0 200 130" width="200" height="130">

  <!-- more pointed/streamlined nose than DF4 -->
  <rect x="8" y="44" width="180" height="58" rx="5" fill="#888"/>
  <path d="M8,73 Q14,44 32,42 L188,42 L188,44 L8,44 Z" fill="#999"/>
  <!-- orange stripe -->
  <rect x="8" y="68" width="180" height="12" fill="#FF6600"/>
  <!-- pointed nose front -->
  <path d="M8,44 L8,102 Q8,102 28,92 L28,54 Q14,50 8,44 Z" fill="#777"/>
  <!-- cab windshield -->
  <rect x="14" y="50" width="20" height="18" rx="2" fill="#87CEEB" opacity="0.7"/>
  <!-- hood exhausts -->
  <rect x="50" y="30" width="10" height="16" rx="3" fill="#1a1a1a"/>
  <rect x="70" y="32" width="10" height="14" rx="3" fill="#1a1a1a"/>
  <!-- headlight -->
  <circle cx="14" cy="73" r="5" fill="#FFE040" opacity="0.9"/>
  <circle cx="28" cy="110" r="9" fill="#555" stroke="#FF6600" stroke-width="2"/>
<line x1="37.0" y1="110.0" x2="19.0" y2="110.0" stroke="#FF6600" stroke-width="1.2"/>
<line x1="34.4" y1="116.4" x2="21.6" y2="103.6" stroke="#FF6600" stroke-width="1.2"/>
<line x1="28.0" y1="119.0" x2="28.0" y2="101.0" stroke="#FF6600" stroke-width="1.2"/>
<line x1="21.6" y1="116.4" x2="34.4" y2="103.6" stroke="#FF6600" stroke-width="1.2"/>
<circle cx="28" cy="110" r="2.0" fill="#FF6600"/>

  <circle cx="54" cy="110" r="9" fill="#555" stroke="#FF6600" stroke-width="2"/>
<line x1="63.0" y1="110.0" x2="45.0" y2="110.0" stroke="#FF6600" stroke-width="1.2"/>
<line x1="60.4" y1="116.4" x2="47.6" y2="103.6" stroke="#FF6600" stroke-width="1.2"/>
<line x1="54.0" y1="119.0" x2="54.0" y2="101.0" stroke="#FF6600" stroke-width="1.2"/>
<line x1="47.6" y1="116.4" x2="60.4" y2="103.6" stroke="#FF6600" stroke-width="1.2"/>
<circle cx="54" cy="110" r="2.0" fill="#FF6600"/>

  <circle cx="100" cy="110" r="9" fill="#555" stroke="#FF6600" stroke-width="2"/>
<line x1="109.0" y1="110.0" x2="91.0" y2="110.0" stroke="#FF6600" stroke-width="1.2"/>
<line x1="106.4" y1="116.4" x2="93.6" y2="103.6" stroke="#FF6600" stroke-width="1.2"/>
<line x1="100.0" y1="119.0" x2="100.0" y2="101.0" stroke="#FF6600" stroke-width="1.2"/>
<line x1="93.6" y1="116.4" x2="106.4" y2="103.6" stroke="#FF6600" stroke-width="1.2"/>
<circle cx="100" cy="110" r="2.0" fill="#FF6600"/>

  <circle cx="128" cy="110" r="9" fill="#555" stroke="#FF6600" stroke-width="2"/>
<line x1="137.0" y1="110.0" x2="119.0" y2="110.0" stroke="#FF6600" stroke-width="1.2"/>
<line x1="134.4" y1="116.4" x2="121.6" y2="103.6" stroke="#FF6600" stroke-width="1.2"/>
<line x1="128.0" y1="119.0" x2="128.0" y2="101.0" stroke="#FF6600" stroke-width="1.2"/>
<line x1="121.6" y1="116.4" x2="134.4" y2="103.6" stroke="#FF6600" stroke-width="1.2"/>
<circle cx="128" cy="110" r="2.0" fill="#FF6600"/>

  <circle cx="158" cy="110" r="9" fill="#555" stroke="#FF6600" stroke-width="2"/>
<line x1="167.0" y1="110.0" x2="149.0" y2="110.0" stroke="#FF6600" stroke-width="1.2"/>
<line x1="164.4" y1="116.4" x2="151.6" y2="103.6" stroke="#FF6600" stroke-width="1.2"/>
<line x1="158.0" y1="119.0" x2="158.0" y2="101.0" stroke="#FF6600" stroke-width="1.2"/>
<line x1="151.6" y1="116.4" x2="164.4" y2="103.6" stroke="#FF6600" stroke-width="1.2"/>
<circle cx="158" cy="110" r="2.0" fill="#FF6600"/>

  <circle cx="182" cy="110" r="9" fill="#555" stroke="#FF6600" stroke-width="2"/>
<line x1="191.0" y1="110.0" x2="173.0" y2="110.0" stroke="#FF6600" stroke-width="1.2"/>
<line x1="188.4" y1="116.4" x2="175.6" y2="103.6" stroke="#FF6600" stroke-width="1.2"/>
<line x1="182.0" y1="119.0" x2="182.0" y2="101.0" stroke="#FF6600" stroke-width="1.2"/>
<line x1="175.6" y1="116.4" x2="188.4" y2="103.6" stroke="#FF6600" stroke-width="1.2"/>
<circle cx="182" cy="110" r="2.0" fill="#FF6600"/>

  <line x1="5" y1="112" x2="198" y2="112" stroke="#888" stroke-width="2.5"/>


  <text x="100" y="126" font-family="Arial,sans-serif" font-size="7" fill="#555" text-anchor="middle">DF11 China · 1992</text>
</svg>