<svg xmlns="http://www.w3.org/2000/svg" viewBox="0 0 200 130" width="200" height="130">

  <!-- cab-forward Chinese style, green -->
  <rect x="8" y="42" width="180" height="60" rx="5" fill="#1a5c2a"/>
  <!-- cab at front, large windshield -->
  <rect x="8" y="42" width="55" height="60" rx="5" fill="#1a6030"/>
  <rect x="12" y="46" width="28" height="20" rx="3" fill="#87CEEB" opacity="0.75"/>
  <!-- yellow stripe -->
  <rect x="8" y="76" width="180" height="10" fill="#FFD700"/>
  <!-- hood behind cab -->
  <rect x="65" y="48" width="120" height="46" rx="3" fill="#1a5c2a"/>
  <!-- exhaust from hood -->
  <rect x="90" y="32" width="10" height="18" rx="3" fill="#1a1a1a"/>
  <rect x="108" y="34" width="10" height="16" rx="3" fill="#1a1a1a"/>
  <!-- front headlights -->
  <circle cx="18" cy="76" r="5" fill="#FFE040" opacity="0.9"/>
  <circle cx="38" cy="76" r="5" fill="#FFE040" opacity="0.9"/>
  <circle cx="28" cy="110" r="8" fill="#1a3a1a" stroke="#FFD700" stroke-width="2"/>
<line x1="36.0" y1="110.0" x2="20.0" y2="110.0" stroke="#FFD700" stroke-width="1.2"/>
<line x1="33.7" y1="115.7" x2="22.3" y2="104.3" stroke="#FFD700" stroke-width="1.2"/>
<line x1="28.0" y1="118.0" x2="28.0" y2="102.0" stroke="#FFD700" stroke-width="1.2"/>
<line x1="22.3" y1="115.7" x2="33.7" y2="104.3" stroke="#FFD700" stroke-width="1.2"/>
<circle cx="28" cy="110" r="1.8" fill="#FFD700"/>

  <circle cx="54" cy="110" r="8" fill="#1a3a1a" stroke="#FFD700" stroke-width="2"/>
<line x1="62.0" y1="110.0" x2="46.0" y2="110.0" stroke="#FFD700" stroke-width="1.2"/>
<line x1="59.7" y1="115.7" x2="48.3" y2="104.3" stroke="#FFD700" stroke-width="1.2"/>
<line x1="54.0" y1="118.0" x2="54.0" y2="102.0" stroke="#FFD700" stroke-width="1.2"/>
<line x1="48.3" y1="115.7" x2="59.7" y2="104.3" stroke="#FFD700" stroke-width="1.2"/>
<circle cx="54" cy="110" r="1.8" fill="#FFD700"/>

  <circle cx="100" cy="110" r="8" fill="#1a3a1a" stroke="#FFD700" stroke-width="2"/>
<line x1="108.0" y1="110.0" x2="92.0" y2="110.0" stroke="#FFD700" stroke-width="1.2"/>
<line x1="105.7" y1="115.7" x2="94.3" y2="104.3" stroke="#FFD700" stroke-width="1.2"/>
<line x1="100.0" y1="118.0" x2="100.0" y2="102.0" stroke="#FFD700" stroke-width="1.2"/>
<line x1="94.3" y1="115.7" x2="105.7" y2="104.3" stroke="#FFD700" stroke-width="1.2"/>
<circle cx="100" cy="110" r="1.8" fill="#FFD700"/>

  <circle cx="128" cy="110" r="8" fill="#1a3a1a" stroke="#FFD700" stroke-width="2"/>
<line x1="136.0" y1="110.0" x2="120.0" y2="110.0" stroke="#FFD700" stroke-width="1.2"/>
<line x1="133.7" y1="115.7" x2="122.3" y2="104.3" stroke="#FFD700" stroke-width="1.2"/>
<line x1="128.0" y1="118.0" x2="128.0" y2="102.0" stroke="#FFD700" stroke-width="1.2"/>
<line x1="122.3" y1="115.7" x2="133.7" y2="104.3" stroke="#FFD700" stroke-width="1.2"/>
<circle cx="128" cy="110" r="1.8" fill="#FFD700"/>

  <circle cx="158" cy="110" r="8" fill="#1a3a1a" stroke="#FFD700" stroke-width="2"/>
<line x1="166.0" y1="110.0" x2="150.0" y2="110.0" stroke="#FFD700" stroke-width="1.2"/>
<line x1="163.7" y1="115.7" x2="152.3" y2="104.3" stroke="#FFD700" stroke-width="1.2"/>
<line x1="158.0" y1="118.0" x2="158.0" y2="102.0" stroke="#FFD700" stroke-width="1.2"/>
<line x1="152.3" y1="115.7" x2="163.7" y2="104.3" stroke="#FFD700" stroke-width="1.2"/>
<circle cx="158" cy="110" r="1.8" fill="#FFD700"/>

  <circle cx="182" cy="110" r="8" fill="#1a3a1a" stroke="#FFD700" stroke-width="2"/>
<line x1="190.0" y1="110.0" x2="174.0" y2="110.0" stroke="#FFD700" stroke-width="1.2"/>
<line x1="187.7" y1="115.7" x2="176.3" y2="104.3" stroke="#FFD700" stroke-width="1.2"/>
<line x1="182.0" y1="118.0" x2="182.0" y2="102.0" stroke="#FFD700" stroke-width="1.2"/>
<line x1="176.3" y1="115.7" x2="187.7" y2="104.3" stroke="#FFD700" stroke-width="1.2"/>
<circle cx="182" cy="110" r="1.8" fill="#FFD700"/>

  <line x1="5" y1="112" x2="198" y2="112" stroke="#888" stroke-width="2.5"/>


  <text x="100" y="126" font-family="Arial,sans-serif" font-size="7" fill="#555" text-anchor="middle">Dongfeng 4 · 1968</text>
</svg>