<svg xmlns="http://www.w3.org/2000/svg" viewBox="0 0 200 130" width="200" height="130">

  <rect x="8" y="50" width="170" height="38" rx="4" fill="#111"/>
  <rect x="14" y="56" width="120" height="24" rx="5" fill="#181818"/>
  <rect x="18" y="16" width="14" height="36" rx="2" fill="#0d0d0d"/>
  <rect x="16" y="13" width="18" height="7" rx="1" fill="#1a1a1a"/>
  <rect x="160" y="42" width="28" height="46" rx="3" fill="#111"/>
  <rect x="163" y="46" width="12" height="13" rx="2" fill="#87CEEB" opacity="0.5"/>
  <circle cx="14" cy="67" r="15" fill="#0d0d0d"/>
  <rect x="100" y="50" width="20" height="12" rx="4" fill="#111"/>
  <circle cx="22" cy="101" r="7" fill="#111" stroke="#444" stroke-width="2"/>
<line x1="29.0" y1="101.0" x2="15.0" y2="101.0" stroke="#444" stroke-width="1.2"/>
<line x1="26.9" y1="105.9" x2="17.1" y2="96.1" stroke="#444" stroke-width="1.2"/>
<line x1="22.0" y1="108.0" x2="22.0" y2="94.0" stroke="#444" stroke-width="1.2"/>
<line x1="17.1" y1="105.9" x2="26.9" y2="96.1" stroke="#444" stroke-width="1.2"/>
<circle cx="22" cy="101" r="1.5" fill="#444"/>

  <circle cx="45" cy="101" r="12" fill="#111" stroke="#444" stroke-width="2"/>
<line x1="57.0" y1="101.0" x2="33.0" y2="101.0" stroke="#444" stroke-width="1.2"/>
<line x1="55.4" y1="107.0" x2="34.6" y2="95.0" stroke="#444" stroke-width="1.2"/>
<line x1="51.0" y1="111.4" x2="39.0" y2="90.6" stroke="#444" stroke-width="1.2"/>
<line x1="45.0" y1="113.0" x2="45.0" y2="89.0" stroke="#444" stroke-width="1.2"/>
<line x1="39.0" y1="111.4" x2="51.0" y2="90.6" stroke="#444" stroke-width="1.2"/>
<line x1="34.6" y1="107.0" x2="55.4" y2="95.0" stroke="#444" stroke-width="1.2"/>
<circle cx="45" cy="101" r="2.6" fill="#444"/>

  <circle cx="64" cy="101" r="12" fill="#111" stroke="#444" stroke-width="2"/>
<line x1="76.0" y1="101.0" x2="52.0" y2="101.0" stroke="#444" stroke-width="1.2"/>
<line x1="74.4" y1="107.0" x2="53.6" y2="95.0" stroke="#444" stroke-width="1.2"/>
<line x1="70.0" y1="111.4" x2="58.0" y2="90.6" stroke="#444" stroke-width="1.2"/>
<line x1="64.0" y1="113.0" x2="64.0" y2="89.0" stroke="#444" stroke-width="1.2"/>
<line x1="58.0" y1="111.4" x2="70.0" y2="90.6" stroke="#444" stroke-width="1.2"/>
<line x1="53.6" y1="107.0" x2="74.4" y2="95.0" stroke="#444" stroke-width="1.2"/>
<circle cx="64" cy="101" r="2.6" fill="#444"/>

  <circle cx="83" cy="101" r="12" fill="#111" stroke="#444" stroke-width="2"/>
<line x1="95.0" y1="101.0" x2="71.0" y2="101.0" stroke="#444" stroke-width="1.2"/>
<line x1="93.4" y1="107.0" x2="72.6" y2="95.0" stroke="#444" stroke-width="1.2"/>
<line x1="89.0" y1="111.4" x2="77.0" y2="90.6" stroke="#444" stroke-width="1.2"/>
<line x1="83.0" y1="113.0" x2="83.0" y2="89.0" stroke="#444" stroke-width="1.2"/>
<line x1="77.0" y1="111.4" x2="89.0" y2="90.6" stroke="#444" stroke-width="1.2"/>
<line x1="72.6" y1="107.0" x2="93.4" y2="95.0" stroke="#444" stroke-width="1.2"/>
<circle cx="83" cy="101" r="2.6" fill="#444"/>

  <circle cx="102" cy="101" r="12" fill="#111" stroke="#444" stroke-width="2"/>
<line x1="114.0" y1="101.0" x2="90.0" y2="101.0" stroke="#444" stroke-width="1.2"/>
<line x1="112.4" y1="107.0" x2="91.6" y2="95.0" stroke="#444" stroke-width="1.2"/>
<line x1="108.0" y1="111.4" x2="96.0" y2="90.6" stroke="#444" stroke-width="1.2"/>
<line x1="102.0" y1="113.0" x2="102.0" y2="89.0" stroke="#444" stroke-width="1.2"/>
<line x1="96.0" y1="111.4" x2="108.0" y2="90.6" stroke="#444" stroke-width="1.2"/>
<line x1="91.6" y1="107.0" x2="112.4" y2="95.0" stroke="#444" stroke-width="1.2"/>
<circle cx="102" cy="101" r="2.6" fill="#444"/>

  <circle cx="121" cy="101" r="12" fill="#111" stroke="#444" stroke-width="2"/>
<line x1="133.0" y1="101.0" x2="109.0" y2="101.0" stroke="#444" stroke-width="1.2"/>
<line x1="131.4" y1="107.0" x2="110.6" y2="95.0" stroke="#444" stroke-width="1.2"/>
<line x1="127.0" y1="111.4" x2="115.0" y2="90.6" stroke="#444" stroke-width="1.2"/>
<line x1="121.0" y1="113.0" x2="121.0" y2="89.0" stroke="#444" stroke-width="1.2"/>
<line x1="115.0" y1="111.4" x2="127.0" y2="90.6" stroke="#444" stroke-width="1.2"/>
<line x1="110.6" y1="107.0" x2="131.4" y2="95.0" stroke="#444" stroke-width="1.2"/>
<circle cx="121" cy="101" r="2.6" fill="#444"/>

  <rect x="45" y="99" width="76" height="4" rx="2" fill="#333" opacity="0.8"/>
  <line x1="5" y1="112" x2="197" y2="112" stroke="#888" stroke-width="2.5"/>


  <text x="100" y="126" font-family="Arial,sans-serif" font-size="7" fill="#555" text-anchor="middle">DRB Class 52 · 1941</text>
</svg>