<svg xmlns="http://www.w3.org/2000/svg" viewBox="0 0 200 130" width="200" height="130">

  <path d="M12,68 C14,40 32,28 56,26 L178,26 L182,68 L178,110 L56,110 C32,108 14,96 12,68 Z" fill="#CC0000"/>
  <path d="M12,68 C13,52 28,46 48,44 L48,92 C28,90 13,84 12,68 Z" fill="#AA0000"/>
  <rect x="56" y="60" width="126" height="16" fill="#fff" opacity="0.15"/>
  <circle cx="15" cy="68" r="7" fill="#FFE040" opacity="0.9"/>
  <rect x="152" y="32" width="18" height="16" rx="2" fill="#87CEEB" opacity="0.7"/>
  <circle cx="42" cy="114" r="9" fill="#700000" stroke="#AA0000" stroke-width="2"/>
<line x1="51.0" y1="114.0" x2="33.0" y2="114.0" stroke="#AA0000" stroke-width="1.2"/>
<line x1="48.4" y1="120.4" x2="35.6" y2="107.6" stroke="#AA0000" stroke-width="1.2"/>
<line x1="42.0" y1="123.0" x2="42.0" y2="105.0" stroke="#AA0000" stroke-width="1.2"/>
<line x1="35.6" y1="120.4" x2="48.4" y2="107.6" stroke="#AA0000" stroke-width="1.2"/>
<circle cx="42" cy="114" r="2.0" fill="#AA0000"/>

  <circle cx="61" cy="114" r="9" fill="#700000" stroke="#AA0000" stroke-width="2"/>
<line x1="70.0" y1="114.0" x2="52.0" y2="114.0" stroke="#AA0000" stroke-width="1.2"/>
<line x1="67.4" y1="120.4" x2="54.6" y2="107.6" stroke="#AA0000" stroke-width="1.2"/>
<line x1="61.0" y1="123.0" x2="61.0" y2="105.0" stroke="#AA0000" stroke-width="1.2"/>
<line x1="54.6" y1="120.4" x2="67.4" y2="107.6" stroke="#AA0000" stroke-width="1.2"/>
<circle cx="61" cy="114" r="2.0" fill="#AA0000"/>

  <circle cx="86" cy="114" r="14" fill="#700000" stroke="#AA0000" stroke-width="2"/>
<line x1="100.0" y1="114.0" x2="72.0" y2="114.0" stroke="#AA0000" stroke-width="1.2"/>
<line x1="98.1" y1="121.0" x2="73.9" y2="107.0" stroke="#AA0000" stroke-width="1.2"/>
<line x1="93.0" y1="126.1" x2="79.0" y2="101.9" stroke="#AA0000" stroke-width="1.2"/>
<line x1="86.0" y1="128.0" x2="86.0" y2="100.0" stroke="#AA0000" stroke-width="1.2"/>
<line x1="79.0" y1="126.1" x2="93.0" y2="101.9" stroke="#AA0000" stroke-width="1.2"/>
<line x1="73.9" y1="121.0" x2="98.1" y2="107.0" stroke="#AA0000" stroke-width="1.2"/>
<circle cx="86" cy="114" r="3.1" fill="#AA0000"/>

  <circle cx="109" cy="114" r="14" fill="#700000" stroke="#AA0000" stroke-width="2"/>
<line x1="123.0" y1="114.0" x2="95.0" y2="114.0" stroke="#AA0000" stroke-width="1.2"/>
<line x1="121.1" y1="121.0" x2="96.9" y2="107.0" stroke="#AA0000" stroke-width="1.2"/>
<line x1="116.0" y1="126.1" x2="102.0" y2="101.9" stroke="#AA0000" stroke-width="1.2"/>
<line x1="109.0" y1="128.0" x2="109.0" y2="100.0" stroke="#AA0000" stroke-width="1.2"/>
<line x1="102.0" y1="126.1" x2="116.0" y2="101.9" stroke="#AA0000" stroke-width="1.2"/>
<line x1="96.9" y1="121.0" x2="121.1" y2="107.0" stroke="#AA0000" stroke-width="1.2"/>
<circle cx="109" cy="114" r="3.1" fill="#AA0000"/>

  <circle cx="132" cy="114" r="14" fill="#700000" stroke="#AA0000" stroke-width="2"/>
<line x1="146.0" y1="114.0" x2="118.0" y2="114.0" stroke="#AA0000" stroke-width="1.2"/>
<line x1="144.1" y1="121.0" x2="119.9" y2="107.0" stroke="#AA0000" stroke-width="1.2"/>
<line x1="139.0" y1="126.1" x2="125.0" y2="101.9" stroke="#AA0000" stroke-width="1.2"/>
<line x1="132.0" y1="128.0" x2="132.0" y2="100.0" stroke="#AA0000" stroke-width="1.2"/>
<line x1="125.0" y1="126.1" x2="139.0" y2="101.9" stroke="#AA0000" stroke-width="1.2"/>
<line x1="119.9" y1="121.0" x2="144.1" y2="107.0" stroke="#AA0000" stroke-width="1.2"/>
<circle cx="132" cy="114" r="3.1" fill="#AA0000"/>

  <circle cx="158" cy="114" r="9" fill="#700000" stroke="#AA0000" stroke-width="2"/>
<line x1="167.0" y1="114.0" x2="149.0" y2="114.0" stroke="#AA0000" stroke-width="1.2"/>
<line x1="164.4" y1="120.4" x2="151.6" y2="107.6" stroke="#AA0000" stroke-width="1.2"/>
<line x1="158.0" y1="123.0" x2="158.0" y2="105.0" stroke="#AA0000" stroke-width="1.2"/>
<line x1="151.6" y1="120.4" x2="164.4" y2="107.6" stroke="#AA0000" stroke-width="1.2"/>
<circle cx="158" cy="114" r="2.0" fill="#AA0000"/>

  <circle cx="176" cy="114" r="9" fill="#700000" stroke="#AA0000" stroke-width="2"/>
<line x1="185.0" y1="114.0" x2="167.0" y2="114.0" stroke="#AA0000" stroke-width="1.2"/>
<line x1="182.4" y1="120.4" x2="169.6" y2="107.6" stroke="#AA0000" stroke-width="1.2"/>
<line x1="176.0" y1="123.0" x2="176.0" y2="105.0" stroke="#AA0000" stroke-width="1.2"/>
<line x1="169.6" y1="120.4" x2="182.4" y2="107.6" stroke="#AA0000" stroke-width="1.2"/>
<circle cx="176" cy="114" r="2.0" fill="#AA0000"/>

  <line x1="10" y1="112" x2="196" y2="112" stroke="#888" stroke-width="2.5"/>


  <text x="100" y="126" font-family="Arial,sans-serif" font-size="7" fill="#555" text-anchor="middle">DRG Class 05 · 1935</text>
</svg>