<svg xmlns="http://www.w3.org/2000/svg" viewBox="0 0 200 130" width="200" height="130">

  <!-- Dubai Metro: driverless, red/silver futuristic nose (no cab) -->
  <!-- completely transparent front - no cab -->
  <path d="M8,68 Q18,46 40,40 L185,40 L188,68 L185,96 L40,96 Q18,90 8,68 Z" fill="#CC0000"/>
  <!-- silver body -->
  <rect x="40" y="40" width="148" height="56" rx="0" fill="#C0C0C0"/>
  <!-- red upper stripe -->
  <rect x="40" y="40" width="148" height="18" rx="0" fill="#CC0000"/>
  <!-- driverless: full glass front nose -->
  <path d="M8,68 Q18,52 36,46 L40,46 L40,40 Q22,46 10,62 Z" fill="#87CEEB" opacity="0.6"/>
  <path d="M8,68 Q18,84 36,90 L40,90 L40,96 Q22,90 10,74 Z" fill="#87CEEB" opacity="0.6"/>
  <!-- panoramic front view (driverless) -->
  <rect x="12" y="54" width="28" height="28" rx="4" fill="#87CEEB" opacity="0.7"/>
  <!-- windows body -->
  <rect x="50" y="46" width="14" height="10" rx="1" fill="#87CEEB" opacity="0.6"/>
  <rect x="70" y="46" width="14" height="10" rx="1" fill="#87CEEB" opacity="0.6"/>
  <rect x="90" y="46" width="14" height="10" rx="1" fill="#87CEEB" opacity="0.6"/>
  <circle cx="24" cy="104" r="7" fill="#aaa" stroke="#CC0000" stroke-width="2"/>
<line x1="31.0" y1="104.0" x2="17.0" y2="104.0" stroke="#CC0000" stroke-width="1.2"/>
<line x1="28.9" y1="108.9" x2="19.1" y2="99.1" stroke="#CC0000" stroke-width="1.2"/>
<line x1="24.0" y1="111.0" x2="24.0" y2="97.0" stroke="#CC0000" stroke-width="1.2"/>
<line x1="19.1" y1="108.9" x2="28.9" y2="99.1" stroke="#CC0000" stroke-width="1.2"/>
<circle cx="24" cy="104" r="1.5" fill="#CC0000"/>

  <circle cx="50" cy="104" r="7" fill="#aaa" stroke="#CC0000" stroke-width="2"/>
<line x1="57.0" y1="104.0" x2="43.0" y2="104.0" stroke="#CC0000" stroke-width="1.2"/>
<line x1="54.9" y1="108.9" x2="45.1" y2="99.1" stroke="#CC0000" stroke-width="1.2"/>
<line x1="50.0" y1="111.0" x2="50.0" y2="97.0" stroke="#CC0000" stroke-width="1.2"/>
<line x1="45.1" y1="108.9" x2="54.9" y2="99.1" stroke="#CC0000" stroke-width="1.2"/>
<circle cx="50" cy="104" r="1.5" fill="#CC0000"/>

  <circle cx="90" cy="104" r="7" fill="#aaa" stroke="#CC0000" stroke-width="2"/>
<line x1="97.0" y1="104.0" x2="83.0" y2="104.0" stroke="#CC0000" stroke-width="1.2"/>
<line x1="94.9" y1="108.9" x2="85.1" y2="99.1" stroke="#CC0000" stroke-width="1.2"/>
<line x1="90.0" y1="111.0" x2="90.0" y2="97.0" stroke="#CC0000" stroke-width="1.2"/>
<line x1="85.1" y1="108.9" x2="94.9" y2="99.1" stroke="#CC0000" stroke-width="1.2"/>
<circle cx="90" cy="104" r="1.5" fill="#CC0000"/>

  <circle cx="130" cy="104" r="7" fill="#aaa" stroke="#CC0000" stroke-width="2"/>
<line x1="137.0" y1="104.0" x2="123.0" y2="104.0" stroke="#CC0000" stroke-width="1.2"/>
<line x1="134.9" y1="108.9" x2="125.1" y2="99.1" stroke="#CC0000" stroke-width="1.2"/>
<line x1="130.0" y1="111.0" x2="130.0" y2="97.0" stroke="#CC0000" stroke-width="1.2"/>
<line x1="125.1" y1="108.9" x2="134.9" y2="99.1" stroke="#CC0000" stroke-width="1.2"/>
<circle cx="130" cy="104" r="1.5" fill="#CC0000"/>

  <circle cx="162" cy="104" r="7" fill="#aaa" stroke="#CC0000" stroke-width="2"/>
<line x1="169.0" y1="104.0" x2="155.0" y2="104.0" stroke="#CC0000" stroke-width="1.2"/>
<line x1="166.9" y1="108.9" x2="157.1" y2="99.1" stroke="#CC0000" stroke-width="1.2"/>
<line x1="162.0" y1="111.0" x2="162.0" y2="97.0" stroke="#CC0000" stroke-width="1.2"/>
<line x1="157.1" y1="108.9" x2="166.9" y2="99.1" stroke="#CC0000" stroke-width="1.2"/>
<circle cx="162" cy="104" r="1.5" fill="#CC0000"/>

  <line x1="5" y1="112" x2="198" y2="112" stroke="#888" stroke-width="2.5"/>


  <text x="100" y="126" font-family="Arial,sans-serif" font-size="7" fill="#555" text-anchor="middle">Dubai Metro · 2009</text>
</svg>