<svg xmlns="http://www.w3.org/2000/svg" viewBox="0 0 200 130" width="200" height="130">

  <path d="M14,68 Q24,38 48,34 L174,34 L178,68 L174,102 L48,102 Q24,98 14,68 Z" fill="#8B1a2a"/>
  <path d="M48,50 L174,50 L174,58 L42,58 Q30,54 20,50 Z" fill="#C8A800"/>
  <path d="M48,78 L174,78 L174,86 L42,86 Q30,82 20,78 Z" fill="#C8A800"/>
  <rect x="148" y="40" width="18" height="14" rx="2" fill="#87CEEB" opacity="0.7"/>
  <circle cx="16" cy="68" r="7" fill="#FFE040" opacity="0.9"/>
  <circle cx="44" cy="108" r="8" fill="#6a0015" stroke="#C8A800" stroke-width="2"/>
<line x1="52.0" y1="108.0" x2="36.0" y2="108.0" stroke="#C8A800" stroke-width="1.2"/>
<line x1="49.7" y1="113.7" x2="38.3" y2="102.3" stroke="#C8A800" stroke-width="1.2"/>
<line x1="44.0" y1="116.0" x2="44.0" y2="100.0" stroke="#C8A800" stroke-width="1.2"/>
<line x1="38.3" y1="113.7" x2="49.7" y2="102.3" stroke="#C8A800" stroke-width="1.2"/>
<circle cx="44" cy="108" r="1.8" fill="#C8A800"/>

  <circle cx="62" cy="108" r="8" fill="#6a0015" stroke="#C8A800" stroke-width="2"/>
<line x1="70.0" y1="108.0" x2="54.0" y2="108.0" stroke="#C8A800" stroke-width="1.2"/>
<line x1="67.7" y1="113.7" x2="56.3" y2="102.3" stroke="#C8A800" stroke-width="1.2"/>
<line x1="62.0" y1="116.0" x2="62.0" y2="100.0" stroke="#C8A800" stroke-width="1.2"/>
<line x1="56.3" y1="113.7" x2="67.7" y2="102.3" stroke="#C8A800" stroke-width="1.2"/>
<circle cx="62" cy="108" r="1.8" fill="#C8A800"/>

  <circle cx="86" cy="108" r="13" fill="#6a0015" stroke="#C8A800" stroke-width="2"/>
<line x1="99.0" y1="108.0" x2="73.0" y2="108.0" stroke="#C8A800" stroke-width="1.2"/>
<line x1="97.3" y1="114.5" x2="74.7" y2="101.5" stroke="#C8A800" stroke-width="1.2"/>
<line x1="92.5" y1="119.3" x2="79.5" y2="96.7" stroke="#C8A800" stroke-width="1.2"/>
<line x1="86.0" y1="121.0" x2="86.0" y2="95.0" stroke="#C8A800" stroke-width="1.2"/>
<line x1="79.5" y1="119.3" x2="92.5" y2="96.7" stroke="#C8A800" stroke-width="1.2"/>
<line x1="74.7" y1="114.5" x2="97.3" y2="101.5" stroke="#C8A800" stroke-width="1.2"/>
<circle cx="86" cy="108" r="2.9" fill="#C8A800"/>

  <circle cx="109" cy="108" r="13" fill="#6a0015" stroke="#C8A800" stroke-width="2"/>
<line x1="122.0" y1="108.0" x2="96.0" y2="108.0" stroke="#C8A800" stroke-width="1.2"/>
<line x1="120.3" y1="114.5" x2="97.7" y2="101.5" stroke="#C8A800" stroke-width="1.2"/>
<line x1="115.5" y1="119.3" x2="102.5" y2="96.7" stroke="#C8A800" stroke-width="1.2"/>
<line x1="109.0" y1="121.0" x2="109.0" y2="95.0" stroke="#C8A800" stroke-width="1.2"/>
<line x1="102.5" y1="119.3" x2="115.5" y2="96.7" stroke="#C8A800" stroke-width="1.2"/>
<line x1="97.7" y1="114.5" x2="120.3" y2="101.5" stroke="#C8A800" stroke-width="1.2"/>
<circle cx="109" cy="108" r="2.9" fill="#C8A800"/>

  <circle cx="132" cy="108" r="13" fill="#6a0015" stroke="#C8A800" stroke-width="2"/>
<line x1="145.0" y1="108.0" x2="119.0" y2="108.0" stroke="#C8A800" stroke-width="1.2"/>
<line x1="143.3" y1="114.5" x2="120.7" y2="101.5" stroke="#C8A800" stroke-width="1.2"/>
<line x1="138.5" y1="119.3" x2="125.5" y2="96.7" stroke="#C8A800" stroke-width="1.2"/>
<line x1="132.0" y1="121.0" x2="132.0" y2="95.0" stroke="#C8A800" stroke-width="1.2"/>
<line x1="125.5" y1="119.3" x2="138.5" y2="96.7" stroke="#C8A800" stroke-width="1.2"/>
<line x1="120.7" y1="114.5" x2="143.3" y2="101.5" stroke="#C8A800" stroke-width="1.2"/>
<circle cx="132" cy="108" r="2.9" fill="#C8A800"/>

  <circle cx="158" cy="108" r="9" fill="#6a0015" stroke="#C8A800" stroke-width="2"/>
<line x1="167.0" y1="108.0" x2="149.0" y2="108.0" stroke="#C8A800" stroke-width="1.2"/>
<line x1="164.4" y1="114.4" x2="151.6" y2="101.6" stroke="#C8A800" stroke-width="1.2"/>
<line x1="158.0" y1="117.0" x2="158.0" y2="99.0" stroke="#C8A800" stroke-width="1.2"/>
<line x1="151.6" y1="114.4" x2="164.4" y2="101.6" stroke="#C8A800" stroke-width="1.2"/>
<circle cx="158" cy="108" r="2.0" fill="#C8A800"/>

  <line x1="10" y1="112" x2="195" y2="112" stroke="#888" stroke-width="2.5"/>


  <text x="100" y="126" font-family="Arial,sans-serif" font-size="7" fill="#555" text-anchor="middle">Duchess Class LMS · 1937</text>
</svg>