<svg xmlns="http://www.w3.org/2000/svg" viewBox="0 0 200 130" width="200" height="130">

  <!-- bulldog streamlined nose, full-width -->
  <path d="M10,68 C12,44 28,36 48,34 L185,34 L185,102 L48,102 C28,100 12,92 10,68 Z" fill="#C0C0C0"/>
  <!-- red nose accent bulldog -->
  <path d="M10,68 C12,52 24,46 40,44 L40,60 Q28,60 16,68 Q28,76 40,76 L40,92 C24,90 12,84 10,68 Z" fill="#CC2200"/>
  <!-- yellow stripe -->
  <rect x="48" y="60" width="137" height="16" fill="#FFD700"/>
  <!-- cab window -->
  <rect x="150" y="40" width="22" height="18" rx="2" fill="#87CEEB" opacity="0.7"/>
  <!-- nose number board -->
  <rect x="30" y="58" width="16" height="20" rx="2" fill="#fff" opacity="0.5"/>
  <!-- headlights -->
  <circle cx="14" cy="58" r="5" fill="#FFE040" opacity="0.9"/>
  <circle cx="14" cy="78" r="5" fill="#FFE040" opacity="0.9"/>
  <!-- 6 axle bogies -->
  <circle cx="38" cy="110" r="8" fill="#aaa" stroke="#888" stroke-width="2"/>
<line x1="46.0" y1="110.0" x2="30.0" y2="110.0" stroke="#888" stroke-width="1.2"/>
<line x1="43.7" y1="115.7" x2="32.3" y2="104.3" stroke="#888" stroke-width="1.2"/>
<line x1="38.0" y1="118.0" x2="38.0" y2="102.0" stroke="#888" stroke-width="1.2"/>
<line x1="32.3" y1="115.7" x2="43.7" y2="104.3" stroke="#888" stroke-width="1.2"/>
<circle cx="38" cy="110" r="1.8" fill="#888"/>

  <circle cx="60" cy="110" r="8" fill="#aaa" stroke="#888" stroke-width="2"/>
<line x1="68.0" y1="110.0" x2="52.0" y2="110.0" stroke="#888" stroke-width="1.2"/>
<line x1="65.7" y1="115.7" x2="54.3" y2="104.3" stroke="#888" stroke-width="1.2"/>
<line x1="60.0" y1="118.0" x2="60.0" y2="102.0" stroke="#888" stroke-width="1.2"/>
<line x1="54.3" y1="115.7" x2="65.7" y2="104.3" stroke="#888" stroke-width="1.2"/>
<circle cx="60" cy="110" r="1.8" fill="#888"/>

  <circle cx="88" cy="110" r="8" fill="#aaa" stroke="#888" stroke-width="2"/>
<line x1="96.0" y1="110.0" x2="80.0" y2="110.0" stroke="#888" stroke-width="1.2"/>
<line x1="93.7" y1="115.7" x2="82.3" y2="104.3" stroke="#888" stroke-width="1.2"/>
<line x1="88.0" y1="118.0" x2="88.0" y2="102.0" stroke="#888" stroke-width="1.2"/>
<line x1="82.3" y1="115.7" x2="93.7" y2="104.3" stroke="#888" stroke-width="1.2"/>
<circle cx="88" cy="110" r="1.8" fill="#888"/>

  <circle cx="118" cy="110" r="8" fill="#aaa" stroke="#888" stroke-width="2"/>
<line x1="126.0" y1="110.0" x2="110.0" y2="110.0" stroke="#888" stroke-width="1.2"/>
<line x1="123.7" y1="115.7" x2="112.3" y2="104.3" stroke="#888" stroke-width="1.2"/>
<line x1="118.0" y1="118.0" x2="118.0" y2="102.0" stroke="#888" stroke-width="1.2"/>
<line x1="112.3" y1="115.7" x2="123.7" y2="104.3" stroke="#888" stroke-width="1.2"/>
<circle cx="118" cy="110" r="1.8" fill="#888"/>

  <circle cx="148" cy="110" r="8" fill="#aaa" stroke="#888" stroke-width="2"/>
<line x1="156.0" y1="110.0" x2="140.0" y2="110.0" stroke="#888" stroke-width="1.2"/>
<line x1="153.7" y1="115.7" x2="142.3" y2="104.3" stroke="#888" stroke-width="1.2"/>
<line x1="148.0" y1="118.0" x2="148.0" y2="102.0" stroke="#888" stroke-width="1.2"/>
<line x1="142.3" y1="115.7" x2="153.7" y2="104.3" stroke="#888" stroke-width="1.2"/>
<circle cx="148" cy="110" r="1.8" fill="#888"/>

  <circle cx="170" cy="110" r="8" fill="#aaa" stroke="#888" stroke-width="2"/>
<line x1="178.0" y1="110.0" x2="162.0" y2="110.0" stroke="#888" stroke-width="1.2"/>
<line x1="175.7" y1="115.7" x2="164.3" y2="104.3" stroke="#888" stroke-width="1.2"/>
<line x1="170.0" y1="118.0" x2="170.0" y2="102.0" stroke="#888" stroke-width="1.2"/>
<line x1="164.3" y1="115.7" x2="175.7" y2="104.3" stroke="#888" stroke-width="1.2"/>
<circle cx="170" cy="110" r="1.8" fill="#888"/>

  <line x1="10" y1="112" x2="195" y2="112" stroke="#888" stroke-width="2.5"/>


  <text x="100" y="126" font-family="Arial,sans-serif" font-size="7" fill="#555" text-anchor="middle">EMD E-Unit · 1937</text>
</svg>