<svg xmlns="http://www.w3.org/2000/svg" viewBox="0 0 205 105" width="205" height="105">
  <path d="M6,42 Q22,22 62,22 L195,22 L195,78 L62,78 Q22,78 6,62 Z" fill="#C89020"/>
  <path d="M6,42 Q18,30 56,28 L56,72 Q22,70 6,62 Z" fill="#1A3A6B" opacity="0.3"/>
  <rect x="22" y="28" width="16" height="13" rx="2" fill="#87CEEB" opacity="0.75"/>
  <rect x="42" y="28" width="12" height="13" rx="2" fill="#87CEEB" opacity="0.75"/>
  <rect x="65" y="27" width="18" height="14" rx="2" fill="#87CEEB" opacity="0.6"/>
  <path d="M6,50 L195,50" stroke="#1A3A6B" stroke-width="3" opacity="0.4"/>
  <rect x="85" y="36" width="8" height="12" rx="2" fill="#555"/>
  <rect x="82" y="34" width="14" height="4" rx="1" fill="#444"/>
  <circle cx="9"  cy="52" r="5" fill="#FFE040" opacity="0.9"/>
  <circle cx="192" cy="52" r="4" fill="#FFE040" opacity="0.5"/>
  <rect x="62" y="72" width="133" height="8" rx="2" fill="#1A3A6B" opacity="0.5"/>
  <circle cx="40" cy="88" r="12" fill="#0A0A0A" stroke="#1A3A6B" stroke-width="2.5"/>
  <line x1="52.0" y1="88.0" x2="28.0" y2="88.0" stroke="#1A3A6B" stroke-width="1.2"/>
  <line x1="50.4" y1="94.0" x2="29.6" y2="82.0" stroke="#1A3A6B" stroke-width="1.2"/>
  <line x1="46.0" y1="98.4" x2="34.0" y2="77.6" stroke="#1A3A6B" stroke-width="1.2"/>
  <line x1="40.0" y1="100.0" x2="40.0" y2="76.0" stroke="#1A3A6B" stroke-width="1.2"/>
  <line x1="34.0" y1="98.4" x2="46.0" y2="77.6" stroke="#1A3A6B" stroke-width="1.2"/>
  <line x1="29.6" y1="94.0" x2="50.4" y2="82.0" stroke="#1A3A6B" stroke-width="1.2"/>
  <circle cx="40" cy="88" r="2.6" fill="#1A3A6B"/>
  <circle cx="72" cy="88" r="12" fill="#0A0A0A" stroke="#1A3A6B" stroke-width="2.5"/>
  <line x1="84.0" y1="88.0" x2="60.0" y2="88.0" stroke="#1A3A6B" stroke-width="1.2"/>
  <line x1="82.4" y1="94.0" x2="61.6" y2="82.0" stroke="#1A3A6B" stroke-width="1.2"/>
  <line x1="78.0" y1="98.4" x2="66.0" y2="77.6" stroke="#1A3A6B" stroke-width="1.2"/>
  <line x1="72.0" y1="100.0" x2="72.0" y2="76.0" stroke="#1A3A6B" stroke-width="1.2"/>
  <line x1="66.0" y1="98.4" x2="78.0" y2="77.6" stroke="#1A3A6B" stroke-width="1.2"/>
  <line x1="61.6" y1="94.0" x2="82.4" y2="82.0" stroke="#1A3A6B" stroke-width="1.2"/>
  <circle cx="72" cy="88" r="2.6" fill="#1A3A6B"/>
  <circle cx="130" cy="88" r="12" fill="#0A0A0A" stroke="#1A3A6B" stroke-width="2.5"/>
  <line x1="142.0" y1="88.0" x2="118.0" y2="88.0" stroke="#1A3A6B" stroke-width="1.2"/>
  <line x1="140.4" y1="94.0" x2="119.6" y2="82.0" stroke="#1A3A6B" stroke-width="1.2"/>
  <line x1="136.0" y1="98.4" x2="124.0" y2="77.6" stroke="#1A3A6B" stroke-width="1.2"/>
  <line x1="130.0" y1="100.0" x2="130.0" y2="76.0" stroke="#1A3A6B" stroke-width="1.2"/>
  <line x1="124.0" y1="98.4" x2="136.0" y2="77.6" stroke="#1A3A6B" stroke-width="1.2"/>
  <line x1="119.6" y1="94.0" x2="140.4" y2="82.0" stroke="#1A3A6B" stroke-width="1.2"/>
  <circle cx="130" cy="88" r="2.6" fill="#1A3A6B"/>
  <circle cx="163" cy="88" r="12" fill="#0A0A0A" stroke="#1A3A6B" stroke-width="2.5"/>
  <line x1="175.0" y1="88.0" x2="151.0" y2="88.0" stroke="#1A3A6B" stroke-width="1.2"/>
  <line x1="173.4" y1="94.0" x2="152.6" y2="82.0" stroke="#1A3A6B" stroke-width="1.2"/>
  <line x1="169.0" y1="98.4" x2="157.0" y2="77.6" stroke="#1A3A6B" stroke-width="1.2"/>
  <line x1="163.0" y1="100.0" x2="163.0" y2="76.0" stroke="#1A3A6B" stroke-width="1.2"/>
  <line x1="157.0" y1="98.4" x2="169.0" y2="77.6" stroke="#1A3A6B" stroke-width="1.2"/>
  <line x1="152.6" y1="94.0" x2="173.4" y2="82.0" stroke="#1A3A6B" stroke-width="1.2"/>
  <circle cx="163" cy="88" r="2.6" fill="#1A3A6B"/>

  <text x="102" y="101" font-family="Arial,sans-serif" font-size="7" fill="#666" text-anchor="middle">EMD E-Unit · 1937</text>
</svg>