<svg xmlns="http://www.w3.org/2000/svg" viewBox="0 0 200 130" width="200" height="130">

  <!-- North American Safety cab - wider, different profile -->
  <rect x="138" y="34" width="50" height="62" rx="5" fill="#E8B800"/>
  <!-- safety cab wider radiused corners -->
  <rect x="141" y="38" width="20" height="18" rx="3" fill="#87CEEB" opacity="0.7"/>
  <rect x="12" y="48" width="130" height="38" rx="4" fill="#E8B800"/>
  <rect x="16" y="42" width="120" height="14" rx="3" fill="#C8A000"/>
  <!-- larger radiator wings -->
  <rect x="100" y="34" width="35" height="62" rx="3" fill="#B89000"/>
  <rect x="28" y="28" width="9" height="16" rx="3" fill="#1a1a1a"/>
  <rect x="52" y="30" width="9" height="14" rx="3" fill="#1a1a1a"/>
  <rect x="138" y="58" width="50" height="8" fill="#1a1a1a"/>
  <circle cx="28" cy="104" r="8" fill="#333" stroke="#C8A800" stroke-width="2"/>
<line x1="36.0" y1="104.0" x2="20.0" y2="104.0" stroke="#C8A800" stroke-width="1.2"/>
<line x1="33.7" y1="109.7" x2="22.3" y2="98.3" stroke="#C8A800" stroke-width="1.2"/>
<line x1="28.0" y1="112.0" x2="28.0" y2="96.0" stroke="#C8A800" stroke-width="1.2"/>
<line x1="22.3" y1="109.7" x2="33.7" y2="98.3" stroke="#C8A800" stroke-width="1.2"/>
<circle cx="28" cy="104" r="1.8" fill="#C8A800"/>

  <circle cx="52" cy="104" r="8" fill="#333" stroke="#C8A800" stroke-width="2"/>
<line x1="60.0" y1="104.0" x2="44.0" y2="104.0" stroke="#C8A800" stroke-width="1.2"/>
<line x1="57.7" y1="109.7" x2="46.3" y2="98.3" stroke="#C8A800" stroke-width="1.2"/>
<line x1="52.0" y1="112.0" x2="52.0" y2="96.0" stroke="#C8A800" stroke-width="1.2"/>
<line x1="46.3" y1="109.7" x2="57.7" y2="98.3" stroke="#C8A800" stroke-width="1.2"/>
<circle cx="52" cy="104" r="1.8" fill="#C8A800"/>

  <circle cx="78" cy="104" r="8" fill="#333" stroke="#C8A800" stroke-width="2"/>
<line x1="86.0" y1="104.0" x2="70.0" y2="104.0" stroke="#C8A800" stroke-width="1.2"/>
<line x1="83.7" y1="109.7" x2="72.3" y2="98.3" stroke="#C8A800" stroke-width="1.2"/>
<line x1="78.0" y1="112.0" x2="78.0" y2="96.0" stroke="#C8A800" stroke-width="1.2"/>
<line x1="72.3" y1="109.7" x2="83.7" y2="98.3" stroke="#C8A800" stroke-width="1.2"/>
<circle cx="78" cy="104" r="1.8" fill="#C8A800"/>

  <circle cx="108" cy="104" r="8" fill="#333" stroke="#C8A800" stroke-width="2"/>
<line x1="116.0" y1="104.0" x2="100.0" y2="104.0" stroke="#C8A800" stroke-width="1.2"/>
<line x1="113.7" y1="109.7" x2="102.3" y2="98.3" stroke="#C8A800" stroke-width="1.2"/>
<line x1="108.0" y1="112.0" x2="108.0" y2="96.0" stroke="#C8A800" stroke-width="1.2"/>
<line x1="102.3" y1="109.7" x2="113.7" y2="98.3" stroke="#C8A800" stroke-width="1.2"/>
<circle cx="108" cy="104" r="1.8" fill="#C8A800"/>

  <circle cx="138" cy="104" r="8" fill="#333" stroke="#C8A800" stroke-width="2"/>
<line x1="146.0" y1="104.0" x2="130.0" y2="104.0" stroke="#C8A800" stroke-width="1.2"/>
<line x1="143.7" y1="109.7" x2="132.3" y2="98.3" stroke="#C8A800" stroke-width="1.2"/>
<line x1="138.0" y1="112.0" x2="138.0" y2="96.0" stroke="#C8A800" stroke-width="1.2"/>
<line x1="132.3" y1="109.7" x2="143.7" y2="98.3" stroke="#C8A800" stroke-width="1.2"/>
<circle cx="138" cy="104" r="1.8" fill="#C8A800"/>

  <circle cx="164" cy="104" r="8" fill="#333" stroke="#C8A800" stroke-width="2"/>
<line x1="172.0" y1="104.0" x2="156.0" y2="104.0" stroke="#C8A800" stroke-width="1.2"/>
<line x1="169.7" y1="109.7" x2="158.3" y2="98.3" stroke="#C8A800" stroke-width="1.2"/>
<line x1="164.0" y1="112.0" x2="164.0" y2="96.0" stroke="#C8A800" stroke-width="1.2"/>
<line x1="158.3" y1="109.7" x2="169.7" y2="98.3" stroke="#C8A800" stroke-width="1.2"/>
<circle cx="164" cy="104" r="1.8" fill="#C8A800"/>

  <line x1="8" y1="112" x2="196" y2="112" stroke="#888" stroke-width="2.5"/>


  <text x="100" y="126" font-family="Arial,sans-serif" font-size="7" fill="#555" text-anchor="middle">EMD SD70M · 1992</text>
</svg>