<svg xmlns="http://www.w3.org/2000/svg" viewBox="0 0 205 105" width="205" height="105">
  <rect x="10" y="30" width="185" height="46" rx="4" fill="#3A6A1A"/>
  <rect x="10" y="28" width="65" height="50" rx="4" fill="#F09020"/>
  <rect x="16" y="34" width="16" height="13" rx="2" fill="#87CEEB" opacity="0.75"/>
  <rect x="36" y="34" width="14" height="13" rx="2" fill="#87CEEB" opacity="0.75"/>
  <rect x="82" y="18" width="10" height="14" rx="2" fill="#555"/>
  <rect x="79" y="15" width="16" height="5" rx="1" fill="#444"/>
  <rect x="110" y="18" width="10" height="14" rx="2" fill="#555"/>
  <rect x="107" y="15" width="16" height="5" rx="1" fill="#444"/>
  <rect x="140" y="20" width="8" height="12" rx="2" fill="#555"/>
  <rect x="12" y="52" width="183" height="8" rx="2" fill="#F09020" opacity="0.3"/>
  <circle cx="12" cy="54" r="5" fill="#FFE040" opacity="0.9"/>
  <circle cx="194" cy="54" r="4" fill="#FFE040" opacity="0.5"/>
  <path d="M10,74 L4,80 L4,84 L10,82Z" fill="#3A6A1A"/>
  <circle cx="34" cy="88" r="12" fill="#1A2A0A" stroke="#F09020" stroke-width="2.5"/>
  <line x1="46.0" y1="88.0" x2="22.0" y2="88.0" stroke="#F09020" stroke-width="1.2"/>
  <line x1="44.4" y1="94.0" x2="23.6" y2="82.0" stroke="#F09020" stroke-width="1.2"/>
  <line x1="40.0" y1="98.4" x2="28.0" y2="77.6" stroke="#F09020" stroke-width="1.2"/>
  <line x1="34.0" y1="100.0" x2="34.0" y2="76.0" stroke="#F09020" stroke-width="1.2"/>
  <line x1="28.0" y1="98.4" x2="40.0" y2="77.6" stroke="#F09020" stroke-width="1.2"/>
  <line x1="23.6" y1="94.0" x2="44.4" y2="82.0" stroke="#F09020" stroke-width="1.2"/>
  <circle cx="34" cy="88" r="2.6" fill="#F09020"/>
  <circle cx="62" cy="88" r="12" fill="#1A2A0A" stroke="#F09020" stroke-width="2.5"/>
  <line x1="74.0" y1="88.0" x2="50.0" y2="88.0" stroke="#F09020" stroke-width="1.2"/>
  <line x1="72.4" y1="94.0" x2="51.6" y2="82.0" stroke="#F09020" stroke-width="1.2"/>
  <line x1="68.0" y1="98.4" x2="56.0" y2="77.6" stroke="#F09020" stroke-width="1.2"/>
  <line x1="62.0" y1="100.0" x2="62.0" y2="76.0" stroke="#F09020" stroke-width="1.2"/>
  <line x1="56.0" y1="98.4" x2="68.0" y2="77.6" stroke="#F09020" stroke-width="1.2"/>
  <line x1="51.6" y1="94.0" x2="72.4" y2="82.0" stroke="#F09020" stroke-width="1.2"/>
  <circle cx="62" cy="88" r="2.6" fill="#F09020"/>
  <circle cx="120" cy="88" r="12" fill="#1A2A0A" stroke="#F09020" stroke-width="2.5"/>
  <line x1="132.0" y1="88.0" x2="108.0" y2="88.0" stroke="#F09020" stroke-width="1.2"/>
  <line x1="130.4" y1="94.0" x2="109.6" y2="82.0" stroke="#F09020" stroke-width="1.2"/>
  <line x1="126.0" y1="98.4" x2="114.0" y2="77.6" stroke="#F09020" stroke-width="1.2"/>
  <line x1="120.0" y1="100.0" x2="120.0" y2="76.0" stroke="#F09020" stroke-width="1.2"/>
  <line x1="114.0" y1="98.4" x2="126.0" y2="77.6" stroke="#F09020" stroke-width="1.2"/>
  <line x1="109.6" y1="94.0" x2="130.4" y2="82.0" stroke="#F09020" stroke-width="1.2"/>
  <circle cx="120" cy="88" r="2.6" fill="#F09020"/>
  <circle cx="150" cy="88" r="12" fill="#1A2A0A" stroke="#F09020" stroke-width="2.5"/>
  <line x1="162.0" y1="88.0" x2="138.0" y2="88.0" stroke="#F09020" stroke-width="1.2"/>
  <line x1="160.4" y1="94.0" x2="139.6" y2="82.0" stroke="#F09020" stroke-width="1.2"/>
  <line x1="156.0" y1="98.4" x2="144.0" y2="77.6" stroke="#F09020" stroke-width="1.2"/>
  <line x1="150.0" y1="100.0" x2="150.0" y2="76.0" stroke="#F09020" stroke-width="1.2"/>
  <line x1="144.0" y1="98.4" x2="156.0" y2="77.6" stroke="#F09020" stroke-width="1.2"/>
  <line x1="139.6" y1="94.0" x2="160.4" y2="82.0" stroke="#F09020" stroke-width="1.2"/>
  <circle cx="150" cy="88" r="2.6" fill="#F09020"/>
  <circle cx="178" cy="88" r="12" fill="#1A2A0A" stroke="#F09020" stroke-width="2.5"/>
  <line x1="190.0" y1="88.0" x2="166.0" y2="88.0" stroke="#F09020" stroke-width="1.2"/>
  <line x1="188.4" y1="94.0" x2="167.6" y2="82.0" stroke="#F09020" stroke-width="1.2"/>
  <line x1="184.0" y1="98.4" x2="172.0" y2="77.6" stroke="#F09020" stroke-width="1.2"/>
  <line x1="178.0" y1="100.0" x2="178.0" y2="76.0" stroke="#F09020" stroke-width="1.2"/>
  <line x1="172.0" y1="98.4" x2="184.0" y2="77.6" stroke="#F09020" stroke-width="1.2"/>
  <line x1="167.6" y1="94.0" x2="188.4" y2="82.0" stroke="#F09020" stroke-width="1.2"/>
  <circle cx="178" cy="88" r="2.6" fill="#F09020"/>

  <text x="102" y="101" font-family="Arial,sans-serif" font-size="7" fill="#666" text-anchor="middle">EMD SD70M · 1992</text>
</svg>