<svg xmlns="http://www.w3.org/2000/svg" viewBox="0 0 200 130" width="200" height="130">

  <rect x="140" y="38" width="48" height="58" rx="4" fill="#E8B800"/>
  <rect x="143" y="42" width="18" height="16" rx="2" fill="#87CEEB" opacity="0.7"/>
  <!-- longer hood -->
  <rect x="12" y="48" width="133" height="38" rx="4" fill="#E8B800"/>
  <rect x="16" y="42" width="122" height="14" rx="3" fill="#C8A000"/>
  <rect x="28" y="28" width="8" height="16" rx="3" fill="#1a1a1a"/>
  <rect x="50" y="30" width="8" height="14" rx="3" fill="#1a1a1a"/>
  <rect x="70" y="30" width="8" height="14" rx="3" fill="#1a1a1a"/>
  <rect x="140" y="58" width="48" height="8" fill="#1a1a1a"/>
  <!-- radiator wings at rear of hood -->
  <rect x="106" y="38" width="30" height="48" rx="3" fill="#C8A000"/>
  <rect x="12" y="84" width="134" height="6" rx="2" fill="#C8A000"/>
  <!-- 6-axle 3 bogies -->
  <circle cx="28" cy="104" r="8" fill="#333" stroke="#C8A800" stroke-width="2"/>
<line x1="36.0" y1="104.0" x2="20.0" y2="104.0" stroke="#C8A800" stroke-width="1.2"/>
<line x1="33.7" y1="109.7" x2="22.3" y2="98.3" stroke="#C8A800" stroke-width="1.2"/>
<line x1="28.0" y1="112.0" x2="28.0" y2="96.0" stroke="#C8A800" stroke-width="1.2"/>
<line x1="22.3" y1="109.7" x2="33.7" y2="98.3" stroke="#C8A800" stroke-width="1.2"/>
<circle cx="28" cy="104" r="1.8" fill="#C8A800"/>

  <circle cx="50" cy="104" r="8" fill="#333" stroke="#C8A800" stroke-width="2"/>
<line x1="58.0" y1="104.0" x2="42.0" y2="104.0" stroke="#C8A800" stroke-width="1.2"/>
<line x1="55.7" y1="109.7" x2="44.3" y2="98.3" stroke="#C8A800" stroke-width="1.2"/>
<line x1="50.0" y1="112.0" x2="50.0" y2="96.0" stroke="#C8A800" stroke-width="1.2"/>
<line x1="44.3" y1="109.7" x2="55.7" y2="98.3" stroke="#C8A800" stroke-width="1.2"/>
<circle cx="50" cy="104" r="1.8" fill="#C8A800"/>

  <circle cx="80" cy="104" r="8" fill="#333" stroke="#C8A800" stroke-width="2"/>
<line x1="88.0" y1="104.0" x2="72.0" y2="104.0" stroke="#C8A800" stroke-width="1.2"/>
<line x1="85.7" y1="109.7" x2="74.3" y2="98.3" stroke="#C8A800" stroke-width="1.2"/>
<line x1="80.0" y1="112.0" x2="80.0" y2="96.0" stroke="#C8A800" stroke-width="1.2"/>
<line x1="74.3" y1="109.7" x2="85.7" y2="98.3" stroke="#C8A800" stroke-width="1.2"/>
<circle cx="80" cy="104" r="1.8" fill="#C8A800"/>

  <circle cx="104" cy="104" r="8" fill="#333" stroke="#C8A800" stroke-width="2"/>
<line x1="112.0" y1="104.0" x2="96.0" y2="104.0" stroke="#C8A800" stroke-width="1.2"/>
<line x1="109.7" y1="109.7" x2="98.3" y2="98.3" stroke="#C8A800" stroke-width="1.2"/>
<line x1="104.0" y1="112.0" x2="104.0" y2="96.0" stroke="#C8A800" stroke-width="1.2"/>
<line x1="98.3" y1="109.7" x2="109.7" y2="98.3" stroke="#C8A800" stroke-width="1.2"/>
<circle cx="104" cy="104" r="1.8" fill="#C8A800"/>

  <circle cx="128" cy="104" r="8" fill="#333" stroke="#C8A800" stroke-width="2"/>
<line x1="136.0" y1="104.0" x2="120.0" y2="104.0" stroke="#C8A800" stroke-width="1.2"/>
<line x1="133.7" y1="109.7" x2="122.3" y2="98.3" stroke="#C8A800" stroke-width="1.2"/>
<line x1="128.0" y1="112.0" x2="128.0" y2="96.0" stroke="#C8A800" stroke-width="1.2"/>
<line x1="122.3" y1="109.7" x2="133.7" y2="98.3" stroke="#C8A800" stroke-width="1.2"/>
<circle cx="128" cy="104" r="1.8" fill="#C8A800"/>

  <circle cx="158" cy="104" r="8" fill="#333" stroke="#C8A800" stroke-width="2"/>
<line x1="166.0" y1="104.0" x2="150.0" y2="104.0" stroke="#C8A800" stroke-width="1.2"/>
<line x1="163.7" y1="109.7" x2="152.3" y2="98.3" stroke="#C8A800" stroke-width="1.2"/>
<line x1="158.0" y1="112.0" x2="158.0" y2="96.0" stroke="#C8A800" stroke-width="1.2"/>
<line x1="152.3" y1="109.7" x2="163.7" y2="98.3" stroke="#C8A800" stroke-width="1.2"/>
<circle cx="158" cy="104" r="1.8" fill="#C8A800"/>

  <line x1="8" y1="112" x2="196" y2="112" stroke="#888" stroke-width="2.5"/>


  <text x="100" y="126" font-family="Arial,sans-serif" font-size="7" fill="#555" text-anchor="middle">EMD SD40 · 1966</text>
</svg>