<svg xmlns="http://www.w3.org/2000/svg" viewBox="0 0 200 130" width="200" height="130">

  <!-- E320 Velaro based, different more rounded profile than E300 -->
  <path d="M8,68 Q20,44 44,38 L185,38 L188,68 L185,98 L44,98 Q20,92 8,68 Z" fill="#1a1a4a"/>
  <!-- silver band Velaro -->
  <rect x="44" y="56" width="144" height="24" fill="#C0C0C0"/>
  <path d="M8,68 Q14,62 30,58 L44,58 L44,80 L30,78 Q14,74 8,68 Z" fill="#C0C0C0"/>
  <!-- gold accent E320 -->
  <rect x="44" y="56" width="144" height="4" fill="#FFD700"/>
  <rect x="44" y="76" width="144" height="4" fill="#FFD700"/>
  <!-- less pointed than E300 - Velaro nose -->
  <path d="M8,68 Q16,52 34,46 L40,48 Q22,54 14,68 Z" fill="#0f0f30"/>
  <rect x="26" y="44" width="22" height="18" rx="2" fill="#87CEEB" opacity="0.7"/>
  <circle cx="11" cy="68" r="5" fill="#FFE040" opacity="0.9"/>
  <circle cx="38" cy="106" r="8" fill="#1a1a4a" stroke="#FFD700" stroke-width="2"/>
<line x1="46.0" y1="106.0" x2="30.0" y2="106.0" stroke="#FFD700" stroke-width="1.2"/>
<line x1="43.7" y1="111.7" x2="32.3" y2="100.3" stroke="#FFD700" stroke-width="1.2"/>
<line x1="38.0" y1="114.0" x2="38.0" y2="98.0" stroke="#FFD700" stroke-width="1.2"/>
<line x1="32.3" y1="111.7" x2="43.7" y2="100.3" stroke="#FFD700" stroke-width="1.2"/>
<circle cx="38" cy="106" r="1.8" fill="#FFD700"/>

  <circle cx="62" cy="106" r="8" fill="#1a1a4a" stroke="#FFD700" stroke-width="2"/>
<line x1="70.0" y1="106.0" x2="54.0" y2="106.0" stroke="#FFD700" stroke-width="1.2"/>
<line x1="67.7" y1="111.7" x2="56.3" y2="100.3" stroke="#FFD700" stroke-width="1.2"/>
<line x1="62.0" y1="114.0" x2="62.0" y2="98.0" stroke="#FFD700" stroke-width="1.2"/>
<line x1="56.3" y1="111.7" x2="67.7" y2="100.3" stroke="#FFD700" stroke-width="1.2"/>
<circle cx="62" cy="106" r="1.8" fill="#FFD700"/>

  <circle cx="108" cy="106" r="8" fill="#1a1a4a" stroke="#FFD700" stroke-width="2"/>
<line x1="116.0" y1="106.0" x2="100.0" y2="106.0" stroke="#FFD700" stroke-width="1.2"/>
<line x1="113.7" y1="111.7" x2="102.3" y2="100.3" stroke="#FFD700" stroke-width="1.2"/>
<line x1="108.0" y1="114.0" x2="108.0" y2="98.0" stroke="#FFD700" stroke-width="1.2"/>
<line x1="102.3" y1="111.7" x2="113.7" y2="100.3" stroke="#FFD700" stroke-width="1.2"/>
<circle cx="108" cy="106" r="1.8" fill="#FFD700"/>

  <circle cx="148" cy="106" r="8" fill="#1a1a4a" stroke="#FFD700" stroke-width="2"/>
<line x1="156.0" y1="106.0" x2="140.0" y2="106.0" stroke="#FFD700" stroke-width="1.2"/>
<line x1="153.7" y1="111.7" x2="142.3" y2="100.3" stroke="#FFD700" stroke-width="1.2"/>
<line x1="148.0" y1="114.0" x2="148.0" y2="98.0" stroke="#FFD700" stroke-width="1.2"/>
<line x1="142.3" y1="111.7" x2="153.7" y2="100.3" stroke="#FFD700" stroke-width="1.2"/>
<circle cx="148" cy="106" r="1.8" fill="#FFD700"/>

  <circle cx="172" cy="106" r="8" fill="#1a1a4a" stroke="#FFD700" stroke-width="2"/>
<line x1="180.0" y1="106.0" x2="164.0" y2="106.0" stroke="#FFD700" stroke-width="1.2"/>
<line x1="177.7" y1="111.7" x2="166.3" y2="100.3" stroke="#FFD700" stroke-width="1.2"/>
<line x1="172.0" y1="114.0" x2="172.0" y2="98.0" stroke="#FFD700" stroke-width="1.2"/>
<line x1="166.3" y1="111.7" x2="177.7" y2="100.3" stroke="#FFD700" stroke-width="1.2"/>
<circle cx="172" cy="106" r="1.8" fill="#FFD700"/>

  <line x1="5" y1="112" x2="198" y2="112" stroke="#888" stroke-width="2.5"/>


  <text x="100" y="126" font-family="Arial,sans-serif" font-size="7" fill="#555" text-anchor="middle">Eurostar E320 · 2015</text>
</svg>