<svg xmlns="http://www.w3.org/2000/svg" viewBox="0 0 205 106" width="205" height="106">
  <path d="M4,54 Q16,24 36,24 L195,24 L195,82 L36,82 Q16,82 4,54 Z" fill="#0A1A3A"/>
  <path d="M4,54 Q10,36 36,30 L36,78 Q10,70 4,54 Z" fill="#C8A020" opacity="0.25"/>
  <rect x="42" y="30" width="14" height="13" rx="2" fill="#87CEEB" opacity="0.65"/>
  <rect x="62" y="30" width="14" height="13" rx="2" fill="#87CEEB" opacity="0.65"/>
  <rect x="82" y="30" width="14" height="13" rx="2" fill="#87CEEB" opacity="0.65"/>
  <rect x="102" y="30" width="14" height="13" rx="2" fill="#87CEEB" opacity="0.65"/>
  <path d="M4,55 L195,55" stroke="#C8A020" stroke-width="2.5" opacity="0.3"/>
  <line x1="100" y1="24" x2="94"  y2="12" stroke="#C8A020" stroke-width="1.5"/>
  <line x1="114" y1="24" x2="120" y2="12" stroke="#C8A020" stroke-width="1.5"/>
  <line x1="86"  y1="12" x2="128" y2="12" stroke="#C8A020" stroke-width="2.5"/>
  <circle cx="5" cy="54" r="4" fill="#FFE040" opacity="0.9"/>
  <circle cx="53" cy="90" r="11" fill="#000814" stroke="#C8A020" stroke-width="2.5"/>
  <line x1="64.0" y1="90.0" x2="42.0" y2="90.0" stroke="#C8A020" stroke-width="1.2"/>
  <line x1="62.5" y1="95.5" x2="43.5" y2="84.5" stroke="#C8A020" stroke-width="1.2"/>
  <line x1="58.5" y1="99.5" x2="47.5" y2="80.5" stroke="#C8A020" stroke-width="1.2"/>
  <line x1="53.0" y1="101.0" x2="53.0" y2="79.0" stroke="#C8A020" stroke-width="1.2"/>
  <line x1="47.5" y1="99.5" x2="58.5" y2="80.5" stroke="#C8A020" stroke-width="1.2"/>
  <line x1="43.5" y1="95.5" x2="62.5" y2="84.5" stroke="#C8A020" stroke-width="1.2"/>
  <circle cx="53" cy="90" r="2.4" fill="#C8A020"/>
  <circle cx="83" cy="90" r="11" fill="#000814" stroke="#C8A020" stroke-width="2.5"/>
  <line x1="94.0" y1="90.0" x2="72.0" y2="90.0" stroke="#C8A020" stroke-width="1.2"/>
  <line x1="92.5" y1="95.5" x2="73.5" y2="84.5" stroke="#C8A020" stroke-width="1.2"/>
  <line x1="88.5" y1="99.5" x2="77.5" y2="80.5" stroke="#C8A020" stroke-width="1.2"/>
  <line x1="83.0" y1="101.0" x2="83.0" y2="79.0" stroke="#C8A020" stroke-width="1.2"/>
  <line x1="77.5" y1="99.5" x2="88.5" y2="80.5" stroke="#C8A020" stroke-width="1.2"/>
  <line x1="73.5" y1="95.5" x2="92.5" y2="84.5" stroke="#C8A020" stroke-width="1.2"/>
  <circle cx="83" cy="90" r="2.4" fill="#C8A020"/>
  <circle cx="130" cy="90" r="11" fill="#000814" stroke="#C8A020" stroke-width="2.5"/>
  <line x1="141.0" y1="90.0" x2="119.0" y2="90.0" stroke="#C8A020" stroke-width="1.2"/>
  <line x1="139.5" y1="95.5" x2="120.5" y2="84.5" stroke="#C8A020" stroke-width="1.2"/>
  <line x1="135.5" y1="99.5" x2="124.5" y2="80.5" stroke="#C8A020" stroke-width="1.2"/>
  <line x1="130.0" y1="101.0" x2="130.0" y2="79.0" stroke="#C8A020" stroke-width="1.2"/>
  <line x1="124.5" y1="99.5" x2="135.5" y2="80.5" stroke="#C8A020" stroke-width="1.2"/>
  <line x1="120.5" y1="95.5" x2="139.5" y2="84.5" stroke="#C8A020" stroke-width="1.2"/>
  <circle cx="130" cy="90" r="2.4" fill="#C8A020"/>
  <circle cx="165" cy="90" r="11" fill="#000814" stroke="#C8A020" stroke-width="2.5"/>
  <line x1="176.0" y1="90.0" x2="154.0" y2="90.0" stroke="#C8A020" stroke-width="1.2"/>
  <line x1="174.5" y1="95.5" x2="155.5" y2="84.5" stroke="#C8A020" stroke-width="1.2"/>
  <line x1="170.5" y1="99.5" x2="159.5" y2="80.5" stroke="#C8A020" stroke-width="1.2"/>
  <line x1="165.0" y1="101.0" x2="165.0" y2="79.0" stroke="#C8A020" stroke-width="1.2"/>
  <line x1="159.5" y1="99.5" x2="170.5" y2="80.5" stroke="#C8A020" stroke-width="1.2"/>
  <line x1="155.5" y1="95.5" x2="174.5" y2="84.5" stroke="#C8A020" stroke-width="1.2"/>
  <circle cx="165" cy="90" r="2.4" fill="#C8A020"/>

  <text x="102" y="102" font-family="Arial,sans-serif" font-size="7" fill="#666" text-anchor="middle">Eurostar e320 · 2015</text>
</svg>