<svg xmlns="http://www.w3.org/2000/svg" viewBox="0 0 200 130" width="200" height="130">

  <!-- Eurostar E300: dark navy/blue, yellow stripe, very pointed -->
  <path d="M8,68 Q20,40 48,34 L185,34 L188,68 L185,102 L48,102 Q20,96 8,68 Z" fill="#003082"/>
  <!-- yellow Eurostar stripe -->
  <rect x="48" y="60" width="140" height="16" fill="#FFD700"/>
  <path d="M8,68 Q14,62 32,60 L48,60 L48,76 L32,76 Q14,74 8,68 Z" fill="#FFD700"/>
  <!-- darker navy lower -->
  <path d="M8,68 Q14,80 30,86 L48,86 L48,102 Q24,98 10,84 Z" fill="#001a50"/>
  <!-- very pointed nose -->
  <path d="M8,68 Q16,50 34,44 L40,46 Q22,52 12,68 Z" fill="#002060"/>
  <rect x="26" y="42" width="22" height="18" rx="2" fill="#87CEEB" opacity="0.7"/>
  <circle cx="11" cy="68" r="5" fill="#FFE040" opacity="0.9"/>
  <circle cx="40" cy="110" r="8" fill="#002060" stroke="#FFD700" stroke-width="2"/>
<line x1="48.0" y1="110.0" x2="32.0" y2="110.0" stroke="#FFD700" stroke-width="1.2"/>
<line x1="45.7" y1="115.7" x2="34.3" y2="104.3" stroke="#FFD700" stroke-width="1.2"/>
<line x1="40.0" y1="118.0" x2="40.0" y2="102.0" stroke="#FFD700" stroke-width="1.2"/>
<line x1="34.3" y1="115.7" x2="45.7" y2="104.3" stroke="#FFD700" stroke-width="1.2"/>
<circle cx="40" cy="110" r="1.8" fill="#FFD700"/>

  <circle cx="64" cy="110" r="8" fill="#002060" stroke="#FFD700" stroke-width="2"/>
<line x1="72.0" y1="110.0" x2="56.0" y2="110.0" stroke="#FFD700" stroke-width="1.2"/>
<line x1="69.7" y1="115.7" x2="58.3" y2="104.3" stroke="#FFD700" stroke-width="1.2"/>
<line x1="64.0" y1="118.0" x2="64.0" y2="102.0" stroke="#FFD700" stroke-width="1.2"/>
<line x1="58.3" y1="115.7" x2="69.7" y2="104.3" stroke="#FFD700" stroke-width="1.2"/>
<circle cx="64" cy="110" r="1.8" fill="#FFD700"/>

  <circle cx="110" cy="110" r="8" fill="#002060" stroke="#FFD700" stroke-width="2"/>
<line x1="118.0" y1="110.0" x2="102.0" y2="110.0" stroke="#FFD700" stroke-width="1.2"/>
<line x1="115.7" y1="115.7" x2="104.3" y2="104.3" stroke="#FFD700" stroke-width="1.2"/>
<line x1="110.0" y1="118.0" x2="110.0" y2="102.0" stroke="#FFD700" stroke-width="1.2"/>
<line x1="104.3" y1="115.7" x2="115.7" y2="104.3" stroke="#FFD700" stroke-width="1.2"/>
<circle cx="110" cy="110" r="1.8" fill="#FFD700"/>

  <circle cx="150" cy="110" r="8" fill="#002060" stroke="#FFD700" stroke-width="2"/>
<line x1="158.0" y1="110.0" x2="142.0" y2="110.0" stroke="#FFD700" stroke-width="1.2"/>
<line x1="155.7" y1="115.7" x2="144.3" y2="104.3" stroke="#FFD700" stroke-width="1.2"/>
<line x1="150.0" y1="118.0" x2="150.0" y2="102.0" stroke="#FFD700" stroke-width="1.2"/>
<line x1="144.3" y1="115.7" x2="155.7" y2="104.3" stroke="#FFD700" stroke-width="1.2"/>
<circle cx="150" cy="110" r="1.8" fill="#FFD700"/>

  <circle cx="174" cy="110" r="8" fill="#002060" stroke="#FFD700" stroke-width="2"/>
<line x1="182.0" y1="110.0" x2="166.0" y2="110.0" stroke="#FFD700" stroke-width="1.2"/>
<line x1="179.7" y1="115.7" x2="168.3" y2="104.3" stroke="#FFD700" stroke-width="1.2"/>
<line x1="174.0" y1="118.0" x2="174.0" y2="102.0" stroke="#FFD700" stroke-width="1.2"/>
<line x1="168.3" y1="115.7" x2="179.7" y2="104.3" stroke="#FFD700" stroke-width="1.2"/>
<circle cx="174" cy="110" r="1.8" fill="#FFD700"/>

  <line x1="5" y1="112" x2="198" y2="112" stroke="#888" stroke-width="2.5"/>


  <text x="100" y="126" font-family="Arial,sans-serif" font-size="7" fill="#555" text-anchor="middle">Eurostar E300 · 1994</text>
</svg>