<svg xmlns="http://www.w3.org/2000/svg" viewBox="0 0 150 105">
  <!-- smoke -->
  <circle cx="26" cy="9"  r="6" fill="#ccc" opacity=".5"/>
  <circle cx="34" cy="4"  r="4" fill="#bbb" opacity=".4"/>
  <!-- narrow stovepipe chimney -->
  <rect x="20" y="12" width="10" height="22" rx="2" fill="#333"/>
  <rect x="17" y="9"  width="16" height="5"  rx="2" fill="#222"/>
  <!-- TINY boiler (narrow gauge = much smaller) -->
  <rect x="26" y="25" width="72" height="24" rx="7" fill="#2E6B14"/>
  <!-- dome -->
  <ellipse cx="52" cy="23" rx="10" ry="7" fill="#1A5A0A"/>
  <!-- sandbox -->
  <ellipse cx="68" cy="25" rx="6" ry="5" fill="#1A5A0A"/>
  <!-- cab (open sides typical of Ffestiniog) -->
  <rect x="90" y="14" width="38" height="35" rx="3" fill="#1A5A0A"/>
  <path d="M86,14 L128,14 L128,10 Q107,4 86,10Z" fill="#C8A020"/>
  <!-- open side cab window -->
  <rect x="95" y="20" width="10" height="9" rx="2" fill="#87CEEB" opacity=".7"/>
  <rect x="110" y="20" width="10" height="9" rx="2" fill="#87CEEB" opacity=".7"/>
  <!-- footplate -->
  <rect x="18" y="47" width="112" height="5" rx="2" fill="#1A5A0A"/>
  <!-- small headlamp -->
  <circle cx="16" cy="37" r="4" fill="#FFD700" opacity=".9"/>
  <!-- cowcatcher (small) -->
  <path d="M18,48 L6,54 L6,57 L18,53Z" fill="#1A5A0A"/>
  <!-- 3 small narrow-gauge wheels per side -->
  <circle cx="32"  cy="64" r="11" fill="#0A2A04" stroke="#C8A020" stroke-width="2.5"/>
  <circle cx="56"  cy="64" r="11" fill="#0A2A04" stroke="#C8A020" stroke-width="2.5"/>
  <circle cx="80"  cy="64" r="11" fill="#0A2A04" stroke="#C8A020" stroke-width="2.5"/>
  <circle cx="32"  cy="64" r="3"  fill="#C8A020"/>
  <circle cx="56"  cy="64" r="3"  fill="#C8A020"/>
  <circle cx="80"  cy="64" r="3"  fill="#C8A020"/>
  <!-- spokes -->
  <line x1="32" y1="53" x2="32" y2="75" stroke="#C8A020" stroke-width="1.5"/>
  <line x1="21" y1="64" x2="43" y2="64" stroke="#C8A020" stroke-width="1.5"/>
  <line x1="56" y1="53" x2="56" y2="75" stroke="#C8A020" stroke-width="1.5"/>
  <line x1="45" y1="64" x2="67" y2="64" stroke="#C8A020" stroke-width="1.5"/>
  <line x1="80" y1="53" x2="80" y2="75" stroke="#C8A020" stroke-width="1.5"/>
  <line x1="69" y1="64" x2="91" y2="64" stroke="#C8A020" stroke-width="1.5"/>
  <!-- trailing small wheel -->
  <circle cx="110" cy="66" r="8" fill="#0A2A04" stroke="#C8A020" stroke-width="2"/>
  <circle cx="110" cy="66" r="2" fill="#C8A020"/>
  <!-- coupling rod -->
  <rect x="24" y="61" width="64" height="4" rx="1" fill="#C8A020" opacity=".5"/>
  <text x="75" y="100" font-family="Arial" font-size="7" fill="#888" text-anchor="middle">Ffestiniog Narrow Gauge · 1863</text>
</svg>