<svg xmlns="http://www.w3.org/2000/svg" viewBox="0 0 215 115">
  <defs>
    <linearGradient id="fsG" x1="0" y1="0" x2="0" y2="1">
      <stop offset="0%" stop-color="#2E8B1A"/>
      <stop offset="100%" stop-color="#1A5A0A"/>
    </linearGradient>
  </defs>
  <!-- chimney (straight stovepipe) -->
  <rect x="30" y="10" width="14" height="30" rx="3" fill="#2A2A2A"/>
  <rect x="27" y="7"  width="20" height="6"  rx="2" fill="#1A1A1A"/>
  <ellipse cx="37" cy="8" rx="8" ry="4" fill="#bbb" opacity=".45"/>
  <!-- boiler -->
  <rect x="40" y="30" width="128" height="34" rx="11" fill="url(#fsG)"/>
  <!-- steam dome (curved top) -->
  <ellipse cx="85"  cy="28" rx="13" ry="10" fill="#1A5A0A"/>
  <!-- safety valve dome -->
  <ellipse cx="110" cy="30" rx="8"  ry="6"  fill="#1A5A0A"/>
  <rect x="108" y="20" width="4" height="12" rx="1" fill="#888"/>
  <!-- cab (LNER style, curved roof) -->
  <rect x="162" y="20" width="46" height="44" rx="3" fill="#1A5A0A"/>
  <path d="M158,20 Q185,10 208,20" fill="#1A5A0A" stroke="#C8A020" stroke-width="1.5"/>
  <rect x="167" y="26" width="13" height="11" rx="2" fill="#87CEEB" opacity=".75"/>
  <rect x="185" y="26" width="13" height="11" rx="2" fill="#87CEEB" opacity=".75"/>
  <!-- name plate -->
  <rect x="167" y="44" width="34" height="8" rx="2" fill="#C8A020"/>
  <text x="184" y="51" font-family="Arial" font-size="5" font-weight="bold" fill="#1A5A0A" text-anchor="middle">FLYING SCOTSMAN</text>
  <!-- footplate -->
  <rect x="32" y="62" width="176" height="7" rx="2" fill="#1A4A08"/>
  <!-- splasher covers over driving wheels -->
  <ellipse cx="74"  cy="60" rx="20" ry="8" fill="#1A5A0A"/>
  <ellipse cx="110" cy="60" rx="20" ry="8" fill="#1A5A0A"/>
  <ellipse cx="146" cy="60" rx="20" ry="8" fill="#1A5A0A"/>
  <!-- leading pony wheel -->
  <circle cx="36"  cy="86" r="11" fill="#0A2004" stroke="#C8A020" stroke-width="2.5"/>
  <circle cx="36"  cy="86" r="3"  fill="#C8A020"/>
  <!-- 3 large coupled driving wheels -->
  <circle cx="74"  cy="86" r="20" fill="#0A2004" stroke="#C8A020" stroke-width="4"/>
  <circle cx="110" cy="86" r="20" fill="#0A2004" stroke="#C8A020" stroke-width="4"/>
  <circle cx="146" cy="86" r="20" fill="#0A2004" stroke="#C8A020" stroke-width="4"/>
  <circle cx="74"  cy="86" r="5"  fill="#C8A020"/>
  <circle cx="110" cy="86" r="5"  fill="#C8A020"/>
  <circle cx="146" cy="86" r="5"  fill="#C8A020"/>
  <!-- spokes -->
  <line x1="74"  y1="66" x2="74"  y2="106" stroke="#C8A020" stroke-width="1.8"/>
  <line x1="54"  y1="86" x2="94"  y2="86"  stroke="#C8A020" stroke-width="1.8"/>
  <line x1="60"  y1="72" x2="88"  y2="100" stroke="#C8A020" stroke-width="1.4"/>
  <line x1="88"  y1="72" x2="60"  y2="100" stroke="#C8A020" stroke-width="1.4"/>
  <line x1="110" y1="66" x2="110" y2="106" stroke="#C8A020" stroke-width="1.8"/>
  <line x1="90"  y1="86" x2="130" y2="86"  stroke="#C8A020" stroke-width="1.8"/>
  <line x1="96"  y1="72" x2="124" y2="100" stroke="#C8A020" stroke-width="1.4"/>
  <line x1="124" y1="72" x2="96"  y2="100" stroke="#C8A020" stroke-width="1.4"/>
  <line x1="146" y1="66" x2="146" y2="106" stroke="#C8A020" stroke-width="1.8"/>
  <line x1="126" y1="86" x2="166" y2="86"  stroke="#C8A020" stroke-width="1.8"/>
  <line x1="132" y1="72" x2="160" y2="100" stroke="#C8A020" stroke-width="1.4"/>
  <line x1="160" y1="72" x2="132" y2="100" stroke="#C8A020" stroke-width="1.4"/>
  <!-- trailing wheels -->
  <circle cx="176" cy="88" r="12" fill="#0A2004" stroke="#C8A020" stroke-width="2.5"/>
  <circle cx="176" cy="88" r="3"  fill="#C8A020"/>
  <!-- headlamp -->
  <circle cx="24" cy="52" r="6" fill="#2A1808" stroke="#C8A020" stroke-width="1.5"/>
  <circle cx="24" cy="52" r="4" fill="#FFD700" opacity=".9"/>
  <!-- coupling rod -->
  <rect x="56" y="83" width="98" height="5" rx="2" fill="#C8A020" opacity=".6"/>
  <text x="108" y="112" font-family="Arial" font-size="7" fill="#888" text-anchor="middle">Flying Scotsman A1 · LNER · 1923</text>
</svg>