<svg xmlns="http://www.w3.org/2000/svg" viewBox="0 0 200 130" width="200" height="130">

  <!-- Frecciarossa ETR 500 power car at front -->
  <!-- pointed nose red/white -->
  <path d="M8,68 Q16,44 36,38 L188,38 L188,68 L188,98 L36,98 Q16,92 8,68 Z" fill="#CC0000"/>
  <!-- white upper half -->
  <rect x="36" y="38" width="152" height="30" rx="0" fill="#fff"/>
  <path d="M8,68 Q14,50 32,46 L36,46 L36,38 Q20,42 10,56 Z" fill="#fff"/>
  <!-- red lower half -->
  <path d="M8,68 Q14,86 32,90 L36,90 L36,98 Q20,94 10,80 Z" fill="#AA0000"/>
  <!-- very pointed nose ETR500 -->
  <path d="M8,68 Q12,52 22,48 L22,88 Q12,84 8,68 Z" fill="#CC0000"/>
  <circle cx="12" cy="68" r="5" fill="#FFE040" opacity="0.9"/>
  <!-- cab window -->
  <rect x="30" y="44" width="18" height="14" rx="2" fill="#87CEEB" opacity="0.7"/>
  <!-- pantograph -->
  <line x1="90" y1="38" x2="86" y2="20" stroke="#888" stroke-width="1.5"/>
  <line x1="110" y1="38" x2="114" y2="20" stroke="#888" stroke-width="1.5"/>
  <line x1="84" y1="20" x2="116" y2="20" stroke="#aaa" stroke-width="2.5"/>
  <circle cx="28" cy="106" r="9" fill="#fff" stroke="#CC0000" stroke-width="2"/>
<line x1="37.0" y1="106.0" x2="19.0" y2="106.0" stroke="#CC0000" stroke-width="1.2"/>
<line x1="34.4" y1="112.4" x2="21.6" y2="99.6" stroke="#CC0000" stroke-width="1.2"/>
<line x1="28.0" y1="115.0" x2="28.0" y2="97.0" stroke="#CC0000" stroke-width="1.2"/>
<line x1="21.6" y1="112.4" x2="34.4" y2="99.6" stroke="#CC0000" stroke-width="1.2"/>
<circle cx="28" cy="106" r="2.0" fill="#CC0000"/>

  <circle cx="54" cy="106" r="9" fill="#fff" stroke="#CC0000" stroke-width="2"/>
<line x1="63.0" y1="106.0" x2="45.0" y2="106.0" stroke="#CC0000" stroke-width="1.2"/>
<line x1="60.4" y1="112.4" x2="47.6" y2="99.6" stroke="#CC0000" stroke-width="1.2"/>
<line x1="54.0" y1="115.0" x2="54.0" y2="97.0" stroke="#CC0000" stroke-width="1.2"/>
<line x1="47.6" y1="112.4" x2="60.4" y2="99.6" stroke="#CC0000" stroke-width="1.2"/>
<circle cx="54" cy="106" r="2.0" fill="#CC0000"/>

  <circle cx="120" cy="106" r="9" fill="#fff" stroke="#CC0000" stroke-width="2"/>
<line x1="129.0" y1="106.0" x2="111.0" y2="106.0" stroke="#CC0000" stroke-width="1.2"/>
<line x1="126.4" y1="112.4" x2="113.6" y2="99.6" stroke="#CC0000" stroke-width="1.2"/>
<line x1="120.0" y1="115.0" x2="120.0" y2="97.0" stroke="#CC0000" stroke-width="1.2"/>
<line x1="113.6" y1="112.4" x2="126.4" y2="99.6" stroke="#CC0000" stroke-width="1.2"/>
<circle cx="120" cy="106" r="2.0" fill="#CC0000"/>

  <circle cx="160" cy="106" r="9" fill="#fff" stroke="#CC0000" stroke-width="2"/>
<line x1="169.0" y1="106.0" x2="151.0" y2="106.0" stroke="#CC0000" stroke-width="1.2"/>
<line x1="166.4" y1="112.4" x2="153.6" y2="99.6" stroke="#CC0000" stroke-width="1.2"/>
<line x1="160.0" y1="115.0" x2="160.0" y2="97.0" stroke="#CC0000" stroke-width="1.2"/>
<line x1="153.6" y1="112.4" x2="166.4" y2="99.6" stroke="#CC0000" stroke-width="1.2"/>
<circle cx="160" cy="106" r="2.0" fill="#CC0000"/>

  <line x1="5" y1="112" x2="198" y2="112" stroke="#888" stroke-width="2.5"/>


  <text x="100" y="126" font-family="Arial,sans-serif" font-size="7" fill="#555" text-anchor="middle">FS ETR 500 Frecciarossa · 1997</text>
</svg>