<svg xmlns="http://www.w3.org/2000/svg" viewBox="0 0 215 100">
  <defs>
    <linearGradient id="fxG" x1="0" y1="0" x2="0" y2="1">
      <stop offset="0%" stop-color="#F0F0F0"/>
      <stop offset="100%" stop-color="#E0E0E0"/>
    </linearGradient>
  </defs>
  <!-- wide body, medium-blunt nose -->
  <path d="M4,52 Q10,24 50,22 L206,22 L206,80 L50,80 Q10,78 4,52Z" fill="url(#fxG)"/>
  <!-- RED dragon stripe (thick, iconic) -->
  <path d="M4,52 Q10,48 48,46 L206,46 L206,56 L48,56 Q10,56 4,52Z" fill="#CC1414" opacity=".85"/>
  <!-- golden accent below red -->
  <path d="M4,52 Q10,54 48,56 L206,56 L206,60 L48,60 Q10,60 4,52Z" fill="#C8A020" opacity=".6"/>
  <!-- windows (larger than Japanese style) -->
  <rect x="58"  y="26" width="18" height="14" rx="2" fill="#87CEEB" opacity=".65"/>
  <rect x="82"  y="26" width="18" height="14" rx="2" fill="#87CEEB" opacity=".65"/>
  <rect x="106" y="26" width="18" height="14" rx="2" fill="#87CEEB" opacity=".65"/>
  <rect x="130" y="26" width="18" height="14" rx="2" fill="#87CEEB" opacity=".65"/>
  <rect x="154" y="26" width="18" height="14" rx="2" fill="#87CEEB" opacity=".65"/>
  <rect x="178" y="26" width="16" height="14" rx="2" fill="#87CEEB" opacity=".6"/>
  <!-- China star emblem on nose -->
  <circle cx="20" cy="52" r="8" fill="#CC1414" opacity=".8"/>
  <text x="20" y="56" font-family="Arial" font-size="8" fill="#FFD700" text-anchor="middle">★</text>
  <!-- pantograph -->
  <line x1="112" y1="22" x2="107" y2="10" stroke="#aaa" stroke-width="1.5"/>
  <line x1="124" y1="22" x2="129" y2="10" stroke="#aaa" stroke-width="1.5"/>
  <line x1="100" y1="10" x2="136" y2="10" stroke="#aaa" stroke-width="2"/>
  <circle cx="6" cy="52" r="4" fill="#FFE040" opacity=".9"/>
  <!-- wheels -->
  <circle cx="64"  cy="90" r="10" fill="#CCC" stroke="#999" stroke-width="2"/>
  <circle cx="94"  cy="90" r="10" fill="#CCC" stroke="#999" stroke-width="2"/>
  <circle cx="140" cy="90" r="10" fill="#CCC" stroke="#999" stroke-width="2"/>
  <circle cx="170" cy="90" r="10" fill="#CCC" stroke="#999" stroke-width="2"/>
  <text x="108" y="100" font-family="Arial" font-size="7" fill="#888" text-anchor="middle">Fuxing CR400 · China · 2017 · 350 km/h</text>
</svg>