<svg xmlns="http://www.w3.org/2000/svg" viewBox="0 0 200 130" width="200" height="130">

  <!-- GE distinctive nose profile - more angular than EMD -->
  <rect x="138" y="36" width="50" height="60" rx="4" fill="#FFD700"/>
  <rect x="141" y="40" width="20" height="17" rx="2" fill="#87CEEB" opacity="0.7"/>
  <!-- GE angular cab front -->
  <polygon points="138,36 152,32 188,32 188,36" fill="#E8C000"/>
  <rect x="10" y="48" width="132" height="38" rx="4" fill="#FFD700"/>
  <rect x="14" y="42" width="122" height="14" rx="3" fill="#E8C000"/>
  <!-- GE nose box shape different from EMD bullnose -->
  <rect x="8" y="48" width="24" height="38" rx="3" fill="#E8C000"/>
  <circle cx="16" cy="68" r="6" fill="#FFE040" opacity="0.9"/>
  <!-- GE radiator wings -->
  <rect x="102" y="36" width="32" height="60" rx="3" fill="#D4B000"/>
  <rect x="28" y="30" width="9" height="14" rx="3" fill="#1a1a1a"/>
  <rect x="52" y="32" width="9" height="12" rx="3" fill="#1a1a1a"/>
  <!-- UP stripe -->
  <rect x="8" y="64" width="180" height="8" fill="#CC2200" opacity="0.3"/>
  <circle cx="28" cy="104" r="8" fill="#333" stroke="#E8C000" stroke-width="2"/>
<line x1="36.0" y1="104.0" x2="20.0" y2="104.0" stroke="#E8C000" stroke-width="1.2"/>
<line x1="33.7" y1="109.7" x2="22.3" y2="98.3" stroke="#E8C000" stroke-width="1.2"/>
<line x1="28.0" y1="112.0" x2="28.0" y2="96.0" stroke="#E8C000" stroke-width="1.2"/>
<line x1="22.3" y1="109.7" x2="33.7" y2="98.3" stroke="#E8C000" stroke-width="1.2"/>
<circle cx="28" cy="104" r="1.8" fill="#E8C000"/>

  <circle cx="52" cy="104" r="8" fill="#333" stroke="#E8C000" stroke-width="2"/>
<line x1="60.0" y1="104.0" x2="44.0" y2="104.0" stroke="#E8C000" stroke-width="1.2"/>
<line x1="57.7" y1="109.7" x2="46.3" y2="98.3" stroke="#E8C000" stroke-width="1.2"/>
<line x1="52.0" y1="112.0" x2="52.0" y2="96.0" stroke="#E8C000" stroke-width="1.2"/>
<line x1="46.3" y1="109.7" x2="57.7" y2="98.3" stroke="#E8C000" stroke-width="1.2"/>
<circle cx="52" cy="104" r="1.8" fill="#E8C000"/>

  <circle cx="78" cy="104" r="8" fill="#333" stroke="#E8C000" stroke-width="2"/>
<line x1="86.0" y1="104.0" x2="70.0" y2="104.0" stroke="#E8C000" stroke-width="1.2"/>
<line x1="83.7" y1="109.7" x2="72.3" y2="98.3" stroke="#E8C000" stroke-width="1.2"/>
<line x1="78.0" y1="112.0" x2="78.0" y2="96.0" stroke="#E8C000" stroke-width="1.2"/>
<line x1="72.3" y1="109.7" x2="83.7" y2="98.3" stroke="#E8C000" stroke-width="1.2"/>
<circle cx="78" cy="104" r="1.8" fill="#E8C000"/>

  <circle cx="110" cy="104" r="8" fill="#333" stroke="#E8C000" stroke-width="2"/>
<line x1="118.0" y1="104.0" x2="102.0" y2="104.0" stroke="#E8C000" stroke-width="1.2"/>
<line x1="115.7" y1="109.7" x2="104.3" y2="98.3" stroke="#E8C000" stroke-width="1.2"/>
<line x1="110.0" y1="112.0" x2="110.0" y2="96.0" stroke="#E8C000" stroke-width="1.2"/>
<line x1="104.3" y1="109.7" x2="115.7" y2="98.3" stroke="#E8C000" stroke-width="1.2"/>
<circle cx="110" cy="104" r="1.8" fill="#E8C000"/>

  <circle cx="144" cy="104" r="8" fill="#333" stroke="#E8C000" stroke-width="2"/>
<line x1="152.0" y1="104.0" x2="136.0" y2="104.0" stroke="#E8C000" stroke-width="1.2"/>
<line x1="149.7" y1="109.7" x2="138.3" y2="98.3" stroke="#E8C000" stroke-width="1.2"/>
<line x1="144.0" y1="112.0" x2="144.0" y2="96.0" stroke="#E8C000" stroke-width="1.2"/>
<line x1="138.3" y1="109.7" x2="149.7" y2="98.3" stroke="#E8C000" stroke-width="1.2"/>
<circle cx="144" cy="104" r="1.8" fill="#E8C000"/>

  <circle cx="168" cy="104" r="8" fill="#333" stroke="#E8C000" stroke-width="2"/>
<line x1="176.0" y1="104.0" x2="160.0" y2="104.0" stroke="#E8C000" stroke-width="1.2"/>
<line x1="173.7" y1="109.7" x2="162.3" y2="98.3" stroke="#E8C000" stroke-width="1.2"/>
<line x1="168.0" y1="112.0" x2="168.0" y2="96.0" stroke="#E8C000" stroke-width="1.2"/>
<line x1="162.3" y1="109.7" x2="173.7" y2="98.3" stroke="#E8C000" stroke-width="1.2"/>
<circle cx="168" cy="104" r="1.8" fill="#E8C000"/>

  <line x1="5" y1="112" x2="198" y2="112" stroke="#888" stroke-width="2.5"/>


  <text x="100" y="126" font-family="Arial,sans-serif" font-size="7" fill="#555" text-anchor="middle">GE Dash-9 · 1993</text>
</svg>