<svg xmlns="http://www.w3.org/2000/svg" viewBox="0 0 200 130" width="200" height="130">

  <!-- Tier 4 ET44 - updated cab with larger air vents -->
  <rect x="136" y="34" width="52" height="62" rx="5" fill="#FFD700"/>
  <rect x="139" y="38" width="22" height="18" rx="3" fill="#87CEEB" opacity="0.7"/>
  <rect x="8" y="46" width="132" height="42" rx="4" fill="#FFD700"/>
  <rect x="12" y="40" width="122" height="14" rx="3" fill="#E8C000"/>
  <rect x="8" y="46" width="22" height="42" rx="3" fill="#E8C000"/>
  <circle cx="16" cy="68" r="5" fill="#FFE040" opacity="0.9"/>
  <!-- larger air intake grille Tier4 -->
  <rect x="96" y="34" width="36" height="68" rx="3" fill="#D4B000"/>
  <line x1="100" y1="38" x2="100" y2="98" stroke="#E8C000" stroke-width="2"/>
  <line x1="106" y1="38" x2="106" y2="98" stroke="#E8C000" stroke-width="2"/>
  <line x1="112" y1="38" x2="112" y2="98" stroke="#E8C000" stroke-width="2"/>
  <line x1="118" y1="38" x2="118" y2="98" stroke="#E8C000" stroke-width="2"/>
  <line x1="124" y1="38" x2="124" y2="98" stroke="#E8C000" stroke-width="2"/>
  <rect x="28" y="28" width="10" height="14" rx="3" fill="#1a1a1a"/>
  <!-- UP stripe red -->
  <rect x="8" y="62" width="180" height="12" fill="#CC2200" opacity="0.25"/>
  <circle cx="26" cy="106" r="9" fill="#333" stroke="#E8C000" stroke-width="2"/>
<line x1="35.0" y1="106.0" x2="17.0" y2="106.0" stroke="#E8C000" stroke-width="1.2"/>
<line x1="32.4" y1="112.4" x2="19.6" y2="99.6" stroke="#E8C000" stroke-width="1.2"/>
<line x1="26.0" y1="115.0" x2="26.0" y2="97.0" stroke="#E8C000" stroke-width="1.2"/>
<line x1="19.6" y1="112.4" x2="32.4" y2="99.6" stroke="#E8C000" stroke-width="1.2"/>
<circle cx="26" cy="106" r="2.0" fill="#E8C000"/>

  <circle cx="50" cy="106" r="9" fill="#333" stroke="#E8C000" stroke-width="2"/>
<line x1="59.0" y1="106.0" x2="41.0" y2="106.0" stroke="#E8C000" stroke-width="1.2"/>
<line x1="56.4" y1="112.4" x2="43.6" y2="99.6" stroke="#E8C000" stroke-width="1.2"/>
<line x1="50.0" y1="115.0" x2="50.0" y2="97.0" stroke="#E8C000" stroke-width="1.2"/>
<line x1="43.6" y1="112.4" x2="56.4" y2="99.6" stroke="#E8C000" stroke-width="1.2"/>
<circle cx="50" cy="106" r="2.0" fill="#E8C000"/>

  <circle cx="76" cy="106" r="9" fill="#333" stroke="#E8C000" stroke-width="2"/>
<line x1="85.0" y1="106.0" x2="67.0" y2="106.0" stroke="#E8C000" stroke-width="1.2"/>
<line x1="82.4" y1="112.4" x2="69.6" y2="99.6" stroke="#E8C000" stroke-width="1.2"/>
<line x1="76.0" y1="115.0" x2="76.0" y2="97.0" stroke="#E8C000" stroke-width="1.2"/>
<line x1="69.6" y1="112.4" x2="82.4" y2="99.6" stroke="#E8C000" stroke-width="1.2"/>
<circle cx="76" cy="106" r="2.0" fill="#E8C000"/>

  <circle cx="106" cy="106" r="9" fill="#333" stroke="#E8C000" stroke-width="2"/>
<line x1="115.0" y1="106.0" x2="97.0" y2="106.0" stroke="#E8C000" stroke-width="1.2"/>
<line x1="112.4" y1="112.4" x2="99.6" y2="99.6" stroke="#E8C000" stroke-width="1.2"/>
<line x1="106.0" y1="115.0" x2="106.0" y2="97.0" stroke="#E8C000" stroke-width="1.2"/>
<line x1="99.6" y1="112.4" x2="112.4" y2="99.6" stroke="#E8C000" stroke-width="1.2"/>
<circle cx="106" cy="106" r="2.0" fill="#E8C000"/>

  <circle cx="140" cy="106" r="9" fill="#333" stroke="#E8C000" stroke-width="2"/>
<line x1="149.0" y1="106.0" x2="131.0" y2="106.0" stroke="#E8C000" stroke-width="1.2"/>
<line x1="146.4" y1="112.4" x2="133.6" y2="99.6" stroke="#E8C000" stroke-width="1.2"/>
<line x1="140.0" y1="115.0" x2="140.0" y2="97.0" stroke="#E8C000" stroke-width="1.2"/>
<line x1="133.6" y1="112.4" x2="146.4" y2="99.6" stroke="#E8C000" stroke-width="1.2"/>
<circle cx="140" cy="106" r="2.0" fill="#E8C000"/>

  <circle cx="166" cy="106" r="9" fill="#333" stroke="#E8C000" stroke-width="2"/>
<line x1="175.0" y1="106.0" x2="157.0" y2="106.0" stroke="#E8C000" stroke-width="1.2"/>
<line x1="172.4" y1="112.4" x2="159.6" y2="99.6" stroke="#E8C000" stroke-width="1.2"/>
<line x1="166.0" y1="115.0" x2="166.0" y2="97.0" stroke="#E8C000" stroke-width="1.2"/>
<line x1="159.6" y1="112.4" x2="172.4" y2="99.6" stroke="#E8C000" stroke-width="1.2"/>
<circle cx="166" cy="106" r="2.0" fill="#E8C000"/>

  <line x1="5" y1="112" x2="198" y2="112" stroke="#888" stroke-width="2.5"/>


  <text x="100" y="126" font-family="Arial,sans-serif" font-size="7" fill="#555" text-anchor="middle">GE Tier4 ET44 · 2015</text>
</svg>