<svg xmlns="http://www.w3.org/2000/svg" viewBox="0 0 200 130" width="200" height="130">

  <!-- RED locomotive front -->
  <rect x="8" y="42" width="75" height="60" rx="6" fill="#CC2200"/>
  <!-- The Ghan cream/red livery -->
  <path d="M8,72 Q8,42 20,40 L83,40 L83,42 L8,42 Z" fill="#DD3300"/>
  <!-- cream windows area -->
  <rect x="14" y="46" width="35" height="22" rx="3" fill="#F5F5DC"/>
  <rect x="18" y="50" width="14" height="14" rx="2" fill="#87CEEB" opacity="0.7"/>
  <rect x="36" y="50" width="10" height="14" rx="2" fill="#87CEEB" opacity="0.7"/>
  <!-- passenger cars desert colors -->
  <rect x="86" y="48" width="50" height="54" rx="3" fill="#CC2200"/>
  <rect x="139" y="48" width="54" height="54" rx="3" fill="#CC2200"/>
  <!-- cream stripe on cars -->
  <rect x="86" y="58" width="50" height="10" fill="#F5F5DC"/>
  <rect x="139" y="58" width="54" height="10" fill="#F5F5DC"/>
  <!-- headlight -->
  <circle cx="12" cy="72" r="6" fill="#FFE040" opacity="0.9"/>
  <!-- sand desert effect dots -->
  <circle cx="100" cy="104" r="2" fill="#c8a060" opacity="0.4"/>
  <circle cx="120" cy="106" r="2" fill="#c8a060" opacity="0.4"/>
  <circle cx="24" cy="110" r="8" fill="#aa1a00" stroke="#F5F5DC" stroke-width="2"/>
<line x1="32.0" y1="110.0" x2="16.0" y2="110.0" stroke="#F5F5DC" stroke-width="1.2"/>
<line x1="29.7" y1="115.7" x2="18.3" y2="104.3" stroke="#F5F5DC" stroke-width="1.2"/>
<line x1="24.0" y1="118.0" x2="24.0" y2="102.0" stroke="#F5F5DC" stroke-width="1.2"/>
<line x1="18.3" y1="115.7" x2="29.7" y2="104.3" stroke="#F5F5DC" stroke-width="1.2"/>
<circle cx="24" cy="110" r="1.8" fill="#F5F5DC"/>

  <circle cx="54" cy="110" r="8" fill="#aa1a00" stroke="#F5F5DC" stroke-width="2"/>
<line x1="62.0" y1="110.0" x2="46.0" y2="110.0" stroke="#F5F5DC" stroke-width="1.2"/>
<line x1="59.7" y1="115.7" x2="48.3" y2="104.3" stroke="#F5F5DC" stroke-width="1.2"/>
<line x1="54.0" y1="118.0" x2="54.0" y2="102.0" stroke="#F5F5DC" stroke-width="1.2"/>
<line x1="48.3" y1="115.7" x2="59.7" y2="104.3" stroke="#F5F5DC" stroke-width="1.2"/>
<circle cx="54" cy="110" r="1.8" fill="#F5F5DC"/>

  <circle cx="100" cy="110" r="8" fill="#aa1a00" stroke="#F5F5DC" stroke-width="2"/>
<line x1="108.0" y1="110.0" x2="92.0" y2="110.0" stroke="#F5F5DC" stroke-width="1.2"/>
<line x1="105.7" y1="115.7" x2="94.3" y2="104.3" stroke="#F5F5DC" stroke-width="1.2"/>
<line x1="100.0" y1="118.0" x2="100.0" y2="102.0" stroke="#F5F5DC" stroke-width="1.2"/>
<line x1="94.3" y1="115.7" x2="105.7" y2="104.3" stroke="#F5F5DC" stroke-width="1.2"/>
<circle cx="100" cy="110" r="1.8" fill="#F5F5DC"/>

  <circle cx="124" cy="110" r="8" fill="#aa1a00" stroke="#F5F5DC" stroke-width="2"/>
<line x1="132.0" y1="110.0" x2="116.0" y2="110.0" stroke="#F5F5DC" stroke-width="1.2"/>
<line x1="129.7" y1="115.7" x2="118.3" y2="104.3" stroke="#F5F5DC" stroke-width="1.2"/>
<line x1="124.0" y1="118.0" x2="124.0" y2="102.0" stroke="#F5F5DC" stroke-width="1.2"/>
<line x1="118.3" y1="115.7" x2="129.7" y2="104.3" stroke="#F5F5DC" stroke-width="1.2"/>
<circle cx="124" cy="110" r="1.8" fill="#F5F5DC"/>

  <circle cx="156" cy="110" r="8" fill="#aa1a00" stroke="#F5F5DC" stroke-width="2"/>
<line x1="164.0" y1="110.0" x2="148.0" y2="110.0" stroke="#F5F5DC" stroke-width="1.2"/>
<line x1="161.7" y1="115.7" x2="150.3" y2="104.3" stroke="#F5F5DC" stroke-width="1.2"/>
<line x1="156.0" y1="118.0" x2="156.0" y2="102.0" stroke="#F5F5DC" stroke-width="1.2"/>
<line x1="150.3" y1="115.7" x2="161.7" y2="104.3" stroke="#F5F5DC" stroke-width="1.2"/>
<circle cx="156" cy="110" r="1.8" fill="#F5F5DC"/>

  <circle cx="180" cy="110" r="8" fill="#aa1a00" stroke="#F5F5DC" stroke-width="2"/>
<line x1="188.0" y1="110.0" x2="172.0" y2="110.0" stroke="#F5F5DC" stroke-width="1.2"/>
<line x1="185.7" y1="115.7" x2="174.3" y2="104.3" stroke="#F5F5DC" stroke-width="1.2"/>
<line x1="180.0" y1="118.0" x2="180.0" y2="102.0" stroke="#F5F5DC" stroke-width="1.2"/>
<line x1="174.3" y1="115.7" x2="185.7" y2="104.3" stroke="#F5F5DC" stroke-width="1.2"/>
<circle cx="180" cy="110" r="1.8" fill="#F5F5DC"/>

  <line x1="5" y1="112" x2="198" y2="112" stroke="#888" stroke-width="2.5"/>


  <text x="100" y="126" font-family="Arial,sans-serif" font-size="7" fill="#555" text-anchor="middle">The Ghan Australia · 1929</text>
</svg>