<svg xmlns="http://www.w3.org/2000/svg" viewBox="0 0 200 130" width="200" height="130">

  <!-- Haramain HSR: Talgo design, silver/dark green Saudi -->
  <path d="M8,68 Q20,44 46,38 L185,38 L188,68 L185,98 L46,98 Q20,92 8,68 Z" fill="#C8C8C8"/>
  <!-- dark green Saudi accent -->
  <rect x="46" y="38" width="142" height="24" rx="0" fill="#1a5c1a"/>
  <path d="M8,68 Q16,50 34,44 L46,44 L46,38 Q26,44 14,58 Z" fill="#1a5c1a"/>
  <!-- Talgo articulated: very low profile -->
  <rect x="46" y="80" width="142" height="14" rx="0" fill="#aaa"/>
  <!-- Arabic script style element -->
  <rect x="55" y="44" width="40" height="10" rx="2" fill="#FFD700" opacity="0.6"/>
  <rect x="26" y="44" width="22" height="18" rx="2" fill="#87CEEB" opacity="0.7"/>
  <circle cx="11" cy="68" r="5" fill="#FFE040" opacity="0.9"/>
  <circle cx="40" cy="106" r="8" fill="#aaa" stroke="#1a5c1a" stroke-width="2"/>
<line x1="48.0" y1="106.0" x2="32.0" y2="106.0" stroke="#1a5c1a" stroke-width="1.2"/>
<line x1="45.7" y1="111.7" x2="34.3" y2="100.3" stroke="#1a5c1a" stroke-width="1.2"/>
<line x1="40.0" y1="114.0" x2="40.0" y2="98.0" stroke="#1a5c1a" stroke-width="1.2"/>
<line x1="34.3" y1="111.7" x2="45.7" y2="100.3" stroke="#1a5c1a" stroke-width="1.2"/>
<circle cx="40" cy="106" r="1.8" fill="#1a5c1a"/>

  <circle cx="64" cy="106" r="8" fill="#aaa" stroke="#1a5c1a" stroke-width="2"/>
<line x1="72.0" y1="106.0" x2="56.0" y2="106.0" stroke="#1a5c1a" stroke-width="1.2"/>
<line x1="69.7" y1="111.7" x2="58.3" y2="100.3" stroke="#1a5c1a" stroke-width="1.2"/>
<line x1="64.0" y1="114.0" x2="64.0" y2="98.0" stroke="#1a5c1a" stroke-width="1.2"/>
<line x1="58.3" y1="111.7" x2="69.7" y2="100.3" stroke="#1a5c1a" stroke-width="1.2"/>
<circle cx="64" cy="106" r="1.8" fill="#1a5c1a"/>

  <circle cx="110" cy="106" r="8" fill="#aaa" stroke="#1a5c1a" stroke-width="2"/>
<line x1="118.0" y1="106.0" x2="102.0" y2="106.0" stroke="#1a5c1a" stroke-width="1.2"/>
<line x1="115.7" y1="111.7" x2="104.3" y2="100.3" stroke="#1a5c1a" stroke-width="1.2"/>
<line x1="110.0" y1="114.0" x2="110.0" y2="98.0" stroke="#1a5c1a" stroke-width="1.2"/>
<line x1="104.3" y1="111.7" x2="115.7" y2="100.3" stroke="#1a5c1a" stroke-width="1.2"/>
<circle cx="110" cy="106" r="1.8" fill="#1a5c1a"/>

  <circle cx="150" cy="106" r="8" fill="#aaa" stroke="#1a5c1a" stroke-width="2"/>
<line x1="158.0" y1="106.0" x2="142.0" y2="106.0" stroke="#1a5c1a" stroke-width="1.2"/>
<line x1="155.7" y1="111.7" x2="144.3" y2="100.3" stroke="#1a5c1a" stroke-width="1.2"/>
<line x1="150.0" y1="114.0" x2="150.0" y2="98.0" stroke="#1a5c1a" stroke-width="1.2"/>
<line x1="144.3" y1="111.7" x2="155.7" y2="100.3" stroke="#1a5c1a" stroke-width="1.2"/>
<circle cx="150" cy="106" r="1.8" fill="#1a5c1a"/>

  <circle cx="174" cy="106" r="8" fill="#aaa" stroke="#1a5c1a" stroke-width="2"/>
<line x1="182.0" y1="106.0" x2="166.0" y2="106.0" stroke="#1a5c1a" stroke-width="1.2"/>
<line x1="179.7" y1="111.7" x2="168.3" y2="100.3" stroke="#1a5c1a" stroke-width="1.2"/>
<line x1="174.0" y1="114.0" x2="174.0" y2="98.0" stroke="#1a5c1a" stroke-width="1.2"/>
<line x1="168.3" y1="111.7" x2="179.7" y2="100.3" stroke="#1a5c1a" stroke-width="1.2"/>
<circle cx="174" cy="106" r="1.8" fill="#1a5c1a"/>

  <line x1="5" y1="112" x2="198" y2="112" stroke="#888" stroke-width="2.5"/>


  <text x="100" y="126" font-family="Arial,sans-serif" font-size="7" fill="#555" text-anchor="middle">Haramain Express · 2018</text>
</svg>