<svg xmlns="http://www.w3.org/2000/svg" viewBox="0 0 200 130" width="200" height="130">

  <!-- ART DECO teardrop streamlined nose -->
  <path d="M12,68 C12,40 30,30 55,28 L175,28 L175,108 L55,108 C30,106 12,96 12,68 Z" fill="#C0C0C0"/>
  <!-- orange band -->
  <rect x="55" y="58" width="120" height="20" fill="#FF6600"/>
  <path d="M12,68 C12,58 28,52 55,58 L55,78 C28,84 12,78 12,68 Z" fill="#FF6600"/>
  <!-- black top stripe -->
  <rect x="55" y="28" width="120" height="15" fill="#1a1a1a"/>
  <path d="M30,28 C20,30 14,40 12,55 L12,48 C16,34 26,28 40,26 Z" fill="#1a1a1a"/>
  <!-- cab windows -->
  <rect x="148" y="34" width="16" height="14" rx="2" fill="#87CEEB" opacity="0.7"/>
  <!-- headlight round -->
  <circle cx="16" cy="68" r="8" fill="#FFE040" opacity="0.9"/>
  <!-- 2+2+1 = 4-4-2 -->
  <circle cx="48" cy="112" r="8" fill="#888" stroke="#CC5500" stroke-width="2"/>
<line x1="56.0" y1="112.0" x2="40.0" y2="112.0" stroke="#CC5500" stroke-width="1.2"/>
<line x1="53.7" y1="117.7" x2="42.3" y2="106.3" stroke="#CC5500" stroke-width="1.2"/>
<line x1="48.0" y1="120.0" x2="48.0" y2="104.0" stroke="#CC5500" stroke-width="1.2"/>
<line x1="42.3" y1="117.7" x2="53.7" y2="106.3" stroke="#CC5500" stroke-width="1.2"/>
<circle cx="48" cy="112" r="1.8" fill="#CC5500"/>

  <circle cx="67" cy="112" r="8" fill="#888" stroke="#CC5500" stroke-width="2"/>
<line x1="75.0" y1="112.0" x2="59.0" y2="112.0" stroke="#CC5500" stroke-width="1.2"/>
<line x1="72.7" y1="117.7" x2="61.3" y2="106.3" stroke="#CC5500" stroke-width="1.2"/>
<line x1="67.0" y1="120.0" x2="67.0" y2="104.0" stroke="#CC5500" stroke-width="1.2"/>
<line x1="61.3" y1="117.7" x2="72.7" y2="106.3" stroke="#CC5500" stroke-width="1.2"/>
<circle cx="67" cy="112" r="1.8" fill="#CC5500"/>

  <circle cx="95" cy="112" r="13" fill="#888" stroke="#CC5500" stroke-width="2"/>
<line x1="108.0" y1="112.0" x2="82.0" y2="112.0" stroke="#CC5500" stroke-width="1.2"/>
<line x1="106.3" y1="118.5" x2="83.7" y2="105.5" stroke="#CC5500" stroke-width="1.2"/>
<line x1="101.5" y1="123.3" x2="88.5" y2="100.7" stroke="#CC5500" stroke-width="1.2"/>
<line x1="95.0" y1="125.0" x2="95.0" y2="99.0" stroke="#CC5500" stroke-width="1.2"/>
<line x1="88.5" y1="123.3" x2="101.5" y2="100.7" stroke="#CC5500" stroke-width="1.2"/>
<line x1="83.7" y1="118.5" x2="106.3" y2="105.5" stroke="#CC5500" stroke-width="1.2"/>
<circle cx="95" cy="112" r="2.9" fill="#CC5500"/>

  <circle cx="120" cy="112" r="13" fill="#888" stroke="#CC5500" stroke-width="2"/>
<line x1="133.0" y1="112.0" x2="107.0" y2="112.0" stroke="#CC5500" stroke-width="1.2"/>
<line x1="131.3" y1="118.5" x2="108.7" y2="105.5" stroke="#CC5500" stroke-width="1.2"/>
<line x1="126.5" y1="123.3" x2="113.5" y2="100.7" stroke="#CC5500" stroke-width="1.2"/>
<line x1="120.0" y1="125.0" x2="120.0" y2="99.0" stroke="#CC5500" stroke-width="1.2"/>
<line x1="113.5" y1="123.3" x2="126.5" y2="100.7" stroke="#CC5500" stroke-width="1.2"/>
<line x1="108.7" y1="118.5" x2="131.3" y2="105.5" stroke="#CC5500" stroke-width="1.2"/>
<circle cx="120" cy="112" r="2.9" fill="#CC5500"/>

  <circle cx="152" cy="112" r="9" fill="#888" stroke="#CC5500" stroke-width="2"/>
<line x1="161.0" y1="112.0" x2="143.0" y2="112.0" stroke="#CC5500" stroke-width="1.2"/>
<line x1="158.4" y1="118.4" x2="145.6" y2="105.6" stroke="#CC5500" stroke-width="1.2"/>
<line x1="152.0" y1="121.0" x2="152.0" y2="103.0" stroke="#CC5500" stroke-width="1.2"/>
<line x1="145.6" y1="118.4" x2="158.4" y2="105.6" stroke="#CC5500" stroke-width="1.2"/>
<circle cx="152" cy="112" r="2.0" fill="#CC5500"/>

  <rect x="95" y="110" width="25" height="4" rx="2" fill="#CC5500" opacity="0.8"/>
  <line x1="10" y1="112" x2="195" y2="112" stroke="#888" stroke-width="2.5"/>


  <text x="100" y="126" font-family="Arial,sans-serif" font-size="7" fill="#555" text-anchor="middle">Hiawatha Class A · 1935</text>
</svg>