<svg xmlns="http://www.w3.org/2000/svg" viewBox="0 0 200 130" width="200" height="130">

  <!-- THSR: white + gray stripe, JR700-series derived -->
  <path d="M8,68 Q20,44 46,38 L185,38 L188,68 L185,98 L46,98 Q20,92 8,68 Z" fill="#F8F8F8"/>
  <!-- gray lower stripe -->
  <rect x="46" y="74" width="142" height="16" rx="0" fill="#888"/>
  <path d="M8,68 Q14,72 28,76 L46,76 L46,90 Q26,88 12,80 Z" fill="#888"/>
  <!-- THSR orange accent -->
  <rect x="46" y="70" width="142" height="6" fill="#FF8C00"/>
  <path d="M8,68 Q12,70 26,70 L46,70 L46,76 L26,74 Q12,72 8,68 Z" fill="#FF8C00"/>
  <rect x="28" y="44" width="22" height="18" rx="2" fill="#87CEEB" opacity="0.7"/>
  <circle cx="11" cy="68" r="5" fill="#FFE040" opacity="0.9"/>
  <circle cx="40" cy="106" r="9" fill="#ddd" stroke="#888" stroke-width="2"/>
<line x1="49.0" y1="106.0" x2="31.0" y2="106.0" stroke="#888" stroke-width="1.2"/>
<line x1="46.4" y1="112.4" x2="33.6" y2="99.6" stroke="#888" stroke-width="1.2"/>
<line x1="40.0" y1="115.0" x2="40.0" y2="97.0" stroke="#888" stroke-width="1.2"/>
<line x1="33.6" y1="112.4" x2="46.4" y2="99.6" stroke="#888" stroke-width="1.2"/>
<circle cx="40" cy="106" r="2.0" fill="#888"/>

  <circle cx="64" cy="106" r="9" fill="#ddd" stroke="#888" stroke-width="2"/>
<line x1="73.0" y1="106.0" x2="55.0" y2="106.0" stroke="#888" stroke-width="1.2"/>
<line x1="70.4" y1="112.4" x2="57.6" y2="99.6" stroke="#888" stroke-width="1.2"/>
<line x1="64.0" y1="115.0" x2="64.0" y2="97.0" stroke="#888" stroke-width="1.2"/>
<line x1="57.6" y1="112.4" x2="70.4" y2="99.6" stroke="#888" stroke-width="1.2"/>
<circle cx="64" cy="106" r="2.0" fill="#888"/>

  <circle cx="110" cy="106" r="9" fill="#ddd" stroke="#888" stroke-width="2"/>
<line x1="119.0" y1="106.0" x2="101.0" y2="106.0" stroke="#888" stroke-width="1.2"/>
<line x1="116.4" y1="112.4" x2="103.6" y2="99.6" stroke="#888" stroke-width="1.2"/>
<line x1="110.0" y1="115.0" x2="110.0" y2="97.0" stroke="#888" stroke-width="1.2"/>
<line x1="103.6" y1="112.4" x2="116.4" y2="99.6" stroke="#888" stroke-width="1.2"/>
<circle cx="110" cy="106" r="2.0" fill="#888"/>

  <circle cx="150" cy="106" r="9" fill="#ddd" stroke="#888" stroke-width="2"/>
<line x1="159.0" y1="106.0" x2="141.0" y2="106.0" stroke="#888" stroke-width="1.2"/>
<line x1="156.4" y1="112.4" x2="143.6" y2="99.6" stroke="#888" stroke-width="1.2"/>
<line x1="150.0" y1="115.0" x2="150.0" y2="97.0" stroke="#888" stroke-width="1.2"/>
<line x1="143.6" y1="112.4" x2="156.4" y2="99.6" stroke="#888" stroke-width="1.2"/>
<circle cx="150" cy="106" r="2.0" fill="#888"/>

  <circle cx="174" cy="106" r="9" fill="#ddd" stroke="#888" stroke-width="2"/>
<line x1="183.0" y1="106.0" x2="165.0" y2="106.0" stroke="#888" stroke-width="1.2"/>
<line x1="180.4" y1="112.4" x2="167.6" y2="99.6" stroke="#888" stroke-width="1.2"/>
<line x1="174.0" y1="115.0" x2="174.0" y2="97.0" stroke="#888" stroke-width="1.2"/>
<line x1="167.6" y1="112.4" x2="180.4" y2="99.6" stroke="#888" stroke-width="1.2"/>
<circle cx="174" cy="106" r="2.0" fill="#888"/>

  <line x1="5" y1="112" x2="198" y2="112" stroke="#888" stroke-width="2.5"/>


  <text x="100" y="126" font-family="Arial,sans-serif" font-size="7" fill="#555" text-anchor="middle">HSR Taiwan · 2007</text>
</svg>