<svg xmlns="http://www.w3.org/2000/svg" viewBox="0 0 200 108" width="200" height="108">
  <ellipse cx="40" cy="16" rx="7" ry="5" fill="#CCC" opacity="0.4"/>
  <rect x="33" y="18" width="10" height="18" rx="2" fill="#555"/>
  <path d="M8,45 Q30,28 70,28 L190,28 L190,72 Q180,78 160,76 L60,76 Q20,74 8,60 Z" fill="#1A1A1A"/>
  <path d="M8,45 Q20,38 55,36 L55,68 Q25,66 8,60 Z" fill="#5A5A5A" opacity="0.25"/>
  <rect x="80" y="33" width="16" height="11" rx="2" fill="#87CEEB" opacity="0.65"/>
  <rect x="102" y="33" width="16" height="11" rx="2" fill="#87CEEB" opacity="0.65"/>
  <rect x="124" y="33" width="16" height="11" rx="2" fill="#87CEEB" opacity="0.65"/>
  <rect x="146" y="33" width="16" height="11" rx="2" fill="#87CEEB" opacity="0.65"/>
  <path d="M8,52 L190,52" stroke="#5A5A5A" stroke-width="1.5" opacity="0.4"/>
  <circle cx="12" cy="52" r="5" fill="#FFE040" opacity="0.9"/>
  <circle cx="65" cy="86" r="13" fill="#000000" stroke="#5A5A5A" stroke-width="2.5"/>
  <line x1="78.0" y1="86.0" x2="52.0" y2="86.0" stroke="#5A5A5A" stroke-width="1.2"/>
  <line x1="76.3" y1="92.5" x2="53.7" y2="79.5" stroke="#5A5A5A" stroke-width="1.2"/>
  <line x1="71.5" y1="97.3" x2="58.5" y2="74.7" stroke="#5A5A5A" stroke-width="1.2"/>
  <line x1="65.0" y1="99.0" x2="65.0" y2="73.0" stroke="#5A5A5A" stroke-width="1.2"/>
  <line x1="58.5" y1="97.3" x2="71.5" y2="74.7" stroke="#5A5A5A" stroke-width="1.2"/>
  <line x1="53.7" y1="92.5" x2="76.3" y2="79.5" stroke="#5A5A5A" stroke-width="1.2"/>
  <circle cx="65" cy="86" r="2.9" fill="#5A5A5A"/>
  <circle cx="100" cy="86" r="13" fill="#000000" stroke="#5A5A5A" stroke-width="2.5"/>
  <line x1="113.0" y1="86.0" x2="87.0" y2="86.0" stroke="#5A5A5A" stroke-width="1.2"/>
  <line x1="111.3" y1="92.5" x2="88.7" y2="79.5" stroke="#5A5A5A" stroke-width="1.2"/>
  <line x1="106.5" y1="97.3" x2="93.5" y2="74.7" stroke="#5A5A5A" stroke-width="1.2"/>
  <line x1="100.0" y1="99.0" x2="100.0" y2="73.0" stroke="#5A5A5A" stroke-width="1.2"/>
  <line x1="93.5" y1="97.3" x2="106.5" y2="74.7" stroke="#5A5A5A" stroke-width="1.2"/>
  <line x1="88.7" y1="92.5" x2="111.3" y2="79.5" stroke="#5A5A5A" stroke-width="1.2"/>
  <circle cx="100" cy="86" r="2.9" fill="#5A5A5A"/>
  <circle cx="135" cy="86" r="13" fill="#000000" stroke="#5A5A5A" stroke-width="2.5"/>
  <line x1="148.0" y1="86.0" x2="122.0" y2="86.0" stroke="#5A5A5A" stroke-width="1.2"/>
  <line x1="146.3" y1="92.5" x2="123.7" y2="79.5" stroke="#5A5A5A" stroke-width="1.2"/>
  <line x1="141.5" y1="97.3" x2="128.5" y2="74.7" stroke="#5A5A5A" stroke-width="1.2"/>
  <line x1="135.0" y1="99.0" x2="135.0" y2="73.0" stroke="#5A5A5A" stroke-width="1.2"/>
  <line x1="128.5" y1="97.3" x2="141.5" y2="74.7" stroke="#5A5A5A" stroke-width="1.2"/>
  <line x1="123.7" y1="92.5" x2="146.3" y2="79.5" stroke="#5A5A5A" stroke-width="1.2"/>
  <circle cx="135" cy="86" r="2.9" fill="#5A5A5A"/>
  <circle cx="170" cy="86" r="11" fill="#000000" stroke="#5A5A5A" stroke-width="2.5"/>
  <line x1="181.0" y1="86.0" x2="159.0" y2="86.0" stroke="#5A5A5A" stroke-width="1.2"/>
  <line x1="177.8" y1="93.8" x2="162.2" y2="78.2" stroke="#5A5A5A" stroke-width="1.2"/>
  <line x1="170.0" y1="97.0" x2="170.0" y2="75.0" stroke="#5A5A5A" stroke-width="1.2"/>
  <line x1="162.2" y1="93.8" x2="177.8" y2="78.2" stroke="#5A5A5A" stroke-width="1.2"/>
  <circle cx="170" cy="86" r="2.4" fill="#5A5A5A"/>
  <circle cx="42" cy="88" r="9" fill="#000000" stroke="#5A5A5A" stroke-width="2.5"/>
  <line x1="51.0" y1="88.0" x2="33.0" y2="88.0" stroke="#5A5A5A" stroke-width="1.2"/>
  <line x1="48.4" y1="94.4" x2="35.6" y2="81.6" stroke="#5A5A5A" stroke-width="1.2"/>
  <line x1="42.0" y1="97.0" x2="42.0" y2="79.0" stroke="#5A5A5A" stroke-width="1.2"/>
  <line x1="35.6" y1="94.4" x2="48.4" y2="81.6" stroke="#5A5A5A" stroke-width="1.2"/>
  <circle cx="42" cy="88" r="2.0" fill="#5A5A5A"/>

  <text x="100" y="104" font-family="Arial,sans-serif" font-size="7" fill="#666" text-anchor="middle">Hudson 4-6-4 · 1927</text>
</svg>