<svg xmlns="http://www.w3.org/2000/svg" viewBox="0 0 200 130" width="200" height="130">

  <!-- streamlined shroud silver -->
  <path d="M15,68 Q25,38 45,34 L170,34 L175,68 L170,102 L45,102 Q25,98 15,68 Z" fill="#C0C0C0"/>
  <path d="M15,68 Q22,50 45,46 L45,90 Q22,86 15,68 Z" fill="#999" opacity="0.5"/>
  <!-- NYC stripe -->
  <rect x="45" y="62" width="130" height="12" fill="#1a1a1a" opacity="0.5"/>
  <!-- windows -->
  <rect x="140" y="40" width="16" height="14" rx="2" fill="#87CEEB" opacity="0.7"/>
  <!-- headlight -->
  <circle cx="18" cy="68" r="7" fill="#FFE040" opacity="0.9"/>
  <!-- 2+3+2 = 4-6-4 -->
  <circle cx="38" cy="108" r="8" fill="#888" stroke="#aaa" stroke-width="2"/>
<line x1="46.0" y1="108.0" x2="30.0" y2="108.0" stroke="#aaa" stroke-width="1.2"/>
<line x1="43.7" y1="113.7" x2="32.3" y2="102.3" stroke="#aaa" stroke-width="1.2"/>
<line x1="38.0" y1="116.0" x2="38.0" y2="100.0" stroke="#aaa" stroke-width="1.2"/>
<line x1="32.3" y1="113.7" x2="43.7" y2="102.3" stroke="#aaa" stroke-width="1.2"/>
<circle cx="38" cy="108" r="1.8" fill="#aaa"/>

  <circle cx="57" cy="108" r="8" fill="#888" stroke="#aaa" stroke-width="2"/>
<line x1="65.0" y1="108.0" x2="49.0" y2="108.0" stroke="#aaa" stroke-width="1.2"/>
<line x1="62.7" y1="113.7" x2="51.3" y2="102.3" stroke="#aaa" stroke-width="1.2"/>
<line x1="57.0" y1="116.0" x2="57.0" y2="100.0" stroke="#aaa" stroke-width="1.2"/>
<line x1="51.3" y1="113.7" x2="62.7" y2="102.3" stroke="#aaa" stroke-width="1.2"/>
<circle cx="57" cy="108" r="1.8" fill="#aaa"/>

  <circle cx="80" cy="108" r="12" fill="#888" stroke="#aaa" stroke-width="2"/>
<line x1="92.0" y1="108.0" x2="68.0" y2="108.0" stroke="#aaa" stroke-width="1.2"/>
<line x1="90.4" y1="114.0" x2="69.6" y2="102.0" stroke="#aaa" stroke-width="1.2"/>
<line x1="86.0" y1="118.4" x2="74.0" y2="97.6" stroke="#aaa" stroke-width="1.2"/>
<line x1="80.0" y1="120.0" x2="80.0" y2="96.0" stroke="#aaa" stroke-width="1.2"/>
<line x1="74.0" y1="118.4" x2="86.0" y2="97.6" stroke="#aaa" stroke-width="1.2"/>
<line x1="69.6" y1="114.0" x2="90.4" y2="102.0" stroke="#aaa" stroke-width="1.2"/>
<circle cx="80" cy="108" r="2.6" fill="#aaa"/>

  <circle cx="103" cy="108" r="12" fill="#888" stroke="#aaa" stroke-width="2"/>
<line x1="115.0" y1="108.0" x2="91.0" y2="108.0" stroke="#aaa" stroke-width="1.2"/>
<line x1="113.4" y1="114.0" x2="92.6" y2="102.0" stroke="#aaa" stroke-width="1.2"/>
<line x1="109.0" y1="118.4" x2="97.0" y2="97.6" stroke="#aaa" stroke-width="1.2"/>
<line x1="103.0" y1="120.0" x2="103.0" y2="96.0" stroke="#aaa" stroke-width="1.2"/>
<line x1="97.0" y1="118.4" x2="109.0" y2="97.6" stroke="#aaa" stroke-width="1.2"/>
<line x1="92.6" y1="114.0" x2="113.4" y2="102.0" stroke="#aaa" stroke-width="1.2"/>
<circle cx="103" cy="108" r="2.6" fill="#aaa"/>

  <circle cx="126" cy="108" r="12" fill="#888" stroke="#aaa" stroke-width="2"/>
<line x1="138.0" y1="108.0" x2="114.0" y2="108.0" stroke="#aaa" stroke-width="1.2"/>
<line x1="136.4" y1="114.0" x2="115.6" y2="102.0" stroke="#aaa" stroke-width="1.2"/>
<line x1="132.0" y1="118.4" x2="120.0" y2="97.6" stroke="#aaa" stroke-width="1.2"/>
<line x1="126.0" y1="120.0" x2="126.0" y2="96.0" stroke="#aaa" stroke-width="1.2"/>
<line x1="120.0" y1="118.4" x2="132.0" y2="97.6" stroke="#aaa" stroke-width="1.2"/>
<line x1="115.6" y1="114.0" x2="136.4" y2="102.0" stroke="#aaa" stroke-width="1.2"/>
<circle cx="126" cy="108" r="2.6" fill="#aaa"/>

  <circle cx="152" cy="108" r="9" fill="#888" stroke="#aaa" stroke-width="2"/>
<line x1="161.0" y1="108.0" x2="143.0" y2="108.0" stroke="#aaa" stroke-width="1.2"/>
<line x1="158.4" y1="114.4" x2="145.6" y2="101.6" stroke="#aaa" stroke-width="1.2"/>
<line x1="152.0" y1="117.0" x2="152.0" y2="99.0" stroke="#aaa" stroke-width="1.2"/>
<line x1="145.6" y1="114.4" x2="158.4" y2="101.6" stroke="#aaa" stroke-width="1.2"/>
<circle cx="152" cy="108" r="2.0" fill="#aaa"/>

  <circle cx="170" cy="108" r="9" fill="#888" stroke="#aaa" stroke-width="2"/>
<line x1="179.0" y1="108.0" x2="161.0" y2="108.0" stroke="#aaa" stroke-width="1.2"/>
<line x1="176.4" y1="114.4" x2="163.6" y2="101.6" stroke="#aaa" stroke-width="1.2"/>
<line x1="170.0" y1="117.0" x2="170.0" y2="99.0" stroke="#aaa" stroke-width="1.2"/>
<line x1="163.6" y1="114.4" x2="176.4" y2="101.6" stroke="#aaa" stroke-width="1.2"/>
<circle cx="170" cy="108" r="2.0" fill="#aaa"/>

  <rect x="80" y="106" width="46" height="4" rx="2" fill="#888" opacity="0.8"/>
  <line x1="10" y1="112" x2="195" y2="112" stroke="#888" stroke-width="2.5"/>


  <text x="100" y="126" font-family="Arial,sans-serif" font-size="7" fill="#555" text-anchor="middle">Hudson 4-6-4 · 1927</text>
</svg>