<svg xmlns="http://www.w3.org/2000/svg" viewBox="0 0 200 130" width="200" height="130">

  <!-- ICE 2: shorter power car, slightly different nose -->
  <path d="M8,68 Q20,44 46,38 L185,38 L188,68 L185,98 L46,98 Q20,92 8,68 Z" fill="#F8F8F8"/>
  <path d="M8,68 Q16,52 36,46 L46,46 L46,38 Q26,44 14,60 Z" fill="#eee"/>
  <!-- red stripe -->
  <rect x="46" y="78" width="142" height="7" fill="#CC0000"/>
  <path d="M8,68 Q14,74 28,78 L46,78 L46,85 Q26,82 12,72 Z" fill="#CC0000"/>
  <!-- ICE 2 has slightly shorter nose -->
  <rect x="54" y="58" width="28" height="12" rx="2" fill="#eee"/>
  <rect x="24" y="44" width="24" height="18" rx="3" fill="#87CEEB" opacity="0.7"/>
  <circle cx="11" cy="68" r="6" fill="#FFE040" opacity="0.9"/>
  <circle cx="40" cy="106" r="9" fill="#ddd" stroke="#CC0000" stroke-width="2"/>
<line x1="49.0" y1="106.0" x2="31.0" y2="106.0" stroke="#CC0000" stroke-width="1.2"/>
<line x1="46.4" y1="112.4" x2="33.6" y2="99.6" stroke="#CC0000" stroke-width="1.2"/>
<line x1="40.0" y1="115.0" x2="40.0" y2="97.0" stroke="#CC0000" stroke-width="1.2"/>
<line x1="33.6" y1="112.4" x2="46.4" y2="99.6" stroke="#CC0000" stroke-width="1.2"/>
<circle cx="40" cy="106" r="2.0" fill="#CC0000"/>

  <circle cx="64" cy="106" r="9" fill="#ddd" stroke="#CC0000" stroke-width="2"/>
<line x1="73.0" y1="106.0" x2="55.0" y2="106.0" stroke="#CC0000" stroke-width="1.2"/>
<line x1="70.4" y1="112.4" x2="57.6" y2="99.6" stroke="#CC0000" stroke-width="1.2"/>
<line x1="64.0" y1="115.0" x2="64.0" y2="97.0" stroke="#CC0000" stroke-width="1.2"/>
<line x1="57.6" y1="112.4" x2="70.4" y2="99.6" stroke="#CC0000" stroke-width="1.2"/>
<circle cx="64" cy="106" r="2.0" fill="#CC0000"/>

  <circle cx="110" cy="106" r="9" fill="#ddd" stroke="#CC0000" stroke-width="2"/>
<line x1="119.0" y1="106.0" x2="101.0" y2="106.0" stroke="#CC0000" stroke-width="1.2"/>
<line x1="116.4" y1="112.4" x2="103.6" y2="99.6" stroke="#CC0000" stroke-width="1.2"/>
<line x1="110.0" y1="115.0" x2="110.0" y2="97.0" stroke="#CC0000" stroke-width="1.2"/>
<line x1="103.6" y1="112.4" x2="116.4" y2="99.6" stroke="#CC0000" stroke-width="1.2"/>
<circle cx="110" cy="106" r="2.0" fill="#CC0000"/>

  <circle cx="150" cy="106" r="9" fill="#ddd" stroke="#CC0000" stroke-width="2"/>
<line x1="159.0" y1="106.0" x2="141.0" y2="106.0" stroke="#CC0000" stroke-width="1.2"/>
<line x1="156.4" y1="112.4" x2="143.6" y2="99.6" stroke="#CC0000" stroke-width="1.2"/>
<line x1="150.0" y1="115.0" x2="150.0" y2="97.0" stroke="#CC0000" stroke-width="1.2"/>
<line x1="143.6" y1="112.4" x2="156.4" y2="99.6" stroke="#CC0000" stroke-width="1.2"/>
<circle cx="150" cy="106" r="2.0" fill="#CC0000"/>

  <circle cx="174" cy="106" r="9" fill="#ddd" stroke="#CC0000" stroke-width="2"/>
<line x1="183.0" y1="106.0" x2="165.0" y2="106.0" stroke="#CC0000" stroke-width="1.2"/>
<line x1="180.4" y1="112.4" x2="167.6" y2="99.6" stroke="#CC0000" stroke-width="1.2"/>
<line x1="174.0" y1="115.0" x2="174.0" y2="97.0" stroke="#CC0000" stroke-width="1.2"/>
<line x1="167.6" y1="112.4" x2="180.4" y2="99.6" stroke="#CC0000" stroke-width="1.2"/>
<circle cx="174" cy="106" r="2.0" fill="#CC0000"/>

  <line x1="5" y1="112" x2="198" y2="112" stroke="#888" stroke-width="2.5"/>


  <text x="100" y="126" font-family="Arial,sans-serif" font-size="7" fill="#555" text-anchor="middle">ICE 2 · 1997</text>
</svg>