<svg xmlns="http://www.w3.org/2000/svg" viewBox="0 0 205 106" width="205" height="106">
  <path d="M4,54 Q10,24 30,24 L195,24 L195,82 L30,82 Q10,82 4,54 Z" fill="#F0F0F0"/>
  <path d="M4,54 Q7,36 30,30 L30,78 Q7,70 4,54 Z" fill="#C83020" opacity="0.25"/>
  <rect x="36" y="30" width="14" height="13" rx="2" fill="#87CEEB" opacity="0.65"/>
  <rect x="56" y="30" width="14" height="13" rx="2" fill="#87CEEB" opacity="0.65"/>
  <rect x="76" y="30" width="14" height="13" rx="2" fill="#87CEEB" opacity="0.65"/>
  <rect x="96" y="30" width="14" height="13" rx="2" fill="#87CEEB" opacity="0.65"/>
  <path d="M4,55 L195,55" stroke="#C83020" stroke-width="2.5" opacity="0.3"/>
  <line x1="100" y1="24" x2="94"  y2="12" stroke="#C83020" stroke-width="1.5"/>
  <line x1="114" y1="24" x2="120" y2="12" stroke="#C83020" stroke-width="1.5"/>
  <line x1="86"  y1="12" x2="128" y2="12" stroke="#C83020" stroke-width="2.5"/>
  <circle cx="5" cy="54" r="4" fill="#FFE040" opacity="0.9"/>
  <circle cx="51" cy="90" r="11" fill="#C8C8C8" stroke="#C83020" stroke-width="2.5"/>
  <line x1="62.0" y1="90.0" x2="40.0" y2="90.0" stroke="#C83020" stroke-width="1.2"/>
  <line x1="60.5" y1="95.5" x2="41.5" y2="84.5" stroke="#C83020" stroke-width="1.2"/>
  <line x1="56.5" y1="99.5" x2="45.5" y2="80.5" stroke="#C83020" stroke-width="1.2"/>
  <line x1="51.0" y1="101.0" x2="51.0" y2="79.0" stroke="#C83020" stroke-width="1.2"/>
  <line x1="45.5" y1="99.5" x2="56.5" y2="80.5" stroke="#C83020" stroke-width="1.2"/>
  <line x1="41.5" y1="95.5" x2="60.5" y2="84.5" stroke="#C83020" stroke-width="1.2"/>
  <circle cx="51" cy="90" r="2.4" fill="#C83020"/>
  <circle cx="81" cy="90" r="11" fill="#C8C8C8" stroke="#C83020" stroke-width="2.5"/>
  <line x1="92.0" y1="90.0" x2="70.0" y2="90.0" stroke="#C83020" stroke-width="1.2"/>
  <line x1="90.5" y1="95.5" x2="71.5" y2="84.5" stroke="#C83020" stroke-width="1.2"/>
  <line x1="86.5" y1="99.5" x2="75.5" y2="80.5" stroke="#C83020" stroke-width="1.2"/>
  <line x1="81.0" y1="101.0" x2="81.0" y2="79.0" stroke="#C83020" stroke-width="1.2"/>
  <line x1="75.5" y1="99.5" x2="86.5" y2="80.5" stroke="#C83020" stroke-width="1.2"/>
  <line x1="71.5" y1="95.5" x2="90.5" y2="84.5" stroke="#C83020" stroke-width="1.2"/>
  <circle cx="81" cy="90" r="2.4" fill="#C83020"/>
  <circle cx="130" cy="90" r="11" fill="#C8C8C8" stroke="#C83020" stroke-width="2.5"/>
  <line x1="141.0" y1="90.0" x2="119.0" y2="90.0" stroke="#C83020" stroke-width="1.2"/>
  <line x1="139.5" y1="95.5" x2="120.5" y2="84.5" stroke="#C83020" stroke-width="1.2"/>
  <line x1="135.5" y1="99.5" x2="124.5" y2="80.5" stroke="#C83020" stroke-width="1.2"/>
  <line x1="130.0" y1="101.0" x2="130.0" y2="79.0" stroke="#C83020" stroke-width="1.2"/>
  <line x1="124.5" y1="99.5" x2="135.5" y2="80.5" stroke="#C83020" stroke-width="1.2"/>
  <line x1="120.5" y1="95.5" x2="139.5" y2="84.5" stroke="#C83020" stroke-width="1.2"/>
  <circle cx="130" cy="90" r="2.4" fill="#C83020"/>
  <circle cx="165" cy="90" r="11" fill="#C8C8C8" stroke="#C83020" stroke-width="2.5"/>
  <line x1="176.0" y1="90.0" x2="154.0" y2="90.0" stroke="#C83020" stroke-width="1.2"/>
  <line x1="174.5" y1="95.5" x2="155.5" y2="84.5" stroke="#C83020" stroke-width="1.2"/>
  <line x1="170.5" y1="99.5" x2="159.5" y2="80.5" stroke="#C83020" stroke-width="1.2"/>
  <line x1="165.0" y1="101.0" x2="165.0" y2="79.0" stroke="#C83020" stroke-width="1.2"/>
  <line x1="159.5" y1="99.5" x2="170.5" y2="80.5" stroke="#C83020" stroke-width="1.2"/>
  <line x1="155.5" y1="95.5" x2="174.5" y2="84.5" stroke="#C83020" stroke-width="1.2"/>
  <circle cx="165" cy="90" r="2.4" fill="#C83020"/>

  <text x="102" y="102" font-family="Arial,sans-serif" font-size="7" fill="#666" text-anchor="middle">ICE 4 · 2017</text>
</svg>