<svg xmlns="http://www.w3.org/2000/svg" viewBox="0 0 200 130" width="200" height="130">

  <!-- ICE 4: wider body EMU, no separate loco, rectangular nose -->
  <path d="M8,68 Q18,46 38,40 L185,40 L188,68 L185,96 L38,96 Q18,90 8,68 Z" fill="#F8F8F8"/>
  <!-- more rectangular nose ICE4 vs 1/2/3 -->
  <rect x="8" y="48" width="34" height="40" rx="4" fill="#F0F0F0"/>
  <!-- wide body visible -->
  <rect x="38" y="40" width="150" height="56" rx="0" fill="#F8F8F8"/>
  <!-- red stripe bottom -->
  <rect x="38" y="82" width="150" height="8" fill="#CC0000"/>
  <rect x="8" y="82" width="32" height="8" fill="#CC0000"/>
  <!-- ICE 4 wider cab window -->
  <rect x="12" y="50" width="26" height="22" rx="3" fill="#87CEEB" opacity="0.7"/>
  <!-- no power car - different look -->
  <rect x="155" y="40" width="33" height="56" rx="3" fill="#F0F0F0"/>
  <rect x="158" y="44" width="20" height="18" rx="3" fill="#87CEEB" opacity="0.7"/>
  <!-- pantograph on roof (EMU) -->
  <line x1="90" y1="40" x2="86" y2="22" stroke="#888" stroke-width="1.5"/>
  <line x1="110" y1="40" x2="114" y2="22" stroke="#888" stroke-width="1.5"/>
  <line x1="84" y1="22" x2="116" y2="22" stroke="#aaa" stroke-width="2.5"/>
  <circle cx="24" cy="104" r="8" fill="#ddd" stroke="#CC0000" stroke-width="2"/>
<line x1="32.0" y1="104.0" x2="16.0" y2="104.0" stroke="#CC0000" stroke-width="1.2"/>
<line x1="29.7" y1="109.7" x2="18.3" y2="98.3" stroke="#CC0000" stroke-width="1.2"/>
<line x1="24.0" y1="112.0" x2="24.0" y2="96.0" stroke="#CC0000" stroke-width="1.2"/>
<line x1="18.3" y1="109.7" x2="29.7" y2="98.3" stroke="#CC0000" stroke-width="1.2"/>
<circle cx="24" cy="104" r="1.8" fill="#CC0000"/>

  <circle cx="48" cy="104" r="8" fill="#ddd" stroke="#CC0000" stroke-width="2"/>
<line x1="56.0" y1="104.0" x2="40.0" y2="104.0" stroke="#CC0000" stroke-width="1.2"/>
<line x1="53.7" y1="109.7" x2="42.3" y2="98.3" stroke="#CC0000" stroke-width="1.2"/>
<line x1="48.0" y1="112.0" x2="48.0" y2="96.0" stroke="#CC0000" stroke-width="1.2"/>
<line x1="42.3" y1="109.7" x2="53.7" y2="98.3" stroke="#CC0000" stroke-width="1.2"/>
<circle cx="48" cy="104" r="1.8" fill="#CC0000"/>

  <circle cx="100" cy="104" r="8" fill="#ddd" stroke="#CC0000" stroke-width="2"/>
<line x1="108.0" y1="104.0" x2="92.0" y2="104.0" stroke="#CC0000" stroke-width="1.2"/>
<line x1="105.7" y1="109.7" x2="94.3" y2="98.3" stroke="#CC0000" stroke-width="1.2"/>
<line x1="100.0" y1="112.0" x2="100.0" y2="96.0" stroke="#CC0000" stroke-width="1.2"/>
<line x1="94.3" y1="109.7" x2="105.7" y2="98.3" stroke="#CC0000" stroke-width="1.2"/>
<circle cx="100" cy="104" r="1.8" fill="#CC0000"/>

  <circle cx="140" cy="104" r="8" fill="#ddd" stroke="#CC0000" stroke-width="2"/>
<line x1="148.0" y1="104.0" x2="132.0" y2="104.0" stroke="#CC0000" stroke-width="1.2"/>
<line x1="145.7" y1="109.7" x2="134.3" y2="98.3" stroke="#CC0000" stroke-width="1.2"/>
<line x1="140.0" y1="112.0" x2="140.0" y2="96.0" stroke="#CC0000" stroke-width="1.2"/>
<line x1="134.3" y1="109.7" x2="145.7" y2="98.3" stroke="#CC0000" stroke-width="1.2"/>
<circle cx="140" cy="104" r="1.8" fill="#CC0000"/>

  <circle cx="168" cy="104" r="8" fill="#ddd" stroke="#CC0000" stroke-width="2"/>
<line x1="176.0" y1="104.0" x2="160.0" y2="104.0" stroke="#CC0000" stroke-width="1.2"/>
<line x1="173.7" y1="109.7" x2="162.3" y2="98.3" stroke="#CC0000" stroke-width="1.2"/>
<line x1="168.0" y1="112.0" x2="168.0" y2="96.0" stroke="#CC0000" stroke-width="1.2"/>
<line x1="162.3" y1="109.7" x2="173.7" y2="98.3" stroke="#CC0000" stroke-width="1.2"/>
<circle cx="168" cy="104" r="1.8" fill="#CC0000"/>

  <line x1="5" y1="112" x2="198" y2="112" stroke="#888" stroke-width="2.5"/>


  <text x="100" y="126" font-family="Arial,sans-serif" font-size="7" fill="#555" text-anchor="middle">ICE 4 · 2017</text>
</svg>