<svg xmlns="http://www.w3.org/2000/svg" viewBox="0 0 215 100">
  <!-- white body with gentle taper -->
  <path d="M4,50 Q12,24 36,24 L206,24 L206,76 L36,76 Q12,76 4,50Z" fill="#F5F5F5"/>
  <!-- red stripe along waist -->
  <path d="M4,50 Q10,46 34,44 L206,44 L206,56 L34,56 Q10,54 4,50Z" fill="#CC1414" opacity=".8"/>
  <!-- TRANSPARENT CAB (iconic ICE3 feature — you see through the front) -->
  <path d="M4,50 Q12,34 32,30 L50,30 L50,70 L32,70 Q12,66 4,50Z" fill="#87CEEB" opacity=".5"/>
  <path d="M4,50 Q12,34 32,30 L50,30 L50,70 L32,70 Q12,66 4,50Z" fill="none" stroke="#AAA" stroke-width="1.5"/>
  <!-- cab interior silhouette -->
  <circle cx="32" cy="50" r="4" fill="#1A1A1A" opacity=".4"/>
  <!-- windows -->
  <rect x="56"  y="28" width="14" height="13" rx="2" fill="#87CEEB" opacity=".65"/>
  <rect x="76"  y="28" width="14" height="13" rx="2" fill="#87CEEB" opacity=".65"/>
  <rect x="96"  y="28" width="14" height="13" rx="2" fill="#87CEEB" opacity=".65"/>
  <rect x="116" y="28" width="14" height="13" rx="2" fill="#87CEEB" opacity=".65"/>
  <rect x="136" y="28" width="14" height="13" rx="2" fill="#87CEEB" opacity=".65"/>
  <rect x="156" y="28" width="14" height="13" rx="2" fill="#87CEEB" opacity=".65"/>
  <rect x="178" y="28" width="14" height="13" rx="2" fill="#87CEEB" opacity=".65"/>
  <!-- pantograph -->
  <line x1="108" y1="24" x2="103" y2="12" stroke="#aaa" stroke-width="1.5"/>
  <line x1="120" y1="24" x2="125" y2="12" stroke="#aaa" stroke-width="1.5"/>
  <line x1="96"  y1="12" x2="132" y2="12" stroke="#aaa" stroke-width="2"/>
  <circle cx="206" cy="50" r="4" fill="#FFD700" opacity=".7"/>
  <!-- wheels -->
  <circle cx="62"  cy="87" r="10" fill="#DDD" stroke="#999" stroke-width="2"/>
  <circle cx="92"  cy="87" r="10" fill="#DDD" stroke="#999" stroke-width="2"/>
  <circle cx="138" cy="87" r="10" fill="#DDD" stroke="#999" stroke-width="2"/>
  <circle cx="168" cy="87" r="10" fill="#DDD" stroke="#999" stroke-width="2"/>
  <text x="108" y="100" font-family="Arial" font-size="7" fill="#888" text-anchor="middle">ICE 3 · DB · 2000 · 330 km/h</text>
</svg>