<svg xmlns="http://www.w3.org/2000/svg" viewBox="0 0 200 130" width="200" height="130">

  <!-- ICE 1: very long power car, very rounded smooth nose -->
  <path d="M8,68 Q22,42 52,36 L185,36 L188,68 L185,100 L52,100 Q22,94 8,68 Z" fill="#F8F8F8"/>
  <!-- very long nose gradual curve - key ICE1 feature -->
  <path d="M8,68 Q18,50 40,44 L52,44 L52,36 Q30,42 16,58 Z" fill="#eee"/>
  <!-- red stripe ICE -->
  <rect x="52" y="76" width="136" height="8" fill="#CC0000"/>
  <path d="M8,68 Q14,76 30,80 L52,80 L52,84 Q28,82 14,74 Z" fill="#CC0000"/>
  <!-- ICE lettering area -->
  <rect x="60" y="58" width="30" height="14" rx="2" fill="#eee"/>
  <!-- cab window -->
  <rect x="24" y="44" width="26" height="20" rx="3" fill="#87CEEB" opacity="0.7"/>
  <circle cx="11" cy="68" r="6" fill="#FFE040" opacity="0.9"/>
  <circle cx="44" cy="108" r="9" fill="#ddd" stroke="#CC0000" stroke-width="2"/>
<line x1="53.0" y1="108.0" x2="35.0" y2="108.0" stroke="#CC0000" stroke-width="1.2"/>
<line x1="50.4" y1="114.4" x2="37.6" y2="101.6" stroke="#CC0000" stroke-width="1.2"/>
<line x1="44.0" y1="117.0" x2="44.0" y2="99.0" stroke="#CC0000" stroke-width="1.2"/>
<line x1="37.6" y1="114.4" x2="50.4" y2="101.6" stroke="#CC0000" stroke-width="1.2"/>
<circle cx="44" cy="108" r="2.0" fill="#CC0000"/>

  <circle cx="70" cy="108" r="9" fill="#ddd" stroke="#CC0000" stroke-width="2"/>
<line x1="79.0" y1="108.0" x2="61.0" y2="108.0" stroke="#CC0000" stroke-width="1.2"/>
<line x1="76.4" y1="114.4" x2="63.6" y2="101.6" stroke="#CC0000" stroke-width="1.2"/>
<line x1="70.0" y1="117.0" x2="70.0" y2="99.0" stroke="#CC0000" stroke-width="1.2"/>
<line x1="63.6" y1="114.4" x2="76.4" y2="101.6" stroke="#CC0000" stroke-width="1.2"/>
<circle cx="70" cy="108" r="2.0" fill="#CC0000"/>

  <circle cx="115" cy="108" r="9" fill="#ddd" stroke="#CC0000" stroke-width="2"/>
<line x1="124.0" y1="108.0" x2="106.0" y2="108.0" stroke="#CC0000" stroke-width="1.2"/>
<line x1="121.4" y1="114.4" x2="108.6" y2="101.6" stroke="#CC0000" stroke-width="1.2"/>
<line x1="115.0" y1="117.0" x2="115.0" y2="99.0" stroke="#CC0000" stroke-width="1.2"/>
<line x1="108.6" y1="114.4" x2="121.4" y2="101.6" stroke="#CC0000" stroke-width="1.2"/>
<circle cx="115" cy="108" r="2.0" fill="#CC0000"/>

  <circle cx="155" cy="108" r="9" fill="#ddd" stroke="#CC0000" stroke-width="2"/>
<line x1="164.0" y1="108.0" x2="146.0" y2="108.0" stroke="#CC0000" stroke-width="1.2"/>
<line x1="161.4" y1="114.4" x2="148.6" y2="101.6" stroke="#CC0000" stroke-width="1.2"/>
<line x1="155.0" y1="117.0" x2="155.0" y2="99.0" stroke="#CC0000" stroke-width="1.2"/>
<line x1="148.6" y1="114.4" x2="161.4" y2="101.6" stroke="#CC0000" stroke-width="1.2"/>
<circle cx="155" cy="108" r="2.0" fill="#CC0000"/>

  <circle cx="178" cy="108" r="9" fill="#ddd" stroke="#CC0000" stroke-width="2"/>
<line x1="187.0" y1="108.0" x2="169.0" y2="108.0" stroke="#CC0000" stroke-width="1.2"/>
<line x1="184.4" y1="114.4" x2="171.6" y2="101.6" stroke="#CC0000" stroke-width="1.2"/>
<line x1="178.0" y1="117.0" x2="178.0" y2="99.0" stroke="#CC0000" stroke-width="1.2"/>
<line x1="171.6" y1="114.4" x2="184.4" y2="101.6" stroke="#CC0000" stroke-width="1.2"/>
<circle cx="178" cy="108" r="2.0" fill="#CC0000"/>

  <line x1="5" y1="112" x2="198" y2="112" stroke="#888" stroke-width="2.5"/>


  <text x="100" y="126" font-family="Arial,sans-serif" font-size="7" fill="#555" text-anchor="middle">ICE 1 · 1991</text>
</svg>