<svg xmlns="http://www.w3.org/2000/svg" viewBox="0 0 270 100" width="270" height="100">
  <rect x="2" y="36" width="50" height="30" rx="5" fill="#4A4A4A"/>
  <rect x="2" y="28" width="50" height="10" rx="3" fill="#0A0A0A" opacity="0.5"/>
  <rect x="215" y="36" width="48" height="30" rx="5" fill="#4A4A4A"/>
  <rect x="215" y="28" width="48" height="10" rx="3" fill="#0A0A0A" opacity="0.5"/>
  <rect x="46" y="30" width="172" height="34" rx="12" fill="#0A0A0A"/>
  <ellipse cx="132" cy="28" rx="14" ry="9" fill="#4A4A4A"/>
  <rect x="50" y="14" width="14" height="18" rx="2" fill="#555"/>
  <rect x="46" y="10" width="22" height="6" rx="2" fill="#333"/>
  <ellipse cx="57" cy="12" rx="8" ry="4" fill="#AAA" opacity="0.5"/>
  <rect x="2" y="64" width="261" height="7" rx="2" fill="#4A4A4A" opacity="0.4"/>
  <circle cx="14" cy="80" r="11" fill="#000000" stroke="#4A4A4A" stroke-width="2.5"/>
  <line x1="25.0" y1="80.0" x2="3.0" y2="80.0" stroke="#4A4A4A" stroke-width="1.2"/>
  <line x1="23.5" y1="85.5" x2="4.5" y2="74.5" stroke="#4A4A4A" stroke-width="1.2"/>
  <line x1="19.5" y1="89.5" x2="8.5" y2="70.5" stroke="#4A4A4A" stroke-width="1.2"/>
  <line x1="14.0" y1="91.0" x2="14.0" y2="69.0" stroke="#4A4A4A" stroke-width="1.2"/>
  <line x1="8.5" y1="89.5" x2="19.5" y2="70.5" stroke="#4A4A4A" stroke-width="1.2"/>
  <line x1="4.5" y1="85.5" x2="23.5" y2="74.5" stroke="#4A4A4A" stroke-width="1.2"/>
  <circle cx="14" cy="80" r="2.4" fill="#4A4A4A"/>
  <circle cx="34" cy="80" r="11" fill="#000000" stroke="#4A4A4A" stroke-width="2.5"/>
  <line x1="45.0" y1="80.0" x2="23.0" y2="80.0" stroke="#4A4A4A" stroke-width="1.2"/>
  <line x1="43.5" y1="85.5" x2="24.5" y2="74.5" stroke="#4A4A4A" stroke-width="1.2"/>
  <line x1="39.5" y1="89.5" x2="28.5" y2="70.5" stroke="#4A4A4A" stroke-width="1.2"/>
  <line x1="34.0" y1="91.0" x2="34.0" y2="69.0" stroke="#4A4A4A" stroke-width="1.2"/>
  <line x1="28.5" y1="89.5" x2="39.5" y2="70.5" stroke="#4A4A4A" stroke-width="1.2"/>
  <line x1="24.5" y1="85.5" x2="43.5" y2="74.5" stroke="#4A4A4A" stroke-width="1.2"/>
  <circle cx="34" cy="80" r="2.4" fill="#4A4A4A"/>
  <circle cx="54" cy="80" r="11" fill="#000000" stroke="#4A4A4A" stroke-width="2.5"/>
  <line x1="65.0" y1="80.0" x2="43.0" y2="80.0" stroke="#4A4A4A" stroke-width="1.2"/>
  <line x1="63.5" y1="85.5" x2="44.5" y2="74.5" stroke="#4A4A4A" stroke-width="1.2"/>
  <line x1="59.5" y1="89.5" x2="48.5" y2="70.5" stroke="#4A4A4A" stroke-width="1.2"/>
  <line x1="54.0" y1="91.0" x2="54.0" y2="69.0" stroke="#4A4A4A" stroke-width="1.2"/>
  <line x1="48.5" y1="89.5" x2="59.5" y2="70.5" stroke="#4A4A4A" stroke-width="1.2"/>
  <line x1="44.5" y1="85.5" x2="63.5" y2="74.5" stroke="#4A4A4A" stroke-width="1.2"/>
  <circle cx="54" cy="80" r="2.4" fill="#4A4A4A"/>
  <circle cx="74" cy="80" r="11" fill="#000000" stroke="#4A4A4A" stroke-width="2.5"/>
  <line x1="85.0" y1="80.0" x2="63.0" y2="80.0" stroke="#4A4A4A" stroke-width="1.2"/>
  <line x1="83.5" y1="85.5" x2="64.5" y2="74.5" stroke="#4A4A4A" stroke-width="1.2"/>
  <line x1="79.5" y1="89.5" x2="68.5" y2="70.5" stroke="#4A4A4A" stroke-width="1.2"/>
  <line x1="74.0" y1="91.0" x2="74.0" y2="69.0" stroke="#4A4A4A" stroke-width="1.2"/>
  <line x1="68.5" y1="89.5" x2="79.5" y2="70.5" stroke="#4A4A4A" stroke-width="1.2"/>
  <line x1="64.5" y1="85.5" x2="83.5" y2="74.5" stroke="#4A4A4A" stroke-width="1.2"/>
  <circle cx="74" cy="80" r="2.4" fill="#4A4A4A"/>
  <circle cx="190" cy="80" r="11" fill="#000000" stroke="#4A4A4A" stroke-width="2.5"/>
  <line x1="201.0" y1="80.0" x2="179.0" y2="80.0" stroke="#4A4A4A" stroke-width="1.2"/>
  <line x1="199.5" y1="85.5" x2="180.5" y2="74.5" stroke="#4A4A4A" stroke-width="1.2"/>
  <line x1="195.5" y1="89.5" x2="184.5" y2="70.5" stroke="#4A4A4A" stroke-width="1.2"/>
  <line x1="190.0" y1="91.0" x2="190.0" y2="69.0" stroke="#4A4A4A" stroke-width="1.2"/>
  <line x1="184.5" y1="89.5" x2="195.5" y2="70.5" stroke="#4A4A4A" stroke-width="1.2"/>
  <line x1="180.5" y1="85.5" x2="199.5" y2="74.5" stroke="#4A4A4A" stroke-width="1.2"/>
  <circle cx="190" cy="80" r="2.4" fill="#4A4A4A"/>
  <circle cx="210" cy="80" r="11" fill="#000000" stroke="#4A4A4A" stroke-width="2.5"/>
  <line x1="221.0" y1="80.0" x2="199.0" y2="80.0" stroke="#4A4A4A" stroke-width="1.2"/>
  <line x1="219.5" y1="85.5" x2="200.5" y2="74.5" stroke="#4A4A4A" stroke-width="1.2"/>
  <line x1="215.5" y1="89.5" x2="204.5" y2="70.5" stroke="#4A4A4A" stroke-width="1.2"/>
  <line x1="210.0" y1="91.0" x2="210.0" y2="69.0" stroke="#4A4A4A" stroke-width="1.2"/>
  <line x1="204.5" y1="89.5" x2="215.5" y2="70.5" stroke="#4A4A4A" stroke-width="1.2"/>
  <line x1="200.5" y1="85.5" x2="219.5" y2="74.5" stroke="#4A4A4A" stroke-width="1.2"/>
  <circle cx="210" cy="80" r="2.4" fill="#4A4A4A"/>
  <circle cx="230" cy="80" r="11" fill="#000000" stroke="#4A4A4A" stroke-width="2.5"/>
  <line x1="241.0" y1="80.0" x2="219.0" y2="80.0" stroke="#4A4A4A" stroke-width="1.2"/>
  <line x1="239.5" y1="85.5" x2="220.5" y2="74.5" stroke="#4A4A4A" stroke-width="1.2"/>
  <line x1="235.5" y1="89.5" x2="224.5" y2="70.5" stroke="#4A4A4A" stroke-width="1.2"/>
  <line x1="230.0" y1="91.0" x2="230.0" y2="69.0" stroke="#4A4A4A" stroke-width="1.2"/>
  <line x1="224.5" y1="89.5" x2="235.5" y2="70.5" stroke="#4A4A4A" stroke-width="1.2"/>
  <line x1="220.5" y1="85.5" x2="239.5" y2="74.5" stroke="#4A4A4A" stroke-width="1.2"/>
  <circle cx="230" cy="80" r="2.4" fill="#4A4A4A"/>
  <circle cx="250" cy="80" r="11" fill="#000000" stroke="#4A4A4A" stroke-width="2.5"/>
  <line x1="261.0" y1="80.0" x2="239.0" y2="80.0" stroke="#4A4A4A" stroke-width="1.2"/>
  <line x1="259.5" y1="85.5" x2="240.5" y2="74.5" stroke="#4A4A4A" stroke-width="1.2"/>
  <line x1="255.5" y1="89.5" x2="244.5" y2="70.5" stroke="#4A4A4A" stroke-width="1.2"/>
  <line x1="250.0" y1="91.0" x2="250.0" y2="69.0" stroke="#4A4A4A" stroke-width="1.2"/>
  <line x1="244.5" y1="89.5" x2="255.5" y2="70.5" stroke="#4A4A4A" stroke-width="1.2"/>
  <line x1="240.5" y1="85.5" x2="259.5" y2="74.5" stroke="#4A4A4A" stroke-width="1.2"/>
  <circle cx="250" cy="80" r="2.4" fill="#4A4A4A"/>
  <circle cx="100" cy="80" r="13" fill="#000000" stroke="#4A4A4A" stroke-width="2.5"/>
  <line x1="113.0" y1="80.0" x2="87.0" y2="80.0" stroke="#4A4A4A" stroke-width="1.2"/>
  <line x1="111.3" y1="86.5" x2="88.7" y2="73.5" stroke="#4A4A4A" stroke-width="1.2"/>
  <line x1="106.5" y1="91.3" x2="93.5" y2="68.7" stroke="#4A4A4A" stroke-width="1.2"/>
  <line x1="100.0" y1="93.0" x2="100.0" y2="67.0" stroke="#4A4A4A" stroke-width="1.2"/>
  <line x1="93.5" y1="91.3" x2="106.5" y2="68.7" stroke="#4A4A4A" stroke-width="1.2"/>
  <line x1="88.7" y1="86.5" x2="111.3" y2="73.5" stroke="#4A4A4A" stroke-width="1.2"/>
  <circle cx="100" cy="80" r="2.9" fill="#4A4A4A"/>
  <circle cx="130" cy="80" r="13" fill="#000000" stroke="#4A4A4A" stroke-width="2.5"/>
  <line x1="143.0" y1="80.0" x2="117.0" y2="80.0" stroke="#4A4A4A" stroke-width="1.2"/>
  <line x1="141.3" y1="86.5" x2="118.7" y2="73.5" stroke="#4A4A4A" stroke-width="1.2"/>
  <line x1="136.5" y1="91.3" x2="123.5" y2="68.7" stroke="#4A4A4A" stroke-width="1.2"/>
  <line x1="130.0" y1="93.0" x2="130.0" y2="67.0" stroke="#4A4A4A" stroke-width="1.2"/>
  <line x1="123.5" y1="91.3" x2="136.5" y2="68.7" stroke="#4A4A4A" stroke-width="1.2"/>
  <line x1="118.7" y1="86.5" x2="141.3" y2="73.5" stroke="#4A4A4A" stroke-width="1.2"/>
  <circle cx="130" cy="80" r="2.9" fill="#4A4A4A"/>
  <circle cx="160" cy="80" r="13" fill="#000000" stroke="#4A4A4A" stroke-width="2.5"/>
  <line x1="173.0" y1="80.0" x2="147.0" y2="80.0" stroke="#4A4A4A" stroke-width="1.2"/>
  <line x1="171.3" y1="86.5" x2="148.7" y2="73.5" stroke="#4A4A4A" stroke-width="1.2"/>
  <line x1="166.5" y1="91.3" x2="153.5" y2="68.7" stroke="#4A4A4A" stroke-width="1.2"/>
  <line x1="160.0" y1="93.0" x2="160.0" y2="67.0" stroke="#4A4A4A" stroke-width="1.2"/>
  <line x1="153.5" y1="91.3" x2="166.5" y2="68.7" stroke="#4A4A4A" stroke-width="1.2"/>
  <line x1="148.7" y1="86.5" x2="171.3" y2="73.5" stroke="#4A4A4A" stroke-width="1.2"/>
  <circle cx="160" cy="80" r="2.9" fill="#4A4A4A"/>

  <text x="135" y="96" font-family="Arial,sans-serif" font-size="7" fill="#666" text-anchor="middle">JNR D51 Mikado · 1936</text>
</svg>