<svg xmlns="http://www.w3.org/2000/svg" viewBox="0 0 200 130" width="200" height="130">

  <rect x="18" y="50" width="150" height="36" rx="7" fill="#111"/>
  <rect x="24" y="56" width="100" height="24" rx="7" fill="#1a1a1a"/>
  <rect x="148" y="44" width="36" height="42" rx="4" fill="#1a1a1a"/>
  <rect x="151" y="48" width="14" height="14" rx="2" fill="#87CEEB" opacity="0.6"/>
  <rect x="150" y="70" width="32" height="5" fill="#fff" opacity="0.8"/>
  <rect x="28" y="18" width="14" height="34" rx="3" fill="#111"/>
  <rect x="22" y="15" width="26" height="7" rx="2" fill="#222"/>
  <circle cx="22" cy="67" r="16" fill="#0d0d0d"/>
  <ellipse cx="100" cy="52" rx="14" ry="9" fill="#0d0d0d"/>
  <circle cx="34" cy="101" r="7" fill="#111" stroke="#888" stroke-width="2"/>
<line x1="41.0" y1="101.0" x2="27.0" y2="101.0" stroke="#888" stroke-width="1.2"/>
<line x1="38.9" y1="105.9" x2="29.1" y2="96.1" stroke="#888" stroke-width="1.2"/>
<line x1="34.0" y1="108.0" x2="34.0" y2="94.0" stroke="#888" stroke-width="1.2"/>
<line x1="29.1" y1="105.9" x2="38.9" y2="96.1" stroke="#888" stroke-width="1.2"/>
<circle cx="34" cy="101" r="1.5" fill="#888"/>

  <circle cx="58" cy="101" r="12" fill="#111" stroke="#888" stroke-width="2"/>
<line x1="70.0" y1="101.0" x2="46.0" y2="101.0" stroke="#888" stroke-width="1.2"/>
<line x1="68.4" y1="107.0" x2="47.6" y2="95.0" stroke="#888" stroke-width="1.2"/>
<line x1="64.0" y1="111.4" x2="52.0" y2="90.6" stroke="#888" stroke-width="1.2"/>
<line x1="58.0" y1="113.0" x2="58.0" y2="89.0" stroke="#888" stroke-width="1.2"/>
<line x1="52.0" y1="111.4" x2="64.0" y2="90.6" stroke="#888" stroke-width="1.2"/>
<line x1="47.6" y1="107.0" x2="68.4" y2="95.0" stroke="#888" stroke-width="1.2"/>
<circle cx="58" cy="101" r="2.6" fill="#888"/>

  <circle cx="78" cy="101" r="12" fill="#111" stroke="#888" stroke-width="2"/>
<line x1="90.0" y1="101.0" x2="66.0" y2="101.0" stroke="#888" stroke-width="1.2"/>
<line x1="88.4" y1="107.0" x2="67.6" y2="95.0" stroke="#888" stroke-width="1.2"/>
<line x1="84.0" y1="111.4" x2="72.0" y2="90.6" stroke="#888" stroke-width="1.2"/>
<line x1="78.0" y1="113.0" x2="78.0" y2="89.0" stroke="#888" stroke-width="1.2"/>
<line x1="72.0" y1="111.4" x2="84.0" y2="90.6" stroke="#888" stroke-width="1.2"/>
<line x1="67.6" y1="107.0" x2="88.4" y2="95.0" stroke="#888" stroke-width="1.2"/>
<circle cx="78" cy="101" r="2.6" fill="#888"/>

  <circle cx="98" cy="101" r="12" fill="#111" stroke="#888" stroke-width="2"/>
<line x1="110.0" y1="101.0" x2="86.0" y2="101.0" stroke="#888" stroke-width="1.2"/>
<line x1="108.4" y1="107.0" x2="87.6" y2="95.0" stroke="#888" stroke-width="1.2"/>
<line x1="104.0" y1="111.4" x2="92.0" y2="90.6" stroke="#888" stroke-width="1.2"/>
<line x1="98.0" y1="113.0" x2="98.0" y2="89.0" stroke="#888" stroke-width="1.2"/>
<line x1="92.0" y1="111.4" x2="104.0" y2="90.6" stroke="#888" stroke-width="1.2"/>
<line x1="87.6" y1="107.0" x2="108.4" y2="95.0" stroke="#888" stroke-width="1.2"/>
<circle cx="98" cy="101" r="2.6" fill="#888"/>

  <circle cx="118" cy="101" r="12" fill="#111" stroke="#888" stroke-width="2"/>
<line x1="130.0" y1="101.0" x2="106.0" y2="101.0" stroke="#888" stroke-width="1.2"/>
<line x1="128.4" y1="107.0" x2="107.6" y2="95.0" stroke="#888" stroke-width="1.2"/>
<line x1="124.0" y1="111.4" x2="112.0" y2="90.6" stroke="#888" stroke-width="1.2"/>
<line x1="118.0" y1="113.0" x2="118.0" y2="89.0" stroke="#888" stroke-width="1.2"/>
<line x1="112.0" y1="111.4" x2="124.0" y2="90.6" stroke="#888" stroke-width="1.2"/>
<line x1="107.6" y1="107.0" x2="128.4" y2="95.0" stroke="#888" stroke-width="1.2"/>
<circle cx="118" cy="101" r="2.6" fill="#888"/>

  <circle cx="145" cy="101" r="8" fill="#111" stroke="#888" stroke-width="2"/>
<line x1="153.0" y1="101.0" x2="137.0" y2="101.0" stroke="#888" stroke-width="1.2"/>
<line x1="150.7" y1="106.7" x2="139.3" y2="95.3" stroke="#888" stroke-width="1.2"/>
<line x1="145.0" y1="109.0" x2="145.0" y2="93.0" stroke="#888" stroke-width="1.2"/>
<line x1="139.3" y1="106.7" x2="150.7" y2="95.3" stroke="#888" stroke-width="1.2"/>
<circle cx="145" cy="101" r="1.8" fill="#888"/>

  <rect x="58" y="99" width="60" height="4" rx="2" fill="#666" opacity="0.8"/>
  <line x1="10" y1="112" x2="195" y2="112" stroke="#888" stroke-width="2.5"/>


  <text x="100" y="126" font-family="Arial,sans-serif" font-size="7" fill="#555" text-anchor="middle">JNR D51 · 1936</text>
</svg>