<svg xmlns="http://www.w3.org/2000/svg" viewBox="0 0 200 130" width="200" height="130">

  <rect x="16" y="48" width="152" height="40" rx="8" fill="#111"/>
  <rect x="22" y="54" width="105" height="26" rx="8" fill="#1a1a1a"/>
  <rect x="152" y="42" width="36" height="46" rx="4" fill="#0d0d0d"/>
  <rect x="155" y="46" width="18" height="16" rx="2" fill="#87CEEB" opacity="0.65"/>
  <rect x="26" y="14" width="14" height="36" rx="5" fill="#0d0d0d"/>
  <circle cx="33" cy="14" r="8" fill="#222"/>
  <circle cx="22" cy="67" r="18" fill="#0d0d0d"/>
  <ellipse cx="108" cy="50" rx="15" ry="10" fill="#0d0d0d"/>
  <rect x="24" y="78" width="124" height="5" fill="#CC0000"/>
  <circle cx="36" cy="103" r="8" fill="#111" stroke="#aaa" stroke-width="2"/>
<line x1="44.0" y1="103.0" x2="28.0" y2="103.0" stroke="#aaa" stroke-width="1.2"/>
<line x1="41.7" y1="108.7" x2="30.3" y2="97.3" stroke="#aaa" stroke-width="1.2"/>
<line x1="36.0" y1="111.0" x2="36.0" y2="95.0" stroke="#aaa" stroke-width="1.2"/>
<line x1="30.3" y1="108.7" x2="41.7" y2="97.3" stroke="#aaa" stroke-width="1.2"/>
<circle cx="36" cy="103" r="1.8" fill="#aaa"/>

  <circle cx="56" cy="103" r="8" fill="#111" stroke="#aaa" stroke-width="2"/>
<line x1="64.0" y1="103.0" x2="48.0" y2="103.0" stroke="#aaa" stroke-width="1.2"/>
<line x1="61.7" y1="108.7" x2="50.3" y2="97.3" stroke="#aaa" stroke-width="1.2"/>
<line x1="56.0" y1="111.0" x2="56.0" y2="95.0" stroke="#aaa" stroke-width="1.2"/>
<line x1="50.3" y1="108.7" x2="61.7" y2="97.3" stroke="#aaa" stroke-width="1.2"/>
<circle cx="56" cy="103" r="1.8" fill="#aaa"/>

  <circle cx="80" cy="103" r="14" fill="#111" stroke="#aaa" stroke-width="2"/>
<line x1="94.0" y1="103.0" x2="66.0" y2="103.0" stroke="#aaa" stroke-width="1.2"/>
<line x1="92.1" y1="110.0" x2="67.9" y2="96.0" stroke="#aaa" stroke-width="1.2"/>
<line x1="87.0" y1="115.1" x2="73.0" y2="90.9" stroke="#aaa" stroke-width="1.2"/>
<line x1="80.0" y1="117.0" x2="80.0" y2="89.0" stroke="#aaa" stroke-width="1.2"/>
<line x1="73.0" y1="115.1" x2="87.0" y2="90.9" stroke="#aaa" stroke-width="1.2"/>
<line x1="67.9" y1="110.0" x2="92.1" y2="96.0" stroke="#aaa" stroke-width="1.2"/>
<circle cx="80" cy="103" r="3.1" fill="#aaa"/>

  <circle cx="103" cy="103" r="14" fill="#111" stroke="#aaa" stroke-width="2"/>
<line x1="117.0" y1="103.0" x2="89.0" y2="103.0" stroke="#aaa" stroke-width="1.2"/>
<line x1="115.1" y1="110.0" x2="90.9" y2="96.0" stroke="#aaa" stroke-width="1.2"/>
<line x1="110.0" y1="115.1" x2="96.0" y2="90.9" stroke="#aaa" stroke-width="1.2"/>
<line x1="103.0" y1="117.0" x2="103.0" y2="89.0" stroke="#aaa" stroke-width="1.2"/>
<line x1="96.0" y1="115.1" x2="110.0" y2="90.9" stroke="#aaa" stroke-width="1.2"/>
<line x1="90.9" y1="110.0" x2="115.1" y2="96.0" stroke="#aaa" stroke-width="1.2"/>
<circle cx="103" cy="103" r="3.1" fill="#aaa"/>

  <circle cx="126" cy="103" r="14" fill="#111" stroke="#aaa" stroke-width="2"/>
<line x1="140.0" y1="103.0" x2="112.0" y2="103.0" stroke="#aaa" stroke-width="1.2"/>
<line x1="138.1" y1="110.0" x2="113.9" y2="96.0" stroke="#aaa" stroke-width="1.2"/>
<line x1="133.0" y1="115.1" x2="119.0" y2="90.9" stroke="#aaa" stroke-width="1.2"/>
<line x1="126.0" y1="117.0" x2="126.0" y2="89.0" stroke="#aaa" stroke-width="1.2"/>
<line x1="119.0" y1="115.1" x2="133.0" y2="90.9" stroke="#aaa" stroke-width="1.2"/>
<line x1="113.9" y1="110.0" x2="138.1" y2="96.0" stroke="#aaa" stroke-width="1.2"/>
<circle cx="126" cy="103" r="3.1" fill="#aaa"/>

  <circle cx="152" cy="103" r="9" fill="#111" stroke="#aaa" stroke-width="2"/>
<line x1="161.0" y1="103.0" x2="143.0" y2="103.0" stroke="#aaa" stroke-width="1.2"/>
<line x1="158.4" y1="109.4" x2="145.6" y2="96.6" stroke="#aaa" stroke-width="1.2"/>
<line x1="152.0" y1="112.0" x2="152.0" y2="94.0" stroke="#aaa" stroke-width="1.2"/>
<line x1="145.6" y1="109.4" x2="158.4" y2="96.6" stroke="#aaa" stroke-width="1.2"/>
<circle cx="152" cy="103" r="2.0" fill="#aaa"/>

  <circle cx="170" cy="103" r="9" fill="#111" stroke="#aaa" stroke-width="2"/>
<line x1="179.0" y1="103.0" x2="161.0" y2="103.0" stroke="#aaa" stroke-width="1.2"/>
<line x1="176.4" y1="109.4" x2="163.6" y2="96.6" stroke="#aaa" stroke-width="1.2"/>
<line x1="170.0" y1="112.0" x2="170.0" y2="94.0" stroke="#aaa" stroke-width="1.2"/>
<line x1="163.6" y1="109.4" x2="176.4" y2="96.6" stroke="#aaa" stroke-width="1.2"/>
<circle cx="170" cy="103" r="2.0" fill="#aaa"/>

  <rect x="80" y="101" width="46" height="4" rx="2" fill="#888" opacity="0.8"/>
  <line x1="8" y1="112" x2="196" y2="112" stroke="#888" stroke-width="2.5"/>


  <text x="100" y="126" font-family="Arial,sans-serif" font-size="7" fill="#555" text-anchor="middle">JNR C62 · 1949</text>
</svg>