<svg xmlns="http://www.w3.org/2000/svg" viewBox="0 0 200 130" width="200" height="130">

  <rect x="16" y="48" width="152" height="40" rx="8" fill="#1B5E20"/>
  <rect x="22" y="54" width="102" height="26" rx="8" fill="#2E7D32"/>
  <rect x="30" y="14" width="15" height="36" rx="3" fill="#1a1a1a"/>
  <rect x="26" y="10" width="23" height="8" rx="3" fill="#b87333"/>
  <circle cx="20" cy="67" r="18" fill="#1B5E20"/>
  <ellipse cx="92" cy="52" rx="15" ry="10" fill="#1B5E20"/>
  <rect x="24" y="75" width="130" height="7" fill="#CC0000"/>
  <rect x="150" y="43" width="36" height="45" rx="4" fill="#1a4c1a"/>
  <rect x="153" y="47" width="14" height="15" rx="2" fill="#87CEEB" opacity="0.6"/>
  <circle cx="34" cy="103" r="9" fill="#1B5E20" stroke="#b87333" stroke-width="2"/>
<line x1="43.0" y1="103.0" x2="25.0" y2="103.0" stroke="#b87333" stroke-width="1.2"/>
<line x1="40.4" y1="109.4" x2="27.6" y2="96.6" stroke="#b87333" stroke-width="1.2"/>
<line x1="34.0" y1="112.0" x2="34.0" y2="94.0" stroke="#b87333" stroke-width="1.2"/>
<line x1="27.6" y1="109.4" x2="40.4" y2="96.6" stroke="#b87333" stroke-width="1.2"/>
<circle cx="34" cy="103" r="2.0" fill="#b87333"/>

  <circle cx="55" cy="103" r="9" fill="#1B5E20" stroke="#b87333" stroke-width="2"/>
<line x1="64.0" y1="103.0" x2="46.0" y2="103.0" stroke="#b87333" stroke-width="1.2"/>
<line x1="61.4" y1="109.4" x2="48.6" y2="96.6" stroke="#b87333" stroke-width="1.2"/>
<line x1="55.0" y1="112.0" x2="55.0" y2="94.0" stroke="#b87333" stroke-width="1.2"/>
<line x1="48.6" y1="109.4" x2="61.4" y2="96.6" stroke="#b87333" stroke-width="1.2"/>
<circle cx="55" cy="103" r="2.0" fill="#b87333"/>

  <circle cx="82" cy="103" r="14" fill="#1B5E20" stroke="#b87333" stroke-width="2"/>
<line x1="96.0" y1="103.0" x2="68.0" y2="103.0" stroke="#b87333" stroke-width="1.2"/>
<line x1="94.1" y1="110.0" x2="69.9" y2="96.0" stroke="#b87333" stroke-width="1.2"/>
<line x1="89.0" y1="115.1" x2="75.0" y2="90.9" stroke="#b87333" stroke-width="1.2"/>
<line x1="82.0" y1="117.0" x2="82.0" y2="89.0" stroke="#b87333" stroke-width="1.2"/>
<line x1="75.0" y1="115.1" x2="89.0" y2="90.9" stroke="#b87333" stroke-width="1.2"/>
<line x1="69.9" y1="110.0" x2="94.1" y2="96.0" stroke="#b87333" stroke-width="1.2"/>
<circle cx="82" cy="103" r="3.1" fill="#b87333"/>

  <circle cx="106" cy="103" r="14" fill="#1B5E20" stroke="#b87333" stroke-width="2"/>
<line x1="120.0" y1="103.0" x2="92.0" y2="103.0" stroke="#b87333" stroke-width="1.2"/>
<line x1="118.1" y1="110.0" x2="93.9" y2="96.0" stroke="#b87333" stroke-width="1.2"/>
<line x1="113.0" y1="115.1" x2="99.0" y2="90.9" stroke="#b87333" stroke-width="1.2"/>
<line x1="106.0" y1="117.0" x2="106.0" y2="89.0" stroke="#b87333" stroke-width="1.2"/>
<line x1="99.0" y1="115.1" x2="113.0" y2="90.9" stroke="#b87333" stroke-width="1.2"/>
<line x1="93.9" y1="110.0" x2="118.1" y2="96.0" stroke="#b87333" stroke-width="1.2"/>
<circle cx="106" cy="103" r="3.1" fill="#b87333"/>

  <circle cx="130" cy="103" r="14" fill="#1B5E20" stroke="#b87333" stroke-width="2"/>
<line x1="144.0" y1="103.0" x2="116.0" y2="103.0" stroke="#b87333" stroke-width="1.2"/>
<line x1="142.1" y1="110.0" x2="117.9" y2="96.0" stroke="#b87333" stroke-width="1.2"/>
<line x1="137.0" y1="115.1" x2="123.0" y2="90.9" stroke="#b87333" stroke-width="1.2"/>
<line x1="130.0" y1="117.0" x2="130.0" y2="89.0" stroke="#b87333" stroke-width="1.2"/>
<line x1="123.0" y1="115.1" x2="137.0" y2="90.9" stroke="#b87333" stroke-width="1.2"/>
<line x1="117.9" y1="110.0" x2="142.1" y2="96.0" stroke="#b87333" stroke-width="1.2"/>
<circle cx="130" cy="103" r="3.1" fill="#b87333"/>

  <rect x="82" y="101" width="48" height="4" rx="2" fill="#b87333" opacity="0.8"/>
  <line x1="8" y1="112" x2="195" y2="112" stroke="#888" stroke-width="2.5"/>


  <text x="100" y="126" font-family="Arial,sans-serif" font-size="7" fill="#555" text-anchor="middle">King Class GWR · 1927</text>
</svg>