<svg xmlns="http://www.w3.org/2000/svg" viewBox="0 0 205 106" width="205" height="106">
  <path d="M4,54 Q6,40 20,32 L50,26 L195,26 L195,82 L50,82 L20,76 Q6,68 4,54 Z" fill="#1A3A6B"/>
  <path d="M4,54 Q6,42 18,34 L48,28 L48,80 L18,74 Q6,66 4,54 Z" fill="#87CEEB" opacity="0.3"/>
  <path d="M20,48 L48,44 L48,64 L20,60 Z" fill="#87CEEB" opacity="0.65"/>
  <rect x="60" y="32" width="15" height="13" rx="2" fill="#87CEEB" opacity="0.6"/>
  <rect x="82" y="32" width="15" height="13" rx="2" fill="#87CEEB" opacity="0.6"/>
  <rect x="106" y="32" width="15" height="13" rx="2" fill="#87CEEB" opacity="0.6"/>
  <rect x="130" y="32" width="15" height="13" rx="2" fill="#87CEEB" opacity="0.6"/>
  <rect x="154" y="32" width="15" height="13" rx="2" fill="#87CEEB" opacity="0.6"/>
  <path d="M4,56 L195,56" stroke="#87CEEB" stroke-width="3" opacity="0.35"/>
  <line x1="100" y1="26" x2="94"  y2="14" stroke="#87CEEB" stroke-width="1.5"/>
  <line x1="114" y1="26" x2="120" y2="14" stroke="#87CEEB" stroke-width="1.5"/>
  <line x1="86"  y1="14" x2="128" y2="14" stroke="#87CEEB" stroke-width="2.5"/>
  <circle cx="6" cy="54" r="4" fill="#FFE040" opacity="0.9"/>
  <circle cx="52" cy="90" r="11" fill="#081428" stroke="#87CEEB" stroke-width="2.5"/>
  <line x1="63.0" y1="90.0" x2="41.0" y2="90.0" stroke="#87CEEB" stroke-width="1.2"/>
  <line x1="61.5" y1="95.5" x2="42.5" y2="84.5" stroke="#87CEEB" stroke-width="1.2"/>
  <line x1="57.5" y1="99.5" x2="46.5" y2="80.5" stroke="#87CEEB" stroke-width="1.2"/>
  <line x1="52.0" y1="101.0" x2="52.0" y2="79.0" stroke="#87CEEB" stroke-width="1.2"/>
  <line x1="46.5" y1="99.5" x2="57.5" y2="80.5" stroke="#87CEEB" stroke-width="1.2"/>
  <line x1="42.5" y1="95.5" x2="61.5" y2="84.5" stroke="#87CEEB" stroke-width="1.2"/>
  <circle cx="52" cy="90" r="2.4" fill="#87CEEB"/>
  <circle cx="82" cy="90" r="11" fill="#081428" stroke="#87CEEB" stroke-width="2.5"/>
  <line x1="93.0" y1="90.0" x2="71.0" y2="90.0" stroke="#87CEEB" stroke-width="1.2"/>
  <line x1="91.5" y1="95.5" x2="72.5" y2="84.5" stroke="#87CEEB" stroke-width="1.2"/>
  <line x1="87.5" y1="99.5" x2="76.5" y2="80.5" stroke="#87CEEB" stroke-width="1.2"/>
  <line x1="82.0" y1="101.0" x2="82.0" y2="79.0" stroke="#87CEEB" stroke-width="1.2"/>
  <line x1="76.5" y1="99.5" x2="87.5" y2="80.5" stroke="#87CEEB" stroke-width="1.2"/>
  <line x1="72.5" y1="95.5" x2="91.5" y2="84.5" stroke="#87CEEB" stroke-width="1.2"/>
  <circle cx="82" cy="90" r="2.4" fill="#87CEEB"/>
  <circle cx="128" cy="90" r="11" fill="#081428" stroke="#87CEEB" stroke-width="2.5"/>
  <line x1="139.0" y1="90.0" x2="117.0" y2="90.0" stroke="#87CEEB" stroke-width="1.2"/>
  <line x1="137.5" y1="95.5" x2="118.5" y2="84.5" stroke="#87CEEB" stroke-width="1.2"/>
  <line x1="133.5" y1="99.5" x2="122.5" y2="80.5" stroke="#87CEEB" stroke-width="1.2"/>
  <line x1="128.0" y1="101.0" x2="128.0" y2="79.0" stroke="#87CEEB" stroke-width="1.2"/>
  <line x1="122.5" y1="99.5" x2="133.5" y2="80.5" stroke="#87CEEB" stroke-width="1.2"/>
  <line x1="118.5" y1="95.5" x2="137.5" y2="84.5" stroke="#87CEEB" stroke-width="1.2"/>
  <circle cx="128" cy="90" r="2.4" fill="#87CEEB"/>
  <circle cx="162" cy="90" r="11" fill="#081428" stroke="#87CEEB" stroke-width="2.5"/>
  <line x1="173.0" y1="90.0" x2="151.0" y2="90.0" stroke="#87CEEB" stroke-width="1.2"/>
  <line x1="171.5" y1="95.5" x2="152.5" y2="84.5" stroke="#87CEEB" stroke-width="1.2"/>
  <line x1="167.5" y1="99.5" x2="156.5" y2="80.5" stroke="#87CEEB" stroke-width="1.2"/>
  <line x1="162.0" y1="101.0" x2="162.0" y2="79.0" stroke="#87CEEB" stroke-width="1.2"/>
  <line x1="156.5" y1="99.5" x2="167.5" y2="80.5" stroke="#87CEEB" stroke-width="1.2"/>
  <line x1="152.5" y1="95.5" x2="171.5" y2="84.5" stroke="#87CEEB" stroke-width="1.2"/>
  <circle cx="162" cy="90" r="2.4" fill="#87CEEB"/>

  <text x="102" y="102" font-family="Arial,sans-serif" font-size="7" fill="#666" text-anchor="middle">KTX-Sancheon · 2010</text>
</svg>