<svg xmlns="http://www.w3.org/2000/svg" viewBox="0 0 215 100">
  <defs>
    <linearGradient id="ktxG" x1="0" y1="0" x2="0" y2="1">
      <stop offset="0%" stop-color="#D0D8E8"/>
      <stop offset="100%" stop-color="#A0B0C8"/>
    </linearGradient>
  </defs>
  <!-- body -->
  <path d="M4,52 Q8,36 22,30 L56,24 L206,24 L206,78 L56,78 L22,72 Q8,66 4,52Z" fill="url(#ktxG)"/>
  <!-- blue nose section (duck bill) -->
  <path d="M4,52 Q8,38 20,32 L54,26 L54,78 L20,70 Q8,66 4,52Z" fill="#1A3A8A" opacity=".85"/>
  <!-- duck-bill window (wide panoramic) -->
  <path d="M8,44 Q10,36 22,32 L52,28 L52,46 Q34,44 8,44Z" fill="#87CEEB" opacity=".7"/>
  <!-- blue lower stripe -->
  <path d="M4,52 Q8,56 22,60 L206,60 L206,78 L56,78 L22,72 Q8,66 4,52Z" fill="#1A3A8A" opacity=".4"/>
  <!-- windows -->
  <rect x="62"  y="28" width="14" height="12" rx="2" fill="#87CEEB" opacity=".65"/>
  <rect x="82"  y="28" width="14" height="12" rx="2" fill="#87CEEB" opacity=".65"/>
  <rect x="102" y="28" width="14" height="12" rx="2" fill="#87CEEB" opacity=".65"/>
  <rect x="122" y="28" width="14" height="12" rx="2" fill="#87CEEB" opacity=".65"/>
  <rect x="142" y="28" width="14" height="12" rx="2" fill="#87CEEB" opacity=".65"/>
  <rect x="162" y="28" width="14" height="12" rx="2" fill="#87CEEB" opacity=".65"/>
  <rect x="184" y="28" width="14" height="12" rx="2" fill="#87CEEB" opacity=".6"/>
  <!-- pantograph -->
  <line x1="114" y1="24" x2="109" y2="12" stroke="#aaa" stroke-width="1.5"/>
  <line x1="126" y1="24" x2="131" y2="12" stroke="#aaa" stroke-width="1.5"/>
  <line x1="102" y1="12" x2="138" y2="12" stroke="#aaa" stroke-width="2"/>
  <circle cx="6" cy="52" r="3" fill="#FFE040" opacity=".9"/>
  <!-- wheels -->
  <circle cx="70"  cy="88" r="10" fill="#8090A8" stroke="#666" stroke-width="2"/>
  <circle cx="100" cy="88" r="10" fill="#8090A8" stroke="#666" stroke-width="2"/>
  <circle cx="148" cy="88" r="10" fill="#8090A8" stroke="#666" stroke-width="2"/>
  <circle cx="178" cy="88" r="10" fill="#8090A8" stroke="#666" stroke-width="2"/>
  <text x="108" y="100" font-family="Arial" font-size="7" fill="#888" text-anchor="middle">KTX-I · Korea · 2004 · 305 km/h</text>
</svg>