<svg xmlns="http://www.w3.org/2000/svg" viewBox="0 0 200 130" width="200" height="130">

  <!-- KTX-II Sancheon: improved Korean design, different nose from KTX-I -->
  <path d="M8,68 Q22,44 50,36 L185,36 L188,68 L185,100 L50,100 Q22,92 8,68 Z" fill="#1a4a9c"/>
  <!-- silver nose different from KTX-I -->
  <path d="M8,68 Q20,52 44,42 L50,42 L50,36 Q28,44 14,62 Z" fill="#C0C0C0"/>
  <path d="M8,68 Q20,84 44,94 L50,94 L50,100 Q28,92 14,74 Z" fill="#C0C0C0"/>
  <!-- different stripe: silver center instead of bottom -->
  <rect x="50" y="58" width="138" height="22" fill="#C0C0C0"/>
  <path d="M8,68 Q14,62 28,58 L50,58 L50,80 L28,78 Q14,74 8,68 Z" fill="#C0C0C0"/>
  <!-- red accent KTX-II -->
  <rect x="50" y="56" width="138" height="5" fill="#CC0000"/>
  <rect x="50" y="79" width="138" height="5" fill="#CC0000"/>
  <rect x="30" y="44" width="22" height="16" rx="2" fill="#87CEEB" opacity="0.7"/>
  <circle cx="11" cy="68" r="5" fill="#FFE040" opacity="0.9"/>
  <circle cx="42" cy="108" r="9" fill="#1a4a9c" stroke="#C0C0C0" stroke-width="2"/>
<line x1="51.0" y1="108.0" x2="33.0" y2="108.0" stroke="#C0C0C0" stroke-width="1.2"/>
<line x1="48.4" y1="114.4" x2="35.6" y2="101.6" stroke="#C0C0C0" stroke-width="1.2"/>
<line x1="42.0" y1="117.0" x2="42.0" y2="99.0" stroke="#C0C0C0" stroke-width="1.2"/>
<line x1="35.6" y1="114.4" x2="48.4" y2="101.6" stroke="#C0C0C0" stroke-width="1.2"/>
<circle cx="42" cy="108" r="2.0" fill="#C0C0C0"/>

  <circle cx="66" cy="108" r="9" fill="#1a4a9c" stroke="#C0C0C0" stroke-width="2"/>
<line x1="75.0" y1="108.0" x2="57.0" y2="108.0" stroke="#C0C0C0" stroke-width="1.2"/>
<line x1="72.4" y1="114.4" x2="59.6" y2="101.6" stroke="#C0C0C0" stroke-width="1.2"/>
<line x1="66.0" y1="117.0" x2="66.0" y2="99.0" stroke="#C0C0C0" stroke-width="1.2"/>
<line x1="59.6" y1="114.4" x2="72.4" y2="101.6" stroke="#C0C0C0" stroke-width="1.2"/>
<circle cx="66" cy="108" r="2.0" fill="#C0C0C0"/>

  <circle cx="112" cy="108" r="9" fill="#1a4a9c" stroke="#C0C0C0" stroke-width="2"/>
<line x1="121.0" y1="108.0" x2="103.0" y2="108.0" stroke="#C0C0C0" stroke-width="1.2"/>
<line x1="118.4" y1="114.4" x2="105.6" y2="101.6" stroke="#C0C0C0" stroke-width="1.2"/>
<line x1="112.0" y1="117.0" x2="112.0" y2="99.0" stroke="#C0C0C0" stroke-width="1.2"/>
<line x1="105.6" y1="114.4" x2="118.4" y2="101.6" stroke="#C0C0C0" stroke-width="1.2"/>
<circle cx="112" cy="108" r="2.0" fill="#C0C0C0"/>

  <circle cx="152" cy="108" r="9" fill="#1a4a9c" stroke="#C0C0C0" stroke-width="2"/>
<line x1="161.0" y1="108.0" x2="143.0" y2="108.0" stroke="#C0C0C0" stroke-width="1.2"/>
<line x1="158.4" y1="114.4" x2="145.6" y2="101.6" stroke="#C0C0C0" stroke-width="1.2"/>
<line x1="152.0" y1="117.0" x2="152.0" y2="99.0" stroke="#C0C0C0" stroke-width="1.2"/>
<line x1="145.6" y1="114.4" x2="158.4" y2="101.6" stroke="#C0C0C0" stroke-width="1.2"/>
<circle cx="152" cy="108" r="2.0" fill="#C0C0C0"/>

  <circle cx="176" cy="108" r="9" fill="#1a4a9c" stroke="#C0C0C0" stroke-width="2"/>
<line x1="185.0" y1="108.0" x2="167.0" y2="108.0" stroke="#C0C0C0" stroke-width="1.2"/>
<line x1="182.4" y1="114.4" x2="169.6" y2="101.6" stroke="#C0C0C0" stroke-width="1.2"/>
<line x1="176.0" y1="117.0" x2="176.0" y2="99.0" stroke="#C0C0C0" stroke-width="1.2"/>
<line x1="169.6" y1="114.4" x2="182.4" y2="101.6" stroke="#C0C0C0" stroke-width="1.2"/>
<circle cx="176" cy="108" r="2.0" fill="#C0C0C0"/>

  <line x1="5" y1="112" x2="198" y2="112" stroke="#888" stroke-width="2.5"/>


  <text x="100" y="126" font-family="Arial,sans-serif" font-size="7" fill="#555" text-anchor="middle">KTX Sancheon · 2010</text>
</svg>