<svg xmlns="http://www.w3.org/2000/svg" viewBox="0 0 200 130" width="200" height="130">

  <!-- Linimo: shorter, lower profile urban maglev, white/blue -->
  <!-- shorter and lower than other HSR - urban HSST -->
  <path d="M10,72 Q22,54 42,48 L175,48 L178,72 L175,96 L42,96 Q22,90 10,72 Z" fill="#F8F8F8"/>
  <!-- blue band Linimo -->
  <rect x="42" y="64" width="136" height="18" fill="#003082"/>
  <path d="M10,72 Q16,66 28,64 L42,64 L42,82 L28,80 Q16,78 10,72 Z" fill="#003082"/>
  <!-- Japanese urban maglev low profile -->
  <!-- maglev guide channel below -->
  <rect x="42" y="96" width="136" height="5" rx="1" fill="#1a64cc"/>
  <rect x="10" y="96" width="34" height="5" rx="1" fill="#1a64cc"/>
  <!-- smaller windows urban scale -->
  <rect x="18" y="56" width="20" height="12" rx="2" fill="#87CEEB" opacity="0.7"/>
  <rect x="50" y="54" width="12" height="14" rx="1" fill="#87CEEB" opacity="0.6"/>
  <rect x="68" y="54" width="12" height="14" rx="1" fill="#87CEEB" opacity="0.6"/>
  <rect x="86" y="54" width="12" height="14" rx="1" fill="#87CEEB" opacity="0.6"/>
  <circle cx="13" cy="72" r="5" fill="#FFE040" opacity="0.9"/>
  <!-- no wheels - urban maglev -->
  <line x1="5" y1="112" x2="198" y2="112" stroke="#888" stroke-width="2.5"/>


  <text x="100" y="126" font-family="Arial,sans-serif" font-size="7" fill="#555" text-anchor="middle">Linimo Aichi HSST · 2005</text>
</svg>