<svg xmlns="http://www.w3.org/2000/svg" viewBox="0 0 160 120">
  <!-- vertical boiler (tall cylinder) -->
  <rect x="52" y="20" width="28" height="58" rx="6" fill="#4A2F1A"/>
  <ellipse cx="66" cy="20" rx="14" ry="7" fill="#5A3A20"/>
  <!-- chimney on top -->
  <rect x="60" y="4" width="12" height="18" rx="3" fill="#333"/>
  <rect x="57" y="2" width="18" height="5" rx="2" fill="#222"/>
  <ellipse cx="66" cy="3" rx="9" ry="4" fill="#999" opacity=".5"/>
  <!-- crossbeam / walking beam on top -->
  <rect x="30" y="30" width="90" height="8" rx="3" fill="#3A2010"/>
  <rect x="28" y="24" width="6" height="16" rx="2" fill="#2A1808"/>
  <rect x="116" y="24" width="6" height="16" rx="2" fill="#2A1808"/>
  <!-- connecting rods visible -->
  <line x1="34" y1="38" x2="40"  y2="75" stroke="#5A3010" stroke-width="3"/>
  <line x1="120" y1="38" x2="114" y2="75" stroke="#5A3010" stroke-width="3"/>
  <!-- frame -->
  <rect x="12" y="70" width="136" height="10" rx="3" fill="#2A1808"/>
  <!-- 4 equal wheels -->
  <circle cx="32"  cy="90" r="16" fill="#1A0A00" stroke="#7A5030" stroke-width="3"/>
  <circle cx="68"  cy="90" r="16" fill="#1A0A00" stroke="#7A5030" stroke-width="3"/>
  <circle cx="104" cy="90" r="16" fill="#1A0A00" stroke="#7A5030" stroke-width="3"/>
  <circle cx="140" cy="90" r="16" fill="#1A0A00" stroke="#7A5030" stroke-width="3"/>
  <circle cx="32"  cy="90" r="4"  fill="#7A5030"/>
  <circle cx="68"  cy="90" r="4"  fill="#7A5030"/>
  <circle cx="104" cy="90" r="4"  fill="#7A5030"/>
  <circle cx="140" cy="90" r="4"  fill="#7A5030"/>
  <text x="80" y="116" font-family="Arial" font-size="7" fill="#888" text-anchor="middle">Locomotion No.1 · 1825</text>
</svg>