<svg xmlns="http://www.w3.org/2000/svg" viewBox="0 0 210 110">
  <defs>
    <linearGradient id="mallG" x1="0" y1="0" x2="0" y2="1">
      <stop offset="0%" stop-color="#5599DD"/>
      <stop offset="55%" stop-color="#1A4A8A"/>
      <stop offset="100%" stop-color="#0A2A5A"/>
    </linearGradient>
  </defs>
  <!-- full streamlined shroud — teardrop bullet -->
  <path d="M4,54 Q10,28 36,24 L196,24 L196,78 Q196,84 190,86 L36,86 Q12,82 4,54Z" fill="url(#mallG)"/>
  <!-- Art Deco stripe -->
  <path d="M4,54 Q10,50 196,48 L196,56 Q10,62 4,54Z" fill="#FFD700" opacity=".55"/>
  <!-- chimney slot (recessed into shroud) -->
  <rect x="44" y="20" width="10" height="6" rx="2" fill="#0A1A3A"/>
  <!-- windows -->
  <rect x="58"  y="30" width="16" height="14" rx="2" fill="#87CEEB" opacity=".65"/>
  <rect x="80"  y="30" width="16" height="14" rx="2" fill="#87CEEB" opacity=".65"/>
  <rect x="102" y="30" width="16" height="14" rx="2" fill="#87CEEB" stroke="#FFD700" stroke-width=".8" opacity=".7"/>
  <rect x="124" y="30" width="16" height="14" rx="2" fill="#87CEEB" opacity=".65"/>
  <rect x="146" y="30" width="16" height="14" rx="2" fill="#87CEEB" opacity=".65"/>
  <rect x="168" y="30" width="16" height="14" rx="2" fill="#87CEEB" opacity=".65"/>
  <!-- LNER badge on nose -->
  <circle cx="16" cy="54" r="8" fill="#0A2A5A" stroke="#FFD700" stroke-width="1.5"/>
  <text x="16" y="57" font-family="Arial" font-size="5" font-weight="bold" fill="#FFD700" text-anchor="middle">LNER</text>
  <!-- headlamp in shroud -->
  <ellipse cx="5" cy="54" rx="4" ry="5" fill="#FFD700" opacity=".85"/>
  <!-- skirt hides wheels but show slight humps -->
  <rect x="40" y="78" width="148" height="8" rx="2" fill="#0A2A5A"/>
  <!-- wheel humps visible below skirt -->
  <ellipse cx="66"  cy="86" rx="16" ry="6" fill="#0A2050"/>
  <ellipse cx="102" cy="86" rx="16" ry="6" fill="#0A2050"/>
  <ellipse cx="138" cy="86" rx="16" ry="6" fill="#0A2050"/>
  <!-- speed record text -->
  <text x="105" y="105" font-family="Arial" font-size="7" fill="#888" text-anchor="middle">Mallard LNER A4 · 203 km/h · 1938</text>
</svg>