<svg xmlns="http://www.w3.org/2000/svg" viewBox="0 0 200 130" width="200" height="130">

  <rect x="18" y="52" width="148" height="34" rx="7" fill="#111"/>
  <rect x="24" y="58" width="100" height="22" rx="7" fill="#1e1e1e"/>
  <rect x="152" y="44" width="36" height="42" rx="4" fill="#0d0d0d"/>
  <rect x="155" y="48" width="14" height="14" rx="2" fill="#87CEEB" opacity="0.6"/>
  <rect x="30" y="18" width="13" height="36" rx="3" fill="#0d0d0d"/>
  <rect x="26" y="14" width="21" height="8" rx="2" fill="#222"/>
  <circle cx="22" cy="67" r="16" fill="#0d0d0d"/>
  <ellipse cx="110" cy="54" rx="13" ry="9" fill="#0d0d0d"/>
  <!-- 1 pony + 4 drivers + 1 trailing = 2-8-2 -->
  <circle cx="36" cy="101" r="7" fill="#111" stroke="#666" stroke-width="2"/>
<line x1="43.0" y1="101.0" x2="29.0" y2="101.0" stroke="#666" stroke-width="1.2"/>
<line x1="40.9" y1="105.9" x2="31.1" y2="96.1" stroke="#666" stroke-width="1.2"/>
<line x1="36.0" y1="108.0" x2="36.0" y2="94.0" stroke="#666" stroke-width="1.2"/>
<line x1="31.1" y1="105.9" x2="40.9" y2="96.1" stroke="#666" stroke-width="1.2"/>
<circle cx="36" cy="101" r="1.5" fill="#666"/>

  <circle cx="62" cy="101" r="12" fill="#111" stroke="#666" stroke-width="2"/>
<line x1="74.0" y1="101.0" x2="50.0" y2="101.0" stroke="#666" stroke-width="1.2"/>
<line x1="72.4" y1="107.0" x2="51.6" y2="95.0" stroke="#666" stroke-width="1.2"/>
<line x1="68.0" y1="111.4" x2="56.0" y2="90.6" stroke="#666" stroke-width="1.2"/>
<line x1="62.0" y1="113.0" x2="62.0" y2="89.0" stroke="#666" stroke-width="1.2"/>
<line x1="56.0" y1="111.4" x2="68.0" y2="90.6" stroke="#666" stroke-width="1.2"/>
<line x1="51.6" y1="107.0" x2="72.4" y2="95.0" stroke="#666" stroke-width="1.2"/>
<circle cx="62" cy="101" r="2.6" fill="#666"/>

  <circle cx="84" cy="101" r="12" fill="#111" stroke="#666" stroke-width="2"/>
<line x1="96.0" y1="101.0" x2="72.0" y2="101.0" stroke="#666" stroke-width="1.2"/>
<line x1="94.4" y1="107.0" x2="73.6" y2="95.0" stroke="#666" stroke-width="1.2"/>
<line x1="90.0" y1="111.4" x2="78.0" y2="90.6" stroke="#666" stroke-width="1.2"/>
<line x1="84.0" y1="113.0" x2="84.0" y2="89.0" stroke="#666" stroke-width="1.2"/>
<line x1="78.0" y1="111.4" x2="90.0" y2="90.6" stroke="#666" stroke-width="1.2"/>
<line x1="73.6" y1="107.0" x2="94.4" y2="95.0" stroke="#666" stroke-width="1.2"/>
<circle cx="84" cy="101" r="2.6" fill="#666"/>

  <circle cx="106" cy="101" r="12" fill="#111" stroke="#666" stroke-width="2"/>
<line x1="118.0" y1="101.0" x2="94.0" y2="101.0" stroke="#666" stroke-width="1.2"/>
<line x1="116.4" y1="107.0" x2="95.6" y2="95.0" stroke="#666" stroke-width="1.2"/>
<line x1="112.0" y1="111.4" x2="100.0" y2="90.6" stroke="#666" stroke-width="1.2"/>
<line x1="106.0" y1="113.0" x2="106.0" y2="89.0" stroke="#666" stroke-width="1.2"/>
<line x1="100.0" y1="111.4" x2="112.0" y2="90.6" stroke="#666" stroke-width="1.2"/>
<line x1="95.6" y1="107.0" x2="116.4" y2="95.0" stroke="#666" stroke-width="1.2"/>
<circle cx="106" cy="101" r="2.6" fill="#666"/>

  <circle cx="128" cy="101" r="12" fill="#111" stroke="#666" stroke-width="2"/>
<line x1="140.0" y1="101.0" x2="116.0" y2="101.0" stroke="#666" stroke-width="1.2"/>
<line x1="138.4" y1="107.0" x2="117.6" y2="95.0" stroke="#666" stroke-width="1.2"/>
<line x1="134.0" y1="111.4" x2="122.0" y2="90.6" stroke="#666" stroke-width="1.2"/>
<line x1="128.0" y1="113.0" x2="128.0" y2="89.0" stroke="#666" stroke-width="1.2"/>
<line x1="122.0" y1="111.4" x2="134.0" y2="90.6" stroke="#666" stroke-width="1.2"/>
<line x1="117.6" y1="107.0" x2="138.4" y2="95.0" stroke="#666" stroke-width="1.2"/>
<circle cx="128" cy="101" r="2.6" fill="#666"/>

  <circle cx="155" cy="101" r="8" fill="#111" stroke="#666" stroke-width="2"/>
<line x1="163.0" y1="101.0" x2="147.0" y2="101.0" stroke="#666" stroke-width="1.2"/>
<line x1="160.7" y1="106.7" x2="149.3" y2="95.3" stroke="#666" stroke-width="1.2"/>
<line x1="155.0" y1="109.0" x2="155.0" y2="93.0" stroke="#666" stroke-width="1.2"/>
<line x1="149.3" y1="106.7" x2="160.7" y2="95.3" stroke="#666" stroke-width="1.2"/>
<circle cx="155" cy="101" r="1.8" fill="#666"/>

  <rect x="62" y="99" width="66" height="4" rx="2" fill="#555" opacity="0.8"/>
  <line x1="10" y1="112" x2="192" y2="112" stroke="#888" stroke-width="2.5"/>


  <text x="100" y="126" font-family="Arial,sans-serif" font-size="7" fill="#555" text-anchor="middle">Mikado 2-8-2 · 1897</text>
</svg>