<svg xmlns="http://www.w3.org/2000/svg" viewBox="0 0 200 130" width="200" height="130">

  <!-- boiler -->
  <rect x="30" y="52" width="115" height="34" rx="8" fill="#1a1a1a"/>
  <rect x="35" y="58" width="80" height="22" rx="7" fill="#2a2a2a"/>
  <!-- cab -->
  <rect x="130" y="44" width="38" height="42" rx="4" fill="#1a1a1a"/>
  <rect x="133" y="48" width="16" height="14" rx="2" fill="#87CEEB" opacity="0.6"/>
  <!-- chimney -->
  <rect x="42" y="22" width="14" height="32" rx="4" fill="#111"/>
  <rect x="38" y="18" width="22" height="8" rx="3" fill="#333"/>
  <!-- smoke box -->
  <circle cx="37" cy="66" r="15" fill="#111"/>
  <!-- dome + sandbox -->
  <ellipse cx="95" cy="54" rx="14" ry="9" fill="#1a1a1a"/>
  <ellipse cx="115" cy="57" rx="10" ry="7" fill="#1a1a1a"/>
  <!-- 1 small pony + 3 large drivers, 2-6-0 -->
  <circle cx="48" cy="103" r="7" fill="#111" stroke="#777" stroke-width="2"/>
<line x1="55.0" y1="103.0" x2="41.0" y2="103.0" stroke="#777" stroke-width="1.2"/>
<line x1="52.9" y1="107.9" x2="43.1" y2="98.1" stroke="#777" stroke-width="1.2"/>
<line x1="48.0" y1="110.0" x2="48.0" y2="96.0" stroke="#777" stroke-width="1.2"/>
<line x1="43.1" y1="107.9" x2="52.9" y2="98.1" stroke="#777" stroke-width="1.2"/>
<circle cx="48" cy="103" r="1.5" fill="#777"/>

  <circle cx="75" cy="103" r="12" fill="#111" stroke="#777" stroke-width="2"/>
<line x1="87.0" y1="103.0" x2="63.0" y2="103.0" stroke="#777" stroke-width="1.2"/>
<line x1="85.4" y1="109.0" x2="64.6" y2="97.0" stroke="#777" stroke-width="1.2"/>
<line x1="81.0" y1="113.4" x2="69.0" y2="92.6" stroke="#777" stroke-width="1.2"/>
<line x1="75.0" y1="115.0" x2="75.0" y2="91.0" stroke="#777" stroke-width="1.2"/>
<line x1="69.0" y1="113.4" x2="81.0" y2="92.6" stroke="#777" stroke-width="1.2"/>
<line x1="64.6" y1="109.0" x2="85.4" y2="97.0" stroke="#777" stroke-width="1.2"/>
<circle cx="75" cy="103" r="2.6" fill="#777"/>

  <circle cx="100" cy="103" r="12" fill="#111" stroke="#777" stroke-width="2"/>
<line x1="112.0" y1="103.0" x2="88.0" y2="103.0" stroke="#777" stroke-width="1.2"/>
<line x1="110.4" y1="109.0" x2="89.6" y2="97.0" stroke="#777" stroke-width="1.2"/>
<line x1="106.0" y1="113.4" x2="94.0" y2="92.6" stroke="#777" stroke-width="1.2"/>
<line x1="100.0" y1="115.0" x2="100.0" y2="91.0" stroke="#777" stroke-width="1.2"/>
<line x1="94.0" y1="113.4" x2="106.0" y2="92.6" stroke="#777" stroke-width="1.2"/>
<line x1="89.6" y1="109.0" x2="110.4" y2="97.0" stroke="#777" stroke-width="1.2"/>
<circle cx="100" cy="103" r="2.6" fill="#777"/>

  <circle cx="125" cy="103" r="12" fill="#111" stroke="#777" stroke-width="2"/>
<line x1="137.0" y1="103.0" x2="113.0" y2="103.0" stroke="#777" stroke-width="1.2"/>
<line x1="135.4" y1="109.0" x2="114.6" y2="97.0" stroke="#777" stroke-width="1.2"/>
<line x1="131.0" y1="113.4" x2="119.0" y2="92.6" stroke="#777" stroke-width="1.2"/>
<line x1="125.0" y1="115.0" x2="125.0" y2="91.0" stroke="#777" stroke-width="1.2"/>
<line x1="119.0" y1="113.4" x2="131.0" y2="92.6" stroke="#777" stroke-width="1.2"/>
<line x1="114.6" y1="109.0" x2="135.4" y2="97.0" stroke="#777" stroke-width="1.2"/>
<circle cx="125" cy="103" r="2.6" fill="#777"/>

  <!-- coupling rod on drivers -->
  <rect x="75" y="101" width="50" height="4" rx="2" fill="#666" opacity="0.8"/>
  <!-- steam pipes -->
  <line x1="50" y2="65" x1="50" x2="75" y2="65" stroke="#555" stroke-width="3"/>
  <line x1="20" y1="112" x2="185" y2="112" stroke="#888" stroke-width="2.5"/>


  <text x="100" y="126" font-family="Arial,sans-serif" font-size="7" fill="#555" text-anchor="middle">Mogul 2-6-0 · 1860</text>
</svg>