<svg xmlns="http://www.w3.org/2000/svg" viewBox="0 0 200 130" width="200" height="130">

  <!-- Moscow Metro: Soviet RED, ornate panels, boxy elegant -->
  <rect x="8" y="44" width="180" height="62" rx="4" fill="#CC0000"/>
  <!-- Soviet ornate panel lines -->
  <rect x="8" y="52" width="180" height="4" fill="#AA0000"/>
  <rect x="8" y="92" width="180" height="4" fill="#AA0000"/>
  <!-- cream stripe -->
  <rect x="8" y="64" width="180" height="16" fill="#F5F5DC"/>
  <!-- ornate front face -->
  <rect x="8" y="44" width="42" height="62" rx="4" fill="#AA0000"/>
  <rect x="14" y="50" width="22" height="14" rx="2" fill="#87CEEB" opacity="0.7"/>
  <!-- Soviet star emblem -->
  <polygon points="28,80 30,74 32,80 38,80 33,84 35,90 28,86 21,90 23,84 18,80" fill="#FFD700" opacity="0.9"/>
  <!-- windows -->
  <rect x="56" y="52" width="16" height="10" rx="1" fill="#87CEEB" opacity="0.6"/>
  <rect x="80" y="52" width="16" height="10" rx="1" fill="#87CEEB" opacity="0.6"/>
  <rect x="104" y="52" width="16" height="10" rx="1" fill="#87CEEB" opacity="0.6"/>
  <rect x="128" y="52" width="16" height="10" rx="1" fill="#87CEEB" opacity="0.6"/>
  <rect x="155" y="52" width="16" height="10" rx="1" fill="#87CEEB" opacity="0.6"/>
  <circle cx="22" cy="114" r="8" fill="#880000" stroke="#FFD700" stroke-width="2"/>
<line x1="30.0" y1="114.0" x2="14.0" y2="114.0" stroke="#FFD700" stroke-width="1.2"/>
<line x1="27.7" y1="119.7" x2="16.3" y2="108.3" stroke="#FFD700" stroke-width="1.2"/>
<line x1="22.0" y1="122.0" x2="22.0" y2="106.0" stroke="#FFD700" stroke-width="1.2"/>
<line x1="16.3" y1="119.7" x2="27.7" y2="108.3" stroke="#FFD700" stroke-width="1.2"/>
<circle cx="22" cy="114" r="1.8" fill="#FFD700"/>

  <circle cx="50" cy="114" r="8" fill="#880000" stroke="#FFD700" stroke-width="2"/>
<line x1="58.0" y1="114.0" x2="42.0" y2="114.0" stroke="#FFD700" stroke-width="1.2"/>
<line x1="55.7" y1="119.7" x2="44.3" y2="108.3" stroke="#FFD700" stroke-width="1.2"/>
<line x1="50.0" y1="122.0" x2="50.0" y2="106.0" stroke="#FFD700" stroke-width="1.2"/>
<line x1="44.3" y1="119.7" x2="55.7" y2="108.3" stroke="#FFD700" stroke-width="1.2"/>
<circle cx="50" cy="114" r="1.8" fill="#FFD700"/>

  <circle cx="90" cy="114" r="8" fill="#880000" stroke="#FFD700" stroke-width="2"/>
<line x1="98.0" y1="114.0" x2="82.0" y2="114.0" stroke="#FFD700" stroke-width="1.2"/>
<line x1="95.7" y1="119.7" x2="84.3" y2="108.3" stroke="#FFD700" stroke-width="1.2"/>
<line x1="90.0" y1="122.0" x2="90.0" y2="106.0" stroke="#FFD700" stroke-width="1.2"/>
<line x1="84.3" y1="119.7" x2="95.7" y2="108.3" stroke="#FFD700" stroke-width="1.2"/>
<circle cx="90" cy="114" r="1.8" fill="#FFD700"/>

  <circle cx="120" cy="114" r="8" fill="#880000" stroke="#FFD700" stroke-width="2"/>
<line x1="128.0" y1="114.0" x2="112.0" y2="114.0" stroke="#FFD700" stroke-width="1.2"/>
<line x1="125.7" y1="119.7" x2="114.3" y2="108.3" stroke="#FFD700" stroke-width="1.2"/>
<line x1="120.0" y1="122.0" x2="120.0" y2="106.0" stroke="#FFD700" stroke-width="1.2"/>
<line x1="114.3" y1="119.7" x2="125.7" y2="108.3" stroke="#FFD700" stroke-width="1.2"/>
<circle cx="120" cy="114" r="1.8" fill="#FFD700"/>

  <circle cx="158" cy="114" r="8" fill="#880000" stroke="#FFD700" stroke-width="2"/>
<line x1="166.0" y1="114.0" x2="150.0" y2="114.0" stroke="#FFD700" stroke-width="1.2"/>
<line x1="163.7" y1="119.7" x2="152.3" y2="108.3" stroke="#FFD700" stroke-width="1.2"/>
<line x1="158.0" y1="122.0" x2="158.0" y2="106.0" stroke="#FFD700" stroke-width="1.2"/>
<line x1="152.3" y1="119.7" x2="163.7" y2="108.3" stroke="#FFD700" stroke-width="1.2"/>
<circle cx="158" cy="114" r="1.8" fill="#FFD700"/>

  <line x1="5" y1="112" x2="198" y2="112" stroke="#888" stroke-width="2.5"/>


  <text x="100" y="126" font-family="Arial,sans-serif" font-size="7" fill="#555" text-anchor="middle">Moscow Metro · 1935</text>
</svg>