<svg xmlns="http://www.w3.org/2000/svg" viewBox="0 0 200 130" width="200" height="130">

  <!-- Singapore MRT C151: red/white -->
  <rect x="8" y="44" width="180" height="62" rx="5" fill="#CC0000"/>
  <!-- white body panels -->
  <rect x="8" y="54" width="180" height="32" rx="0" fill="#fff"/>
  <!-- red stripe restored at top/bottom -->
  <rect x="8" y="82" width="180" height="10" fill="#CC0000"/>
  <!-- windows wide -->
  <rect x="14" y="58" width="24" height="22" rx="2" fill="#87CEEB" opacity="0.7"/>
  <rect x="48" y="58" width="20" height="22" rx="2" fill="#87CEEB" opacity="0.7"/>
  <rect x="82" y="58" width="20" height="22" rx="2" fill="#87CEEB" opacity="0.7"/>
  <rect x="116" y="58" width="20" height="22" rx="2" fill="#87CEEB" opacity="0.7"/>
  <rect x="150" y="58" width="20" height="22" rx="2" fill="#87CEEB" opacity="0.7"/>
  <!-- SMRT lettering band -->
  <rect x="8" y="92" width="180" height="6" fill="#CC0000"/>
  <circle cx="22" cy="114" r="8" fill="#ddd" stroke="#CC0000" stroke-width="2"/>
<line x1="30.0" y1="114.0" x2="14.0" y2="114.0" stroke="#CC0000" stroke-width="1.2"/>
<line x1="27.7" y1="119.7" x2="16.3" y2="108.3" stroke="#CC0000" stroke-width="1.2"/>
<line x1="22.0" y1="122.0" x2="22.0" y2="106.0" stroke="#CC0000" stroke-width="1.2"/>
<line x1="16.3" y1="119.7" x2="27.7" y2="108.3" stroke="#CC0000" stroke-width="1.2"/>
<circle cx="22" cy="114" r="1.8" fill="#CC0000"/>

  <circle cx="50" cy="114" r="8" fill="#ddd" stroke="#CC0000" stroke-width="2"/>
<line x1="58.0" y1="114.0" x2="42.0" y2="114.0" stroke="#CC0000" stroke-width="1.2"/>
<line x1="55.7" y1="119.7" x2="44.3" y2="108.3" stroke="#CC0000" stroke-width="1.2"/>
<line x1="50.0" y1="122.0" x2="50.0" y2="106.0" stroke="#CC0000" stroke-width="1.2"/>
<line x1="44.3" y1="119.7" x2="55.7" y2="108.3" stroke="#CC0000" stroke-width="1.2"/>
<circle cx="50" cy="114" r="1.8" fill="#CC0000"/>

  <circle cx="90" cy="114" r="8" fill="#ddd" stroke="#CC0000" stroke-width="2"/>
<line x1="98.0" y1="114.0" x2="82.0" y2="114.0" stroke="#CC0000" stroke-width="1.2"/>
<line x1="95.7" y1="119.7" x2="84.3" y2="108.3" stroke="#CC0000" stroke-width="1.2"/>
<line x1="90.0" y1="122.0" x2="90.0" y2="106.0" stroke="#CC0000" stroke-width="1.2"/>
<line x1="84.3" y1="119.7" x2="95.7" y2="108.3" stroke="#CC0000" stroke-width="1.2"/>
<circle cx="90" cy="114" r="1.8" fill="#CC0000"/>

  <circle cx="124" cy="114" r="8" fill="#ddd" stroke="#CC0000" stroke-width="2"/>
<line x1="132.0" y1="114.0" x2="116.0" y2="114.0" stroke="#CC0000" stroke-width="1.2"/>
<line x1="129.7" y1="119.7" x2="118.3" y2="108.3" stroke="#CC0000" stroke-width="1.2"/>
<line x1="124.0" y1="122.0" x2="124.0" y2="106.0" stroke="#CC0000" stroke-width="1.2"/>
<line x1="118.3" y1="119.7" x2="129.7" y2="108.3" stroke="#CC0000" stroke-width="1.2"/>
<circle cx="124" cy="114" r="1.8" fill="#CC0000"/>

  <circle cx="158" cy="114" r="8" fill="#ddd" stroke="#CC0000" stroke-width="2"/>
<line x1="166.0" y1="114.0" x2="150.0" y2="114.0" stroke="#CC0000" stroke-width="1.2"/>
<line x1="163.7" y1="119.7" x2="152.3" y2="108.3" stroke="#CC0000" stroke-width="1.2"/>
<line x1="158.0" y1="122.0" x2="158.0" y2="106.0" stroke="#CC0000" stroke-width="1.2"/>
<line x1="152.3" y1="119.7" x2="163.7" y2="108.3" stroke="#CC0000" stroke-width="1.2"/>
<circle cx="158" cy="114" r="1.8" fill="#CC0000"/>

  <line x1="5" y1="112" x2="198" y2="112" stroke="#888" stroke-width="2.5"/>


  <text x="100" y="126" font-family="Arial,sans-serif" font-size="7" fill="#555" text-anchor="middle">MRT Singapore C151 · 1987</text>
</svg>