<svg xmlns="http://www.w3.org/2000/svg" viewBox="0 0 215 110">
  <!-- body — modern wide commuter -->
  <rect x="4" y="18" width="208" height="72" rx="8" fill="#E8E8E8"/>
  <!-- red upper band -->
  <rect x="4" y="18" width="208" height="22" rx="7" fill="#CC1414"/>
  <!-- red sides lower -->
  <rect x="4" y="30" width="12" height="52" rx="3" fill="#CC1414"/>
  <rect x="200" y="30" width="12" height="52" rx="3" fill="#CC1414"/>
  <!-- large panoramic windows -->
  <rect x="20"  y="22" width="30" height="20" rx="3" fill="#87CEEB" opacity=".75"/>
  <rect x="56"  y="22" width="30" height="20" rx="3" fill="#87CEEB" opacity=".75"/>
  <rect x="92"  y="22" width="30" height="20" rx="3" fill="#87CEEB" opacity=".75"/>
  <rect x="128" y="22" width="30" height="20" rx="3" fill="#87CEEB" opacity=".75"/>
  <rect x="164" y="22" width="30" height="20" rx="3" fill="#87CEEB" opacity=".75"/>
  <!-- MRT Jakarta logo text on side -->
  <rect x="80" y="46" width="56" height="16" rx="3" fill="#CC1414"/>
  <text x="108" y="58" font-family="Arial" font-size="9" font-weight="bold" fill="white" text-anchor="middle">MRT JAKARTA</text>
  <!-- doors (automatic slide) -->
  <rect x="50"  y="44" width="6" height="38" rx="2" fill="#AAA"/>
  <rect x="98"  y="44" width="6" height="38" rx="2" fill="#AAA"/>
  <rect x="148" y="44" width="6" height="38" rx="2" fill="#AAA"/>
  <rect x="184" y="44" width="6" height="38" rx="2" fill="#AAA"/>
  <!-- headlights (LED strips) -->
  <rect x="6"  y="30" width="8" height="3" rx="1" fill="#FFE040" opacity=".9"/>
  <rect x="6"  y="38" width="8" height="3" rx="1" fill="#FFE040" opacity=".9"/>
  <rect x="202" y="30" width="8" height="3" rx="1" fill="#FFE040" opacity=".7"/>
  <rect x="202" y="38" width="8" height="3" rx="1" fill="#FFE040" opacity=".7"/>
  <!-- destination sign -->
  <rect x="20" y="42" width="26" height="8" rx="2" fill="#0A0A0A"/>
  <text x="33" y="49" font-family="Arial" font-size="5" fill="#00FF00" text-anchor="middle">LEBAK BULUS</text>
  <!-- rail -->
  <rect x="0" y="97" width="215" height="4" rx="1" fill="#888"/>
  <!-- wheels on bogies -->
  <circle cx="30"  cy="97" r="11" fill="#CCC" stroke="#999" stroke-width="2"/>
  <circle cx="60"  cy="97" r="11" fill="#CCC" stroke="#999" stroke-width="2"/>
  <circle cx="150" cy="97" r="11" fill="#CCC" stroke="#999" stroke-width="2"/>
  <circle cx="180" cy="97" r="11" fill="#CCC" stroke="#999" stroke-width="2"/>
  <text x="108" y="110" font-family="Arial" font-size="7" fill="#888" text-anchor="middle">MRT Jakarta · 2019</text>
</svg>