<svg xmlns="http://www.w3.org/2000/svg" viewBox="0 0 200 130" width="200" height="130">

  <!-- NYC Subway R160: stainless steel, blue/red MTA stripe -->
  <rect x="8" y="44" width="180" height="62" rx="4" fill="#C8C8C8"/>
  <!-- stainless steel ribbed panels -->
  <line x1="45" y1="44" x2="45" y2="106" stroke="#aaa" stroke-width="1.5"/>
  <line x1="80" y1="44" x2="80" y2="106" stroke="#aaa" stroke-width="1.5"/>
  <line x1="115" y1="44" x2="115" y2="106" stroke="#aaa" stroke-width="1.5"/>
  <line x1="150" y1="44" x2="150" y2="106" stroke="#aaa" stroke-width="1.5"/>
  <!-- NYC blue stripe MTA -->
  <rect x="8" y="60" width="180" height="10" fill="#0039A6"/>
  <!-- NYC orange dot/red stripe -->
  <rect x="8" y="70" width="180" height="5" fill="#FF6319"/>
  <!-- windows -->
  <rect x="14" y="48" width="24" height="10" rx="1" fill="#87CEEB" opacity="0.7"/>
  <rect x="52" y="48" width="20" height="10" rx="1" fill="#87CEEB" opacity="0.7"/>
  <rect x="86" y="48" width="20" height="10" rx="1" fill="#87CEEB" opacity="0.7"/>
  <rect x="120" y="48" width="20" height="10" rx="1" fill="#87CEEB" opacity="0.7"/>
  <rect x="155" y="48" width="20" height="10" rx="1" fill="#87CEEB" opacity="0.7"/>
  <!-- doors -->
  <rect x="40" y="78" width="8" height="26" rx="1" fill="#bbb"/>
  <rect x="74" y="78" width="8" height="26" rx="1" fill="#bbb"/>
  <rect x="108" y="78" width="8" height="26" rx="1" fill="#bbb"/>
  <rect x="142" y="78" width="8" height="26" rx="1" fill="#bbb"/>
  <circle cx="22" cy="114" r="7" fill="#aaa" stroke="#0039A6" stroke-width="2"/>
<line x1="29.0" y1="114.0" x2="15.0" y2="114.0" stroke="#0039A6" stroke-width="1.2"/>
<line x1="26.9" y1="118.9" x2="17.1" y2="109.1" stroke="#0039A6" stroke-width="1.2"/>
<line x1="22.0" y1="121.0" x2="22.0" y2="107.0" stroke="#0039A6" stroke-width="1.2"/>
<line x1="17.1" y1="118.9" x2="26.9" y2="109.1" stroke="#0039A6" stroke-width="1.2"/>
<circle cx="22" cy="114" r="1.5" fill="#0039A6"/>

  <circle cx="44" cy="114" r="7" fill="#aaa" stroke="#0039A6" stroke-width="2"/>
<line x1="51.0" y1="114.0" x2="37.0" y2="114.0" stroke="#0039A6" stroke-width="1.2"/>
<line x1="48.9" y1="118.9" x2="39.1" y2="109.1" stroke="#0039A6" stroke-width="1.2"/>
<line x1="44.0" y1="121.0" x2="44.0" y2="107.0" stroke="#0039A6" stroke-width="1.2"/>
<line x1="39.1" y1="118.9" x2="48.9" y2="109.1" stroke="#0039A6" stroke-width="1.2"/>
<circle cx="44" cy="114" r="1.5" fill="#0039A6"/>

  <circle cx="86" cy="114" r="7" fill="#aaa" stroke="#0039A6" stroke-width="2"/>
<line x1="93.0" y1="114.0" x2="79.0" y2="114.0" stroke="#0039A6" stroke-width="1.2"/>
<line x1="90.9" y1="118.9" x2="81.1" y2="109.1" stroke="#0039A6" stroke-width="1.2"/>
<line x1="86.0" y1="121.0" x2="86.0" y2="107.0" stroke="#0039A6" stroke-width="1.2"/>
<line x1="81.1" y1="118.9" x2="90.9" y2="109.1" stroke="#0039A6" stroke-width="1.2"/>
<circle cx="86" cy="114" r="1.5" fill="#0039A6"/>

  <circle cx="118" cy="114" r="7" fill="#aaa" stroke="#0039A6" stroke-width="2"/>
<line x1="125.0" y1="114.0" x2="111.0" y2="114.0" stroke="#0039A6" stroke-width="1.2"/>
<line x1="122.9" y1="118.9" x2="113.1" y2="109.1" stroke="#0039A6" stroke-width="1.2"/>
<line x1="118.0" y1="121.0" x2="118.0" y2="107.0" stroke="#0039A6" stroke-width="1.2"/>
<line x1="113.1" y1="118.9" x2="122.9" y2="109.1" stroke="#0039A6" stroke-width="1.2"/>
<circle cx="118" cy="114" r="1.5" fill="#0039A6"/>

  <circle cx="152" cy="114" r="7" fill="#aaa" stroke="#0039A6" stroke-width="2"/>
<line x1="159.0" y1="114.0" x2="145.0" y2="114.0" stroke="#0039A6" stroke-width="1.2"/>
<line x1="156.9" y1="118.9" x2="147.1" y2="109.1" stroke="#0039A6" stroke-width="1.2"/>
<line x1="152.0" y1="121.0" x2="152.0" y2="107.0" stroke="#0039A6" stroke-width="1.2"/>
<line x1="147.1" y1="118.9" x2="156.9" y2="109.1" stroke="#0039A6" stroke-width="1.2"/>
<circle cx="152" cy="114" r="1.5" fill="#0039A6"/>

  <circle cx="174" cy="114" r="7" fill="#aaa" stroke="#0039A6" stroke-width="2"/>
<line x1="181.0" y1="114.0" x2="167.0" y2="114.0" stroke="#0039A6" stroke-width="1.2"/>
<line x1="178.9" y1="118.9" x2="169.1" y2="109.1" stroke="#0039A6" stroke-width="1.2"/>
<line x1="174.0" y1="121.0" x2="174.0" y2="107.0" stroke="#0039A6" stroke-width="1.2"/>
<line x1="169.1" y1="118.9" x2="178.9" y2="109.1" stroke="#0039A6" stroke-width="1.2"/>
<circle cx="174" cy="114" r="1.5" fill="#0039A6"/>

  <line x1="5" y1="112" x2="198" y2="112" stroke="#888" stroke-width="2.5"/>


  <text x="100" y="126" font-family="Arial,sans-serif" font-size="7" fill="#555" text-anchor="middle">New York Subway · 1904</text>
</svg>