<svg xmlns="http://www.w3.org/2000/svg" viewBox="0 0 200 130" width="200" height="130">

  <!-- Siemens ES64 Taurus - very aggressive angular nose -->
  <rect x="10" y="38" width="178" height="64" rx="5" fill="#CC0000"/>
  <!-- very angular aggressive nose Taurus - key feature -->
  <polygon points="10,38 10,102 40,96 40,44" fill="#AA0000"/>
  <!-- diagonal headlight bars Taurus style -->
  <line x1="14" y1="48" x2="36" y2="54" stroke="#FFE040" stroke-width="4"/>
  <line x1="14" y1="92" x2="36" y2="86" stroke="#FFE040" stroke-width="4"/>
  <!-- white ÖBB stripe -->
  <rect x="40" y="58" width="148" height="16" fill="#fff"/>
  <line x1="10" y1="66" x2="42" y2="66" stroke="#fff" stroke-width="16" opacity="0.5"/>
  <rect x="152" y="38" width="36" height="64" rx="4" fill="#AA0000"/>
  <rect x="155" y="42" width="18" height="16" rx="2" fill="#87CEEB" opacity="0.7"/>
  <!-- pantograph -->
  <line x1="90" y1="38" x2="86" y2="18" stroke="#888" stroke-width="1.5"/>
  <line x1="110" y1="38" x2="114" y2="18" stroke="#888" stroke-width="1.5"/>
  <line x1="84" y1="18" x2="116" y2="18" stroke="#aaa" stroke-width="2.5"/>
  <circle cx="24" cy="110" r="9" fill="#880000" stroke="#fff" stroke-width="2"/>
<line x1="33.0" y1="110.0" x2="15.0" y2="110.0" stroke="#fff" stroke-width="1.2"/>
<line x1="30.4" y1="116.4" x2="17.6" y2="103.6" stroke="#fff" stroke-width="1.2"/>
<line x1="24.0" y1="119.0" x2="24.0" y2="101.0" stroke="#fff" stroke-width="1.2"/>
<line x1="17.6" y1="116.4" x2="30.4" y2="103.6" stroke="#fff" stroke-width="1.2"/>
<circle cx="24" cy="110" r="2.0" fill="#fff"/>

  <circle cx="50" cy="110" r="9" fill="#880000" stroke="#fff" stroke-width="2"/>
<line x1="59.0" y1="110.0" x2="41.0" y2="110.0" stroke="#fff" stroke-width="1.2"/>
<line x1="56.4" y1="116.4" x2="43.6" y2="103.6" stroke="#fff" stroke-width="1.2"/>
<line x1="50.0" y1="119.0" x2="50.0" y2="101.0" stroke="#fff" stroke-width="1.2"/>
<line x1="43.6" y1="116.4" x2="56.4" y2="103.6" stroke="#fff" stroke-width="1.2"/>
<circle cx="50" cy="110" r="2.0" fill="#fff"/>

  <circle cx="130" cy="110" r="9" fill="#880000" stroke="#fff" stroke-width="2"/>
<line x1="139.0" y1="110.0" x2="121.0" y2="110.0" stroke="#fff" stroke-width="1.2"/>
<line x1="136.4" y1="116.4" x2="123.6" y2="103.6" stroke="#fff" stroke-width="1.2"/>
<line x1="130.0" y1="119.0" x2="130.0" y2="101.0" stroke="#fff" stroke-width="1.2"/>
<line x1="123.6" y1="116.4" x2="136.4" y2="103.6" stroke="#fff" stroke-width="1.2"/>
<circle cx="130" cy="110" r="2.0" fill="#fff"/>

  <circle cx="158" cy="110" r="9" fill="#880000" stroke="#fff" stroke-width="2"/>
<line x1="167.0" y1="110.0" x2="149.0" y2="110.0" stroke="#fff" stroke-width="1.2"/>
<line x1="164.4" y1="116.4" x2="151.6" y2="103.6" stroke="#fff" stroke-width="1.2"/>
<line x1="158.0" y1="119.0" x2="158.0" y2="101.0" stroke="#fff" stroke-width="1.2"/>
<line x1="151.6" y1="116.4" x2="164.4" y2="103.6" stroke="#fff" stroke-width="1.2"/>
<circle cx="158" cy="110" r="2.0" fill="#fff"/>

  <line x1="5" y1="112" x2="198" y2="112" stroke="#888" stroke-width="2.5"/>


  <text x="100" y="126" font-family="Arial,sans-serif" font-size="7" fill="#555" text-anchor="middle">ÖBB 1116 Taurus · 1999</text>
</svg>