<svg xmlns="http://www.w3.org/2000/svg" viewBox="0 0 200 130" width="200" height="130">

  <!-- steam loco front compact -->
  <rect x="8" y="55" width="60" height="38" rx="6" fill="#1a1a1a"/>
  <rect x="12" y="60" width="40" height="26" rx="6" fill="#2a2a2a"/>
  <rect x="16" y="26" width="11" height="31" rx="3" fill="#111"/>
  <rect x="13" y="22" width="17" height="7" rx="3" fill="#333"/>
  <circle cx="12" cy="72" r="14" fill="#111"/>
  <!-- Wagon-Lits dark blue carriages with gold -->
  <rect x="70" y="46" width="65" height="47" rx="4" fill="#00205B"/>
  <rect x="138" y="46" width="55" height="47" rx="4" fill="#00205B"/>
  <!-- gold letterboard stripe -->
  <rect x="70" y="52" width="65" height="8" fill="#C8A800"/>
  <rect x="138" y="52" width="55" height="8" fill="#C8A800"/>
  <!-- gold lower stripe -->
  <rect x="70" y="82" width="65" height="5" fill="#C8A800"/>
  <rect x="138" y="82" width="55" height="5" fill="#C8A800"/>
  <!-- car windows -->
  <rect x="74" y="62" width="9" height="12" rx="1" fill="#87CEEB" opacity="0.6"/>
  <rect x="88" y="62" width="9" height="12" rx="1" fill="#87CEEB" opacity="0.6"/>
  <rect x="102" y="62" width="9" height="12" rx="1" fill="#87CEEB" opacity="0.6"/>
  <rect x="116" y="62" width="9" height="12" rx="1" fill="#87CEEB" opacity="0.6"/>
  <rect x="142" y="62" width="9" height="12" rx="1" fill="#87CEEB" opacity="0.6"/>
  <rect x="156" y="62" width="9" height="12" rx="1" fill="#87CEEB" opacity="0.6"/>
  <rect x="170" y="62" width="9" height="12" rx="1" fill="#87CEEB" opacity="0.6"/>
  <!-- couplings -->
  <rect x="67" y="68" width="6" height="5" rx="1" fill="#888"/>
  <rect x="135" y="68" width="6" height="5" rx="1" fill="#888"/>
  <!-- loco wheels -->
  <circle cx="22" cy="103" r="8" fill="#111" stroke="#888" stroke-width="2"/>
<line x1="30.0" y1="103.0" x2="14.0" y2="103.0" stroke="#888" stroke-width="1.2"/>
<line x1="27.7" y1="108.7" x2="16.3" y2="97.3" stroke="#888" stroke-width="1.2"/>
<line x1="22.0" y1="111.0" x2="22.0" y2="95.0" stroke="#888" stroke-width="1.2"/>
<line x1="16.3" y1="108.7" x2="27.7" y2="97.3" stroke="#888" stroke-width="1.2"/>
<circle cx="22" cy="103" r="1.8" fill="#888"/>

  <circle cx="42" cy="103" r="8" fill="#111" stroke="#888" stroke-width="2"/>
<line x1="50.0" y1="103.0" x2="34.0" y2="103.0" stroke="#888" stroke-width="1.2"/>
<line x1="47.7" y1="108.7" x2="36.3" y2="97.3" stroke="#888" stroke-width="1.2"/>
<line x1="42.0" y1="111.0" x2="42.0" y2="95.0" stroke="#888" stroke-width="1.2"/>
<line x1="36.3" y1="108.7" x2="47.7" y2="97.3" stroke="#888" stroke-width="1.2"/>
<circle cx="42" cy="103" r="1.8" fill="#888"/>

  <circle cx="60" cy="103" r="11" fill="#111" stroke="#888" stroke-width="2"/>
<line x1="71.0" y1="103.0" x2="49.0" y2="103.0" stroke="#888" stroke-width="1.2"/>
<line x1="69.5" y1="108.5" x2="50.5" y2="97.5" stroke="#888" stroke-width="1.2"/>
<line x1="65.5" y1="112.5" x2="54.5" y2="93.5" stroke="#888" stroke-width="1.2"/>
<line x1="60.0" y1="114.0" x2="60.0" y2="92.0" stroke="#888" stroke-width="1.2"/>
<line x1="54.5" y1="112.5" x2="65.5" y2="93.5" stroke="#888" stroke-width="1.2"/>
<line x1="50.5" y1="108.5" x2="69.5" y2="97.5" stroke="#888" stroke-width="1.2"/>
<circle cx="60" cy="103" r="2.4" fill="#888"/>

  <!-- car bogies -->
  <circle cx="84" cy="103" r="7" fill="#00205B" stroke="#C8A800" stroke-width="2"/>
<line x1="91.0" y1="103.0" x2="77.0" y2="103.0" stroke="#C8A800" stroke-width="1.2"/>
<line x1="88.9" y1="107.9" x2="79.1" y2="98.1" stroke="#C8A800" stroke-width="1.2"/>
<line x1="84.0" y1="110.0" x2="84.0" y2="96.0" stroke="#C8A800" stroke-width="1.2"/>
<line x1="79.1" y1="107.9" x2="88.9" y2="98.1" stroke="#C8A800" stroke-width="1.2"/>
<circle cx="84" cy="103" r="1.5" fill="#C8A800"/>

  <circle cx="110" cy="103" r="7" fill="#00205B" stroke="#C8A800" stroke-width="2"/>
<line x1="117.0" y1="103.0" x2="103.0" y2="103.0" stroke="#C8A800" stroke-width="1.2"/>
<line x1="114.9" y1="107.9" x2="105.1" y2="98.1" stroke="#C8A800" stroke-width="1.2"/>
<line x1="110.0" y1="110.0" x2="110.0" y2="96.0" stroke="#C8A800" stroke-width="1.2"/>
<line x1="105.1" y1="107.9" x2="114.9" y2="98.1" stroke="#C8A800" stroke-width="1.2"/>
<circle cx="110" cy="103" r="1.5" fill="#C8A800"/>

  <circle cx="148" cy="103" r="7" fill="#00205B" stroke="#C8A800" stroke-width="2"/>
<line x1="155.0" y1="103.0" x2="141.0" y2="103.0" stroke="#C8A800" stroke-width="1.2"/>
<line x1="152.9" y1="107.9" x2="143.1" y2="98.1" stroke="#C8A800" stroke-width="1.2"/>
<line x1="148.0" y1="110.0" x2="148.0" y2="96.0" stroke="#C8A800" stroke-width="1.2"/>
<line x1="143.1" y1="107.9" x2="152.9" y2="98.1" stroke="#C8A800" stroke-width="1.2"/>
<circle cx="148" cy="103" r="1.5" fill="#C8A800"/>

  <circle cx="172" cy="103" r="7" fill="#00205B" stroke="#C8A800" stroke-width="2"/>
<line x1="179.0" y1="103.0" x2="165.0" y2="103.0" stroke="#C8A800" stroke-width="1.2"/>
<line x1="176.9" y1="107.9" x2="167.1" y2="98.1" stroke="#C8A800" stroke-width="1.2"/>
<line x1="172.0" y1="110.0" x2="172.0" y2="96.0" stroke="#C8A800" stroke-width="1.2"/>
<line x1="167.1" y1="107.9" x2="176.9" y2="98.1" stroke="#C8A800" stroke-width="1.2"/>
<circle cx="172" cy="103" r="1.5" fill="#C8A800"/>

  <line x1="5" y1="112" x2="198" y2="112" stroke="#888" stroke-width="2.5"/>


  <text x="100" y="126" font-family="Arial,sans-serif" font-size="7" fill="#555" text-anchor="middle">Orient Express · 1883</text>
</svg>