<svg xmlns="http://www.w3.org/2000/svg" viewBox="0 0 200 130" width="200" height="130">

  <!-- Paris Metro: rubber tyres, blue/white, narrow body -->
  <rect x="8" y="48" width="180" height="58" rx="5" fill="#003082"/>
  <!-- white stripe Paris Metro -->
  <rect x="8" y="64" width="180" height="12" fill="#fff"/>
  <!-- narrow body, rubber tyre look different -->
  <!-- windows -->
  <rect x="14" y="52" width="22" height="10" rx="2" fill="#87CEEB" opacity="0.7"/>
  <rect x="48" y="52" width="18" height="10" rx="2" fill="#87CEEB" opacity="0.7"/>
  <rect x="80" y="52" width="18" height="10" rx="2" fill="#87CEEB" opacity="0.7"/>
  <rect x="112" y="52" width="18" height="10" rx="2" fill="#87CEEB" opacity="0.7"/>
  <rect x="148" y="52" width="18" height="10" rx="2" fill="#87CEEB" opacity="0.7"/>
  <!-- rubber tyre wheels - wider, different look, NO metal flange -->
  <rect x="12" y="104" width="18" height="10" rx="5" fill="#222"/>
  <rect x="42" y="104" width="18" height="10" rx="5" fill="#222"/>
  <rect x="84" y="104" width="18" height="10" rx="5" fill="#222"/>
  <rect x="114" y="104" width="18" height="10" rx="5" fill="#222"/>
  <rect x="152" y="104" width="18" height="10" rx="5" fill="#222"/>
  <!-- rubber tyre guide rail different from normal rail -->
  <rect x="8" y="114" width="180" height="4" rx="1" fill="#ccc"/>
  <!-- Paris Metro headlight distinctive rectangular -->
  <rect x="12" y="56" width="8" height="5" rx="1" fill="#FFE040" opacity="0.9"/>

  <text x="100" y="126" font-family="Arial,sans-serif" font-size="7" fill="#555" text-anchor="middle">Paris Metro · 1900</text>
</svg>