<svg xmlns="http://www.w3.org/2000/svg" viewBox="0 0 200 130" width="200" height="130">

  <!-- tender car right -->
  <rect x="145" y="58" width="45" height="35" rx="4" fill="#2a2a2a"/>
  <rect x="148" y="62" width="20" height="12" rx="2" fill="#555" opacity="0.6"/>
  <circle cx="158" cy="103" r="8" fill="#111" stroke="#777" stroke-width="2"/>
<line x1="166.0" y1="103.0" x2="150.0" y2="103.0" stroke="#777" stroke-width="1.2"/>
<line x1="163.7" y1="108.7" x2="152.3" y2="97.3" stroke="#777" stroke-width="1.2"/>
<line x1="158.0" y1="111.0" x2="158.0" y2="95.0" stroke="#777" stroke-width="1.2"/>
<line x1="152.3" y1="108.7" x2="163.7" y2="97.3" stroke="#777" stroke-width="1.2"/>
<circle cx="158" cy="103" r="1.8" fill="#777"/>

  <circle cx="178" cy="103" r="8" fill="#111" stroke="#777" stroke-width="2"/>
<line x1="186.0" y1="103.0" x2="170.0" y2="103.0" stroke="#777" stroke-width="1.2"/>
<line x1="183.7" y1="108.7" x2="172.3" y2="97.3" stroke="#777" stroke-width="1.2"/>
<line x1="178.0" y1="111.0" x2="178.0" y2="95.0" stroke="#777" stroke-width="1.2"/>
<line x1="172.3" y1="108.7" x2="183.7" y2="97.3" stroke="#777" stroke-width="1.2"/>
<circle cx="178" cy="103" r="1.8" fill="#777"/>

  <!-- coupling -->
  <rect x="138" y="70" width="10" height="4" rx="1" fill="#888"/>
  <!-- loco body green -->
  <rect x="45" y="52" width="95" height="38" rx="6" fill="#1a5c1a"/>
  <!-- boiler barrel -->
  <rect x="50" y="58" width="70" height="24" rx="8" fill="#1d6b1d"/>
  <!-- inside cylinder hint - visible box under boiler -->
  <rect x="60" y="78" width="30" height="10" rx="2" fill="#0f3d0f"/>
  <!-- 2 small pony, 2 large driver -->
  <circle cx="52" cy="103" r="7" fill="#111" stroke="#c8a800" stroke-width="2"/>
<line x1="59.0" y1="103.0" x2="45.0" y2="103.0" stroke="#c8a800" stroke-width="1.2"/>
<line x1="56.9" y1="107.9" x2="47.1" y2="98.1" stroke="#c8a800" stroke-width="1.2"/>
<line x1="52.0" y1="110.0" x2="52.0" y2="96.0" stroke="#c8a800" stroke-width="1.2"/>
<line x1="47.1" y1="107.9" x2="56.9" y2="98.1" stroke="#c8a800" stroke-width="1.2"/>
<circle cx="52" cy="103" r="1.5" fill="#c8a800"/>

  <circle cx="70" cy="103" r="7" fill="#111" stroke="#c8a800" stroke-width="2"/>
<line x1="77.0" y1="103.0" x2="63.0" y2="103.0" stroke="#c8a800" stroke-width="1.2"/>
<line x1="74.9" y1="107.9" x2="65.1" y2="98.1" stroke="#c8a800" stroke-width="1.2"/>
<line x1="70.0" y1="110.0" x2="70.0" y2="96.0" stroke="#c8a800" stroke-width="1.2"/>
<line x1="65.1" y1="107.9" x2="74.9" y2="98.1" stroke="#c8a800" stroke-width="1.2"/>
<circle cx="70" cy="103" r="1.5" fill="#c8a800"/>

  <circle cx="100" cy="103" r="12" fill="#111" stroke="#c8a800" stroke-width="2"/>
<line x1="112.0" y1="103.0" x2="88.0" y2="103.0" stroke="#c8a800" stroke-width="1.2"/>
<line x1="110.4" y1="109.0" x2="89.6" y2="97.0" stroke="#c8a800" stroke-width="1.2"/>
<line x1="106.0" y1="113.4" x2="94.0" y2="92.6" stroke="#c8a800" stroke-width="1.2"/>
<line x1="100.0" y1="115.0" x2="100.0" y2="91.0" stroke="#c8a800" stroke-width="1.2"/>
<line x1="94.0" y1="113.4" x2="106.0" y2="92.6" stroke="#c8a800" stroke-width="1.2"/>
<line x1="89.6" y1="109.0" x2="110.4" y2="97.0" stroke="#c8a800" stroke-width="1.2"/>
<circle cx="100" cy="103" r="2.6" fill="#c8a800"/>

  <circle cx="127" cy="103" r="12" fill="#111" stroke="#c8a800" stroke-width="2"/>
<line x1="139.0" y1="103.0" x2="115.0" y2="103.0" stroke="#c8a800" stroke-width="1.2"/>
<line x1="137.4" y1="109.0" x2="116.6" y2="97.0" stroke="#c8a800" stroke-width="1.2"/>
<line x1="133.0" y1="113.4" x2="121.0" y2="92.6" stroke="#c8a800" stroke-width="1.2"/>
<line x1="127.0" y1="115.0" x2="127.0" y2="91.0" stroke="#c8a800" stroke-width="1.2"/>
<line x1="121.0" y1="113.4" x2="133.0" y2="92.6" stroke="#c8a800" stroke-width="1.2"/>
<line x1="116.6" y1="109.0" x2="137.4" y2="97.0" stroke="#c8a800" stroke-width="1.2"/>
<circle cx="127" cy="103" r="2.6" fill="#c8a800"/>

  <!-- chimney copper cap -->
  <rect x="63" y="28" width="13" height="26" rx="3" fill="#1a1a1a"/>
  <rect x="59" y="24" width="21" height="7" rx="3" fill="#b87333"/>
  <!-- dome -->
  <ellipse cx="105" cy="55" rx="14" ry="8" fill="#115011"/>
  <!-- cab -->
  <rect x="125" y="52" width="22" height="38" rx="3" fill="#0f3d0f"/>
  <rect x="128" y="56" width="14" height="12" rx="2" fill="#87CEEB" opacity="0.6"/>

  <text x="100" y="126" font-family="Arial,sans-serif" font-size="7" fill="#555" text-anchor="middle">Planet Class · 1830</text>
</svg>