<svg xmlns="http://www.w3.org/2000/svg" viewBox="0 0 200 130" width="200" height="130">

  <!-- Tuscan red body -->
  <rect x="18" y="50" width="148" height="36" rx="7" fill="#8B0000"/>
  <rect x="24" y="56" width="100" height="24" rx="7" fill="#9B1010"/>
  <!-- Belpaire firebox - trapezoidal top, key feature -->
  <polygon points="118,44 168,44 172,50 114,50" fill="#6a0000"/>
  <rect x="118" y="44" width="54" height="42" rx="0" fill="#700000"/>
  <!-- cab -->
  <rect x="158" y="38" width="32" height="48" rx="3" fill="#6a0000"/>
  <rect x="161" y="42" width="13" height="14" rx="2" fill="#87CEEB" opacity="0.6"/>
  <rect x="28" y="16" width="13" height="36" rx="3" fill="#4a0000"/>
  <rect x="24" y="12" width="21" height="8" rx="2" fill="#600000"/>
  <circle cx="22" cy="66" r="16" fill="#4a0000"/>
  <ellipse cx="108" cy="52" rx="13" ry="9" fill="#6a0000"/>
  <!-- PRR keystone on cab -->
  <polygon points="170,46 176,50 176,62 170,66 164,62 164,50" fill="#FFD700" opacity="0.8"/>
  <!-- 2+3+1 = 4-6-2 -->
  <circle cx="34" cy="101" r="8" fill="#4a0000" stroke="#FFD700" stroke-width="2"/>
<line x1="42.0" y1="101.0" x2="26.0" y2="101.0" stroke="#FFD700" stroke-width="1.2"/>
<line x1="39.7" y1="106.7" x2="28.3" y2="95.3" stroke="#FFD700" stroke-width="1.2"/>
<line x1="34.0" y1="109.0" x2="34.0" y2="93.0" stroke="#FFD700" stroke-width="1.2"/>
<line x1="28.3" y1="106.7" x2="39.7" y2="95.3" stroke="#FFD700" stroke-width="1.2"/>
<circle cx="34" cy="101" r="1.8" fill="#FFD700"/>

  <circle cx="54" cy="101" r="8" fill="#4a0000" stroke="#FFD700" stroke-width="2"/>
<line x1="62.0" y1="101.0" x2="46.0" y2="101.0" stroke="#FFD700" stroke-width="1.2"/>
<line x1="59.7" y1="106.7" x2="48.3" y2="95.3" stroke="#FFD700" stroke-width="1.2"/>
<line x1="54.0" y1="109.0" x2="54.0" y2="93.0" stroke="#FFD700" stroke-width="1.2"/>
<line x1="48.3" y1="106.7" x2="59.7" y2="95.3" stroke="#FFD700" stroke-width="1.2"/>
<circle cx="54" cy="101" r="1.8" fill="#FFD700"/>

  <circle cx="80" cy="101" r="13" fill="#4a0000" stroke="#FFD700" stroke-width="2"/>
<line x1="93.0" y1="101.0" x2="67.0" y2="101.0" stroke="#FFD700" stroke-width="1.2"/>
<line x1="91.3" y1="107.5" x2="68.7" y2="94.5" stroke="#FFD700" stroke-width="1.2"/>
<line x1="86.5" y1="112.3" x2="73.5" y2="89.7" stroke="#FFD700" stroke-width="1.2"/>
<line x1="80.0" y1="114.0" x2="80.0" y2="88.0" stroke="#FFD700" stroke-width="1.2"/>
<line x1="73.5" y1="112.3" x2="86.5" y2="89.7" stroke="#FFD700" stroke-width="1.2"/>
<line x1="68.7" y1="107.5" x2="91.3" y2="94.5" stroke="#FFD700" stroke-width="1.2"/>
<circle cx="80" cy="101" r="2.9" fill="#FFD700"/>

  <circle cx="103" cy="101" r="13" fill="#4a0000" stroke="#FFD700" stroke-width="2"/>
<line x1="116.0" y1="101.0" x2="90.0" y2="101.0" stroke="#FFD700" stroke-width="1.2"/>
<line x1="114.3" y1="107.5" x2="91.7" y2="94.5" stroke="#FFD700" stroke-width="1.2"/>
<line x1="109.5" y1="112.3" x2="96.5" y2="89.7" stroke="#FFD700" stroke-width="1.2"/>
<line x1="103.0" y1="114.0" x2="103.0" y2="88.0" stroke="#FFD700" stroke-width="1.2"/>
<line x1="96.5" y1="112.3" x2="109.5" y2="89.7" stroke="#FFD700" stroke-width="1.2"/>
<line x1="91.7" y1="107.5" x2="114.3" y2="94.5" stroke="#FFD700" stroke-width="1.2"/>
<circle cx="103" cy="101" r="2.9" fill="#FFD700"/>

  <circle cx="126" cy="101" r="13" fill="#4a0000" stroke="#FFD700" stroke-width="2"/>
<line x1="139.0" y1="101.0" x2="113.0" y2="101.0" stroke="#FFD700" stroke-width="1.2"/>
<line x1="137.3" y1="107.5" x2="114.7" y2="94.5" stroke="#FFD700" stroke-width="1.2"/>
<line x1="132.5" y1="112.3" x2="119.5" y2="89.7" stroke="#FFD700" stroke-width="1.2"/>
<line x1="126.0" y1="114.0" x2="126.0" y2="88.0" stroke="#FFD700" stroke-width="1.2"/>
<line x1="119.5" y1="112.3" x2="132.5" y2="89.7" stroke="#FFD700" stroke-width="1.2"/>
<line x1="114.7" y1="107.5" x2="137.3" y2="94.5" stroke="#FFD700" stroke-width="1.2"/>
<circle cx="126" cy="101" r="2.9" fill="#FFD700"/>

  <circle cx="158" cy="101" r="9" fill="#4a0000" stroke="#FFD700" stroke-width="2"/>
<line x1="167.0" y1="101.0" x2="149.0" y2="101.0" stroke="#FFD700" stroke-width="1.2"/>
<line x1="164.4" y1="107.4" x2="151.6" y2="94.6" stroke="#FFD700" stroke-width="1.2"/>
<line x1="158.0" y1="110.0" x2="158.0" y2="92.0" stroke="#FFD700" stroke-width="1.2"/>
<line x1="151.6" y1="107.4" x2="164.4" y2="94.6" stroke="#FFD700" stroke-width="1.2"/>
<circle cx="158" cy="101" r="2.0" fill="#FFD700"/>

  <rect x="80" y="99" width="46" height="4" rx="2" fill="#c8a800" opacity="0.8"/>
  <line x1="10" y1="112" x2="195" y2="112" stroke="#888" stroke-width="2.5"/>


  <text x="100" y="126" font-family="Arial,sans-serif" font-size="7" fill="#555" text-anchor="middle">PRR K4s Pacific · 1914</text>
</svg>