<svg xmlns="http://www.w3.org/2000/svg" viewBox="0 0 200 130" width="200" height="130">

  <!-- AVE 100: white/red/yellow Spanish, TGV based -->
  <path d="M8,68 Q20,42 46,36 L185,36 L188,68 L185,100 L46,100 Q20,94 8,68 Z" fill="#F8F8F8"/>
  <!-- red upper Spanish flag -->
  <rect x="46" y="36" width="142" height="18" rx="0" fill="#CC0000"/>
  <path d="M8,68 Q16,50 34,44 L46,44 L46,36 Q26,42 12,56 Z" fill="#CC0000"/>
  <!-- yellow stripe -->
  <rect x="46" y="78" width="142" height="10" fill="#FFD700"/>
  <path d="M8,68 Q14,74 28,78 L46,78 L46,88 Q26,86 12,78 Z" fill="#FFD700"/>
  <rect x="26" y="44" width="22" height="18" rx="2" fill="#87CEEB" opacity="0.7"/>
  <circle cx="11" cy="68" r="5" fill="#FFE040" opacity="0.9"/>
  <circle cx="40" cy="108" r="9" fill="#ddd" stroke="#CC0000" stroke-width="2"/>
<line x1="49.0" y1="108.0" x2="31.0" y2="108.0" stroke="#CC0000" stroke-width="1.2"/>
<line x1="46.4" y1="114.4" x2="33.6" y2="101.6" stroke="#CC0000" stroke-width="1.2"/>
<line x1="40.0" y1="117.0" x2="40.0" y2="99.0" stroke="#CC0000" stroke-width="1.2"/>
<line x1="33.6" y1="114.4" x2="46.4" y2="101.6" stroke="#CC0000" stroke-width="1.2"/>
<circle cx="40" cy="108" r="2.0" fill="#CC0000"/>

  <circle cx="64" cy="108" r="9" fill="#ddd" stroke="#CC0000" stroke-width="2"/>
<line x1="73.0" y1="108.0" x2="55.0" y2="108.0" stroke="#CC0000" stroke-width="1.2"/>
<line x1="70.4" y1="114.4" x2="57.6" y2="101.6" stroke="#CC0000" stroke-width="1.2"/>
<line x1="64.0" y1="117.0" x2="64.0" y2="99.0" stroke="#CC0000" stroke-width="1.2"/>
<line x1="57.6" y1="114.4" x2="70.4" y2="101.6" stroke="#CC0000" stroke-width="1.2"/>
<circle cx="64" cy="108" r="2.0" fill="#CC0000"/>

  <circle cx="110" cy="108" r="9" fill="#ddd" stroke="#CC0000" stroke-width="2"/>
<line x1="119.0" y1="108.0" x2="101.0" y2="108.0" stroke="#CC0000" stroke-width="1.2"/>
<line x1="116.4" y1="114.4" x2="103.6" y2="101.6" stroke="#CC0000" stroke-width="1.2"/>
<line x1="110.0" y1="117.0" x2="110.0" y2="99.0" stroke="#CC0000" stroke-width="1.2"/>
<line x1="103.6" y1="114.4" x2="116.4" y2="101.6" stroke="#CC0000" stroke-width="1.2"/>
<circle cx="110" cy="108" r="2.0" fill="#CC0000"/>

  <circle cx="150" cy="108" r="9" fill="#ddd" stroke="#CC0000" stroke-width="2"/>
<line x1="159.0" y1="108.0" x2="141.0" y2="108.0" stroke="#CC0000" stroke-width="1.2"/>
<line x1="156.4" y1="114.4" x2="143.6" y2="101.6" stroke="#CC0000" stroke-width="1.2"/>
<line x1="150.0" y1="117.0" x2="150.0" y2="99.0" stroke="#CC0000" stroke-width="1.2"/>
<line x1="143.6" y1="114.4" x2="156.4" y2="101.6" stroke="#CC0000" stroke-width="1.2"/>
<circle cx="150" cy="108" r="2.0" fill="#CC0000"/>

  <circle cx="174" cy="108" r="9" fill="#ddd" stroke="#CC0000" stroke-width="2"/>
<line x1="183.0" y1="108.0" x2="165.0" y2="108.0" stroke="#CC0000" stroke-width="1.2"/>
<line x1="180.4" y1="114.4" x2="167.6" y2="101.6" stroke="#CC0000" stroke-width="1.2"/>
<line x1="174.0" y1="117.0" x2="174.0" y2="99.0" stroke="#CC0000" stroke-width="1.2"/>
<line x1="167.6" y1="114.4" x2="180.4" y2="101.6" stroke="#CC0000" stroke-width="1.2"/>
<circle cx="174" cy="108" r="2.0" fill="#CC0000"/>

  <line x1="5" y1="112" x2="198" y2="112" stroke="#888" stroke-width="2.5"/>


  <text x="100" y="126" font-family="Arial,sans-serif" font-size="7" fill="#555" text-anchor="middle">RENFE AVE 100 · 1992</text>
</svg>