<svg xmlns="http://www.w3.org/2000/svg" viewBox="0 0 200 130" width="200" height="130">

  <!-- blue/gold Rocky Mountaineer dome cars -->
  <rect x="8" y="44" width="60" height="58" rx="5" fill="#003082"/>
  <!-- diesel loco -->
  <rect x="12" y="48" width="24" height="18" rx="2" fill="#87CEEB" opacity="0.7"/>
  <rect x="8" y="68" width="60" height="10" fill="#C8A800"/>
  <circle cx="12" cy="73" r="5" fill="#FFE040" opacity="0.9"/>
  <!-- dome car 1 -->
  <rect x="71" y="52" width="58" height="50" rx="3" fill="#003082"/>
  <!-- dome raised section -->
  <rect x="76" y="36" width="48" height="22" rx="4" fill="#0048C0"/>
  <rect x="80" y="30" width="40" height="12" rx="3" fill="#0050D0"/>
  <rect x="82" y="32" width="8" height="8" rx="1" fill="#87CEEB" opacity="0.8"/>
  <rect x="94" y="32" width="8" height="8" rx="1" fill="#87CEEB" opacity="0.8"/>
  <rect x="106" y="32" width="8" height="8" rx="1" fill="#87CEEB" opacity="0.8"/>
  <rect x="71" y="68" width="58" height="10" fill="#C8A800"/>
  <!-- dome car 2 -->
  <rect x="132" y="52" width="58" height="50" rx="3" fill="#003082"/>
  <rect x="137" y="36" width="48" height="22" rx="4" fill="#0048C0"/>
  <rect x="141" y="32" width="8" height="8" rx="1" fill="#87CEEB" opacity="0.8"/>
  <rect x="153" y="32" width="8" height="8" rx="1" fill="#87CEEB" opacity="0.8"/>
  <rect x="165" y="32" width="8" height="8" rx="1" fill="#87CEEB" opacity="0.8"/>
  <rect x="132" y="68" width="58" height="10" fill="#C8A800"/>
  <circle cx="20" cy="110" r="7" fill="#002060" stroke="#C8A800" stroke-width="2"/>
<line x1="27.0" y1="110.0" x2="13.0" y2="110.0" stroke="#C8A800" stroke-width="1.2"/>
<line x1="24.9" y1="114.9" x2="15.1" y2="105.1" stroke="#C8A800" stroke-width="1.2"/>
<line x1="20.0" y1="117.0" x2="20.0" y2="103.0" stroke="#C8A800" stroke-width="1.2"/>
<line x1="15.1" y1="114.9" x2="24.9" y2="105.1" stroke="#C8A800" stroke-width="1.2"/>
<circle cx="20" cy="110" r="1.5" fill="#C8A800"/>

  <circle cx="48" cy="110" r="7" fill="#002060" stroke="#C8A800" stroke-width="2"/>
<line x1="55.0" y1="110.0" x2="41.0" y2="110.0" stroke="#C8A800" stroke-width="1.2"/>
<line x1="52.9" y1="114.9" x2="43.1" y2="105.1" stroke="#C8A800" stroke-width="1.2"/>
<line x1="48.0" y1="117.0" x2="48.0" y2="103.0" stroke="#C8A800" stroke-width="1.2"/>
<line x1="43.1" y1="114.9" x2="52.9" y2="105.1" stroke="#C8A800" stroke-width="1.2"/>
<circle cx="48" cy="110" r="1.5" fill="#C8A800"/>

  <circle cx="84" cy="110" r="7" fill="#002060" stroke="#C8A800" stroke-width="2"/>
<line x1="91.0" y1="110.0" x2="77.0" y2="110.0" stroke="#C8A800" stroke-width="1.2"/>
<line x1="88.9" y1="114.9" x2="79.1" y2="105.1" stroke="#C8A800" stroke-width="1.2"/>
<line x1="84.0" y1="117.0" x2="84.0" y2="103.0" stroke="#C8A800" stroke-width="1.2"/>
<line x1="79.1" y1="114.9" x2="88.9" y2="105.1" stroke="#C8A800" stroke-width="1.2"/>
<circle cx="84" cy="110" r="1.5" fill="#C8A800"/>

  <circle cx="108" cy="110" r="7" fill="#002060" stroke="#C8A800" stroke-width="2"/>
<line x1="115.0" y1="110.0" x2="101.0" y2="110.0" stroke="#C8A800" stroke-width="1.2"/>
<line x1="112.9" y1="114.9" x2="103.1" y2="105.1" stroke="#C8A800" stroke-width="1.2"/>
<line x1="108.0" y1="117.0" x2="108.0" y2="103.0" stroke="#C8A800" stroke-width="1.2"/>
<line x1="103.1" y1="114.9" x2="112.9" y2="105.1" stroke="#C8A800" stroke-width="1.2"/>
<circle cx="108" cy="110" r="1.5" fill="#C8A800"/>

  <circle cx="148" cy="110" r="7" fill="#002060" stroke="#C8A800" stroke-width="2"/>
<line x1="155.0" y1="110.0" x2="141.0" y2="110.0" stroke="#C8A800" stroke-width="1.2"/>
<line x1="152.9" y1="114.9" x2="143.1" y2="105.1" stroke="#C8A800" stroke-width="1.2"/>
<line x1="148.0" y1="117.0" x2="148.0" y2="103.0" stroke="#C8A800" stroke-width="1.2"/>
<line x1="143.1" y1="114.9" x2="152.9" y2="105.1" stroke="#C8A800" stroke-width="1.2"/>
<circle cx="148" cy="110" r="1.5" fill="#C8A800"/>

  <circle cx="174" cy="110" r="7" fill="#002060" stroke="#C8A800" stroke-width="2"/>
<line x1="181.0" y1="110.0" x2="167.0" y2="110.0" stroke="#C8A800" stroke-width="1.2"/>
<line x1="178.9" y1="114.9" x2="169.1" y2="105.1" stroke="#C8A800" stroke-width="1.2"/>
<line x1="174.0" y1="117.0" x2="174.0" y2="103.0" stroke="#C8A800" stroke-width="1.2"/>
<line x1="169.1" y1="114.9" x2="178.9" y2="105.1" stroke="#C8A800" stroke-width="1.2"/>
<circle cx="174" cy="110" r="1.5" fill="#C8A800"/>

  <line x1="5" y1="112" x2="198" y2="112" stroke="#888" stroke-width="2.5"/>


  <text x="100" y="126" font-family="Arial,sans-serif" font-size="7" fill="#555" text-anchor="middle">Rocky Mountaineer · 1990</text>
</svg>