<svg xmlns="http://www.w3.org/2000/svg" viewBox="0 0 208 106" width="208" height="106">
  <rect x="8" y="26" width="188" height="50" rx="5" fill="#1A5A1A"/>
  <rect x="8" y="24" width="80" height="54" rx="5" fill="#C8A020"/>
  <rect x="14" y="30" width="18" height="14" rx="2" fill="#87CEEB" opacity="0.75"/>
  <rect x="37" y="30" width="18" height="14" rx="2" fill="#87CEEB" opacity="0.75"/>
  <rect x="60" y="30" width="12" height="14" rx="2" fill="#87CEEB" opacity="0.65"/>
  <path d="M8,50 L196,50" stroke="#C8A020" stroke-width="2" opacity="0.3"/>
  <rect x="96" y="14" width="10" height="14" rx="2" fill="#555"/>
  <rect x="126" y="16" width="10" height="12" rx="2" fill="#555"/>
  <rect x="156" y="16" width="10" height="12" rx="2" fill="#555"/>
  <rect x="92" y="11" width="18" height="5" rx="1" fill="#444"/>
  <circle cx="10" cy="52" r="5" fill="#FFE040" opacity="0.9"/>
  <circle cx="196" cy="52" r="4" fill="#FFE040" opacity="0.5"/>
  <circle cx="30" cy="88" r="13" fill="#0A2A0A" stroke="#C8A020" stroke-width="2.5"/>
  <line x1="43.0" y1="88.0" x2="17.0" y2="88.0" stroke="#C8A020" stroke-width="1.2"/>
  <line x1="41.3" y1="94.5" x2="18.7" y2="81.5" stroke="#C8A020" stroke-width="1.2"/>
  <line x1="36.5" y1="99.3" x2="23.5" y2="76.7" stroke="#C8A020" stroke-width="1.2"/>
  <line x1="30.0" y1="101.0" x2="30.0" y2="75.0" stroke="#C8A020" stroke-width="1.2"/>
  <line x1="23.5" y1="99.3" x2="36.5" y2="76.7" stroke="#C8A020" stroke-width="1.2"/>
  <line x1="18.7" y1="94.5" x2="41.3" y2="81.5" stroke="#C8A020" stroke-width="1.2"/>
  <circle cx="30" cy="88" r="2.9" fill="#C8A020"/>
  <circle cx="60" cy="88" r="13" fill="#0A2A0A" stroke="#C8A020" stroke-width="2.5"/>
  <line x1="73.0" y1="88.0" x2="47.0" y2="88.0" stroke="#C8A020" stroke-width="1.2"/>
  <line x1="71.3" y1="94.5" x2="48.7" y2="81.5" stroke="#C8A020" stroke-width="1.2"/>
  <line x1="66.5" y1="99.3" x2="53.5" y2="76.7" stroke="#C8A020" stroke-width="1.2"/>
  <line x1="60.0" y1="101.0" x2="60.0" y2="75.0" stroke="#C8A020" stroke-width="1.2"/>
  <line x1="53.5" y1="99.3" x2="66.5" y2="76.7" stroke="#C8A020" stroke-width="1.2"/>
  <line x1="48.7" y1="94.5" x2="71.3" y2="81.5" stroke="#C8A020" stroke-width="1.2"/>
  <circle cx="60" cy="88" r="2.9" fill="#C8A020"/>
  <circle cx="105" cy="88" r="13" fill="#0A2A0A" stroke="#C8A020" stroke-width="2.5"/>
  <line x1="118.0" y1="88.0" x2="92.0" y2="88.0" stroke="#C8A020" stroke-width="1.2"/>
  <line x1="116.3" y1="94.5" x2="93.7" y2="81.5" stroke="#C8A020" stroke-width="1.2"/>
  <line x1="111.5" y1="99.3" x2="98.5" y2="76.7" stroke="#C8A020" stroke-width="1.2"/>
  <line x1="105.0" y1="101.0" x2="105.0" y2="75.0" stroke="#C8A020" stroke-width="1.2"/>
  <line x1="98.5" y1="99.3" x2="111.5" y2="76.7" stroke="#C8A020" stroke-width="1.2"/>
  <line x1="93.7" y1="94.5" x2="116.3" y2="81.5" stroke="#C8A020" stroke-width="1.2"/>
  <circle cx="105" cy="88" r="2.9" fill="#C8A020"/>
  <circle cx="138" cy="88" r="13" fill="#0A2A0A" stroke="#C8A020" stroke-width="2.5"/>
  <line x1="151.0" y1="88.0" x2="125.0" y2="88.0" stroke="#C8A020" stroke-width="1.2"/>
  <line x1="149.3" y1="94.5" x2="126.7" y2="81.5" stroke="#C8A020" stroke-width="1.2"/>
  <line x1="144.5" y1="99.3" x2="131.5" y2="76.7" stroke="#C8A020" stroke-width="1.2"/>
  <line x1="138.0" y1="101.0" x2="138.0" y2="75.0" stroke="#C8A020" stroke-width="1.2"/>
  <line x1="131.5" y1="99.3" x2="144.5" y2="76.7" stroke="#C8A020" stroke-width="1.2"/>
  <line x1="126.7" y1="94.5" x2="149.3" y2="81.5" stroke="#C8A020" stroke-width="1.2"/>
  <circle cx="138" cy="88" r="2.9" fill="#C8A020"/>
  <circle cx="168" cy="88" r="13" fill="#0A2A0A" stroke="#C8A020" stroke-width="2.5"/>
  <line x1="181.0" y1="88.0" x2="155.0" y2="88.0" stroke="#C8A020" stroke-width="1.2"/>
  <line x1="179.3" y1="94.5" x2="156.7" y2="81.5" stroke="#C8A020" stroke-width="1.2"/>
  <line x1="174.5" y1="99.3" x2="161.5" y2="76.7" stroke="#C8A020" stroke-width="1.2"/>
  <line x1="168.0" y1="101.0" x2="168.0" y2="75.0" stroke="#C8A020" stroke-width="1.2"/>
  <line x1="161.5" y1="99.3" x2="174.5" y2="76.7" stroke="#C8A020" stroke-width="1.2"/>
  <line x1="156.7" y1="94.5" x2="179.3" y2="81.5" stroke="#C8A020" stroke-width="1.2"/>
  <circle cx="168" cy="88" r="2.9" fill="#C8A020"/>

  <text x="104" y="102" font-family="Arial,sans-serif" font-size="7" fill="#666" text-anchor="middle">Rocky Mountaineer · 1990</text>
</svg>