<svg xmlns="http://www.w3.org/2000/svg" viewBox="0 0 200 130" width="200" height="130">

  <rect x="8" y="52" width="90" height="36" rx="7" fill="#111"/>
  <rect x="14" y="58" width="65" height="24" rx="6" fill="#1a1a1a"/>
  <rect x="100" y="46" width="92" height="42" rx="5" fill="#222"/>
  <rect x="104" y="42" width="84" height="8" rx="3" fill="#333"/>
  <line x1="112" y1="42" x2="112" y2="50" stroke="#555" stroke-width="2"/>
  <line x1="124" y1="42" x2="124" y2="50" stroke="#555" stroke-width="2"/>
  <line x1="136" y1="42" x2="136" y2="50" stroke="#555" stroke-width="2"/>
  <line x1="148" y1="42" x2="148" y2="50" stroke="#555" stroke-width="2"/>
  <line x1="160" y1="42" x2="160" y2="50" stroke="#555" stroke-width="2"/>
  <line x1="172" y1="42" x2="172" y2="50" stroke="#555" stroke-width="2"/>
  <line x1="184" y1="42" x2="184" y2="50" stroke="#555" stroke-width="2"/>
  <rect x="12" y="14" width="13" height="40" rx="3" fill="#0d0d0d"/>
  <rect x="8" y="10" width="21" height="8" rx="2" fill="#333"/>
  <circle cx="12" cy="68" r="16" fill="#0d0d0d"/>
  <circle cx="20" cy="102" r="8" fill="#111" stroke="#666" stroke-width="2"/>
<line x1="28.0" y1="102.0" x2="12.0" y2="102.0" stroke="#666" stroke-width="1.2"/>
<line x1="25.7" y1="107.7" x2="14.3" y2="96.3" stroke="#666" stroke-width="1.2"/>
<line x1="20.0" y1="110.0" x2="20.0" y2="94.0" stroke="#666" stroke-width="1.2"/>
<line x1="14.3" y1="107.7" x2="25.7" y2="96.3" stroke="#666" stroke-width="1.2"/>
<circle cx="20" cy="102" r="1.8" fill="#666"/>

  <circle cx="40" cy="102" r="8" fill="#111" stroke="#666" stroke-width="2"/>
<line x1="48.0" y1="102.0" x2="32.0" y2="102.0" stroke="#666" stroke-width="1.2"/>
<line x1="45.7" y1="107.7" x2="34.3" y2="96.3" stroke="#666" stroke-width="1.2"/>
<line x1="40.0" y1="110.0" x2="40.0" y2="94.0" stroke="#666" stroke-width="1.2"/>
<line x1="34.3" y1="107.7" x2="45.7" y2="96.3" stroke="#666" stroke-width="1.2"/>
<circle cx="40" cy="102" r="1.8" fill="#666"/>

  <circle cx="58" cy="102" r="12" fill="#111" stroke="#666" stroke-width="2"/>
<line x1="70.0" y1="102.0" x2="46.0" y2="102.0" stroke="#666" stroke-width="1.2"/>
<line x1="68.4" y1="108.0" x2="47.6" y2="96.0" stroke="#666" stroke-width="1.2"/>
<line x1="64.0" y1="112.4" x2="52.0" y2="91.6" stroke="#666" stroke-width="1.2"/>
<line x1="58.0" y1="114.0" x2="58.0" y2="90.0" stroke="#666" stroke-width="1.2"/>
<line x1="52.0" y1="112.4" x2="64.0" y2="91.6" stroke="#666" stroke-width="1.2"/>
<line x1="47.6" y1="108.0" x2="68.4" y2="96.0" stroke="#666" stroke-width="1.2"/>
<circle cx="58" cy="102" r="2.6" fill="#666"/>

  <circle cx="74" cy="102" r="12" fill="#111" stroke="#666" stroke-width="2"/>
<line x1="86.0" y1="102.0" x2="62.0" y2="102.0" stroke="#666" stroke-width="1.2"/>
<line x1="84.4" y1="108.0" x2="63.6" y2="96.0" stroke="#666" stroke-width="1.2"/>
<line x1="80.0" y1="112.4" x2="68.0" y2="91.6" stroke="#666" stroke-width="1.2"/>
<line x1="74.0" y1="114.0" x2="74.0" y2="90.0" stroke="#666" stroke-width="1.2"/>
<line x1="68.0" y1="112.4" x2="80.0" y2="91.6" stroke="#666" stroke-width="1.2"/>
<line x1="63.6" y1="108.0" x2="84.4" y2="96.0" stroke="#666" stroke-width="1.2"/>
<circle cx="74" cy="102" r="2.6" fill="#666"/>

  <circle cx="90" cy="102" r="12" fill="#111" stroke="#666" stroke-width="2"/>
<line x1="102.0" y1="102.0" x2="78.0" y2="102.0" stroke="#666" stroke-width="1.2"/>
<line x1="100.4" y1="108.0" x2="79.6" y2="96.0" stroke="#666" stroke-width="1.2"/>
<line x1="96.0" y1="112.4" x2="84.0" y2="91.6" stroke="#666" stroke-width="1.2"/>
<line x1="90.0" y1="114.0" x2="90.0" y2="90.0" stroke="#666" stroke-width="1.2"/>
<line x1="84.0" y1="112.4" x2="96.0" y2="91.6" stroke="#666" stroke-width="1.2"/>
<line x1="79.6" y1="108.0" x2="100.4" y2="96.0" stroke="#666" stroke-width="1.2"/>
<circle cx="90" cy="102" r="2.6" fill="#666"/>

  <circle cx="118" cy="102" r="8" fill="#222" stroke="#555" stroke-width="2"/>
<line x1="126.0" y1="102.0" x2="110.0" y2="102.0" stroke="#555" stroke-width="1.2"/>
<line x1="123.7" y1="107.7" x2="112.3" y2="96.3" stroke="#555" stroke-width="1.2"/>
<line x1="118.0" y1="110.0" x2="118.0" y2="94.0" stroke="#555" stroke-width="1.2"/>
<line x1="112.3" y1="107.7" x2="123.7" y2="96.3" stroke="#555" stroke-width="1.2"/>
<circle cx="118" cy="102" r="1.8" fill="#555"/>

  <circle cx="138" cy="102" r="8" fill="#222" stroke="#555" stroke-width="2"/>
<line x1="146.0" y1="102.0" x2="130.0" y2="102.0" stroke="#555" stroke-width="1.2"/>
<line x1="143.7" y1="107.7" x2="132.3" y2="96.3" stroke="#555" stroke-width="1.2"/>
<line x1="138.0" y1="110.0" x2="138.0" y2="94.0" stroke="#555" stroke-width="1.2"/>
<line x1="132.3" y1="107.7" x2="143.7" y2="96.3" stroke="#555" stroke-width="1.2"/>
<circle cx="138" cy="102" r="1.8" fill="#555"/>

  <circle cx="158" cy="102" r="8" fill="#222" stroke="#555" stroke-width="2"/>
<line x1="166.0" y1="102.0" x2="150.0" y2="102.0" stroke="#555" stroke-width="1.2"/>
<line x1="163.7" y1="107.7" x2="152.3" y2="96.3" stroke="#555" stroke-width="1.2"/>
<line x1="158.0" y1="110.0" x2="158.0" y2="94.0" stroke="#555" stroke-width="1.2"/>
<line x1="152.3" y1="107.7" x2="163.7" y2="96.3" stroke="#555" stroke-width="1.2"/>
<circle cx="158" cy="102" r="1.8" fill="#555"/>

  <circle cx="178" cy="102" r="8" fill="#222" stroke="#555" stroke-width="2"/>
<line x1="186.0" y1="102.0" x2="170.0" y2="102.0" stroke="#555" stroke-width="1.2"/>
<line x1="183.7" y1="107.7" x2="172.3" y2="96.3" stroke="#555" stroke-width="1.2"/>
<line x1="178.0" y1="110.0" x2="178.0" y2="94.0" stroke="#555" stroke-width="1.2"/>
<line x1="172.3" y1="107.7" x2="183.7" y2="96.3" stroke="#555" stroke-width="1.2"/>
<circle cx="178" cy="102" r="1.8" fill="#555"/>

  <line x1="5" y1="112" x2="198" y2="112" stroke="#888" stroke-width="2.5"/>


  <text x="100" y="126" font-family="Arial,sans-serif" font-size="7" fill="#555" text-anchor="middle">SAR Class 25 · 1953</text>
</svg>