<svg xmlns="http://www.w3.org/2000/svg" viewBox="0 0 200 130" width="200" height="130">

  <rect x="15" y="44" width="170" height="58" rx="6" fill="#CC0000"/>
  <!-- Swiss cross on cab end -->
  <rect x="15" y="44" width="38" height="58" rx="4" fill="#AA0000"/>
  <rect x="18" y="48" width="14" height="18" rx="2" fill="#87CEEB" opacity="0.7"/>
  <!-- Swiss cross -->
  <rect x="36" y="56" width="12" height="4" fill="#fff"/>
  <rect x="40" y="52" width="4" height="12" fill="#fff"/>
  <!-- body -->
  <rect x="53" y="44" width="132" height="58" rx="4" fill="#CC0000"/>
  <!-- large side window grille -->
  <rect x="60" y="52" width="60" height="28" rx="3" fill="#AA0000"/>
  <!-- pantograph -->
  <line x1="80" y1="44" x2="76" y2="26" stroke="#888" stroke-width="1.5"/>
  <line x1="100" y1="44" x2="104" y2="26" stroke="#888" stroke-width="1.5"/>
  <line x1="74" y1="26" x2="106" y2="26" stroke="#888" stroke-width="2"/>
  <line x1="90" y1="26" x2="90" y2="20" stroke="#aaa" stroke-width="1.5"/>
  <line x1="80" y1="20" x2="100" y2="20" stroke="#aaa" stroke-width="2"/>
  <!-- 4-axle Bo-Bo -->
  <circle cx="30" cy="110" r="9" fill="#880000" stroke="#fff" stroke-width="2"/>
<line x1="39.0" y1="110.0" x2="21.0" y2="110.0" stroke="#fff" stroke-width="1.2"/>
<line x1="36.4" y1="116.4" x2="23.6" y2="103.6" stroke="#fff" stroke-width="1.2"/>
<line x1="30.0" y1="119.0" x2="30.0" y2="101.0" stroke="#fff" stroke-width="1.2"/>
<line x1="23.6" y1="116.4" x2="36.4" y2="103.6" stroke="#fff" stroke-width="1.2"/>
<circle cx="30" cy="110" r="2.0" fill="#fff"/>

  <circle cx="55" cy="110" r="9" fill="#880000" stroke="#fff" stroke-width="2"/>
<line x1="64.0" y1="110.0" x2="46.0" y2="110.0" stroke="#fff" stroke-width="1.2"/>
<line x1="61.4" y1="116.4" x2="48.6" y2="103.6" stroke="#fff" stroke-width="1.2"/>
<line x1="55.0" y1="119.0" x2="55.0" y2="101.0" stroke="#fff" stroke-width="1.2"/>
<line x1="48.6" y1="116.4" x2="61.4" y2="103.6" stroke="#fff" stroke-width="1.2"/>
<circle cx="55" cy="110" r="2.0" fill="#fff"/>

  <circle cx="130" cy="110" r="9" fill="#880000" stroke="#fff" stroke-width="2"/>
<line x1="139.0" y1="110.0" x2="121.0" y2="110.0" stroke="#fff" stroke-width="1.2"/>
<line x1="136.4" y1="116.4" x2="123.6" y2="103.6" stroke="#fff" stroke-width="1.2"/>
<line x1="130.0" y1="119.0" x2="130.0" y2="101.0" stroke="#fff" stroke-width="1.2"/>
<line x1="123.6" y1="116.4" x2="136.4" y2="103.6" stroke="#fff" stroke-width="1.2"/>
<circle cx="130" cy="110" r="2.0" fill="#fff"/>

  <circle cx="158" cy="110" r="9" fill="#880000" stroke="#fff" stroke-width="2"/>
<line x1="167.0" y1="110.0" x2="149.0" y2="110.0" stroke="#fff" stroke-width="1.2"/>
<line x1="164.4" y1="116.4" x2="151.6" y2="103.6" stroke="#fff" stroke-width="1.2"/>
<line x1="158.0" y1="119.0" x2="158.0" y2="101.0" stroke="#fff" stroke-width="1.2"/>
<line x1="151.6" y1="116.4" x2="164.4" y2="103.6" stroke="#fff" stroke-width="1.2"/>
<circle cx="158" cy="110" r="2.0" fill="#fff"/>

  <line x1="10" y1="112" x2="195" y2="112" stroke="#888" stroke-width="2.5"/>


  <text x="100" y="126" font-family="Arial,sans-serif" font-size="7" fill="#555" text-anchor="middle">SBB Re 4/4 · 1964</text>
</svg>