<svg xmlns="http://www.w3.org/2000/svg" viewBox="0 0 215 105">
  <defs>
    <linearGradient id="mgG" x1="0" y1="0" x2="0" y2="1">
      <stop offset="0%" stop-color="#C8D8F0"/>
      <stop offset="50%" stop-color="#8AAAD0"/>
      <stop offset="100%" stop-color="#4A6A90"/>
    </linearGradient>
    <filter id="hover"><feGaussianBlur stdDeviation="3"/></filter>
  </defs>
  <!-- levitation glow -->
  <ellipse cx="108" cy="95" rx="95" ry="8" fill="#00AAFF" opacity=".2" filter="url(#hover)"/>
  <ellipse cx="108" cy="92" rx="90" ry="5" fill="#00AAFF" opacity=".3"/>
  <!-- body — aerodynamic wrap-around -->
  <path d="M4,52 Q14,22 56,20 L188,20 Q210,22 212,52 L210,78 Q198,86 164,86 L56,86 Q18,84 4,78 Z" fill="url(#mgG)"/>
  <!-- nose blue accent -->
  <path d="M4,52 Q14,30 50,24 L60,24 L60,80 Q28,78 4,78 Z" fill="#2A4A8A" opacity=".4"/>
  <!-- blue stripe at mid body -->
  <path d="M4,54 Q14,52 56,50 L188,50 Q210,52 212,54 L210,58 Q198,58 164,58 L56,58 Q18,58 4,58 Z" fill="#2A4A8A" opacity=".55"/>
  <!-- windows (panoramic curved) -->
  <rect x="68"  y="26" width="18" height="14" rx="3" fill="#87CEEB" opacity=".7"/>
  <rect x="92"  y="26" width="18" height="14" rx="3" fill="#87CEEB" opacity=".7"/>
  <rect x="116" y="26" width="18" height="14" rx="3" fill="#87CEEB" opacity=".7"/>
  <rect x="140" y="26" width="18" height="14" rx="3" fill="#87CEEB" opacity=".7"/>
  <rect x="164" y="26" width="18" height="14" rx="3" fill="#87CEEB" opacity=".7"/>
  <rect x="186" y="26" width="14" height="14" rx="3" fill="#87CEEB" opacity=".6"/>
  <!-- magnetic stator rail (underside feature) -->
  <rect x="30" y="82" width="156" height="5" rx="2" fill="#2A4A8A" opacity=".6"/>
  <rect x="30" y="84" width="156" height="3" rx="1" fill="#00AAFF" opacity=".4"/>
  <!-- NO WHEELS — hovering gap -->
  <rect x="20" y="86" width="12" height="4" rx="1" fill="#2A4A8A" opacity=".5"/>
  <rect x="44" y="86" width="12" height="4" rx="1" fill="#2A4A8A" opacity=".5"/>
  <rect x="90" y="86" width="12" height="4" rx="1" fill="#2A4A8A" opacity=".5"/>
  <rect x="146" y="86" width="12" height="4" rx="1" fill="#2A4A8A" opacity=".5"/>
  <rect x="182" y="86" width="12" height="4" rx="1" fill="#2A4A8A" opacity=".5"/>
  <!-- headlight -->
  <ellipse cx="6" cy="52" rx="5" ry="8" fill="#00CCFF" opacity=".9"/>
  <text x="108" y="104" font-family="Arial" font-size="7" fill="#888" text-anchor="middle">Shanghai Maglev · Transrapid · 431 km/h</text>
</svg>