<svg xmlns="http://www.w3.org/2000/svg" viewBox="0 0 205 105" width="205" height="105">
  <path d="M4,52 Q18,28 32,24 L195,24 L195,80 L32,80 Q18,76 4,52 Z" fill="#1A1A6B"/>
  <path d="M4,52 Q13,36 32,32 L32,72 Q13,68 4,52 Z" fill="#C8A020" opacity="0.25"/>
  <rect x="36" y="30" width="15" height="13" rx="2" fill="#87CEEB" opacity="0.6"/>
  <rect x="56" y="30" width="15" height="13" rx="2" fill="#87CEEB" opacity="0.6"/>
  <rect x="76" y="30" width="15" height="13" rx="2" fill="#87CEEB" opacity="0.6"/>
  <rect x="96" y="30" width="15" height="13" rx="2" fill="#87CEEB" opacity="0.6"/>
  <rect x="116" y="30" width="15" height="13" rx="2" fill="#87CEEB" opacity="0.6"/>
  <path d="M4,54 L195,54" stroke="#C8A020" stroke-width="2" opacity="0.4"/>
  <line x1="98"  y1="24" x2="92"  y2="12" stroke="#C8A020" stroke-width="1.5"/>
  <line x1="112" y1="24" x2="118" y2="12" stroke="#C8A020" stroke-width="1.5"/>
  <line x1="84"  y1="12" x2="130" y2="12" stroke="#C8A020" stroke-width="2.5"/>
  <circle cx="6"  cy="52" r="4" fill="#FFE040" opacity="0.85"/>
  <circle cx="193" cy="52" r="4" fill="#FFE040" opacity="0.6"/>
  <circle cx="57" cy="88" r="11" fill="#08082A" stroke="#C8A020" stroke-width="2.5"/>
  <line x1="68.0" y1="88.0" x2="46.0" y2="88.0" stroke="#C8A020" stroke-width="1.2"/>
  <line x1="66.5" y1="93.5" x2="47.5" y2="82.5" stroke="#C8A020" stroke-width="1.2"/>
  <line x1="62.5" y1="97.5" x2="51.5" y2="78.5" stroke="#C8A020" stroke-width="1.2"/>
  <line x1="57.0" y1="99.0" x2="57.0" y2="77.0" stroke="#C8A020" stroke-width="1.2"/>
  <line x1="51.5" y1="97.5" x2="62.5" y2="78.5" stroke="#C8A020" stroke-width="1.2"/>
  <line x1="47.5" y1="93.5" x2="66.5" y2="82.5" stroke="#C8A020" stroke-width="1.2"/>
  <circle cx="57" cy="88" r="2.4" fill="#C8A020"/>
  <circle cx="87" cy="88" r="11" fill="#08082A" stroke="#C8A020" stroke-width="2.5"/>
  <line x1="98.0" y1="88.0" x2="76.0" y2="88.0" stroke="#C8A020" stroke-width="1.2"/>
  <line x1="96.5" y1="93.5" x2="77.5" y2="82.5" stroke="#C8A020" stroke-width="1.2"/>
  <line x1="92.5" y1="97.5" x2="81.5" y2="78.5" stroke="#C8A020" stroke-width="1.2"/>
  <line x1="87.0" y1="99.0" x2="87.0" y2="77.0" stroke="#C8A020" stroke-width="1.2"/>
  <line x1="81.5" y1="97.5" x2="92.5" y2="78.5" stroke="#C8A020" stroke-width="1.2"/>
  <line x1="77.5" y1="93.5" x2="96.5" y2="82.5" stroke="#C8A020" stroke-width="1.2"/>
  <circle cx="87" cy="88" r="2.4" fill="#C8A020"/>
  <circle cx="125" cy="88" r="11" fill="#08082A" stroke="#C8A020" stroke-width="2.5"/>
  <line x1="136.0" y1="88.0" x2="114.0" y2="88.0" stroke="#C8A020" stroke-width="1.2"/>
  <line x1="134.5" y1="93.5" x2="115.5" y2="82.5" stroke="#C8A020" stroke-width="1.2"/>
  <line x1="130.5" y1="97.5" x2="119.5" y2="78.5" stroke="#C8A020" stroke-width="1.2"/>
  <line x1="125.0" y1="99.0" x2="125.0" y2="77.0" stroke="#C8A020" stroke-width="1.2"/>
  <line x1="119.5" y1="97.5" x2="130.5" y2="78.5" stroke="#C8A020" stroke-width="1.2"/>
  <line x1="115.5" y1="93.5" x2="134.5" y2="82.5" stroke="#C8A020" stroke-width="1.2"/>
  <circle cx="125" cy="88" r="2.4" fill="#C8A020"/>
  <circle cx="160" cy="88" r="11" fill="#08082A" stroke="#C8A020" stroke-width="2.5"/>
  <line x1="171.0" y1="88.0" x2="149.0" y2="88.0" stroke="#C8A020" stroke-width="1.2"/>
  <line x1="169.5" y1="93.5" x2="150.5" y2="82.5" stroke="#C8A020" stroke-width="1.2"/>
  <line x1="165.5" y1="97.5" x2="154.5" y2="78.5" stroke="#C8A020" stroke-width="1.2"/>
  <line x1="160.0" y1="99.0" x2="160.0" y2="77.0" stroke="#C8A020" stroke-width="1.2"/>
  <line x1="154.5" y1="97.5" x2="165.5" y2="78.5" stroke="#C8A020" stroke-width="1.2"/>
  <line x1="150.5" y1="93.5" x2="169.5" y2="82.5" stroke="#C8A020" stroke-width="1.2"/>
  <circle cx="160" cy="88" r="2.4" fill="#C8A020"/>

  <text x="102" y="101" font-family="Arial,sans-serif" font-size="7" fill="#666" text-anchor="middle">Shinkansen N700 · 2007</text>
</svg>