<svg xmlns="http://www.w3.org/2000/svg" viewBox="0 0 230 100">
  <defs>
    <linearGradient id="s500G" x1="0" y1="0" x2="0" y2="1">
      <stop offset="0%" stop-color="#2A2A6A"/>
      <stop offset="50%" stop-color="#1A1A4A"/>
      <stop offset="100%" stop-color="#0A0A2A"/>
    </linearGradient>
  </defs>
  <!-- body — ULTRA-LONG pointed nose (60px snout) -->
  <path d="M2,50 L62,24 L220,24 L220,76 L62,76 Z" fill="url(#s500G)"/>
  <!-- silver accent stripe -->
  <path d="M2,50 L62,44 L220,44 L220,56 L62,56 Z" fill="#C0C0C0" opacity=".35"/>
  <!-- windows (slanted on nose section) -->
  <rect x="70"  y="28" width="14" height="12" rx="2" fill="#87CEEB" opacity=".65"/>
  <rect x="90"  y="28" width="14" height="12" rx="2" fill="#87CEEB" opacity=".65"/>
  <rect x="110" y="28" width="14" height="12" rx="2" fill="#87CEEB" opacity=".65"/>
  <rect x="130" y="28" width="14" height="12" rx="2" fill="#87CEEB" opacity=".65"/>
  <rect x="150" y="28" width="14" height="12" rx="2" fill="#87CEEB" opacity=".65"/>
  <rect x="170" y="28" width="14" height="12" rx="2" fill="#87CEEB" opacity=".65"/>
  <rect x="192" y="28" width="14" height="12" rx="2" fill="#87CEEB" opacity=".6"/>
  <!-- pantograph -->
  <line x1="120" y1="24" x2="115" y2="12" stroke="#aaa" stroke-width="1.5"/>
  <line x1="134" y1="24" x2="139" y2="12" stroke="#aaa" stroke-width="1.5"/>
  <line x1="108" y1="12" x2="146" y2="12" stroke="#aaa" stroke-width="2"/>
  <!-- tiny headlight at nose tip -->
  <circle cx="4" cy="50" r="3" fill="#FFE040" opacity=".9"/>
  <!-- wheels -->
  <circle cx="80"  cy="87" r="10" fill="#1A1A4A" stroke="#888" stroke-width="2"/>
  <circle cx="110" cy="87" r="10" fill="#1A1A4A" stroke="#888" stroke-width="2"/>
  <circle cx="155" cy="87" r="10" fill="#1A1A4A" stroke="#888" stroke-width="2"/>
  <circle cx="185" cy="87" r="10" fill="#1A1A4A" stroke="#888" stroke-width="2"/>
  <text x="115" y="100" font-family="Arial" font-size="7" fill="#888" text-anchor="middle">Shinkansen 500 Series · 1997 · 320 km/h</text>
</svg>