<svg xmlns="http://www.w3.org/2000/svg" viewBox="0 0 200 130" width="200" height="130">

  <!-- E6 Komachi: bright red, NARROW body, very pointed nose -->
  <path d="M8,68 Q22,50 52,42 L185,42 L188,68 L185,94 L52,94 Q22,86 8,68 Z" fill="#CC0000"/>
  <!-- narrower body than standard Shinkansen -->
  <!-- silver nose tip -->
  <path d="M8,68 Q20,54 44,46 L52,46 L52,42 Q30,50 14,66 Z" fill="#C0C0C0"/>
  <path d="M8,68 Q20,82 44,90 L52,90 L52,94 Q30,86 14,70 Z" fill="#C0C0C0"/>
  <!-- white lower stripe -->
  <rect x="52" y="80" width="136" height="10" fill="#F8F8F8"/>
  <path d="M8,68 Q14,76 28,82 L52,82 L52,90 Q26,88 12,80 Z" fill="#F8F8F8"/>
  <rect x="36" y="48" width="20" height="14" rx="2" fill="#87CEEB" opacity="0.7"/>
  <circle cx="11" cy="68" r="5" fill="#FFE040" opacity="0.9"/>
  <circle cx="44" cy="102" r="8" fill="#880000" stroke="#F8F8F8" stroke-width="2"/>
<line x1="52.0" y1="102.0" x2="36.0" y2="102.0" stroke="#F8F8F8" stroke-width="1.2"/>
<line x1="49.7" y1="107.7" x2="38.3" y2="96.3" stroke="#F8F8F8" stroke-width="1.2"/>
<line x1="44.0" y1="110.0" x2="44.0" y2="94.0" stroke="#F8F8F8" stroke-width="1.2"/>
<line x1="38.3" y1="107.7" x2="49.7" y2="96.3" stroke="#F8F8F8" stroke-width="1.2"/>
<circle cx="44" cy="102" r="1.8" fill="#F8F8F8"/>

  <circle cx="68" cy="102" r="8" fill="#880000" stroke="#F8F8F8" stroke-width="2"/>
<line x1="76.0" y1="102.0" x2="60.0" y2="102.0" stroke="#F8F8F8" stroke-width="1.2"/>
<line x1="73.7" y1="107.7" x2="62.3" y2="96.3" stroke="#F8F8F8" stroke-width="1.2"/>
<line x1="68.0" y1="110.0" x2="68.0" y2="94.0" stroke="#F8F8F8" stroke-width="1.2"/>
<line x1="62.3" y1="107.7" x2="73.7" y2="96.3" stroke="#F8F8F8" stroke-width="1.2"/>
<circle cx="68" cy="102" r="1.8" fill="#F8F8F8"/>

  <circle cx="112" cy="102" r="8" fill="#880000" stroke="#F8F8F8" stroke-width="2"/>
<line x1="120.0" y1="102.0" x2="104.0" y2="102.0" stroke="#F8F8F8" stroke-width="1.2"/>
<line x1="117.7" y1="107.7" x2="106.3" y2="96.3" stroke="#F8F8F8" stroke-width="1.2"/>
<line x1="112.0" y1="110.0" x2="112.0" y2="94.0" stroke="#F8F8F8" stroke-width="1.2"/>
<line x1="106.3" y1="107.7" x2="117.7" y2="96.3" stroke="#F8F8F8" stroke-width="1.2"/>
<circle cx="112" cy="102" r="1.8" fill="#F8F8F8"/>

  <circle cx="150" cy="102" r="8" fill="#880000" stroke="#F8F8F8" stroke-width="2"/>
<line x1="158.0" y1="102.0" x2="142.0" y2="102.0" stroke="#F8F8F8" stroke-width="1.2"/>
<line x1="155.7" y1="107.7" x2="144.3" y2="96.3" stroke="#F8F8F8" stroke-width="1.2"/>
<line x1="150.0" y1="110.0" x2="150.0" y2="94.0" stroke="#F8F8F8" stroke-width="1.2"/>
<line x1="144.3" y1="107.7" x2="155.7" y2="96.3" stroke="#F8F8F8" stroke-width="1.2"/>
<circle cx="150" cy="102" r="1.8" fill="#F8F8F8"/>

  <circle cx="174" cy="102" r="8" fill="#880000" stroke="#F8F8F8" stroke-width="2"/>
<line x1="182.0" y1="102.0" x2="166.0" y2="102.0" stroke="#F8F8F8" stroke-width="1.2"/>
<line x1="179.7" y1="107.7" x2="168.3" y2="96.3" stroke="#F8F8F8" stroke-width="1.2"/>
<line x1="174.0" y1="110.0" x2="174.0" y2="94.0" stroke="#F8F8F8" stroke-width="1.2"/>
<line x1="168.3" y1="107.7" x2="179.7" y2="96.3" stroke="#F8F8F8" stroke-width="1.2"/>
<circle cx="174" cy="102" r="1.8" fill="#F8F8F8"/>

  <line x1="5" y1="112" x2="198" y2="112" stroke="#888" stroke-width="2.5"/>


  <text x="100" y="126" font-family="Arial,sans-serif" font-size="7" fill="#555" text-anchor="middle">Shinkansen E6 · 2013</text>
</svg>