<svg xmlns="http://www.w3.org/2000/svg" viewBox="0 0 205 105" width="205" height="105">
  <path d="M4,52 Q21,28 38,24 L195,24 L195,80 L38,80 Q21,76 4,52 Z" fill="#C83020"/>
  <path d="M4,52 Q15,36 38,32 L38,72 Q15,68 4,52 Z" fill="#C8C8C8" opacity="0.25"/>
  <rect x="42" y="30" width="15" height="13" rx="2" fill="#87CEEB" opacity="0.6"/>
  <rect x="62" y="30" width="15" height="13" rx="2" fill="#87CEEB" opacity="0.6"/>
  <rect x="82" y="30" width="15" height="13" rx="2" fill="#87CEEB" opacity="0.6"/>
  <rect x="102" y="30" width="15" height="13" rx="2" fill="#87CEEB" opacity="0.6"/>
  <rect x="122" y="30" width="15" height="13" rx="2" fill="#87CEEB" opacity="0.6"/>
  <path d="M4,54 L195,54" stroke="#C8C8C8" stroke-width="2" opacity="0.4"/>
  <line x1="98"  y1="24" x2="92"  y2="12" stroke="#C8C8C8" stroke-width="1.5"/>
  <line x1="112" y1="24" x2="118" y2="12" stroke="#C8C8C8" stroke-width="1.5"/>
  <line x1="84"  y1="12" x2="130" y2="12" stroke="#C8C8C8" stroke-width="2.5"/>
  <circle cx="6"  cy="52" r="4" fill="#FFE040" opacity="0.85"/>
  <circle cx="193" cy="52" r="4" fill="#FFE040" opacity="0.6"/>
  <circle cx="58" cy="88" r="11" fill="#5A0808" stroke="#C8C8C8" stroke-width="2.5"/>
  <line x1="69.0" y1="88.0" x2="47.0" y2="88.0" stroke="#C8C8C8" stroke-width="1.2"/>
  <line x1="67.5" y1="93.5" x2="48.5" y2="82.5" stroke="#C8C8C8" stroke-width="1.2"/>
  <line x1="63.5" y1="97.5" x2="52.5" y2="78.5" stroke="#C8C8C8" stroke-width="1.2"/>
  <line x1="58.0" y1="99.0" x2="58.0" y2="77.0" stroke="#C8C8C8" stroke-width="1.2"/>
  <line x1="52.5" y1="97.5" x2="63.5" y2="78.5" stroke="#C8C8C8" stroke-width="1.2"/>
  <line x1="48.5" y1="93.5" x2="67.5" y2="82.5" stroke="#C8C8C8" stroke-width="1.2"/>
  <circle cx="58" cy="88" r="2.4" fill="#C8C8C8"/>
  <circle cx="88" cy="88" r="11" fill="#5A0808" stroke="#C8C8C8" stroke-width="2.5"/>
  <line x1="99.0" y1="88.0" x2="77.0" y2="88.0" stroke="#C8C8C8" stroke-width="1.2"/>
  <line x1="97.5" y1="93.5" x2="78.5" y2="82.5" stroke="#C8C8C8" stroke-width="1.2"/>
  <line x1="93.5" y1="97.5" x2="82.5" y2="78.5" stroke="#C8C8C8" stroke-width="1.2"/>
  <line x1="88.0" y1="99.0" x2="88.0" y2="77.0" stroke="#C8C8C8" stroke-width="1.2"/>
  <line x1="82.5" y1="97.5" x2="93.5" y2="78.5" stroke="#C8C8C8" stroke-width="1.2"/>
  <line x1="78.5" y1="93.5" x2="97.5" y2="82.5" stroke="#C8C8C8" stroke-width="1.2"/>
  <circle cx="88" cy="88" r="2.4" fill="#C8C8C8"/>
  <circle cx="125" cy="88" r="11" fill="#5A0808" stroke="#C8C8C8" stroke-width="2.5"/>
  <line x1="136.0" y1="88.0" x2="114.0" y2="88.0" stroke="#C8C8C8" stroke-width="1.2"/>
  <line x1="134.5" y1="93.5" x2="115.5" y2="82.5" stroke="#C8C8C8" stroke-width="1.2"/>
  <line x1="130.5" y1="97.5" x2="119.5" y2="78.5" stroke="#C8C8C8" stroke-width="1.2"/>
  <line x1="125.0" y1="99.0" x2="125.0" y2="77.0" stroke="#C8C8C8" stroke-width="1.2"/>
  <line x1="119.5" y1="97.5" x2="130.5" y2="78.5" stroke="#C8C8C8" stroke-width="1.2"/>
  <line x1="115.5" y1="93.5" x2="134.5" y2="82.5" stroke="#C8C8C8" stroke-width="1.2"/>
  <circle cx="125" cy="88" r="2.4" fill="#C8C8C8"/>
  <circle cx="160" cy="88" r="11" fill="#5A0808" stroke="#C8C8C8" stroke-width="2.5"/>
  <line x1="171.0" y1="88.0" x2="149.0" y2="88.0" stroke="#C8C8C8" stroke-width="1.2"/>
  <line x1="169.5" y1="93.5" x2="150.5" y2="82.5" stroke="#C8C8C8" stroke-width="1.2"/>
  <line x1="165.5" y1="97.5" x2="154.5" y2="78.5" stroke="#C8C8C8" stroke-width="1.2"/>
  <line x1="160.0" y1="99.0" x2="160.0" y2="77.0" stroke="#C8C8C8" stroke-width="1.2"/>
  <line x1="154.5" y1="97.5" x2="165.5" y2="78.5" stroke="#C8C8C8" stroke-width="1.2"/>
  <line x1="150.5" y1="93.5" x2="169.5" y2="82.5" stroke="#C8C8C8" stroke-width="1.2"/>
  <circle cx="160" cy="88" r="2.4" fill="#C8C8C8"/>

  <text x="102" y="101" font-family="Arial,sans-serif" font-size="7" fill="#666" text-anchor="middle">Shinkansen E6 · 2013</text>
</svg>