<svg xmlns="http://www.w3.org/2000/svg" viewBox="0 0 210 100">
  <defs>
    <linearGradient id="s0G" x1="0" y1="0" x2="1" y2="0">
      <stop offset="0%" stop-color="#E8E8E8"/>
      <stop offset="100%" stop-color="#F5F5F5"/>
    </linearGradient>
  </defs>
  <!-- body — BLUNT round nose -->
  <path d="M4,50 Q4,24 24,24 L196,24 L196,76 L24,76 Q4,76 4,50Z" fill="url(#s0G)"/>
  <!-- blue stripe -->
  <path d="M4,50 Q4,44 22,42 L196,42 L196,58 Q196,58 22,58 Q4,58 4,50Z" fill="#1A3A8A" opacity=".75"/>
  <!-- windows (square, old style) -->
  <rect x="30"  y="28" width="18" height="12" rx="1" fill="#87CEEB" opacity=".7"/>
  <rect x="54"  y="28" width="18" height="12" rx="1" fill="#87CEEB" opacity=".7"/>
  <rect x="78"  y="28" width="18" height="12" rx="1" fill="#87CEEB" opacity=".7"/>
  <rect x="102" y="28" width="18" height="12" rx="1" fill="#87CEEB" opacity=".7"/>
  <rect x="126" y="28" width="18" height="12" rx="1" fill="#87CEEB" opacity=".7"/>
  <rect x="150" y="28" width="18" height="12" rx="1" fill="#87CEEB" opacity=".7"/>
  <rect x="174" y="28" width="16" height="12" rx="1" fill="#87CEEB" opacity=".65"/>
  <!-- pantograph old style -->
  <line x1="100" y1="24" x2="96"  y2="13" stroke="#888" stroke-width="1.5"/>
  <line x1="112" y1="24" x2="116" y2="13" stroke="#888" stroke-width="1.5"/>
  <line x1="88"  y1="13" x2="124" y2="13" stroke="#888" stroke-width="2"/>
  <line x1="86"  y1="16" x2="126" y2="16" stroke="#888" stroke-width="1.5"/>
  <!-- round headlamps (iconic 0-series feature) -->
  <circle cx="8"   cy="38" r="5" fill="#FFD700" opacity=".9"/>
  <circle cx="8"   cy="62" r="5" fill="#FFD700" opacity=".9"/>
  <circle cx="200" cy="38" r="5" fill="#FFD700" opacity=".6"/>
  <circle cx="200" cy="62" r="5" fill="#FFD700" opacity=".6"/>
  <!-- wheels (short skirt) -->
  <circle cx="46"  cy="87" r="10" fill="#CCC" stroke="#888" stroke-width="2"/>
  <circle cx="80"  cy="87" r="10" fill="#CCC" stroke="#888" stroke-width="2"/>
  <circle cx="130" cy="87" r="10" fill="#CCC" stroke="#888" stroke-width="2"/>
  <circle cx="164" cy="87" r="10" fill="#CCC" stroke="#888" stroke-width="2"/>
  <text x="105" y="100" font-family="Arial" font-size="7" fill="#888" text-anchor="middle">Shinkansen 0 Series · 1964 · 220 km/h</text>
</svg>