<svg xmlns="http://www.w3.org/2000/svg" viewBox="0 0 200 130" width="200" height="130">

  <!-- E7 Kagayaki: champagne gold stripe, elegant nose -->
  <path d="M8,68 Q22,44 50,36 L185,36 L188,68 L185,100 L50,100 Q22,92 8,68 Z" fill="#F5F2E8"/>
  <!-- gold/champagne stripe - key feature -->
  <rect x="50" y="58" width="138" height="22" fill="#C8A800"/>
  <path d="M8,68 Q14,62 30,58 L50,58 L50,80 L30,78 Q14,74 8,68 Z" fill="#C8A800"/>
  <!-- dark gray accent lines -->
  <rect x="50" y="36" width="138" height="8" fill="#555"/>
  <rect x="50" y="92" width="138" height="8" fill="#555"/>
  <!-- copper trim nose -->
  <path d="M8,68 Q18,52 40,44 L50,44 L50,36 L42,38 Q22,48 12,64 Z" fill="#b87333"/>
  <path d="M8,68 Q18,84 40,92 L50,92 L50,100 L42,98 Q22,88 12,72 Z" fill="#b87333"/>
  <rect x="32" y="44" width="20" height="16" rx="2" fill="#87CEEB" opacity="0.7"/>
  <circle cx="11" cy="68" r="5" fill="#FFE040" opacity="0.9"/>
  <circle cx="42" cy="108" r="9" fill="#F5F2E8" stroke="#C8A800" stroke-width="2"/>
<line x1="51.0" y1="108.0" x2="33.0" y2="108.0" stroke="#C8A800" stroke-width="1.2"/>
<line x1="48.4" y1="114.4" x2="35.6" y2="101.6" stroke="#C8A800" stroke-width="1.2"/>
<line x1="42.0" y1="117.0" x2="42.0" y2="99.0" stroke="#C8A800" stroke-width="1.2"/>
<line x1="35.6" y1="114.4" x2="48.4" y2="101.6" stroke="#C8A800" stroke-width="1.2"/>
<circle cx="42" cy="108" r="2.0" fill="#C8A800"/>

  <circle cx="66" cy="108" r="9" fill="#F5F2E8" stroke="#C8A800" stroke-width="2"/>
<line x1="75.0" y1="108.0" x2="57.0" y2="108.0" stroke="#C8A800" stroke-width="1.2"/>
<line x1="72.4" y1="114.4" x2="59.6" y2="101.6" stroke="#C8A800" stroke-width="1.2"/>
<line x1="66.0" y1="117.0" x2="66.0" y2="99.0" stroke="#C8A800" stroke-width="1.2"/>
<line x1="59.6" y1="114.4" x2="72.4" y2="101.6" stroke="#C8A800" stroke-width="1.2"/>
<circle cx="66" cy="108" r="2.0" fill="#C8A800"/>

  <circle cx="112" cy="108" r="9" fill="#F5F2E8" stroke="#C8A800" stroke-width="2"/>
<line x1="121.0" y1="108.0" x2="103.0" y2="108.0" stroke="#C8A800" stroke-width="1.2"/>
<line x1="118.4" y1="114.4" x2="105.6" y2="101.6" stroke="#C8A800" stroke-width="1.2"/>
<line x1="112.0" y1="117.0" x2="112.0" y2="99.0" stroke="#C8A800" stroke-width="1.2"/>
<line x1="105.6" y1="114.4" x2="118.4" y2="101.6" stroke="#C8A800" stroke-width="1.2"/>
<circle cx="112" cy="108" r="2.0" fill="#C8A800"/>

  <circle cx="152" cy="108" r="9" fill="#F5F2E8" stroke="#C8A800" stroke-width="2"/>
<line x1="161.0" y1="108.0" x2="143.0" y2="108.0" stroke="#C8A800" stroke-width="1.2"/>
<line x1="158.4" y1="114.4" x2="145.6" y2="101.6" stroke="#C8A800" stroke-width="1.2"/>
<line x1="152.0" y1="117.0" x2="152.0" y2="99.0" stroke="#C8A800" stroke-width="1.2"/>
<line x1="145.6" y1="114.4" x2="158.4" y2="101.6" stroke="#C8A800" stroke-width="1.2"/>
<circle cx="152" cy="108" r="2.0" fill="#C8A800"/>

  <circle cx="176" cy="108" r="9" fill="#F5F2E8" stroke="#C8A800" stroke-width="2"/>
<line x1="185.0" y1="108.0" x2="167.0" y2="108.0" stroke="#C8A800" stroke-width="1.2"/>
<line x1="182.4" y1="114.4" x2="169.6" y2="101.6" stroke="#C8A800" stroke-width="1.2"/>
<line x1="176.0" y1="117.0" x2="176.0" y2="99.0" stroke="#C8A800" stroke-width="1.2"/>
<line x1="169.6" y1="114.4" x2="182.4" y2="101.6" stroke="#C8A800" stroke-width="1.2"/>
<circle cx="176" cy="108" r="2.0" fill="#C8A800"/>

  <line x1="5" y1="112" x2="198" y2="112" stroke="#888" stroke-width="2.5"/>


  <text x="100" y="126" font-family="Arial,sans-serif" font-size="7" fill="#555" text-anchor="middle">Shinkansen E7 · 2014</text>
</svg>