<svg xmlns="http://www.w3.org/2000/svg" viewBox="0 0 205 105" width="205" height="105">
  <path d="M4,52 Q14,28 24,24 L195,24 L195,80 L24,80 Q14,76 4,52 Z" fill="#F0F0F0"/>
  <path d="M4,52 Q10,36 24,32 L24,72 Q10,68 4,52 Z" fill="#1A3A6B" opacity="0.25"/>
  <rect x="28" y="30" width="15" height="13" rx="2" fill="#87CEEB" opacity="0.6"/>
  <rect x="48" y="30" width="15" height="13" rx="2" fill="#87CEEB" opacity="0.6"/>
  <rect x="68" y="30" width="15" height="13" rx="2" fill="#87CEEB" opacity="0.6"/>
  <rect x="88" y="30" width="15" height="13" rx="2" fill="#87CEEB" opacity="0.6"/>
  <rect x="108" y="30" width="15" height="13" rx="2" fill="#87CEEB" opacity="0.6"/>
  <path d="M4,54 L195,54" stroke="#1A3A6B" stroke-width="2" opacity="0.4"/>
  <line x1="98"  y1="24" x2="92"  y2="12" stroke="#1A3A6B" stroke-width="1.5"/>
  <line x1="112" y1="24" x2="118" y2="12" stroke="#1A3A6B" stroke-width="1.5"/>
  <line x1="84"  y1="12" x2="130" y2="12" stroke="#1A3A6B" stroke-width="2.5"/>
  <circle cx="6"  cy="52" r="4" fill="#FFE040" opacity="0.85"/>
  <circle cx="193" cy="52" r="4" fill="#FFE040" opacity="0.6"/>
  <circle cx="55" cy="88" r="11" fill="#C8C8C8" stroke="#1A3A6B" stroke-width="2.5"/>
  <line x1="66.0" y1="88.0" x2="44.0" y2="88.0" stroke="#1A3A6B" stroke-width="1.2"/>
  <line x1="64.5" y1="93.5" x2="45.5" y2="82.5" stroke="#1A3A6B" stroke-width="1.2"/>
  <line x1="60.5" y1="97.5" x2="49.5" y2="78.5" stroke="#1A3A6B" stroke-width="1.2"/>
  <line x1="55.0" y1="99.0" x2="55.0" y2="77.0" stroke="#1A3A6B" stroke-width="1.2"/>
  <line x1="49.5" y1="97.5" x2="60.5" y2="78.5" stroke="#1A3A6B" stroke-width="1.2"/>
  <line x1="45.5" y1="93.5" x2="64.5" y2="82.5" stroke="#1A3A6B" stroke-width="1.2"/>
  <circle cx="55" cy="88" r="2.4" fill="#1A3A6B"/>
  <circle cx="85" cy="88" r="11" fill="#C8C8C8" stroke="#1A3A6B" stroke-width="2.5"/>
  <line x1="96.0" y1="88.0" x2="74.0" y2="88.0" stroke="#1A3A6B" stroke-width="1.2"/>
  <line x1="94.5" y1="93.5" x2="75.5" y2="82.5" stroke="#1A3A6B" stroke-width="1.2"/>
  <line x1="90.5" y1="97.5" x2="79.5" y2="78.5" stroke="#1A3A6B" stroke-width="1.2"/>
  <line x1="85.0" y1="99.0" x2="85.0" y2="77.0" stroke="#1A3A6B" stroke-width="1.2"/>
  <line x1="79.5" y1="97.5" x2="90.5" y2="78.5" stroke="#1A3A6B" stroke-width="1.2"/>
  <line x1="75.5" y1="93.5" x2="94.5" y2="82.5" stroke="#1A3A6B" stroke-width="1.2"/>
  <circle cx="85" cy="88" r="2.4" fill="#1A3A6B"/>
  <circle cx="125" cy="88" r="11" fill="#C8C8C8" stroke="#1A3A6B" stroke-width="2.5"/>
  <line x1="136.0" y1="88.0" x2="114.0" y2="88.0" stroke="#1A3A6B" stroke-width="1.2"/>
  <line x1="134.5" y1="93.5" x2="115.5" y2="82.5" stroke="#1A3A6B" stroke-width="1.2"/>
  <line x1="130.5" y1="97.5" x2="119.5" y2="78.5" stroke="#1A3A6B" stroke-width="1.2"/>
  <line x1="125.0" y1="99.0" x2="125.0" y2="77.0" stroke="#1A3A6B" stroke-width="1.2"/>
  <line x1="119.5" y1="97.5" x2="130.5" y2="78.5" stroke="#1A3A6B" stroke-width="1.2"/>
  <line x1="115.5" y1="93.5" x2="134.5" y2="82.5" stroke="#1A3A6B" stroke-width="1.2"/>
  <circle cx="125" cy="88" r="2.4" fill="#1A3A6B"/>
  <circle cx="160" cy="88" r="11" fill="#C8C8C8" stroke="#1A3A6B" stroke-width="2.5"/>
  <line x1="171.0" y1="88.0" x2="149.0" y2="88.0" stroke="#1A3A6B" stroke-width="1.2"/>
  <line x1="169.5" y1="93.5" x2="150.5" y2="82.5" stroke="#1A3A6B" stroke-width="1.2"/>
  <line x1="165.5" y1="97.5" x2="154.5" y2="78.5" stroke="#1A3A6B" stroke-width="1.2"/>
  <line x1="160.0" y1="99.0" x2="160.0" y2="77.0" stroke="#1A3A6B" stroke-width="1.2"/>
  <line x1="154.5" y1="97.5" x2="165.5" y2="78.5" stroke="#1A3A6B" stroke-width="1.2"/>
  <line x1="150.5" y1="93.5" x2="169.5" y2="82.5" stroke="#1A3A6B" stroke-width="1.2"/>
  <circle cx="160" cy="88" r="2.4" fill="#1A3A6B"/>

  <text x="102" y="101" font-family="Arial,sans-serif" font-size="7" fill="#666" text-anchor="middle">Shinkansen 700 · 1999</text>
</svg>