<svg xmlns="http://www.w3.org/2000/svg" viewBox="0 0 220 100">
  <defs>
    <linearGradient id="e5G" x1="0" y1="0" x2="0" y2="1">
      <stop offset="0%" stop-color="#2E8B4A"/>
      <stop offset="100%" stop-color="#1A5A2E"/>
    </linearGradient>
  </defs>
  <!-- long tapering nose — 46px -->
  <path d="M2,50 L48,24 L210,24 L210,76 L48,76 Z" fill="url(#e5G)"/>
  <!-- pink-purple stripe (iconic E5 feature) -->
  <path d="M2,50 L48,44 L210,44 L210,56 L48,56 Z" fill="#9B30A0" opacity=".7"/>
  <!-- white band above purple -->
  <path d="M2,50 L48,38 L210,38 L210,44 L48,44 Z" fill="#FFFFFF" opacity=".4"/>
  <!-- windows -->
  <rect x="55"  y="28" width="15" height="12" rx="2" fill="#87CEEB" opacity=".65"/>
  <rect x="76"  y="28" width="15" height="12" rx="2" fill="#87CEEB" opacity=".65"/>
  <rect x="97"  y="28" width="15" height="12" rx="2" fill="#87CEEB" opacity=".65"/>
  <rect x="118" y="28" width="15" height="12" rx="2" fill="#87CEEB" opacity=".65"/>
  <rect x="139" y="28" width="15" height="12" rx="2" fill="#87CEEB" opacity=".65"/>
  <rect x="160" y="28" width="15" height="12" rx="2" fill="#87CEEB" opacity=".65"/>
  <rect x="182" y="28" width="14" height="12" rx="2" fill="#87CEEB" opacity=".6"/>
  <!-- pantograph -->
  <line x1="115" y1="24" x2="110" y2="12" stroke="#aaa" stroke-width="1.5"/>
  <line x1="128" y1="24" x2="133" y2="12" stroke="#aaa" stroke-width="1.5"/>
  <line x1="102" y1="12" x2="140" y2="12" stroke="#aaa" stroke-width="2"/>
  <circle cx="4" cy="50" r="3" fill="#FFE040" opacity=".9"/>
  <!-- wheels -->
  <circle cx="68"  cy="87" r="10" fill="#1A5A2E" stroke="#888" stroke-width="2"/>
  <circle cx="98"  cy="87" r="10" fill="#1A5A2E" stroke="#888" stroke-width="2"/>
  <circle cx="144" cy="87" r="10" fill="#1A5A2E" stroke="#888" stroke-width="2"/>
  <circle cx="174" cy="87" r="10" fill="#1A5A2E" stroke="#888" stroke-width="2"/>
  <text x="110" y="100" font-family="Arial" font-size="7" fill="#888" text-anchor="middle">Shinkansen E5 Hayabusa · 2011 · 320 km/h</text>
</svg>