<svg xmlns="http://www.w3.org/2000/svg" viewBox="0 0 200 130" width="200" height="130">

  <!-- N700S: Supreme, winged nose profile, more complex -->
  <path d="M8,68 Q22,44 50,36 L185,36 L188,68 L185,100 L50,100 Q22,92 8,68 Z" fill="#F8F8F8"/>
  <!-- N700S winged nose - upper wing curve distinct from N700 -->
  <path d="M8,68 Q18,50 40,42 Q46,40 50,36 Q30,44 14,62 Z" fill="#eee"/>
  <!-- winged lower contour -->
  <path d="M8,68 Q16,78 36,86 Q44,88 50,90 L50,100 Q26,96 10,84 Z" fill="#003082"/>
  <!-- Supreme blue lower band higher placement -->
  <rect x="50" y="80" width="138" height="16" fill="#003082"/>
  <!-- wing detail at nose -->
  <path d="M14,56 Q22,52 34,50 L38,52 Q26,54 16,62 Z" fill="#ccc"/>
  <rect x="32" y="42" width="22" height="16" rx="2" fill="#87CEEB" opacity="0.7"/>
  <circle cx="11" cy="68" r="5" fill="#FFE040" opacity="0.9"/>
  <circle cx="42" cy="108" r="9" fill="#ddd" stroke="#003082" stroke-width="2"/>
<line x1="51.0" y1="108.0" x2="33.0" y2="108.0" stroke="#003082" stroke-width="1.2"/>
<line x1="48.4" y1="114.4" x2="35.6" y2="101.6" stroke="#003082" stroke-width="1.2"/>
<line x1="42.0" y1="117.0" x2="42.0" y2="99.0" stroke="#003082" stroke-width="1.2"/>
<line x1="35.6" y1="114.4" x2="48.4" y2="101.6" stroke="#003082" stroke-width="1.2"/>
<circle cx="42" cy="108" r="2.0" fill="#003082"/>

  <circle cx="66" cy="108" r="9" fill="#ddd" stroke="#003082" stroke-width="2"/>
<line x1="75.0" y1="108.0" x2="57.0" y2="108.0" stroke="#003082" stroke-width="1.2"/>
<line x1="72.4" y1="114.4" x2="59.6" y2="101.6" stroke="#003082" stroke-width="1.2"/>
<line x1="66.0" y1="117.0" x2="66.0" y2="99.0" stroke="#003082" stroke-width="1.2"/>
<line x1="59.6" y1="114.4" x2="72.4" y2="101.6" stroke="#003082" stroke-width="1.2"/>
<circle cx="66" cy="108" r="2.0" fill="#003082"/>

  <circle cx="112" cy="108" r="9" fill="#ddd" stroke="#003082" stroke-width="2"/>
<line x1="121.0" y1="108.0" x2="103.0" y2="108.0" stroke="#003082" stroke-width="1.2"/>
<line x1="118.4" y1="114.4" x2="105.6" y2="101.6" stroke="#003082" stroke-width="1.2"/>
<line x1="112.0" y1="117.0" x2="112.0" y2="99.0" stroke="#003082" stroke-width="1.2"/>
<line x1="105.6" y1="114.4" x2="118.4" y2="101.6" stroke="#003082" stroke-width="1.2"/>
<circle cx="112" cy="108" r="2.0" fill="#003082"/>

  <circle cx="152" cy="108" r="9" fill="#ddd" stroke="#003082" stroke-width="2"/>
<line x1="161.0" y1="108.0" x2="143.0" y2="108.0" stroke="#003082" stroke-width="1.2"/>
<line x1="158.4" y1="114.4" x2="145.6" y2="101.6" stroke="#003082" stroke-width="1.2"/>
<line x1="152.0" y1="117.0" x2="152.0" y2="99.0" stroke="#003082" stroke-width="1.2"/>
<line x1="145.6" y1="114.4" x2="158.4" y2="101.6" stroke="#003082" stroke-width="1.2"/>
<circle cx="152" cy="108" r="2.0" fill="#003082"/>

  <circle cx="176" cy="108" r="9" fill="#ddd" stroke="#003082" stroke-width="2"/>
<line x1="185.0" y1="108.0" x2="167.0" y2="108.0" stroke="#003082" stroke-width="1.2"/>
<line x1="182.4" y1="114.4" x2="169.6" y2="101.6" stroke="#003082" stroke-width="1.2"/>
<line x1="176.0" y1="117.0" x2="176.0" y2="99.0" stroke="#003082" stroke-width="1.2"/>
<line x1="169.6" y1="114.4" x2="182.4" y2="101.6" stroke="#003082" stroke-width="1.2"/>
<circle cx="176" cy="108" r="2.0" fill="#003082"/>

  <line x1="5" y1="112" x2="198" y2="112" stroke="#888" stroke-width="2.5"/>


  <text x="100" y="126" font-family="Arial,sans-serif" font-size="7" fill="#555" text-anchor="middle">Shinkansen N700S · 2020</text>
</svg>