<svg xmlns="http://www.w3.org/2000/svg" viewBox="0 0 200 130" width="200" height="130">

  <!-- Series 100: blunt rounded nose, blue lower stripe -->
  <path d="M8,68 Q22,44 50,38 L185,38 L188,68 L185,98 L50,98 Q22,92 8,68 Z" fill="#F8F8F8"/>
  <!-- blunt rounded nose - wider than 0-series -->
  <path d="M8,68 Q20,50 44,44 L50,44 L50,38 Q28,44 14,60 Z" fill="#eee"/>
  <!-- blue stripe Series 100 -->
  <rect x="50" y="82" width="138" height="10" fill="#003082"/>
  <path d="M8,68 Q14,78 30,84 L50,84 L50,92 Q28,90 12,80 Z" fill="#003082"/>
  <rect x="30" y="46" width="24" height="18" rx="2" fill="#87CEEB" opacity="0.7"/>
  <circle cx="11" cy="68" r="5" fill="#FFE040" opacity="0.9"/>
  <circle cx="42" cy="106" r="9" fill="#ddd" stroke="#003082" stroke-width="2"/>
<line x1="51.0" y1="106.0" x2="33.0" y2="106.0" stroke="#003082" stroke-width="1.2"/>
<line x1="48.4" y1="112.4" x2="35.6" y2="99.6" stroke="#003082" stroke-width="1.2"/>
<line x1="42.0" y1="115.0" x2="42.0" y2="97.0" stroke="#003082" stroke-width="1.2"/>
<line x1="35.6" y1="112.4" x2="48.4" y2="99.6" stroke="#003082" stroke-width="1.2"/>
<circle cx="42" cy="106" r="2.0" fill="#003082"/>

  <circle cx="66" cy="106" r="9" fill="#ddd" stroke="#003082" stroke-width="2"/>
<line x1="75.0" y1="106.0" x2="57.0" y2="106.0" stroke="#003082" stroke-width="1.2"/>
<line x1="72.4" y1="112.4" x2="59.6" y2="99.6" stroke="#003082" stroke-width="1.2"/>
<line x1="66.0" y1="115.0" x2="66.0" y2="97.0" stroke="#003082" stroke-width="1.2"/>
<line x1="59.6" y1="112.4" x2="72.4" y2="99.6" stroke="#003082" stroke-width="1.2"/>
<circle cx="66" cy="106" r="2.0" fill="#003082"/>

  <circle cx="112" cy="106" r="9" fill="#ddd" stroke="#003082" stroke-width="2"/>
<line x1="121.0" y1="106.0" x2="103.0" y2="106.0" stroke="#003082" stroke-width="1.2"/>
<line x1="118.4" y1="112.4" x2="105.6" y2="99.6" stroke="#003082" stroke-width="1.2"/>
<line x1="112.0" y1="115.0" x2="112.0" y2="97.0" stroke="#003082" stroke-width="1.2"/>
<line x1="105.6" y1="112.4" x2="118.4" y2="99.6" stroke="#003082" stroke-width="1.2"/>
<circle cx="112" cy="106" r="2.0" fill="#003082"/>

  <circle cx="152" cy="106" r="9" fill="#ddd" stroke="#003082" stroke-width="2"/>
<line x1="161.0" y1="106.0" x2="143.0" y2="106.0" stroke="#003082" stroke-width="1.2"/>
<line x1="158.4" y1="112.4" x2="145.6" y2="99.6" stroke="#003082" stroke-width="1.2"/>
<line x1="152.0" y1="115.0" x2="152.0" y2="97.0" stroke="#003082" stroke-width="1.2"/>
<line x1="145.6" y1="112.4" x2="158.4" y2="99.6" stroke="#003082" stroke-width="1.2"/>
<circle cx="152" cy="106" r="2.0" fill="#003082"/>

  <circle cx="176" cy="106" r="9" fill="#ddd" stroke="#003082" stroke-width="2"/>
<line x1="185.0" y1="106.0" x2="167.0" y2="106.0" stroke="#003082" stroke-width="1.2"/>
<line x1="182.4" y1="112.4" x2="169.6" y2="99.6" stroke="#003082" stroke-width="1.2"/>
<line x1="176.0" y1="115.0" x2="176.0" y2="97.0" stroke="#003082" stroke-width="1.2"/>
<line x1="169.6" y1="112.4" x2="182.4" y2="99.6" stroke="#003082" stroke-width="1.2"/>
<circle cx="176" cy="106" r="2.0" fill="#003082"/>

  <line x1="5" y1="112" x2="198" y2="112" stroke="#888" stroke-width="2.5"/>


  <text x="100" y="126" font-family="Arial,sans-serif" font-size="7" fill="#555" text-anchor="middle">Shinkansen 100 · 1985</text>
</svg>