<svg xmlns="http://www.w3.org/2000/svg" viewBox="0 0 205 105" width="205" height="105">
  <path d="M4,52 Q13,28 22,24 L195,24 L195,80 L22,80 Q13,76 4,52 Z" fill="#F0F0F0"/>
  <path d="M4,52 Q10,36 22,32 L22,72 Q10,68 4,52 Z" fill="#1A3A6B" opacity="0.25"/>
  <rect x="26" y="30" width="15" height="13" rx="2" fill="#87CEEB" opacity="0.6"/>
  <rect x="46" y="30" width="15" height="13" rx="2" fill="#87CEEB" opacity="0.6"/>
  <rect x="66" y="30" width="15" height="13" rx="2" fill="#87CEEB" opacity="0.6"/>
  <rect x="86" y="30" width="15" height="13" rx="2" fill="#87CEEB" opacity="0.6"/>
  <rect x="106" y="30" width="15" height="13" rx="2" fill="#87CEEB" opacity="0.6"/>
  <path d="M4,54 L195,54" stroke="#1A3A6B" stroke-width="2" opacity="0.4"/>
  <line x1="98"  y1="24" x2="92"  y2="12" stroke="#1A3A6B" stroke-width="1.5"/>
  <line x1="112" y1="24" x2="118" y2="12" stroke="#1A3A6B" stroke-width="1.5"/>
  <line x1="84"  y1="12" x2="130" y2="12" stroke="#1A3A6B" stroke-width="2.5"/>
  <circle cx="6"  cy="52" r="4" fill="#FFE040" opacity="0.85"/>
  <circle cx="193" cy="52" r="4" fill="#FFE040" opacity="0.6"/>
  <circle cx="54" cy="88" r="11" fill="#C8C8C8" stroke="#1A3A6B" stroke-width="2.5"/>
  <line x1="65.0" y1="88.0" x2="43.0" y2="88.0" stroke="#1A3A6B" stroke-width="1.2"/>
  <line x1="63.5" y1="93.5" x2="44.5" y2="82.5" stroke="#1A3A6B" stroke-width="1.2"/>
  <line x1="59.5" y1="97.5" x2="48.5" y2="78.5" stroke="#1A3A6B" stroke-width="1.2"/>
  <line x1="54.0" y1="99.0" x2="54.0" y2="77.0" stroke="#1A3A6B" stroke-width="1.2"/>
  <line x1="48.5" y1="97.5" x2="59.5" y2="78.5" stroke="#1A3A6B" stroke-width="1.2"/>
  <line x1="44.5" y1="93.5" x2="63.5" y2="82.5" stroke="#1A3A6B" stroke-width="1.2"/>
  <circle cx="54" cy="88" r="2.4" fill="#1A3A6B"/>
  <circle cx="84" cy="88" r="11" fill="#C8C8C8" stroke="#1A3A6B" stroke-width="2.5"/>
  <line x1="95.0" y1="88.0" x2="73.0" y2="88.0" stroke="#1A3A6B" stroke-width="1.2"/>
  <line x1="93.5" y1="93.5" x2="74.5" y2="82.5" stroke="#1A3A6B" stroke-width="1.2"/>
  <line x1="89.5" y1="97.5" x2="78.5" y2="78.5" stroke="#1A3A6B" stroke-width="1.2"/>
  <line x1="84.0" y1="99.0" x2="84.0" y2="77.0" stroke="#1A3A6B" stroke-width="1.2"/>
  <line x1="78.5" y1="97.5" x2="89.5" y2="78.5" stroke="#1A3A6B" stroke-width="1.2"/>
  <line x1="74.5" y1="93.5" x2="93.5" y2="82.5" stroke="#1A3A6B" stroke-width="1.2"/>
  <circle cx="84" cy="88" r="2.4" fill="#1A3A6B"/>
  <circle cx="125" cy="88" r="11" fill="#C8C8C8" stroke="#1A3A6B" stroke-width="2.5"/>
  <line x1="136.0" y1="88.0" x2="114.0" y2="88.0" stroke="#1A3A6B" stroke-width="1.2"/>
  <line x1="134.5" y1="93.5" x2="115.5" y2="82.5" stroke="#1A3A6B" stroke-width="1.2"/>
  <line x1="130.5" y1="97.5" x2="119.5" y2="78.5" stroke="#1A3A6B" stroke-width="1.2"/>
  <line x1="125.0" y1="99.0" x2="125.0" y2="77.0" stroke="#1A3A6B" stroke-width="1.2"/>
  <line x1="119.5" y1="97.5" x2="130.5" y2="78.5" stroke="#1A3A6B" stroke-width="1.2"/>
  <line x1="115.5" y1="93.5" x2="134.5" y2="82.5" stroke="#1A3A6B" stroke-width="1.2"/>
  <circle cx="125" cy="88" r="2.4" fill="#1A3A6B"/>
  <circle cx="160" cy="88" r="11" fill="#C8C8C8" stroke="#1A3A6B" stroke-width="2.5"/>
  <line x1="171.0" y1="88.0" x2="149.0" y2="88.0" stroke="#1A3A6B" stroke-width="1.2"/>
  <line x1="169.5" y1="93.5" x2="150.5" y2="82.5" stroke="#1A3A6B" stroke-width="1.2"/>
  <line x1="165.5" y1="97.5" x2="154.5" y2="78.5" stroke="#1A3A6B" stroke-width="1.2"/>
  <line x1="160.0" y1="99.0" x2="160.0" y2="77.0" stroke="#1A3A6B" stroke-width="1.2"/>
  <line x1="154.5" y1="97.5" x2="165.5" y2="78.5" stroke="#1A3A6B" stroke-width="1.2"/>
  <line x1="150.5" y1="93.5" x2="169.5" y2="82.5" stroke="#1A3A6B" stroke-width="1.2"/>
  <circle cx="160" cy="88" r="2.4" fill="#1A3A6B"/>

  <text x="102" y="101" font-family="Arial,sans-serif" font-size="7" fill="#666" text-anchor="middle">Shinkansen 100 · 1985</text>
</svg>