<svg xmlns="http://www.w3.org/2000/svg" viewBox="0 0 200 130" width="200" height="130">

  <!-- Desiro: regional DMU, blue/gray with distinct rounded nose -->
  <path d="M10,68 Q18,46 34,42 L185,42 L188,68 L185,94 L34,94 Q18,90 10,68 Z" fill="#3a6aa0"/>
  <rect x="34" y="42" width="154" height="52" rx="0" fill="#3a6aa0"/>
  <!-- gray upper area -->
  <rect x="34" y="42" width="154" height="18" rx="0" fill="#888"/>
  <path d="M10,68 Q14,54 26,50 L30,50 L30,58 Q18,60 12,68 Z" fill="#888"/>
  <!-- windshield large -->
  <rect x="14" y="48" width="24" height="18" rx="3" fill="#87CEEB" opacity="0.8"/>
  <!-- Desiro diagonal headlight strip -->
  <line x1="12" y1="76" x2="32" y2="82" stroke="#FFE040" stroke-width="3"/>
  <!-- windows -->
  <rect x="42" y="58" width="10" height="12" rx="1" fill="#87CEEB" opacity="0.6"/>
  <rect x="58" y="58" width="10" height="12" rx="1" fill="#87CEEB" opacity="0.6"/>
  <rect x="74" y="58" width="10" height="12" rx="1" fill="#87CEEB" opacity="0.6"/>
  <rect x="152" y="42" width="36" height="52" rx="3" fill="#2a5a90"/>
  <rect x="156" y="46" width="16" height="14" rx="2" fill="#87CEEB" opacity="0.7"/>
  <circle cx="30" cy="102" r="7" fill="#2a5a90" stroke="#888" stroke-width="2"/>
<line x1="37.0" y1="102.0" x2="23.0" y2="102.0" stroke="#888" stroke-width="1.2"/>
<line x1="34.9" y1="106.9" x2="25.1" y2="97.1" stroke="#888" stroke-width="1.2"/>
<line x1="30.0" y1="109.0" x2="30.0" y2="95.0" stroke="#888" stroke-width="1.2"/>
<line x1="25.1" y1="106.9" x2="34.9" y2="97.1" stroke="#888" stroke-width="1.2"/>
<circle cx="30" cy="102" r="1.5" fill="#888"/>

  <circle cx="54" cy="102" r="7" fill="#2a5a90" stroke="#888" stroke-width="2"/>
<line x1="61.0" y1="102.0" x2="47.0" y2="102.0" stroke="#888" stroke-width="1.2"/>
<line x1="58.9" y1="106.9" x2="49.1" y2="97.1" stroke="#888" stroke-width="1.2"/>
<line x1="54.0" y1="109.0" x2="54.0" y2="95.0" stroke="#888" stroke-width="1.2"/>
<line x1="49.1" y1="106.9" x2="58.9" y2="97.1" stroke="#888" stroke-width="1.2"/>
<circle cx="54" cy="102" r="1.5" fill="#888"/>

  <circle cx="100" cy="102" r="7" fill="#2a5a90" stroke="#888" stroke-width="2"/>
<line x1="107.0" y1="102.0" x2="93.0" y2="102.0" stroke="#888" stroke-width="1.2"/>
<line x1="104.9" y1="106.9" x2="95.1" y2="97.1" stroke="#888" stroke-width="1.2"/>
<line x1="100.0" y1="109.0" x2="100.0" y2="95.0" stroke="#888" stroke-width="1.2"/>
<line x1="95.1" y1="106.9" x2="104.9" y2="97.1" stroke="#888" stroke-width="1.2"/>
<circle cx="100" cy="102" r="1.5" fill="#888"/>

  <circle cx="140" cy="102" r="7" fill="#2a5a90" stroke="#888" stroke-width="2"/>
<line x1="147.0" y1="102.0" x2="133.0" y2="102.0" stroke="#888" stroke-width="1.2"/>
<line x1="144.9" y1="106.9" x2="135.1" y2="97.1" stroke="#888" stroke-width="1.2"/>
<line x1="140.0" y1="109.0" x2="140.0" y2="95.0" stroke="#888" stroke-width="1.2"/>
<line x1="135.1" y1="106.9" x2="144.9" y2="97.1" stroke="#888" stroke-width="1.2"/>
<circle cx="140" cy="102" r="1.5" fill="#888"/>

  <circle cx="166" cy="102" r="7" fill="#2a5a90" stroke="#888" stroke-width="2"/>
<line x1="173.0" y1="102.0" x2="159.0" y2="102.0" stroke="#888" stroke-width="1.2"/>
<line x1="170.9" y1="106.9" x2="161.1" y2="97.1" stroke="#888" stroke-width="1.2"/>
<line x1="166.0" y1="109.0" x2="166.0" y2="95.0" stroke="#888" stroke-width="1.2"/>
<line x1="161.1" y1="106.9" x2="170.9" y2="97.1" stroke="#888" stroke-width="1.2"/>
<circle cx="166" cy="102" r="1.5" fill="#888"/>

  <line x1="5" y1="112" x2="198" y2="112" stroke="#888" stroke-width="2.5"/>


  <text x="100" y="126" font-family="Arial,sans-serif" font-size="7" fill="#555" text-anchor="middle">Siemens Desiro · 2002</text>
</svg>