<svg xmlns="http://www.w3.org/2000/svg" viewBox="0 0 200 130" width="200" height="130">

  <!-- Silver Meteor: Seaboard streamlined silver/red, 1939 -->
  <path d="M10,68 Q22,44 48,38 L185,38 L188,68 L185,98 L48,98 Q22,92 10,68 Z" fill="#C8C8C8"/>
  <!-- red stripe Seaboard -->
  <rect x="48" y="60" width="140" height="16" fill="#CC0000"/>
  <path d="M10,68 Q16,62 32,60 L48,60 L48,76 L32,74 Q16,74 10,68 Z" fill="#CC0000"/>
  <!-- streamlined nose -->
  <path d="M10,68 Q18,52 36,46 L42,48 Q24,54 14,68 Z" fill="#bbb"/>
  <path d="M10,68 Q18,84 36,90 L42,88 Q24,82 14,68 Z" fill="#bbb"/>
  <rect x="30" y="44" width="22" height="18" rx="2" fill="#87CEEB" opacity="0.7"/>
  <circle cx="12" cy="68" r="6" fill="#FFE040" opacity="0.9"/>
  <circle cx="40" cy="106" r="8" fill="#aaa" stroke="#CC0000" stroke-width="2"/>
<line x1="48.0" y1="106.0" x2="32.0" y2="106.0" stroke="#CC0000" stroke-width="1.2"/>
<line x1="45.7" y1="111.7" x2="34.3" y2="100.3" stroke="#CC0000" stroke-width="1.2"/>
<line x1="40.0" y1="114.0" x2="40.0" y2="98.0" stroke="#CC0000" stroke-width="1.2"/>
<line x1="34.3" y1="111.7" x2="45.7" y2="100.3" stroke="#CC0000" stroke-width="1.2"/>
<circle cx="40" cy="106" r="1.8" fill="#CC0000"/>

  <circle cx="64" cy="106" r="8" fill="#aaa" stroke="#CC0000" stroke-width="2"/>
<line x1="72.0" y1="106.0" x2="56.0" y2="106.0" stroke="#CC0000" stroke-width="1.2"/>
<line x1="69.7" y1="111.7" x2="58.3" y2="100.3" stroke="#CC0000" stroke-width="1.2"/>
<line x1="64.0" y1="114.0" x2="64.0" y2="98.0" stroke="#CC0000" stroke-width="1.2"/>
<line x1="58.3" y1="111.7" x2="69.7" y2="100.3" stroke="#CC0000" stroke-width="1.2"/>
<circle cx="64" cy="106" r="1.8" fill="#CC0000"/>

  <circle cx="110" cy="106" r="8" fill="#aaa" stroke="#CC0000" stroke-width="2"/>
<line x1="118.0" y1="106.0" x2="102.0" y2="106.0" stroke="#CC0000" stroke-width="1.2"/>
<line x1="115.7" y1="111.7" x2="104.3" y2="100.3" stroke="#CC0000" stroke-width="1.2"/>
<line x1="110.0" y1="114.0" x2="110.0" y2="98.0" stroke="#CC0000" stroke-width="1.2"/>
<line x1="104.3" y1="111.7" x2="115.7" y2="100.3" stroke="#CC0000" stroke-width="1.2"/>
<circle cx="110" cy="106" r="1.8" fill="#CC0000"/>

  <circle cx="150" cy="106" r="8" fill="#aaa" stroke="#CC0000" stroke-width="2"/>
<line x1="158.0" y1="106.0" x2="142.0" y2="106.0" stroke="#CC0000" stroke-width="1.2"/>
<line x1="155.7" y1="111.7" x2="144.3" y2="100.3" stroke="#CC0000" stroke-width="1.2"/>
<line x1="150.0" y1="114.0" x2="150.0" y2="98.0" stroke="#CC0000" stroke-width="1.2"/>
<line x1="144.3" y1="111.7" x2="155.7" y2="100.3" stroke="#CC0000" stroke-width="1.2"/>
<circle cx="150" cy="106" r="1.8" fill="#CC0000"/>

  <circle cx="174" cy="106" r="8" fill="#aaa" stroke="#CC0000" stroke-width="2"/>
<line x1="182.0" y1="106.0" x2="166.0" y2="106.0" stroke="#CC0000" stroke-width="1.2"/>
<line x1="179.7" y1="111.7" x2="168.3" y2="100.3" stroke="#CC0000" stroke-width="1.2"/>
<line x1="174.0" y1="114.0" x2="174.0" y2="98.0" stroke="#CC0000" stroke-width="1.2"/>
<line x1="168.3" y1="111.7" x2="179.7" y2="100.3" stroke="#CC0000" stroke-width="1.2"/>
<circle cx="174" cy="106" r="1.8" fill="#CC0000"/>

  <line x1="5" y1="112" x2="198" y2="112" stroke="#888" stroke-width="2.5"/>


  <text x="100" y="126" font-family="Arial,sans-serif" font-size="7" fill="#555" text-anchor="middle">Silver Meteor · 1939</text>
</svg>