<svg xmlns="http://www.w3.org/2000/svg" viewBox="0 0 200 130" width="200" height="130">

  <!-- X2000 tilting train, very pointed white nose -->
  <path d="M8,68 Q18,44 42,38 L185,38 L188,68 L185,98 L42,98 Q18,92 8,68 Z" fill="#fff"/>
  <!-- blue stripe SJ -->
  <rect x="42" y="58" width="146" height="20" fill="#003399"/>
  <path d="M8,68 Q14,60 30,58 L42,58 Q28,64 16,68 Q28,72 42,78 L30,78 Q14,76 8,68 Z" fill="#003399"/>
  <!-- very pointed nose different from ICE -->
  <path d="M8,68 Q14,50 32,46 L36,48 Q20,52 14,68 Z" fill="#eee"/>
  <path d="M8,68 Q14,86 32,90 L36,88 Q20,84 14,68 Z" fill="#eee"/>
  <!-- yellow SJ headlight stripe -->
  <rect x="10" y="64" width="28" height="8" fill="#FFD700"/>
  <!-- cab window -->
  <rect x="152" y="42" width="36" height="56" rx="4" fill="#003399"/>
  <rect x="156" y="46" width="18" height="16" rx="2" fill="#87CEEB" opacity="0.7"/>
  <!-- pantograph -->
  <line x1="90" y1="38" x2="86" y2="20" stroke="#888" stroke-width="1.5"/>
  <line x1="108" y1="38" x2="112" y2="20" stroke="#888" stroke-width="1.5"/>
  <line x1="84" y1="20" x2="114" y2="20" stroke="#aaa" stroke-width="2.5"/>
  <circle cx="38" cy="106" r="8" fill="#ccc" stroke="#003399" stroke-width="2"/>
<line x1="46.0" y1="106.0" x2="30.0" y2="106.0" stroke="#003399" stroke-width="1.2"/>
<line x1="43.7" y1="111.7" x2="32.3" y2="100.3" stroke="#003399" stroke-width="1.2"/>
<line x1="38.0" y1="114.0" x2="38.0" y2="98.0" stroke="#003399" stroke-width="1.2"/>
<line x1="32.3" y1="111.7" x2="43.7" y2="100.3" stroke="#003399" stroke-width="1.2"/>
<circle cx="38" cy="106" r="1.8" fill="#003399"/>

  <circle cx="62" cy="106" r="8" fill="#ccc" stroke="#003399" stroke-width="2"/>
<line x1="70.0" y1="106.0" x2="54.0" y2="106.0" stroke="#003399" stroke-width="1.2"/>
<line x1="67.7" y1="111.7" x2="56.3" y2="100.3" stroke="#003399" stroke-width="1.2"/>
<line x1="62.0" y1="114.0" x2="62.0" y2="98.0" stroke="#003399" stroke-width="1.2"/>
<line x1="56.3" y1="111.7" x2="67.7" y2="100.3" stroke="#003399" stroke-width="1.2"/>
<circle cx="62" cy="106" r="1.8" fill="#003399"/>

  <circle cx="110" cy="106" r="8" fill="#ccc" stroke="#003399" stroke-width="2"/>
<line x1="118.0" y1="106.0" x2="102.0" y2="106.0" stroke="#003399" stroke-width="1.2"/>
<line x1="115.7" y1="111.7" x2="104.3" y2="100.3" stroke="#003399" stroke-width="1.2"/>
<line x1="110.0" y1="114.0" x2="110.0" y2="98.0" stroke="#003399" stroke-width="1.2"/>
<line x1="104.3" y1="111.7" x2="115.7" y2="100.3" stroke="#003399" stroke-width="1.2"/>
<circle cx="110" cy="106" r="1.8" fill="#003399"/>

  <circle cx="148" cy="106" r="8" fill="#ccc" stroke="#003399" stroke-width="2"/>
<line x1="156.0" y1="106.0" x2="140.0" y2="106.0" stroke="#003399" stroke-width="1.2"/>
<line x1="153.7" y1="111.7" x2="142.3" y2="100.3" stroke="#003399" stroke-width="1.2"/>
<line x1="148.0" y1="114.0" x2="148.0" y2="98.0" stroke="#003399" stroke-width="1.2"/>
<line x1="142.3" y1="111.7" x2="153.7" y2="100.3" stroke="#003399" stroke-width="1.2"/>
<circle cx="148" cy="106" r="1.8" fill="#003399"/>

  <circle cx="172" cy="106" r="8" fill="#ccc" stroke="#003399" stroke-width="2"/>
<line x1="180.0" y1="106.0" x2="164.0" y2="106.0" stroke="#003399" stroke-width="1.2"/>
<line x1="177.7" y1="111.7" x2="166.3" y2="100.3" stroke="#003399" stroke-width="1.2"/>
<line x1="172.0" y1="114.0" x2="172.0" y2="98.0" stroke="#003399" stroke-width="1.2"/>
<line x1="166.3" y1="111.7" x2="177.7" y2="100.3" stroke="#003399" stroke-width="1.2"/>
<circle cx="172" cy="106" r="1.8" fill="#003399"/>

  <line x1="5" y1="112" x2="198" y2="112" stroke="#888" stroke-width="2.5"/>


  <text x="100" y="126" font-family="Arial,sans-serif" font-size="7" fill="#555" text-anchor="middle">SJ X2 Sweden · 1990</text>
</svg>