<svg xmlns="http://www.w3.org/2000/svg" viewBox="0 0 200 130" width="200" height="130">

  <!-- aerodynamic nose French speed record holder -->
  <path d="M10,68 Q16,42 36,38 L185,38 L188,68 L185,98 L36,98 Q16,94 10,68 Z" fill="#003399"/>
  <!-- aerodynamic rounded nose - key feature -->
  <path d="M10,68 Q14,50 30,46 L30,90 Q14,86 10,68 Z" fill="#0044AA"/>
  <!-- silver stripe -->
  <rect x="30" y="60" width="158" height="16" fill="#C0C0C0"/>
  <rect x="10" y="64" width="22" height="8" fill="#C0C0C0"/>
  <!-- cab at both ends (Bo-Bo reversible) -->
  <rect x="152" y="38" width="36" height="60" rx="4" fill="#002288"/>
  <rect x="155" y="42" width="18" height="16" rx="2" fill="#87CEEB" opacity="0.7"/>
  <circle cx="13" cy="68" r="6" fill="#FFE040" opacity="0.9"/>
  <!-- pantograph -->
  <line x1="70" y1="38" x2="66" y2="20" stroke="#888" stroke-width="1.5"/>
  <line x1="90" y1="38" x2="94" y2="20" stroke="#888" stroke-width="1.5"/>
  <line x1="64" y1="20" x2="96" y2="20" stroke="#aaa" stroke-width="2"/>
  <circle cx="28" cy="106" r="9" fill="#002288" stroke="#C0C0C0" stroke-width="2"/>
<line x1="37.0" y1="106.0" x2="19.0" y2="106.0" stroke="#C0C0C0" stroke-width="1.2"/>
<line x1="34.4" y1="112.4" x2="21.6" y2="99.6" stroke="#C0C0C0" stroke-width="1.2"/>
<line x1="28.0" y1="115.0" x2="28.0" y2="97.0" stroke="#C0C0C0" stroke-width="1.2"/>
<line x1="21.6" y1="112.4" x2="34.4" y2="99.6" stroke="#C0C0C0" stroke-width="1.2"/>
<circle cx="28" cy="106" r="2.0" fill="#C0C0C0"/>

  <circle cx="54" cy="106" r="9" fill="#002288" stroke="#C0C0C0" stroke-width="2"/>
<line x1="63.0" y1="106.0" x2="45.0" y2="106.0" stroke="#C0C0C0" stroke-width="1.2"/>
<line x1="60.4" y1="112.4" x2="47.6" y2="99.6" stroke="#C0C0C0" stroke-width="1.2"/>
<line x1="54.0" y1="115.0" x2="54.0" y2="97.0" stroke="#C0C0C0" stroke-width="1.2"/>
<line x1="47.6" y1="112.4" x2="60.4" y2="99.6" stroke="#C0C0C0" stroke-width="1.2"/>
<circle cx="54" cy="106" r="2.0" fill="#C0C0C0"/>

  <circle cx="130" cy="106" r="9" fill="#002288" stroke="#C0C0C0" stroke-width="2"/>
<line x1="139.0" y1="106.0" x2="121.0" y2="106.0" stroke="#C0C0C0" stroke-width="1.2"/>
<line x1="136.4" y1="112.4" x2="123.6" y2="99.6" stroke="#C0C0C0" stroke-width="1.2"/>
<line x1="130.0" y1="115.0" x2="130.0" y2="97.0" stroke="#C0C0C0" stroke-width="1.2"/>
<line x1="123.6" y1="112.4" x2="136.4" y2="99.6" stroke="#C0C0C0" stroke-width="1.2"/>
<circle cx="130" cy="106" r="2.0" fill="#C0C0C0"/>

  <circle cx="158" cy="106" r="9" fill="#002288" stroke="#C0C0C0" stroke-width="2"/>
<line x1="167.0" y1="106.0" x2="149.0" y2="106.0" stroke="#C0C0C0" stroke-width="1.2"/>
<line x1="164.4" y1="112.4" x2="151.6" y2="99.6" stroke="#C0C0C0" stroke-width="1.2"/>
<line x1="158.0" y1="115.0" x2="158.0" y2="97.0" stroke="#C0C0C0" stroke-width="1.2"/>
<line x1="151.6" y1="112.4" x2="164.4" y2="99.6" stroke="#C0C0C0" stroke-width="1.2"/>
<circle cx="158" cy="106" r="2.0" fill="#C0C0C0"/>

  <line x1="5" y1="112" x2="198" y2="112" stroke="#888" stroke-width="2.5"/>


  <text x="100" y="126" font-family="Arial,sans-serif" font-size="7" fill="#555" text-anchor="middle">SNCF BB 9004 · 1957</text>
</svg>