<svg xmlns="http://www.w3.org/2000/svg" viewBox="0 0 200 130" width="200" height="130">

  <rect x="18" y="50" width="148" height="36" rx="7" fill="#111"/>
  <rect x="24" y="56" width="100" height="24" rx="7" fill="#1e1e1e"/>
  <rect x="28" y="16" width="12" height="36" rx="3" fill="#0d0d0d"/>
  <rect x="24" y="12" width="20" height="8" rx="3" fill="#b87333"/>
  <circle cx="22" cy="67" r="16" fill="#0d0d0d"/>
  <ellipse cx="85" cy="52" rx="12" ry="8" fill="#0d0d0d"/>
  <ellipse cx="110" cy="55" rx="9" ry="6" fill="#0d0d0d"/>
  <path d="M148,86 L148,44 Q155,38 170,36 L184,36 L184,86 Z" fill="#0d0d0d"/>
  <rect x="152" y="42" width="16" height="14" rx="2" fill="#87CEEB" opacity="0.6"/>
  <rect x="24" y="75" width="110" height="4" fill="#b87333"/>
  <circle cx="34" cy="101" r="8" fill="#111" stroke="#b87333" stroke-width="2"/>
<line x1="42.0" y1="101.0" x2="26.0" y2="101.0" stroke="#b87333" stroke-width="1.2"/>
<line x1="39.7" y1="106.7" x2="28.3" y2="95.3" stroke="#b87333" stroke-width="1.2"/>
<line x1="34.0" y1="109.0" x2="34.0" y2="93.0" stroke="#b87333" stroke-width="1.2"/>
<line x1="28.3" y1="106.7" x2="39.7" y2="95.3" stroke="#b87333" stroke-width="1.2"/>
<circle cx="34" cy="101" r="1.8" fill="#b87333"/>

  <circle cx="54" cy="101" r="8" fill="#111" stroke="#b87333" stroke-width="2"/>
<line x1="62.0" y1="101.0" x2="46.0" y2="101.0" stroke="#b87333" stroke-width="1.2"/>
<line x1="59.7" y1="106.7" x2="48.3" y2="95.3" stroke="#b87333" stroke-width="1.2"/>
<line x1="54.0" y1="109.0" x2="54.0" y2="93.0" stroke="#b87333" stroke-width="1.2"/>
<line x1="48.3" y1="106.7" x2="59.7" y2="95.3" stroke="#b87333" stroke-width="1.2"/>
<circle cx="54" cy="101" r="1.8" fill="#b87333"/>

  <circle cx="78" cy="101" r="13" fill="#111" stroke="#b87333" stroke-width="2"/>
<line x1="91.0" y1="101.0" x2="65.0" y2="101.0" stroke="#b87333" stroke-width="1.2"/>
<line x1="89.3" y1="107.5" x2="66.7" y2="94.5" stroke="#b87333" stroke-width="1.2"/>
<line x1="84.5" y1="112.3" x2="71.5" y2="89.7" stroke="#b87333" stroke-width="1.2"/>
<line x1="78.0" y1="114.0" x2="78.0" y2="88.0" stroke="#b87333" stroke-width="1.2"/>
<line x1="71.5" y1="112.3" x2="84.5" y2="89.7" stroke="#b87333" stroke-width="1.2"/>
<line x1="66.7" y1="107.5" x2="89.3" y2="94.5" stroke="#b87333" stroke-width="1.2"/>
<circle cx="78" cy="101" r="2.9" fill="#b87333"/>

  <circle cx="101" cy="101" r="13" fill="#111" stroke="#b87333" stroke-width="2"/>
<line x1="114.0" y1="101.0" x2="88.0" y2="101.0" stroke="#b87333" stroke-width="1.2"/>
<line x1="112.3" y1="107.5" x2="89.7" y2="94.5" stroke="#b87333" stroke-width="1.2"/>
<line x1="107.5" y1="112.3" x2="94.5" y2="89.7" stroke="#b87333" stroke-width="1.2"/>
<line x1="101.0" y1="114.0" x2="101.0" y2="88.0" stroke="#b87333" stroke-width="1.2"/>
<line x1="94.5" y1="112.3" x2="107.5" y2="89.7" stroke="#b87333" stroke-width="1.2"/>
<line x1="89.7" y1="107.5" x2="112.3" y2="94.5" stroke="#b87333" stroke-width="1.2"/>
<circle cx="101" cy="101" r="2.9" fill="#b87333"/>

  <circle cx="124" cy="101" r="13" fill="#111" stroke="#b87333" stroke-width="2"/>
<line x1="137.0" y1="101.0" x2="111.0" y2="101.0" stroke="#b87333" stroke-width="1.2"/>
<line x1="135.3" y1="107.5" x2="112.7" y2="94.5" stroke="#b87333" stroke-width="1.2"/>
<line x1="130.5" y1="112.3" x2="117.5" y2="89.7" stroke="#b87333" stroke-width="1.2"/>
<line x1="124.0" y1="114.0" x2="124.0" y2="88.0" stroke="#b87333" stroke-width="1.2"/>
<line x1="117.5" y1="112.3" x2="130.5" y2="89.7" stroke="#b87333" stroke-width="1.2"/>
<line x1="112.7" y1="107.5" x2="135.3" y2="94.5" stroke="#b87333" stroke-width="1.2"/>
<circle cx="124" cy="101" r="2.9" fill="#b87333"/>

  <circle cx="153" cy="101" r="9" fill="#111" stroke="#b87333" stroke-width="2"/>
<line x1="162.0" y1="101.0" x2="144.0" y2="101.0" stroke="#b87333" stroke-width="1.2"/>
<line x1="159.4" y1="107.4" x2="146.6" y2="94.6" stroke="#b87333" stroke-width="1.2"/>
<line x1="153.0" y1="110.0" x2="153.0" y2="92.0" stroke="#b87333" stroke-width="1.2"/>
<line x1="146.6" y1="107.4" x2="159.4" y2="94.6" stroke="#b87333" stroke-width="1.2"/>
<circle cx="153" cy="101" r="2.0" fill="#b87333"/>

  <rect x="78" y="99" width="46" height="4" rx="2" fill="#b87333" opacity="0.7"/>
  <line x1="10" y1="112" x2="195" y2="112" stroke="#888" stroke-width="2.5"/>


  <text x="100" y="126" font-family="Arial,sans-serif" font-size="7" fill="#555" text-anchor="middle">SNCF Super Pacific · 1923</text>
</svg>