<svg xmlns="http://www.w3.org/2000/svg" viewBox="0 0 208 106" width="208" height="106">
  <rect x="8" y="26" width="188" height="52" rx="6" fill="#1A1A6B"/>
  <path d="M8,26 L40,20 L168,20 L196,26" fill="#C8C8C8" opacity="0.3"/>
  <rect x="8" y="26" width="52" height="52" rx="5" fill="#C8C8C8"/>
  <rect x="148" y="26" width="48" height="52" rx="5" fill="#C8C8C8"/>
  <rect x="15" y="32" width="16" height="13" rx="2" fill="#87CEEB" opacity="0.75"/>
  <rect x="36" y="32" width="12" height="13" rx="2" fill="#87CEEB" opacity="0.65"/>
  <rect x="156" y="32" width="16" height="13" rx="2" fill="#87CEEB" opacity="0.75"/>
  <rect x="176" y="32" width="13" height="13" rx="2" fill="#87CEEB" opacity="0.65"/>
  <path d="M8,55 L196,55" stroke="#C8C8C8" stroke-width="2" opacity="0.35"/>
  <line x1="95"  y1="20" x2="88"  y2="8"  stroke="#C8C8C8" stroke-width="1.5"/>
  <line x1="109" y1="20" x2="116" y2="8"  stroke="#C8C8C8" stroke-width="1.5"/>
  <line x1="80"  y1="8"  x2="124" y2="8"  stroke="#C8C8C8" stroke-width="2.5"/>
  <line x1="78"  y1="11" x2="126" y2="11" stroke="#C8C8C8" stroke-width="1.5"/>
  <circle cx="10" cy="52" r="5" fill="#FFE040" opacity="0.9"/>
  <circle cx="194" cy="52" r="5" fill="#FFE040" opacity="0.9"/>
  <circle cx="34" cy="88" r="13" fill="#080828" stroke="#C8C8C8" stroke-width="2.5"/>
  <line x1="47.0" y1="88.0" x2="21.0" y2="88.0" stroke="#C8C8C8" stroke-width="1.2"/>
  <line x1="45.3" y1="94.5" x2="22.7" y2="81.5" stroke="#C8C8C8" stroke-width="1.2"/>
  <line x1="40.5" y1="99.3" x2="27.5" y2="76.7" stroke="#C8C8C8" stroke-width="1.2"/>
  <line x1="34.0" y1="101.0" x2="34.0" y2="75.0" stroke="#C8C8C8" stroke-width="1.2"/>
  <line x1="27.5" y1="99.3" x2="40.5" y2="76.7" stroke="#C8C8C8" stroke-width="1.2"/>
  <line x1="22.7" y1="94.5" x2="45.3" y2="81.5" stroke="#C8C8C8" stroke-width="1.2"/>
  <circle cx="34" cy="88" r="2.9" fill="#C8C8C8"/>
  <circle cx="64" cy="88" r="13" fill="#080828" stroke="#C8C8C8" stroke-width="2.5"/>
  <line x1="77.0" y1="88.0" x2="51.0" y2="88.0" stroke="#C8C8C8" stroke-width="1.2"/>
  <line x1="75.3" y1="94.5" x2="52.7" y2="81.5" stroke="#C8C8C8" stroke-width="1.2"/>
  <line x1="70.5" y1="99.3" x2="57.5" y2="76.7" stroke="#C8C8C8" stroke-width="1.2"/>
  <line x1="64.0" y1="101.0" x2="64.0" y2="75.0" stroke="#C8C8C8" stroke-width="1.2"/>
  <line x1="57.5" y1="99.3" x2="70.5" y2="76.7" stroke="#C8C8C8" stroke-width="1.2"/>
  <line x1="52.7" y1="94.5" x2="75.3" y2="81.5" stroke="#C8C8C8" stroke-width="1.2"/>
  <circle cx="64" cy="88" r="2.9" fill="#C8C8C8"/>
  <circle cx="140" cy="88" r="13" fill="#080828" stroke="#C8C8C8" stroke-width="2.5"/>
  <line x1="153.0" y1="88.0" x2="127.0" y2="88.0" stroke="#C8C8C8" stroke-width="1.2"/>
  <line x1="151.3" y1="94.5" x2="128.7" y2="81.5" stroke="#C8C8C8" stroke-width="1.2"/>
  <line x1="146.5" y1="99.3" x2="133.5" y2="76.7" stroke="#C8C8C8" stroke-width="1.2"/>
  <line x1="140.0" y1="101.0" x2="140.0" y2="75.0" stroke="#C8C8C8" stroke-width="1.2"/>
  <line x1="133.5" y1="99.3" x2="146.5" y2="76.7" stroke="#C8C8C8" stroke-width="1.2"/>
  <line x1="128.7" y1="94.5" x2="151.3" y2="81.5" stroke="#C8C8C8" stroke-width="1.2"/>
  <circle cx="140" cy="88" r="2.9" fill="#C8C8C8"/>
  <circle cx="170" cy="88" r="13" fill="#080828" stroke="#C8C8C8" stroke-width="2.5"/>
  <line x1="183.0" y1="88.0" x2="157.0" y2="88.0" stroke="#C8C8C8" stroke-width="1.2"/>
  <line x1="181.3" y1="94.5" x2="158.7" y2="81.5" stroke="#C8C8C8" stroke-width="1.2"/>
  <line x1="176.5" y1="99.3" x2="163.5" y2="76.7" stroke="#C8C8C8" stroke-width="1.2"/>
  <line x1="170.0" y1="101.0" x2="170.0" y2="75.0" stroke="#C8C8C8" stroke-width="1.2"/>
  <line x1="163.5" y1="99.3" x2="176.5" y2="76.7" stroke="#C8C8C8" stroke-width="1.2"/>
  <line x1="158.7" y1="94.5" x2="181.3" y2="81.5" stroke="#C8C8C8" stroke-width="1.2"/>
  <circle cx="170" cy="88" r="2.9" fill="#C8C8C8"/>

  <text x="104" y="102" font-family="Arial,sans-serif" font-size="7" fill="#666" text-anchor="middle">SNCF BB 9004 · 1957</text>
</svg>