<svg xmlns="http://www.w3.org/2000/svg" viewBox="0 0 200 130" width="200" height="130">

  <!-- Stadler FLIRT: distinctive low-floor, angled nose -->
  <path d="M10,68 Q14,50 28,44 L185,44 L188,68 L185,92 L28,92 Q14,86 10,68 Z" fill="#CC0000"/>
  <!-- white upper section -->
  <rect x="28" y="44" width="160" height="24" rx="0" fill="#fff"/>
  <path d="M10,68 Q13,56 22,52 L26,52 L26,44 L28,44 Q16,50 10,62 Z" fill="#fff"/>
  <!-- red lower section -->
  <!-- large windshield - FLIRT feature -->
  <rect x="14" y="50" width="24" height="20" rx="2" fill="#87CEEB" opacity="0.8"/>
  <!-- Stadler logo area -->
  <rect x="152" y="44" width="36" height="48" rx="3" fill="#AA0000"/>
  <rect x="156" y="48" width="16" height="14" rx="2" fill="#87CEEB" opacity="0.7"/>
  <!-- low-floor bogies: smaller wheels -->
  <circle cx="32" cy="100" r="7" fill="#888" stroke="#CC0000" stroke-width="2"/>
<line x1="39.0" y1="100.0" x2="25.0" y2="100.0" stroke="#CC0000" stroke-width="1.2"/>
<line x1="36.9" y1="104.9" x2="27.1" y2="95.1" stroke="#CC0000" stroke-width="1.2"/>
<line x1="32.0" y1="107.0" x2="32.0" y2="93.0" stroke="#CC0000" stroke-width="1.2"/>
<line x1="27.1" y1="104.9" x2="36.9" y2="95.1" stroke="#CC0000" stroke-width="1.2"/>
<circle cx="32" cy="100" r="1.5" fill="#CC0000"/>

  <circle cx="56" cy="100" r="7" fill="#888" stroke="#CC0000" stroke-width="2"/>
<line x1="63.0" y1="100.0" x2="49.0" y2="100.0" stroke="#CC0000" stroke-width="1.2"/>
<line x1="60.9" y1="104.9" x2="51.1" y2="95.1" stroke="#CC0000" stroke-width="1.2"/>
<line x1="56.0" y1="107.0" x2="56.0" y2="93.0" stroke="#CC0000" stroke-width="1.2"/>
<line x1="51.1" y1="104.9" x2="60.9" y2="95.1" stroke="#CC0000" stroke-width="1.2"/>
<circle cx="56" cy="100" r="1.5" fill="#CC0000"/>

  <circle cx="100" cy="100" r="7" fill="#888" stroke="#CC0000" stroke-width="2"/>
<line x1="107.0" y1="100.0" x2="93.0" y2="100.0" stroke="#CC0000" stroke-width="1.2"/>
<line x1="104.9" y1="104.9" x2="95.1" y2="95.1" stroke="#CC0000" stroke-width="1.2"/>
<line x1="100.0" y1="107.0" x2="100.0" y2="93.0" stroke="#CC0000" stroke-width="1.2"/>
<line x1="95.1" y1="104.9" x2="104.9" y2="95.1" stroke="#CC0000" stroke-width="1.2"/>
<circle cx="100" cy="100" r="1.5" fill="#CC0000"/>

  <circle cx="140" cy="100" r="7" fill="#888" stroke="#CC0000" stroke-width="2"/>
<line x1="147.0" y1="100.0" x2="133.0" y2="100.0" stroke="#CC0000" stroke-width="1.2"/>
<line x1="144.9" y1="104.9" x2="135.1" y2="95.1" stroke="#CC0000" stroke-width="1.2"/>
<line x1="140.0" y1="107.0" x2="140.0" y2="93.0" stroke="#CC0000" stroke-width="1.2"/>
<line x1="135.1" y1="104.9" x2="144.9" y2="95.1" stroke="#CC0000" stroke-width="1.2"/>
<circle cx="140" cy="100" r="1.5" fill="#CC0000"/>

  <circle cx="166" cy="100" r="7" fill="#888" stroke="#CC0000" stroke-width="2"/>
<line x1="173.0" y1="100.0" x2="159.0" y2="100.0" stroke="#CC0000" stroke-width="1.2"/>
<line x1="170.9" y1="104.9" x2="161.1" y2="95.1" stroke="#CC0000" stroke-width="1.2"/>
<line x1="166.0" y1="107.0" x2="166.0" y2="93.0" stroke="#CC0000" stroke-width="1.2"/>
<line x1="161.1" y1="104.9" x2="170.9" y2="95.1" stroke="#CC0000" stroke-width="1.2"/>
<circle cx="166" cy="100" r="1.5" fill="#CC0000"/>

  <line x1="5" y1="112" x2="198" y2="112" stroke="#888" stroke-width="2.5"/>


  <text x="100" y="126" font-family="Arial,sans-serif" font-size="7" fill="#555" text-anchor="middle">Stadler FLIRT · 2004</text>
</svg>