<svg xmlns="http://www.w3.org/2000/svg" viewBox="0 0 180 120">
  <!-- chimney tall vertical -->
  <rect x="18" y="8" width="14" height="38" rx="3" fill="#333"/>
  <rect x="14" y="4" width="22" height="7" rx="2" fill="#222"/>
  <!-- smoke -->
  <circle cx="25" cy="6" r="7" fill="#bbb" opacity=".5"/>
  <circle cx="34" cy="2" r="5" fill="#aaa" opacity=".35"/>
  <!-- inclined boiler -->
  <g transform="rotate(-16 95 65)">
    <rect x="28" y="50" width="110" height="26" rx="9" fill="#8B4513"/>
    <rect x="100" y="48" width="42" height="30" rx="5" fill="#6B3010"/>
  </g>
  <!-- firebox / cab end -->
  <rect x="128" y="46" width="34" height="40" rx="4" fill="#5A2808"/>
  <rect x="134" y="52" width="12" height="10" rx="2" fill="#87CEEB" opacity=".75"/>
  <!-- ONE large driving wheel -->
  <circle cx="75" cy="90" r="26" fill="#2C1A0E" stroke="#CD853F" stroke-width="4"/>
  <line x1="75" y1="64" x2="75" y2="116" stroke="#CD853F" stroke-width="2"/>
  <line x1="49" y1="90" x2="101" y2="90" stroke="#CD853F" stroke-width="2"/>
  <line x1="57" y1="68" x2="93" y2="112" stroke="#CD853F" stroke-width="1.5"/>
  <line x1="93" y1="68" x2="57" y2="112" stroke="#CD853F" stroke-width="1.5"/>
  <circle cx="75" cy="90" r="5" fill="#CD853F"/>
  <!-- small pony wheel front -->
  <circle cx="26" cy="97" r="10" fill="#2C1A0E" stroke="#CD853F" stroke-width="3"/>
  <circle cx="26" cy="97" r="3" fill="#CD853F"/>
  <!-- small trailer wheel rear -->
  <circle cx="148" cy="97" r="10" fill="#2C1A0E" stroke="#CD853F" stroke-width="3"/>
  <circle cx="148" cy="97" r="3" fill="#CD853F"/>
  <!-- tender (water barrel) -->
  <ellipse cx="162" cy="82" rx="14" ry="16" fill="#4A3010"/>
  <text x="90" y="116" font-family="Arial" font-size="7" fill="#888" text-anchor="middle">Stephenson's Rocket · 1829</text>
</svg>