<svg xmlns="http://www.w3.org/2000/svg" viewBox="0 0 160 105" width="160" height="105">
  <rect x="60" y="30" width="30" height="55" rx="5" fill="#6B3A1A"/>
  <rect x="52" y="50" width="46" height="30" rx="3" fill="#9B6A3A"/>
  <circle cx="75" cy="25" r="12" fill="#6B3A1A"/>
  <rect x="70" y="13" width="10" height="18" rx="3" fill="#555"/>
  <rect x="67" y="10" width="16" height="6" rx="2" fill="#333"/>
  <rect x="48" y="72" width="54" height="6" rx="2" fill="#9B6A3A"/>
  <circle cx="65" cy="88" r="12" fill="#2C1A0E" stroke="#9B6A3A" stroke-width="2.5"/>
  <line x1="77.0" y1="88.0" x2="53.0" y2="88.0" stroke="#9B6A3A" stroke-width="1.2"/>
  <line x1="73.5" y1="96.5" x2="56.5" y2="79.5" stroke="#9B6A3A" stroke-width="1.2"/>
  <line x1="65.0" y1="100.0" x2="65.0" y2="76.0" stroke="#9B6A3A" stroke-width="1.2"/>
  <line x1="56.5" y1="96.5" x2="73.5" y2="79.5" stroke="#9B6A3A" stroke-width="1.2"/>
  <circle cx="65" cy="88" r="2.6" fill="#9B6A3A"/>
  <circle cx="95" cy="88" r="12" fill="#2C1A0E" stroke="#9B6A3A" stroke-width="2.5"/>
  <line x1="107.0" y1="88.0" x2="83.0" y2="88.0" stroke="#9B6A3A" stroke-width="1.2"/>
  <line x1="103.5" y1="96.5" x2="86.5" y2="79.5" stroke="#9B6A3A" stroke-width="1.2"/>
  <line x1="95.0" y1="100.0" x2="95.0" y2="76.0" stroke="#9B6A3A" stroke-width="1.2"/>
  <line x1="86.5" y1="96.5" x2="103.5" y2="79.5" stroke="#9B6A3A" stroke-width="1.2"/>
  <circle cx="95" cy="88" r="2.6" fill="#9B6A3A"/>
  <circle cx="50" cy="88" r="8" fill="#2C1A0E" stroke="#9B6A3A" stroke-width="2.5"/>
  <line x1="58.0" y1="88.0" x2="42.0" y2="88.0" stroke="#9B6A3A" stroke-width="1.2"/>
  <line x1="55.7" y1="93.7" x2="44.3" y2="82.3" stroke="#9B6A3A" stroke-width="1.2"/>
  <line x1="50.0" y1="96.0" x2="50.0" y2="80.0" stroke="#9B6A3A" stroke-width="1.2"/>
  <line x1="44.3" y1="93.7" x2="55.7" y2="82.3" stroke="#9B6A3A" stroke-width="1.2"/>
  <circle cx="50" cy="88" r="1.8" fill="#9B6A3A"/>
  <circle cx="108" cy="88" r="8" fill="#2C1A0E" stroke="#9B6A3A" stroke-width="2.5"/>
  <line x1="116.0" y1="88.0" x2="100.0" y2="88.0" stroke="#9B6A3A" stroke-width="1.2"/>
  <line x1="113.7" y1="93.7" x2="102.3" y2="82.3" stroke="#9B6A3A" stroke-width="1.2"/>
  <line x1="108.0" y1="96.0" x2="108.0" y2="80.0" stroke="#9B6A3A" stroke-width="1.2"/>
  <line x1="102.3" y1="93.7" x2="113.7" y2="82.3" stroke="#9B6A3A" stroke-width="1.2"/>
  <circle cx="108" cy="88" r="1.8" fill="#9B6A3A"/>

  <text x="80" y="101" font-family="Arial,sans-serif" font-size="7" fill="#666" text-anchor="middle">Stourbridge Lion · 1829</text>
</svg>