<svg xmlns="http://www.w3.org/2000/svg" viewBox="0 0 208 110" width="208" height="110">
  <path d="M6,34 Q20,20 50,20 L170,20 Q192,20 198,34 L198,76 Q192,86 170,86 L50,86 Q20,86 6,76 Z" fill="#C83020"/>
  <path d="M6,34 Q16,24 44,22 L44,84 Q18,82 6,76 Z" fill="#5A5A5A" opacity="0.2"/>
  <path d="M198,34 Q190,24 162,22 L162,84 Q186,82 198,76 Z" fill="#5A5A5A" opacity="0.2"/>
  <rect x="70"  y="26" width="16" height="12" rx="2" fill="#87CEEB" opacity="0.7"/>
  <rect x="92"  y="26" width="16" height="12" rx="2" fill="#87CEEB" opacity="0.7"/>
  <rect x="114" y="26" width="16" height="12" rx="2" fill="#87CEEB" opacity="0.7"/>
  <line x1="50"  y1="20" x2="100" y2="8"  stroke="#5A5A5A" stroke-width="1.5"/>
  <line x1="100" y1="8"  x2="155" y2="20" stroke="#5A5A5A" stroke-width="1.5"/>
  <line x1="40"  y1="8"  x2="165" y2="8"  stroke="#5A5A5A" stroke-width="2"/>
  <circle cx="8"  cy="55" r="5" fill="#FFE040" opacity="0.9"/>
  <circle cx="196" cy="55" r="5" fill="#FFE040" opacity="0.9"/>
  <circle cx="38" cy="94" r="13" fill="#5A0808" stroke="#5A5A5A" stroke-width="2.5"/>
  <line x1="51.0" y1="94.0" x2="25.0" y2="94.0" stroke="#5A5A5A" stroke-width="1.2"/>
  <line x1="49.3" y1="100.5" x2="26.7" y2="87.5" stroke="#5A5A5A" stroke-width="1.2"/>
  <line x1="44.5" y1="105.3" x2="31.5" y2="82.7" stroke="#5A5A5A" stroke-width="1.2"/>
  <line x1="38.0" y1="107.0" x2="38.0" y2="81.0" stroke="#5A5A5A" stroke-width="1.2"/>
  <line x1="31.5" y1="105.3" x2="44.5" y2="82.7" stroke="#5A5A5A" stroke-width="1.2"/>
  <line x1="26.7" y1="100.5" x2="49.3" y2="87.5" stroke="#5A5A5A" stroke-width="1.2"/>
  <circle cx="38" cy="94" r="2.9" fill="#5A5A5A"/>
  <circle cx="68" cy="94" r="13" fill="#5A0808" stroke="#5A5A5A" stroke-width="2.5"/>
  <line x1="81.0" y1="94.0" x2="55.0" y2="94.0" stroke="#5A5A5A" stroke-width="1.2"/>
  <line x1="79.3" y1="100.5" x2="56.7" y2="87.5" stroke="#5A5A5A" stroke-width="1.2"/>
  <line x1="74.5" y1="105.3" x2="61.5" y2="82.7" stroke="#5A5A5A" stroke-width="1.2"/>
  <line x1="68.0" y1="107.0" x2="68.0" y2="81.0" stroke="#5A5A5A" stroke-width="1.2"/>
  <line x1="61.5" y1="105.3" x2="74.5" y2="82.7" stroke="#5A5A5A" stroke-width="1.2"/>
  <line x1="56.7" y1="100.5" x2="79.3" y2="87.5" stroke="#5A5A5A" stroke-width="1.2"/>
  <circle cx="68" cy="94" r="2.9" fill="#5A5A5A"/>
  <circle cx="136" cy="94" r="13" fill="#5A0808" stroke="#5A5A5A" stroke-width="2.5"/>
  <line x1="149.0" y1="94.0" x2="123.0" y2="94.0" stroke="#5A5A5A" stroke-width="1.2"/>
  <line x1="147.3" y1="100.5" x2="124.7" y2="87.5" stroke="#5A5A5A" stroke-width="1.2"/>
  <line x1="142.5" y1="105.3" x2="129.5" y2="82.7" stroke="#5A5A5A" stroke-width="1.2"/>
  <line x1="136.0" y1="107.0" x2="136.0" y2="81.0" stroke="#5A5A5A" stroke-width="1.2"/>
  <line x1="129.5" y1="105.3" x2="142.5" y2="82.7" stroke="#5A5A5A" stroke-width="1.2"/>
  <line x1="124.7" y1="100.5" x2="147.3" y2="87.5" stroke="#5A5A5A" stroke-width="1.2"/>
  <circle cx="136" cy="94" r="2.9" fill="#5A5A5A"/>
  <circle cx="166" cy="94" r="13" fill="#5A0808" stroke="#5A5A5A" stroke-width="2.5"/>
  <line x1="179.0" y1="94.0" x2="153.0" y2="94.0" stroke="#5A5A5A" stroke-width="1.2"/>
  <line x1="177.3" y1="100.5" x2="154.7" y2="87.5" stroke="#5A5A5A" stroke-width="1.2"/>
  <line x1="172.5" y1="105.3" x2="159.5" y2="82.7" stroke="#5A5A5A" stroke-width="1.2"/>
  <line x1="166.0" y1="107.0" x2="166.0" y2="81.0" stroke="#5A5A5A" stroke-width="1.2"/>
  <line x1="159.5" y1="105.3" x2="172.5" y2="82.7" stroke="#5A5A5A" stroke-width="1.2"/>
  <line x1="154.7" y1="100.5" x2="177.3" y2="87.5" stroke="#5A5A5A" stroke-width="1.2"/>
  <circle cx="166" cy="94" r="2.9" fill="#5A5A5A"/>

  <text x="104" y="106" font-family="Arial,sans-serif" font-size="7" fill="#666" text-anchor="middle">SZD VL80 · 1961</text>
</svg>