<svg xmlns="http://www.w3.org/2000/svg" viewBox="0 0 200 130" width="200" height="130">

  <!-- double unit visible - articulated Soviet -->
  <!-- unit 1 -->
  <rect x="8" y="40" width="90" height="62" rx="4" fill="#CC0000"/>
  <rect x="8" y="40" width="30" height="62" rx="4" fill="#AA0000"/>
  <rect x="12" y="44" width="16" height="18" rx="2" fill="#87CEEB" opacity="0.7"/>
  <rect x="8" y="68" width="90" height="8" fill="#F5F5DC"/>
  <!-- unit 2 -->
  <rect x="102" y="40" width="90" height="62" rx="4" fill="#CC0000"/>
  <rect x="164" y="40" width="28" height="62" rx="4" fill="#AA0000"/>
  <rect x="167" y="44" width="16" height="18" rx="2" fill="#87CEEB" opacity="0.7"/>
  <rect x="102" y="68" width="90" height="8" fill="#F5F5DC"/>
  <!-- articulation joint -->
  <rect x="97" y="44" width="8" height="54" rx="2" fill="#880000"/>
  <!-- pantographs both units -->
  <line x1="50" y1="40" x2="46" y2="22" stroke="#888" stroke-width="1.5"/>
  <line x1="65" y1="40" x2="69" y2="22" stroke="#888" stroke-width="1.5"/>
  <line x1="44" y1="22" x2="71" y2="22" stroke="#aaa" stroke-width="2"/>
  <line x1="130" y1="40" x2="126" y2="22" stroke="#888" stroke-width="1.5"/>
  <line x1="145" y1="40" x2="149" y2="22" stroke="#888" stroke-width="1.5"/>
  <line x1="124" y1="22" x2="151" y2="22" stroke="#aaa" stroke-width="2"/>
  <!-- star emblem -->
  <polygon points="34,68 36,62 38,68 44,68 39,72 41,78 36,74 31,78 33,72 28,68" fill="#FFD700" opacity="0.8"/>
  <circle cx="22" cy="110" r="8" fill="#880000" stroke="#F5F5DC" stroke-width="2"/>
<line x1="30.0" y1="110.0" x2="14.0" y2="110.0" stroke="#F5F5DC" stroke-width="1.2"/>
<line x1="27.7" y1="115.7" x2="16.3" y2="104.3" stroke="#F5F5DC" stroke-width="1.2"/>
<line x1="22.0" y1="118.0" x2="22.0" y2="102.0" stroke="#F5F5DC" stroke-width="1.2"/>
<line x1="16.3" y1="115.7" x2="27.7" y2="104.3" stroke="#F5F5DC" stroke-width="1.2"/>
<circle cx="22" cy="110" r="1.8" fill="#F5F5DC"/>

  <circle cx="48" cy="110" r="8" fill="#880000" stroke="#F5F5DC" stroke-width="2"/>
<line x1="56.0" y1="110.0" x2="40.0" y2="110.0" stroke="#F5F5DC" stroke-width="1.2"/>
<line x1="53.7" y1="115.7" x2="42.3" y2="104.3" stroke="#F5F5DC" stroke-width="1.2"/>
<line x1="48.0" y1="118.0" x2="48.0" y2="102.0" stroke="#F5F5DC" stroke-width="1.2"/>
<line x1="42.3" y1="115.7" x2="53.7" y2="104.3" stroke="#F5F5DC" stroke-width="1.2"/>
<circle cx="48" cy="110" r="1.8" fill="#F5F5DC"/>

  <circle cx="72" cy="110" r="8" fill="#880000" stroke="#F5F5DC" stroke-width="2"/>
<line x1="80.0" y1="110.0" x2="64.0" y2="110.0" stroke="#F5F5DC" stroke-width="1.2"/>
<line x1="77.7" y1="115.7" x2="66.3" y2="104.3" stroke="#F5F5DC" stroke-width="1.2"/>
<line x1="72.0" y1="118.0" x2="72.0" y2="102.0" stroke="#F5F5DC" stroke-width="1.2"/>
<line x1="66.3" y1="115.7" x2="77.7" y2="104.3" stroke="#F5F5DC" stroke-width="1.2"/>
<circle cx="72" cy="110" r="1.8" fill="#F5F5DC"/>

  <circle cx="116" cy="110" r="8" fill="#880000" stroke="#F5F5DC" stroke-width="2"/>
<line x1="124.0" y1="110.0" x2="108.0" y2="110.0" stroke="#F5F5DC" stroke-width="1.2"/>
<line x1="121.7" y1="115.7" x2="110.3" y2="104.3" stroke="#F5F5DC" stroke-width="1.2"/>
<line x1="116.0" y1="118.0" x2="116.0" y2="102.0" stroke="#F5F5DC" stroke-width="1.2"/>
<line x1="110.3" y1="115.7" x2="121.7" y2="104.3" stroke="#F5F5DC" stroke-width="1.2"/>
<circle cx="116" cy="110" r="1.8" fill="#F5F5DC"/>

  <circle cx="140" cy="110" r="8" fill="#880000" stroke="#F5F5DC" stroke-width="2"/>
<line x1="148.0" y1="110.0" x2="132.0" y2="110.0" stroke="#F5F5DC" stroke-width="1.2"/>
<line x1="145.7" y1="115.7" x2="134.3" y2="104.3" stroke="#F5F5DC" stroke-width="1.2"/>
<line x1="140.0" y1="118.0" x2="140.0" y2="102.0" stroke="#F5F5DC" stroke-width="1.2"/>
<line x1="134.3" y1="115.7" x2="145.7" y2="104.3" stroke="#F5F5DC" stroke-width="1.2"/>
<circle cx="140" cy="110" r="1.8" fill="#F5F5DC"/>

  <circle cx="166" cy="110" r="8" fill="#880000" stroke="#F5F5DC" stroke-width="2"/>
<line x1="174.0" y1="110.0" x2="158.0" y2="110.0" stroke="#F5F5DC" stroke-width="1.2"/>
<line x1="171.7" y1="115.7" x2="160.3" y2="104.3" stroke="#F5F5DC" stroke-width="1.2"/>
<line x1="166.0" y1="118.0" x2="166.0" y2="102.0" stroke="#F5F5DC" stroke-width="1.2"/>
<line x1="160.3" y1="115.7" x2="171.7" y2="104.3" stroke="#F5F5DC" stroke-width="1.2"/>
<circle cx="166" cy="110" r="1.8" fill="#F5F5DC"/>

  <line x1="5" y1="112" x2="198" y2="112" stroke="#888" stroke-width="2.5"/>


  <text x="100" y="126" font-family="Arial,sans-serif" font-size="7" fill="#555" text-anchor="middle">SZD VL80 · 1961</text>
</svg>