<svg xmlns="http://www.w3.org/2000/svg" viewBox="0 0 200 130" width="200" height="130">

  <!-- slender boiler -->
  <rect x="20" y="55" width="135" height="30" rx="8" fill="#111"/>
  <rect x="28" y="60" width="90" height="20" rx="7" fill="#1e1e1e"/>
  <!-- cab -->
  <rect x="140" y="47" width="38" height="38" rx="4" fill="#111"/>
  <rect x="143" y="51" width="15" height="13" rx="2" fill="#87CEEB" opacity="0.6"/>
  <!-- slender chimney -->
  <rect x="35" y="20" width="12" height="37" rx="4" fill="#0d0d0d"/>
  <rect x="31" y="16" width="20" height="7" rx="3" fill="#333"/>
  <!-- smokebox round -->
  <circle cx="24" cy="68" r="15" fill="#0d0d0d"/>
  <!-- dome -->
  <ellipse cx="100" cy="57" rx="13" ry="8" fill="#0d0d0d"/>
  <!-- 2 small pony + 3 large, 4-6-0 -->
  <circle cx="34" cy="101" r="7" fill="#111" stroke="#777" stroke-width="2"/>
<line x1="41.0" y1="101.0" x2="27.0" y2="101.0" stroke="#777" stroke-width="1.2"/>
<line x1="38.9" y1="105.9" x2="29.1" y2="96.1" stroke="#777" stroke-width="1.2"/>
<line x1="34.0" y1="108.0" x2="34.0" y2="94.0" stroke="#777" stroke-width="1.2"/>
<line x1="29.1" y1="105.9" x2="38.9" y2="96.1" stroke="#777" stroke-width="1.2"/>
<circle cx="34" cy="101" r="1.5" fill="#777"/>

  <circle cx="54" cy="101" r="7" fill="#111" stroke="#777" stroke-width="2"/>
<line x1="61.0" y1="101.0" x2="47.0" y2="101.0" stroke="#777" stroke-width="1.2"/>
<line x1="58.9" y1="105.9" x2="49.1" y2="96.1" stroke="#777" stroke-width="1.2"/>
<line x1="54.0" y1="108.0" x2="54.0" y2="94.0" stroke="#777" stroke-width="1.2"/>
<line x1="49.1" y1="105.9" x2="58.9" y2="96.1" stroke="#777" stroke-width="1.2"/>
<circle cx="54" cy="101" r="1.5" fill="#777"/>

  <circle cx="80" cy="101" r="12" fill="#111" stroke="#777" stroke-width="2"/>
<line x1="92.0" y1="101.0" x2="68.0" y2="101.0" stroke="#777" stroke-width="1.2"/>
<line x1="90.4" y1="107.0" x2="69.6" y2="95.0" stroke="#777" stroke-width="1.2"/>
<line x1="86.0" y1="111.4" x2="74.0" y2="90.6" stroke="#777" stroke-width="1.2"/>
<line x1="80.0" y1="113.0" x2="80.0" y2="89.0" stroke="#777" stroke-width="1.2"/>
<line x1="74.0" y1="111.4" x2="86.0" y2="90.6" stroke="#777" stroke-width="1.2"/>
<line x1="69.6" y1="107.0" x2="90.4" y2="95.0" stroke="#777" stroke-width="1.2"/>
<circle cx="80" cy="101" r="2.6" fill="#777"/>

  <circle cx="103" cy="101" r="12" fill="#111" stroke="#777" stroke-width="2"/>
<line x1="115.0" y1="101.0" x2="91.0" y2="101.0" stroke="#777" stroke-width="1.2"/>
<line x1="113.4" y1="107.0" x2="92.6" y2="95.0" stroke="#777" stroke-width="1.2"/>
<line x1="109.0" y1="111.4" x2="97.0" y2="90.6" stroke="#777" stroke-width="1.2"/>
<line x1="103.0" y1="113.0" x2="103.0" y2="89.0" stroke="#777" stroke-width="1.2"/>
<line x1="97.0" y1="111.4" x2="109.0" y2="90.6" stroke="#777" stroke-width="1.2"/>
<line x1="92.6" y1="107.0" x2="113.4" y2="95.0" stroke="#777" stroke-width="1.2"/>
<circle cx="103" cy="101" r="2.6" fill="#777"/>

  <circle cx="126" cy="101" r="12" fill="#111" stroke="#777" stroke-width="2"/>
<line x1="138.0" y1="101.0" x2="114.0" y2="101.0" stroke="#777" stroke-width="1.2"/>
<line x1="136.4" y1="107.0" x2="115.6" y2="95.0" stroke="#777" stroke-width="1.2"/>
<line x1="132.0" y1="111.4" x2="120.0" y2="90.6" stroke="#777" stroke-width="1.2"/>
<line x1="126.0" y1="113.0" x2="126.0" y2="89.0" stroke="#777" stroke-width="1.2"/>
<line x1="120.0" y1="111.4" x2="132.0" y2="90.6" stroke="#777" stroke-width="1.2"/>
<line x1="115.6" y1="107.0" x2="136.4" y2="95.0" stroke="#777" stroke-width="1.2"/>
<circle cx="126" cy="101" r="2.6" fill="#777"/>

  <!-- coupling rod -->
  <rect x="80" y="99" width="46" height="4" rx="2" fill="#555" opacity="0.8"/>
  <line x1="10" y1="112" x2="190" y2="112" stroke="#888" stroke-width="2.5"/>


  <text x="100" y="126" font-family="Arial,sans-serif" font-size="7" fill="#555" text-anchor="middle">Ten-Wheeler 4-6-0 · 1870</text>
</svg>