<svg xmlns="http://www.w3.org/2000/svg" viewBox="0 0 200 130" width="200" height="130">

  <!-- massive boiler -->
  <rect x="10" y="48" width="165" height="42" rx="8" fill="#111"/>
  <rect x="16" y="54" width="110" height="28" rx="8" fill="#1a1a1a"/>
  <!-- WIDE firebox rear -->
  <rect x="118" y="40" width="58" height="50" rx="5" fill="#0d0d0d"/>
  <rect x="162" y="32" width="28" height="58" rx="4" fill="#0d0d0d"/>
  <rect x="165" y="36" width="12" height="15" rx="2" fill="#87CEEB" opacity="0.6"/>
  <rect x="22" y="12" width="15" height="38" rx="3" fill="#0d0d0d"/>
  <rect x="18" y="8" width="23" height="9" rx="2" fill="#333"/>
  <circle cx="14" cy="67" r="17" fill="#0d0d0d"/>
  <ellipse cx="92" cy="50" rx="13" ry="9" fill="#0d0d0d"/>
  <!-- 1 pony + 5 huge drivers + 2 trailing -->
  <circle cx="28" cy="103" r="7" fill="#111" stroke="#666" stroke-width="2"/>
<line x1="35.0" y1="103.0" x2="21.0" y2="103.0" stroke="#666" stroke-width="1.2"/>
<line x1="32.9" y1="107.9" x2="23.1" y2="98.1" stroke="#666" stroke-width="1.2"/>
<line x1="28.0" y1="110.0" x2="28.0" y2="96.0" stroke="#666" stroke-width="1.2"/>
<line x1="23.1" y1="107.9" x2="32.9" y2="98.1" stroke="#666" stroke-width="1.2"/>
<circle cx="28" cy="103" r="1.5" fill="#666"/>

  <circle cx="50" cy="103" r="13" fill="#111" stroke="#666" stroke-width="2"/>
<line x1="63.0" y1="103.0" x2="37.0" y2="103.0" stroke="#666" stroke-width="1.2"/>
<line x1="61.3" y1="109.5" x2="38.7" y2="96.5" stroke="#666" stroke-width="1.2"/>
<line x1="56.5" y1="114.3" x2="43.5" y2="91.7" stroke="#666" stroke-width="1.2"/>
<line x1="50.0" y1="116.0" x2="50.0" y2="90.0" stroke="#666" stroke-width="1.2"/>
<line x1="43.5" y1="114.3" x2="56.5" y2="91.7" stroke="#666" stroke-width="1.2"/>
<line x1="38.7" y1="109.5" x2="61.3" y2="96.5" stroke="#666" stroke-width="1.2"/>
<circle cx="50" cy="103" r="2.9" fill="#666"/>

  <circle cx="70" cy="103" r="13" fill="#111" stroke="#666" stroke-width="2"/>
<line x1="83.0" y1="103.0" x2="57.0" y2="103.0" stroke="#666" stroke-width="1.2"/>
<line x1="81.3" y1="109.5" x2="58.7" y2="96.5" stroke="#666" stroke-width="1.2"/>
<line x1="76.5" y1="114.3" x2="63.5" y2="91.7" stroke="#666" stroke-width="1.2"/>
<line x1="70.0" y1="116.0" x2="70.0" y2="90.0" stroke="#666" stroke-width="1.2"/>
<line x1="63.5" y1="114.3" x2="76.5" y2="91.7" stroke="#666" stroke-width="1.2"/>
<line x1="58.7" y1="109.5" x2="81.3" y2="96.5" stroke="#666" stroke-width="1.2"/>
<circle cx="70" cy="103" r="2.9" fill="#666"/>

  <circle cx="90" cy="103" r="13" fill="#111" stroke="#666" stroke-width="2"/>
<line x1="103.0" y1="103.0" x2="77.0" y2="103.0" stroke="#666" stroke-width="1.2"/>
<line x1="101.3" y1="109.5" x2="78.7" y2="96.5" stroke="#666" stroke-width="1.2"/>
<line x1="96.5" y1="114.3" x2="83.5" y2="91.7" stroke="#666" stroke-width="1.2"/>
<line x1="90.0" y1="116.0" x2="90.0" y2="90.0" stroke="#666" stroke-width="1.2"/>
<line x1="83.5" y1="114.3" x2="96.5" y2="91.7" stroke="#666" stroke-width="1.2"/>
<line x1="78.7" y1="109.5" x2="101.3" y2="96.5" stroke="#666" stroke-width="1.2"/>
<circle cx="90" cy="103" r="2.9" fill="#666"/>

  <circle cx="110" cy="103" r="13" fill="#111" stroke="#666" stroke-width="2"/>
<line x1="123.0" y1="103.0" x2="97.0" y2="103.0" stroke="#666" stroke-width="1.2"/>
<line x1="121.3" y1="109.5" x2="98.7" y2="96.5" stroke="#666" stroke-width="1.2"/>
<line x1="116.5" y1="114.3" x2="103.5" y2="91.7" stroke="#666" stroke-width="1.2"/>
<line x1="110.0" y1="116.0" x2="110.0" y2="90.0" stroke="#666" stroke-width="1.2"/>
<line x1="103.5" y1="114.3" x2="116.5" y2="91.7" stroke="#666" stroke-width="1.2"/>
<line x1="98.7" y1="109.5" x2="121.3" y2="96.5" stroke="#666" stroke-width="1.2"/>
<circle cx="110" cy="103" r="2.9" fill="#666"/>

  <circle cx="130" cy="103" r="13" fill="#111" stroke="#666" stroke-width="2"/>
<line x1="143.0" y1="103.0" x2="117.0" y2="103.0" stroke="#666" stroke-width="1.2"/>
<line x1="141.3" y1="109.5" x2="118.7" y2="96.5" stroke="#666" stroke-width="1.2"/>
<line x1="136.5" y1="114.3" x2="123.5" y2="91.7" stroke="#666" stroke-width="1.2"/>
<line x1="130.0" y1="116.0" x2="130.0" y2="90.0" stroke="#666" stroke-width="1.2"/>
<line x1="123.5" y1="114.3" x2="136.5" y2="91.7" stroke="#666" stroke-width="1.2"/>
<line x1="118.7" y1="109.5" x2="141.3" y2="96.5" stroke="#666" stroke-width="1.2"/>
<circle cx="130" cy="103" r="2.9" fill="#666"/>

  <circle cx="154" cy="103" r="9" fill="#111" stroke="#666" stroke-width="2"/>
<line x1="163.0" y1="103.0" x2="145.0" y2="103.0" stroke="#666" stroke-width="1.2"/>
<line x1="160.4" y1="109.4" x2="147.6" y2="96.6" stroke="#666" stroke-width="1.2"/>
<line x1="154.0" y1="112.0" x2="154.0" y2="94.0" stroke="#666" stroke-width="1.2"/>
<line x1="147.6" y1="109.4" x2="160.4" y2="96.6" stroke="#666" stroke-width="1.2"/>
<circle cx="154" cy="103" r="2.0" fill="#666"/>

  <circle cx="173" cy="103" r="9" fill="#111" stroke="#666" stroke-width="2"/>
<line x1="182.0" y1="103.0" x2="164.0" y2="103.0" stroke="#666" stroke-width="1.2"/>
<line x1="179.4" y1="109.4" x2="166.6" y2="96.6" stroke="#666" stroke-width="1.2"/>
<line x1="173.0" y1="112.0" x2="173.0" y2="94.0" stroke="#666" stroke-width="1.2"/>
<line x1="166.6" y1="109.4" x2="179.4" y2="96.6" stroke="#666" stroke-width="1.2"/>
<circle cx="173" cy="103" r="2.0" fill="#666"/>

  <rect x="50" y="101" width="80" height="4" rx="2" fill="#555" opacity="0.8"/>
  <line x1="5" y1="112" x2="198" y2="112" stroke="#888" stroke-width="2.5"/>


  <text x="100" y="126" font-family="Arial,sans-serif" font-size="7" fill="#555" text-anchor="middle">Texas 2-10-4 · 1925</text>
</svg>