<svg xmlns="http://www.w3.org/2000/svg" viewBox="0 0 200 130" width="200" height="130">

  <!-- Duplex: taller double-deck body - key visual feature -->
  <path d="M8,65 Q18,36 44,30 L185,30 L188,65 L185,100 L44,100 Q18,94 8,65 Z" fill="#C0C0C0"/>
  <!-- navy sections -->
  <rect x="44" y="30" width="144" height="22" rx="0" fill="#003082"/>
  <path d="M8,65 Q16,44 38,38 L44,38 L44,30 Q22,38 12,52 Z" fill="#003082"/>
  <!-- deck division line - visible double deck indicator -->
  <rect x="44" y="62" width="144" height="4" fill="#555"/>
  <path d="M8,65 Q12,63 34,63 L44,65 L44,66 L34,64 Q14,64 10,66 Z" fill="#555"/>
  <!-- upper deck windows -->
  <rect x="52" y="34" width="10" height="12" rx="1" fill="#87CEEB" opacity="0.6"/>
  <rect x="68" y="34" width="10" height="12" rx="1" fill="#87CEEB" opacity="0.6"/>
  <rect x="84" y="34" width="10" height="12" rx="1" fill="#87CEEB" opacity="0.6"/>
  <!-- lower deck windows -->
  <rect x="52" y="68" width="10" height="12" rx="1" fill="#87CEEB" opacity="0.6"/>
  <rect x="68" y="68" width="10" height="12" rx="1" fill="#87CEEB" opacity="0.6"/>
  <rect x="84" y="68" width="10" height="12" rx="1" fill="#87CEEB" opacity="0.6"/>
  <!-- cab window -->
  <rect x="24" y="38" width="22" height="18" rx="2" fill="#87CEEB" opacity="0.7"/>
  <circle cx="12" cy="65" r="5" fill="#FFE040" opacity="0.9"/>
  <circle cx="38" cy="108" r="8" fill="#aaa" stroke="#003082" stroke-width="2"/>
<line x1="46.0" y1="108.0" x2="30.0" y2="108.0" stroke="#003082" stroke-width="1.2"/>
<line x1="43.7" y1="113.7" x2="32.3" y2="102.3" stroke="#003082" stroke-width="1.2"/>
<line x1="38.0" y1="116.0" x2="38.0" y2="100.0" stroke="#003082" stroke-width="1.2"/>
<line x1="32.3" y1="113.7" x2="43.7" y2="102.3" stroke="#003082" stroke-width="1.2"/>
<circle cx="38" cy="108" r="1.8" fill="#003082"/>

  <circle cx="62" cy="108" r="8" fill="#aaa" stroke="#003082" stroke-width="2"/>
<line x1="70.0" y1="108.0" x2="54.0" y2="108.0" stroke="#003082" stroke-width="1.2"/>
<line x1="67.7" y1="113.7" x2="56.3" y2="102.3" stroke="#003082" stroke-width="1.2"/>
<line x1="62.0" y1="116.0" x2="62.0" y2="100.0" stroke="#003082" stroke-width="1.2"/>
<line x1="56.3" y1="113.7" x2="67.7" y2="102.3" stroke="#003082" stroke-width="1.2"/>
<circle cx="62" cy="108" r="1.8" fill="#003082"/>

  <circle cx="110" cy="108" r="8" fill="#aaa" stroke="#003082" stroke-width="2"/>
<line x1="118.0" y1="108.0" x2="102.0" y2="108.0" stroke="#003082" stroke-width="1.2"/>
<line x1="115.7" y1="113.7" x2="104.3" y2="102.3" stroke="#003082" stroke-width="1.2"/>
<line x1="110.0" y1="116.0" x2="110.0" y2="100.0" stroke="#003082" stroke-width="1.2"/>
<line x1="104.3" y1="113.7" x2="115.7" y2="102.3" stroke="#003082" stroke-width="1.2"/>
<circle cx="110" cy="108" r="1.8" fill="#003082"/>

  <circle cx="150" cy="108" r="8" fill="#aaa" stroke="#003082" stroke-width="2"/>
<line x1="158.0" y1="108.0" x2="142.0" y2="108.0" stroke="#003082" stroke-width="1.2"/>
<line x1="155.7" y1="113.7" x2="144.3" y2="102.3" stroke="#003082" stroke-width="1.2"/>
<line x1="150.0" y1="116.0" x2="150.0" y2="100.0" stroke="#003082" stroke-width="1.2"/>
<line x1="144.3" y1="113.7" x2="155.7" y2="102.3" stroke="#003082" stroke-width="1.2"/>
<circle cx="150" cy="108" r="1.8" fill="#003082"/>

  <circle cx="174" cy="108" r="8" fill="#aaa" stroke="#003082" stroke-width="2"/>
<line x1="182.0" y1="108.0" x2="166.0" y2="108.0" stroke="#003082" stroke-width="1.2"/>
<line x1="179.7" y1="113.7" x2="168.3" y2="102.3" stroke="#003082" stroke-width="1.2"/>
<line x1="174.0" y1="116.0" x2="174.0" y2="100.0" stroke="#003082" stroke-width="1.2"/>
<line x1="168.3" y1="113.7" x2="179.7" y2="102.3" stroke="#003082" stroke-width="1.2"/>
<circle cx="174" cy="108" r="1.8" fill="#003082"/>

  <line x1="5" y1="112" x2="198" y2="112" stroke="#888" stroke-width="2.5"/>


  <text x="100" y="126" font-family="Arial,sans-serif" font-size="7" fill="#555" text-anchor="middle">TGV Duplex · 1995</text>
</svg>