<svg xmlns="http://www.w3.org/2000/svg" viewBox="0 0 210 112" width="210" height="112">
  <rect x="4" y="22" width="200" height="66" rx="6" fill="#1A3A6B"/>
  <rect x="4" y="22" width="200" height="20" rx="5" fill="#C83020" opacity="0.3"/>
  <rect x="12" y="28" width="26" height="20" rx="3" fill="#87CEEB" opacity="0.7"/>
  <rect x="44" y="28" width="26" height="20" rx="3" fill="#87CEEB" opacity="0.7"/>
  <rect x="84" y="28" width="26" height="20" rx="3" fill="#87CEEB" opacity="0.7"/>
  <rect x="116" y="28" width="26" height="20" rx="3" fill="#87CEEB" opacity="0.7"/>
  <rect x="148" y="28" width="26" height="20" rx="3" fill="#87CEEB" opacity="0.7"/>
  <rect x="180" y="28" width="18" height="20" rx="3" fill="#87CEEB" opacity="0.6"/>
  <rect x="30" y="50" width="4" height="30" rx="1" fill="#C83020" opacity="0.4"/>
  <rect x="60" y="50" width="4" height="30" rx="1" fill="#C83020" opacity="0.4"/>
  <rect x="100" y="50" width="4" height="30" rx="1" fill="#C83020" opacity="0.4"/>
  <rect x="132" y="50" width="4" height="30" rx="1" fill="#C83020" opacity="0.4"/>
  <rect x="164" y="50" width="4" height="30" rx="1" fill="#C83020" opacity="0.4"/>
  <path d="M4,44 L204,44" stroke="#C83020" stroke-width="2" opacity="0.4"/>
  <circle cx="8"   cy="56" r="4" fill="#FFE040" opacity="0.9"/>
  <circle cx="200" cy="56" r="4" fill="#FFE040" opacity="0.9"/>
  <circle cx="30" cy="98" r="11" fill="#081428" stroke="#C83020" stroke-width="2.5"/>
  <line x1="41.0" y1="98.0" x2="19.0" y2="98.0" stroke="#C83020" stroke-width="1.2"/>
  <line x1="37.8" y1="105.8" x2="22.2" y2="90.2" stroke="#C83020" stroke-width="1.2"/>
  <line x1="30.0" y1="109.0" x2="30.0" y2="87.0" stroke="#C83020" stroke-width="1.2"/>
  <line x1="22.2" y1="105.8" x2="37.8" y2="90.2" stroke="#C83020" stroke-width="1.2"/>
  <circle cx="30" cy="98" r="2.4" fill="#C83020"/>
  <circle cx="60" cy="98" r="11" fill="#081428" stroke="#C83020" stroke-width="2.5"/>
  <line x1="71.0" y1="98.0" x2="49.0" y2="98.0" stroke="#C83020" stroke-width="1.2"/>
  <line x1="67.8" y1="105.8" x2="52.2" y2="90.2" stroke="#C83020" stroke-width="1.2"/>
  <line x1="60.0" y1="109.0" x2="60.0" y2="87.0" stroke="#C83020" stroke-width="1.2"/>
  <line x1="52.2" y1="105.8" x2="67.8" y2="90.2" stroke="#C83020" stroke-width="1.2"/>
  <circle cx="60" cy="98" r="2.4" fill="#C83020"/>
  <circle cx="148" cy="98" r="11" fill="#081428" stroke="#C83020" stroke-width="2.5"/>
  <line x1="159.0" y1="98.0" x2="137.0" y2="98.0" stroke="#C83020" stroke-width="1.2"/>
  <line x1="155.8" y1="105.8" x2="140.2" y2="90.2" stroke="#C83020" stroke-width="1.2"/>
  <line x1="148.0" y1="109.0" x2="148.0" y2="87.0" stroke="#C83020" stroke-width="1.2"/>
  <line x1="140.2" y1="105.8" x2="155.8" y2="90.2" stroke="#C83020" stroke-width="1.2"/>
  <circle cx="148" cy="98" r="2.4" fill="#C83020"/>
  <circle cx="178" cy="98" r="11" fill="#081428" stroke="#C83020" stroke-width="2.5"/>
  <line x1="189.0" y1="98.0" x2="167.0" y2="98.0" stroke="#C83020" stroke-width="1.2"/>
  <line x1="185.8" y1="105.8" x2="170.2" y2="90.2" stroke="#C83020" stroke-width="1.2"/>
  <line x1="178.0" y1="109.0" x2="178.0" y2="87.0" stroke="#C83020" stroke-width="1.2"/>
  <line x1="170.2" y1="105.8" x2="185.8" y2="90.2" stroke="#C83020" stroke-width="1.2"/>
  <circle cx="178" cy="98" r="2.4" fill="#C83020"/>

  <text x="105" y="108" font-family="Arial,sans-serif" font-size="7" fill="#666" text-anchor="middle">Tokyo Metro · 1927</text>
</svg>