<svg xmlns="http://www.w3.org/2000/svg" viewBox="0 0 200 130" width="200" height="130">

  <!-- Tokyo Metro: silver stainless, colored door stripes per line -->
  <rect x="8" y="44" width="180" height="62" rx="4" fill="#C8C8C8"/>
  <!-- silver stainless vertical lines -->
  <line x1="44" y1="44" x2="44" y2="106" stroke="#aaa" stroke-width="1"/>
  <line x1="78" y1="44" x2="78" y2="106" stroke="#aaa" stroke-width="1"/>
  <line x1="112" y1="44" x2="112" y2="106" stroke="#aaa" stroke-width="1"/>
  <line x1="146" y1="44" x2="146" y2="106" stroke="#aaa" stroke-width="1"/>
  <!-- colored door stripe (Tokyo Metro 05 Tozai line blue) -->
  <rect x="38" y="44" width="10" height="62" rx="2" fill="#009BBF"/>
  <rect x="72" y="44" width="10" height="62" rx="2" fill="#009BBF"/>
  <rect x="106" y="44" width="10" height="62" rx="2" fill="#009BBF"/>
  <rect x="140" y="44" width="10" height="62" rx="2" fill="#009BBF"/>
  <!-- windows -->
  <rect x="14" y="50" width="22" height="10" rx="1" fill="#87CEEB" opacity="0.7"/>
  <rect x="50" y="50" width="18" height="10" rx="1" fill="#87CEEB" opacity="0.7"/>
  <rect x="84" y="50" width="18" height="10" rx="1" fill="#87CEEB" opacity="0.7"/>
  <rect x="118" y="50" width="18" height="10" rx="1" fill="#87CEEB" opacity="0.7"/>
  <rect x="152" y="50" width="18" height="10" rx="1" fill="#87CEEB" opacity="0.7"/>
  <circle cx="22" cy="114" r="7" fill="#aaa" stroke="#009BBF" stroke-width="2"/>
<line x1="29.0" y1="114.0" x2="15.0" y2="114.0" stroke="#009BBF" stroke-width="1.2"/>
<line x1="26.9" y1="118.9" x2="17.1" y2="109.1" stroke="#009BBF" stroke-width="1.2"/>
<line x1="22.0" y1="121.0" x2="22.0" y2="107.0" stroke="#009BBF" stroke-width="1.2"/>
<line x1="17.1" y1="118.9" x2="26.9" y2="109.1" stroke="#009BBF" stroke-width="1.2"/>
<circle cx="22" cy="114" r="1.5" fill="#009BBF"/>

  <circle cx="46" cy="114" r="7" fill="#aaa" stroke="#009BBF" stroke-width="2"/>
<line x1="53.0" y1="114.0" x2="39.0" y2="114.0" stroke="#009BBF" stroke-width="1.2"/>
<line x1="50.9" y1="118.9" x2="41.1" y2="109.1" stroke="#009BBF" stroke-width="1.2"/>
<line x1="46.0" y1="121.0" x2="46.0" y2="107.0" stroke="#009BBF" stroke-width="1.2"/>
<line x1="41.1" y1="118.9" x2="50.9" y2="109.1" stroke="#009BBF" stroke-width="1.2"/>
<circle cx="46" cy="114" r="1.5" fill="#009BBF"/>

  <circle cx="88" cy="114" r="7" fill="#aaa" stroke="#009BBF" stroke-width="2"/>
<line x1="95.0" y1="114.0" x2="81.0" y2="114.0" stroke="#009BBF" stroke-width="1.2"/>
<line x1="92.9" y1="118.9" x2="83.1" y2="109.1" stroke="#009BBF" stroke-width="1.2"/>
<line x1="88.0" y1="121.0" x2="88.0" y2="107.0" stroke="#009BBF" stroke-width="1.2"/>
<line x1="83.1" y1="118.9" x2="92.9" y2="109.1" stroke="#009BBF" stroke-width="1.2"/>
<circle cx="88" cy="114" r="1.5" fill="#009BBF"/>

  <circle cx="120" cy="114" r="7" fill="#aaa" stroke="#009BBF" stroke-width="2"/>
<line x1="127.0" y1="114.0" x2="113.0" y2="114.0" stroke="#009BBF" stroke-width="1.2"/>
<line x1="124.9" y1="118.9" x2="115.1" y2="109.1" stroke="#009BBF" stroke-width="1.2"/>
<line x1="120.0" y1="121.0" x2="120.0" y2="107.0" stroke="#009BBF" stroke-width="1.2"/>
<line x1="115.1" y1="118.9" x2="124.9" y2="109.1" stroke="#009BBF" stroke-width="1.2"/>
<circle cx="120" cy="114" r="1.5" fill="#009BBF"/>

  <circle cx="158" cy="114" r="7" fill="#aaa" stroke="#009BBF" stroke-width="2"/>
<line x1="165.0" y1="114.0" x2="151.0" y2="114.0" stroke="#009BBF" stroke-width="1.2"/>
<line x1="162.9" y1="118.9" x2="153.1" y2="109.1" stroke="#009BBF" stroke-width="1.2"/>
<line x1="158.0" y1="121.0" x2="158.0" y2="107.0" stroke="#009BBF" stroke-width="1.2"/>
<line x1="153.1" y1="118.9" x2="162.9" y2="109.1" stroke="#009BBF" stroke-width="1.2"/>
<circle cx="158" cy="114" r="1.5" fill="#009BBF"/>

  <line x1="5" y1="112" x2="198" y2="112" stroke="#888" stroke-width="2.5"/>


  <text x="100" y="126" font-family="Arial,sans-serif" font-size="7" fill="#555" text-anchor="middle">Tokyo Metro · 1927</text>
</svg>