<svg xmlns="http://www.w3.org/2000/svg" viewBox="0 0 200 130" width="200" height="130">

  <!-- very compact, tiny vertical boiler -->
  <rect x="72" y="40" width="30" height="45" rx="8" fill="#5C3A1E"/>
  <ellipse cx="87" cy="40" rx="15" ry="6" fill="#3a2010"/>
  <!-- thin chimney tall -->
  <rect x="83" y="12" width="8" height="30" rx="3" fill="#222"/>
  <rect x="79" y="9" width="16" height="6" rx="2" fill="#333"/>
  <!-- smoke small -->
  <circle cx="87" cy="7" r="4" fill="#ccc" opacity="0.4"/>
  <!-- water pump visible on side -->
  <rect x="65" y="55" width="10" height="18" rx="3" fill="#7B5030"/>
  <rect x="61" y="60" width="8" height="8" rx="2" fill="#5a3a1a"/>
  <!-- very compact frame -->
  <rect x="55" y="80" width="68" height="8" rx="3" fill="#3a2010"/>
  <!-- 2 small drive wheels + 2 small trailing -->
  <circle cx="70" cy="102" r="9" fill="#2a1800" stroke="#c87820" stroke-width="2"/>
<line x1="79.0" y1="102.0" x2="61.0" y2="102.0" stroke="#c87820" stroke-width="1.2"/>
<line x1="76.4" y1="108.4" x2="63.6" y2="95.6" stroke="#c87820" stroke-width="1.2"/>
<line x1="70.0" y1="111.0" x2="70.0" y2="93.0" stroke="#c87820" stroke-width="1.2"/>
<line x1="63.6" y1="108.4" x2="76.4" y2="95.6" stroke="#c87820" stroke-width="1.2"/>
<circle cx="70" cy="102" r="2.0" fill="#c87820"/>

  <circle cx="92" cy="102" r="9" fill="#2a1800" stroke="#c87820" stroke-width="2"/>
<line x1="101.0" y1="102.0" x2="83.0" y2="102.0" stroke="#c87820" stroke-width="1.2"/>
<line x1="98.4" y1="108.4" x2="85.6" y2="95.6" stroke="#c87820" stroke-width="1.2"/>
<line x1="92.0" y1="111.0" x2="92.0" y2="93.0" stroke="#c87820" stroke-width="1.2"/>
<line x1="85.6" y1="108.4" x2="98.4" y2="95.6" stroke="#c87820" stroke-width="1.2"/>
<circle cx="92" cy="102" r="2.0" fill="#c87820"/>

  <circle cx="114" cy="102" r="7" fill="#1a1000" stroke="#996010" stroke-width="2"/>
<line x1="121.0" y1="102.0" x2="107.0" y2="102.0" stroke="#996010" stroke-width="1.2"/>
<line x1="118.9" y1="106.9" x2="109.1" y2="97.1" stroke="#996010" stroke-width="1.2"/>
<line x1="114.0" y1="109.0" x2="114.0" y2="95.0" stroke="#996010" stroke-width="1.2"/>
<line x1="109.1" y1="106.9" x2="118.9" y2="97.1" stroke="#996010" stroke-width="1.2"/>
<circle cx="114" cy="102" r="1.5" fill="#996010"/>

  <circle cx="130" cy="102" r="7" fill="#1a1000" stroke="#996010" stroke-width="2"/>
<line x1="137.0" y1="102.0" x2="123.0" y2="102.0" stroke="#996010" stroke-width="1.2"/>
<line x1="134.9" y1="106.9" x2="125.1" y2="97.1" stroke="#996010" stroke-width="1.2"/>
<line x1="130.0" y1="109.0" x2="130.0" y2="95.0" stroke="#996010" stroke-width="1.2"/>
<line x1="125.1" y1="106.9" x2="134.9" y2="97.1" stroke="#996010" stroke-width="1.2"/>
<circle cx="130" cy="102" r="1.5" fill="#996010"/>

  <line x1="45" y1="112" x2="160" y2="112" stroke="#888" stroke-width="2.5"/>


  <text x="100" y="126" font-family="Arial,sans-serif" font-size="7" fill="#555" text-anchor="middle">Tom Thumb · 1830</text>
</svg>