<svg xmlns="http://www.w3.org/2000/svg" viewBox="0 0 208 102" width="208" height="102">
  <defs>
    <radialGradient id="hov" cx="50%" cy="100%" r="60%">
      <stop offset="0%" stop-color="#1A3A6B" stop-opacity="0.6"/>
      <stop offset="100%" stop-color="#1A3A6B" stop-opacity="0"/>
    </radialGradient>
    <filter id="glow2"><feGaussianBlur stdDeviation="2.5"/></filter>
  </defs>
  <ellipse cx="102" cy="92" rx="90" ry="10" fill="url(#hov)"/>
  <path d="M4,52 Q10,24 55,22 L180,22 Q196,22 200,52 L200,76 Q196,82 165,82 L55,82 Q18,80 4,76 Z" fill="#C8C8C8"/>
  <path d="M4,52 Q8,34 50,28 L50,76 Q16,72 4,76 Z" fill="#1A3A6B" opacity="0.2"/>
  <rect x="58" y="28" width="16" height="12" rx="3" fill="#87CEEB" opacity="0.65"/>
  <rect x="80" y="28" width="16" height="12" rx="3" fill="#87CEEB" opacity="0.65"/>
  <rect x="104" y="28" width="16" height="12" rx="3" fill="#87CEEB" opacity="0.65"/>
  <rect x="128" y="28" width="16" height="12" rx="3" fill="#87CEEB" opacity="0.65"/>
  <rect x="152" y="28" width="16" height="12" rx="3" fill="#87CEEB" opacity="0.65"/>
  <rect x="176" y="28" width="14" height="12" rx="3" fill="#87CEEB" opacity="0.55"/>
  <path d="M4,54 L200,54" stroke="#1A3A6B" stroke-width="2" opacity="0.5"/>
  <rect x="30" y="78" width="144" height="6" rx="3" fill="#1A3A6B" opacity="0.4"/>
  <ellipse cx="102" cy="84" rx="72" ry="5" fill="#1A3A6B" opacity="0.25" filter="url(#glow2)"/>
  <circle cx="6" cy="52" r="4" fill="#00FFFF" opacity="0.9"/>

  <text x="104" y="98" font-family="Arial,sans-serif" font-size="7" fill="#666" text-anchor="middle">Transrapid 07 · 1989</text>
</svg>