<svg xmlns="http://www.w3.org/2000/svg" viewBox="0 0 200 130" width="200" height="130">

  <!-- Transrapid 07: white/gray, T-shaped cross section visible -->
  <path d="M8,68 Q20,50 46,44 L185,44 L188,68 L185,92 L46,92 Q20,86 8,68 Z" fill="#E0E0E0"/>
  <!-- T-shaped wraparound visible: wider top, narrow bottom -->
  <rect x="46" y="44" width="142" height="22" rx="0" fill="#D0D0D0"/>
  <rect x="46" y="66" width="142" height="14" rx="0" fill="#C0C0C0"/>
  <rect x="54" y="80" width="126" height="10" rx="2" fill="#B0B0B0"/>
  <!-- wrap-around nose shape -->
  <path d="M8,68 Q16,54 36,48 L46,48 Q30,52 18,68 Q30,84 46,88 L36,88 Q16,82 8,68 Z" fill="#D0D0D0"/>
  <!-- guide rail visible below -->
  <rect x="54" y="90" width="126" height="4" rx="1" fill="#aaa"/>
  <!-- no wheels - maglev -->
  <rect x="28" y="50" width="20" height="14" rx="2" fill="#87CEEB" opacity="0.7"/>
  <circle cx="11" cy="68" r="5" fill="#FFE040" opacity="0.9"/>
  <!-- Transrapid T-beam guideway -->
  <rect x="8" y="96" width="180" height="6" fill="#888"/>
  <rect x="8" y="102" width="180" height="4" fill="#777"/>

  <text x="100" y="126" font-family="Arial,sans-serif" font-size="7" fill="#555" text-anchor="middle">Transrapid 07 · 1989</text>
</svg>