<svg xmlns="http://www.w3.org/2000/svg" viewBox="0 0 200 130" width="200" height="130">

  <rect x="8" y="55" width="65" height="34" rx="6" fill="#111"/>
  <rect x="14" y="60" width="44" height="22" rx="6" fill="#1a1a1a"/>
  <rect x="16" y="22" width="12" height="35" rx="3" fill="#0d0d0d"/>
  <rect x="12" y="18" width="20" height="7" rx="2" fill="#333"/>
  <circle cx="12" cy="70" r="15" fill="#0d0d0d"/>
  <rect x="75" y="52" width="40" height="37" rx="3" fill="#2a2a2a"/>
  <rect x="118" y="52" width="40" height="37" rx="3" fill="#2a2a2a"/>
  <rect x="161" y="52" width="33" height="37" rx="3" fill="#2a2a2a"/>
  <rect x="79" y="58" width="8" height="8" rx="1" fill="#87CEEB" opacity="0.6"/>
  <rect x="92" y="58" width="8" height="8" rx="1" fill="#87CEEB" opacity="0.6"/>
  <rect x="105" y="58" width="8" height="8" rx="1" fill="#87CEEB" opacity="0.6"/>
  <rect x="122" y="58" width="8" height="8" rx="1" fill="#87CEEB" opacity="0.6"/>
  <rect x="135" y="58" width="8" height="8" rx="1" fill="#87CEEB" opacity="0.6"/>
  <rect x="148" y="58" width="8" height="8" rx="1" fill="#87CEEB" opacity="0.6"/>
  <rect x="165" y="58" width="8" height="8" rx="1" fill="#87CEEB" opacity="0.6"/>
  <rect x="75" y="71" width="119" height="5" fill="#CC0000"/>
  <rect x="72" y="66" width="6" height="4" fill="#666"/>
  <rect x="116" y="66" width="5" height="4" fill="#666"/>
  <rect x="159" y="66" width="5" height="4" fill="#666"/>
  <circle cx="22" cy="100" r="8" fill="#111" stroke="#666" stroke-width="2"/>
<line x1="30.0" y1="100.0" x2="14.0" y2="100.0" stroke="#666" stroke-width="1.2"/>
<line x1="27.7" y1="105.7" x2="16.3" y2="94.3" stroke="#666" stroke-width="1.2"/>
<line x1="22.0" y1="108.0" x2="22.0" y2="92.0" stroke="#666" stroke-width="1.2"/>
<line x1="16.3" y1="105.7" x2="27.7" y2="94.3" stroke="#666" stroke-width="1.2"/>
<circle cx="22" cy="100" r="1.8" fill="#666"/>

  <circle cx="42" cy="100" r="8" fill="#111" stroke="#666" stroke-width="2"/>
<line x1="50.0" y1="100.0" x2="34.0" y2="100.0" stroke="#666" stroke-width="1.2"/>
<line x1="47.7" y1="105.7" x2="36.3" y2="94.3" stroke="#666" stroke-width="1.2"/>
<line x1="42.0" y1="108.0" x2="42.0" y2="92.0" stroke="#666" stroke-width="1.2"/>
<line x1="36.3" y1="105.7" x2="47.7" y2="94.3" stroke="#666" stroke-width="1.2"/>
<circle cx="42" cy="100" r="1.8" fill="#666"/>

  <circle cx="60" cy="100" r="11" fill="#111" stroke="#666" stroke-width="2"/>
<line x1="71.0" y1="100.0" x2="49.0" y2="100.0" stroke="#666" stroke-width="1.2"/>
<line x1="69.5" y1="105.5" x2="50.5" y2="94.5" stroke="#666" stroke-width="1.2"/>
<line x1="65.5" y1="109.5" x2="54.5" y2="90.5" stroke="#666" stroke-width="1.2"/>
<line x1="60.0" y1="111.0" x2="60.0" y2="89.0" stroke="#666" stroke-width="1.2"/>
<line x1="54.5" y1="109.5" x2="65.5" y2="90.5" stroke="#666" stroke-width="1.2"/>
<line x1="50.5" y1="105.5" x2="69.5" y2="94.5" stroke="#666" stroke-width="1.2"/>
<circle cx="60" cy="100" r="2.4" fill="#666"/>

  <circle cx="88" cy="100" r="7" fill="#333" stroke="#555" stroke-width="2"/>
<line x1="95.0" y1="100.0" x2="81.0" y2="100.0" stroke="#555" stroke-width="1.2"/>
<line x1="92.9" y1="104.9" x2="83.1" y2="95.1" stroke="#555" stroke-width="1.2"/>
<line x1="88.0" y1="107.0" x2="88.0" y2="93.0" stroke="#555" stroke-width="1.2"/>
<line x1="83.1" y1="104.9" x2="92.9" y2="95.1" stroke="#555" stroke-width="1.2"/>
<circle cx="88" cy="100" r="1.5" fill="#555"/>

  <circle cx="106" cy="100" r="7" fill="#333" stroke="#555" stroke-width="2"/>
<line x1="113.0" y1="100.0" x2="99.0" y2="100.0" stroke="#555" stroke-width="1.2"/>
<line x1="110.9" y1="104.9" x2="101.1" y2="95.1" stroke="#555" stroke-width="1.2"/>
<line x1="106.0" y1="107.0" x2="106.0" y2="93.0" stroke="#555" stroke-width="1.2"/>
<line x1="101.1" y1="104.9" x2="110.9" y2="95.1" stroke="#555" stroke-width="1.2"/>
<circle cx="106" cy="100" r="1.5" fill="#555"/>

  <circle cx="129" cy="100" r="7" fill="#333" stroke="#555" stroke-width="2"/>
<line x1="136.0" y1="100.0" x2="122.0" y2="100.0" stroke="#555" stroke-width="1.2"/>
<line x1="133.9" y1="104.9" x2="124.1" y2="95.1" stroke="#555" stroke-width="1.2"/>
<line x1="129.0" y1="107.0" x2="129.0" y2="93.0" stroke="#555" stroke-width="1.2"/>
<line x1="124.1" y1="104.9" x2="133.9" y2="95.1" stroke="#555" stroke-width="1.2"/>
<circle cx="129" cy="100" r="1.5" fill="#555"/>

  <circle cx="148" cy="100" r="7" fill="#333" stroke="#555" stroke-width="2"/>
<line x1="155.0" y1="100.0" x2="141.0" y2="100.0" stroke="#555" stroke-width="1.2"/>
<line x1="152.9" y1="104.9" x2="143.1" y2="95.1" stroke="#555" stroke-width="1.2"/>
<line x1="148.0" y1="107.0" x2="148.0" y2="93.0" stroke="#555" stroke-width="1.2"/>
<line x1="143.1" y1="104.9" x2="152.9" y2="95.1" stroke="#555" stroke-width="1.2"/>
<circle cx="148" cy="100" r="1.5" fill="#555"/>

  <circle cx="168" cy="100" r="7" fill="#333" stroke="#555" stroke-width="2"/>
<line x1="175.0" y1="100.0" x2="161.0" y2="100.0" stroke="#555" stroke-width="1.2"/>
<line x1="172.9" y1="104.9" x2="163.1" y2="95.1" stroke="#555" stroke-width="1.2"/>
<line x1="168.0" y1="107.0" x2="168.0" y2="93.0" stroke="#555" stroke-width="1.2"/>
<line x1="163.1" y1="104.9" x2="172.9" y2="95.1" stroke="#555" stroke-width="1.2"/>
<circle cx="168" cy="100" r="1.5" fill="#555"/>

  <circle cx="185" cy="100" r="7" fill="#333" stroke="#555" stroke-width="2"/>
<line x1="192.0" y1="100.0" x2="178.0" y2="100.0" stroke="#555" stroke-width="1.2"/>
<line x1="189.9" y1="104.9" x2="180.1" y2="95.1" stroke="#555" stroke-width="1.2"/>
<line x1="185.0" y1="107.0" x2="185.0" y2="93.0" stroke="#555" stroke-width="1.2"/>
<line x1="180.1" y1="104.9" x2="189.9" y2="95.1" stroke="#555" stroke-width="1.2"/>
<circle cx="185" cy="100" r="1.5" fill="#555"/>

  <line x1="5" y1="112" x2="198" y2="112" stroke="#888" stroke-width="2.5"/>


  <text x="100" y="126" font-family="Arial,sans-serif" font-size="7" fill="#555" text-anchor="middle">Trans-Siberian · 1891</text>
</svg>