<svg xmlns="http://www.w3.org/2000/svg" viewBox="0 0 212 100" width="212" height="100">
  <ellipse cx="38" cy="10" rx="7" ry="5" fill="#CCC" opacity="0.4"/>
  <rect x="30" y="12" width="14" height="26" rx="3" fill="#444"/>
  <rect x="27" y="9"  width="20" height="5" rx="2" fill="#333"/>
  <rect x="38" y="26" width="130" height="36" rx="10" fill="#1A0A0A"/>
  <ellipse cx="80" cy="24" rx="11" ry="7" fill="#6B3A1A"/>
  <rect x="158" y="16" width="46" height="46" rx="3" fill="#1A0A00"/>
  <path d="M154,14 L204,14 L204,10 Q179,4 154,10Z" fill="#6B3A1A"/>
  <rect x="162" y="22" width="12" height="10" rx="2" fill="#87CEEB" opacity="0.75"/>
  <rect x="180" y="22" width="12" height="10" rx="2" fill="#87CEEB" opacity="0.75"/>
  <rect x="38" y="60" width="166" height="7" rx="2" fill="#6B3A1A" opacity="0.5"/>
  <path d="M38,60 L18,68 L18,72 L38,68Z" fill="#1A0A0A"/>
  <circle cx="22" cy="48" r="5" fill="#FFE040" opacity="0.9"/>
  <rect x="60" y="56" width="18" height="9" rx="2" fill="#1A0A0A" opacity="0.4"/>
  <rect x="94" y="56" width="18" height="9" rx="2" fill="#1A0A0A" opacity="0.4"/>
  <rect x="128" y="56" width="18" height="9" rx="2" fill="#1A0A0A" opacity="0.4"/>
  <circle cx="62" cy="82" r="16" fill="#0A0000" stroke="#6B3A1A" stroke-width="2.5"/>
  <line x1="78.0" y1="82.0" x2="46.0" y2="82.0" stroke="#6B3A1A" stroke-width="1.2"/>
  <line x1="76.8" y1="88.1" x2="47.2" y2="75.9" stroke="#6B3A1A" stroke-width="1.2"/>
  <line x1="73.3" y1="93.3" x2="50.7" y2="70.7" stroke="#6B3A1A" stroke-width="1.2"/>
  <line x1="68.1" y1="96.8" x2="55.9" y2="67.2" stroke="#6B3A1A" stroke-width="1.2"/>
  <line x1="62.0" y1="98.0" x2="62.0" y2="66.0" stroke="#6B3A1A" stroke-width="1.2"/>
  <line x1="55.9" y1="96.8" x2="68.1" y2="67.2" stroke="#6B3A1A" stroke-width="1.2"/>
  <line x1="50.7" y1="93.3" x2="73.3" y2="70.7" stroke="#6B3A1A" stroke-width="1.2"/>
  <line x1="47.2" y1="88.1" x2="76.8" y2="75.9" stroke="#6B3A1A" stroke-width="1.2"/>
  <circle cx="62" cy="82" r="3.5" fill="#6B3A1A"/>
  <circle cx="96" cy="82" r="16" fill="#0A0000" stroke="#6B3A1A" stroke-width="2.5"/>
  <line x1="112.0" y1="82.0" x2="80.0" y2="82.0" stroke="#6B3A1A" stroke-width="1.2"/>
  <line x1="110.8" y1="88.1" x2="81.2" y2="75.9" stroke="#6B3A1A" stroke-width="1.2"/>
  <line x1="107.3" y1="93.3" x2="84.7" y2="70.7" stroke="#6B3A1A" stroke-width="1.2"/>
  <line x1="102.1" y1="96.8" x2="89.9" y2="67.2" stroke="#6B3A1A" stroke-width="1.2"/>
  <line x1="96.0" y1="98.0" x2="96.0" y2="66.0" stroke="#6B3A1A" stroke-width="1.2"/>
  <line x1="89.9" y1="96.8" x2="102.1" y2="67.2" stroke="#6B3A1A" stroke-width="1.2"/>
  <line x1="84.7" y1="93.3" x2="107.3" y2="70.7" stroke="#6B3A1A" stroke-width="1.2"/>
  <line x1="81.2" y1="88.1" x2="110.8" y2="75.9" stroke="#6B3A1A" stroke-width="1.2"/>
  <circle cx="96" cy="82" r="3.5" fill="#6B3A1A"/>
  <circle cx="130" cy="82" r="16" fill="#0A0000" stroke="#6B3A1A" stroke-width="2.5"/>
  <line x1="146.0" y1="82.0" x2="114.0" y2="82.0" stroke="#6B3A1A" stroke-width="1.2"/>
  <line x1="144.8" y1="88.1" x2="115.2" y2="75.9" stroke="#6B3A1A" stroke-width="1.2"/>
  <line x1="141.3" y1="93.3" x2="118.7" y2="70.7" stroke="#6B3A1A" stroke-width="1.2"/>
  <line x1="136.1" y1="96.8" x2="123.9" y2="67.2" stroke="#6B3A1A" stroke-width="1.2"/>
  <line x1="130.0" y1="98.0" x2="130.0" y2="66.0" stroke="#6B3A1A" stroke-width="1.2"/>
  <line x1="123.9" y1="96.8" x2="136.1" y2="67.2" stroke="#6B3A1A" stroke-width="1.2"/>
  <line x1="118.7" y1="93.3" x2="141.3" y2="70.7" stroke="#6B3A1A" stroke-width="1.2"/>
  <line x1="115.2" y1="88.1" x2="144.8" y2="75.9" stroke="#6B3A1A" stroke-width="1.2"/>
  <circle cx="130" cy="82" r="3.5" fill="#6B3A1A"/>
  <circle cx="40" cy="84" r="11" fill="#0A0000" stroke="#6B3A1A" stroke-width="2.5"/>
  <line x1="51.0" y1="84.0" x2="29.0" y2="84.0" stroke="#6B3A1A" stroke-width="1.2"/>
  <line x1="47.8" y1="91.8" x2="32.2" y2="76.2" stroke="#6B3A1A" stroke-width="1.2"/>
  <line x1="40.0" y1="95.0" x2="40.0" y2="73.0" stroke="#6B3A1A" stroke-width="1.2"/>
  <line x1="32.2" y1="91.8" x2="47.8" y2="76.2" stroke="#6B3A1A" stroke-width="1.2"/>
  <circle cx="40" cy="84" r="2.4" fill="#6B3A1A"/>
  <circle cx="178" cy="84" r="12" fill="#0A0000" stroke="#6B3A1A" stroke-width="2.5"/>
  <line x1="190.0" y1="84.0" x2="166.0" y2="84.0" stroke="#6B3A1A" stroke-width="1.2"/>
  <line x1="186.5" y1="92.5" x2="169.5" y2="75.5" stroke="#6B3A1A" stroke-width="1.2"/>
  <line x1="178.0" y1="96.0" x2="178.0" y2="72.0" stroke="#6B3A1A" stroke-width="1.2"/>
  <line x1="169.5" y1="92.5" x2="186.5" y2="75.5" stroke="#6B3A1A" stroke-width="1.2"/>
  <circle cx="178" cy="84" r="2.6" fill="#6B3A1A"/>

  <text x="106" y="96" font-family="Arial,sans-serif" font-size="7" fill="#666" text-anchor="middle">Trans-Siberian · 1891</text>
</svg>