<svg xmlns="http://www.w3.org/2000/svg" viewBox="0 0 200 130" width="200" height="130">

  <!-- European diesel, distinctive wide rounded cab front -->
  <path d="M8,68 Q12,42 30,38 L185,38 L188,68 L185,98 L30,98 Q12,94 8,68 Z" fill="#888"/>
  <!-- yellow nose area -->
  <path d="M8,68 Q12,48 26,44 L26,92 Q12,88 8,68 Z" fill="#FFD700"/>
  <!-- hood section -->
  <rect x="30" y="38" width="158" height="60" rx="0" fill="#777"/>
  <!-- yellow stripe across -->
  <rect x="26" y="62" width="162" height="12" fill="#FFD700"/>
  <!-- cab end -->
  <rect x="148" y="38" width="40" height="60" rx="3" fill="#666"/>
  <rect x="152" y="42" width="18" height="16" rx="2" fill="#87CEEB" opacity="0.7"/>
  <!-- exhaust stacks -->
  <rect x="48" y="24" width="10" height="16" rx="3" fill="#1a1a1a"/>
  <rect x="70" y="26" width="10" height="14" rx="3" fill="#1a1a1a"/>
  <circle cx="12" cy="68" r="6" fill="#FFE040" opacity="0.9"/>
  <circle cx="26" cy="106" r="8" fill="#555" stroke="#FFD700" stroke-width="2"/>
<line x1="34.0" y1="106.0" x2="18.0" y2="106.0" stroke="#FFD700" stroke-width="1.2"/>
<line x1="31.7" y1="111.7" x2="20.3" y2="100.3" stroke="#FFD700" stroke-width="1.2"/>
<line x1="26.0" y1="114.0" x2="26.0" y2="98.0" stroke="#FFD700" stroke-width="1.2"/>
<line x1="20.3" y1="111.7" x2="31.7" y2="100.3" stroke="#FFD700" stroke-width="1.2"/>
<circle cx="26" cy="106" r="1.8" fill="#FFD700"/>

  <circle cx="52" cy="106" r="8" fill="#555" stroke="#FFD700" stroke-width="2"/>
<line x1="60.0" y1="106.0" x2="44.0" y2="106.0" stroke="#FFD700" stroke-width="1.2"/>
<line x1="57.7" y1="111.7" x2="46.3" y2="100.3" stroke="#FFD700" stroke-width="1.2"/>
<line x1="52.0" y1="114.0" x2="52.0" y2="98.0" stroke="#FFD700" stroke-width="1.2"/>
<line x1="46.3" y1="111.7" x2="57.7" y2="100.3" stroke="#FFD700" stroke-width="1.2"/>
<circle cx="52" cy="106" r="1.8" fill="#FFD700"/>

  <circle cx="90" cy="106" r="8" fill="#555" stroke="#FFD700" stroke-width="2"/>
<line x1="98.0" y1="106.0" x2="82.0" y2="106.0" stroke="#FFD700" stroke-width="1.2"/>
<line x1="95.7" y1="111.7" x2="84.3" y2="100.3" stroke="#FFD700" stroke-width="1.2"/>
<line x1="90.0" y1="114.0" x2="90.0" y2="98.0" stroke="#FFD700" stroke-width="1.2"/>
<line x1="84.3" y1="111.7" x2="95.7" y2="100.3" stroke="#FFD700" stroke-width="1.2"/>
<circle cx="90" cy="106" r="1.8" fill="#FFD700"/>

  <circle cx="126" cy="106" r="8" fill="#555" stroke="#FFD700" stroke-width="2"/>
<line x1="134.0" y1="106.0" x2="118.0" y2="106.0" stroke="#FFD700" stroke-width="1.2"/>
<line x1="131.7" y1="111.7" x2="120.3" y2="100.3" stroke="#FFD700" stroke-width="1.2"/>
<line x1="126.0" y1="114.0" x2="126.0" y2="98.0" stroke="#FFD700" stroke-width="1.2"/>
<line x1="120.3" y1="111.7" x2="131.7" y2="100.3" stroke="#FFD700" stroke-width="1.2"/>
<circle cx="126" cy="106" r="1.8" fill="#FFD700"/>

  <circle cx="162" cy="106" r="8" fill="#555" stroke="#FFD700" stroke-width="2"/>
<line x1="170.0" y1="106.0" x2="154.0" y2="106.0" stroke="#FFD700" stroke-width="1.2"/>
<line x1="167.7" y1="111.7" x2="156.3" y2="100.3" stroke="#FFD700" stroke-width="1.2"/>
<line x1="162.0" y1="114.0" x2="162.0" y2="98.0" stroke="#FFD700" stroke-width="1.2"/>
<line x1="156.3" y1="111.7" x2="167.7" y2="100.3" stroke="#FFD700" stroke-width="1.2"/>
<circle cx="162" cy="106" r="1.8" fill="#FFD700"/>

  <circle cx="182" cy="106" r="8" fill="#555" stroke="#FFD700" stroke-width="2"/>
<line x1="190.0" y1="106.0" x2="174.0" y2="106.0" stroke="#FFD700" stroke-width="1.2"/>
<line x1="187.7" y1="111.7" x2="176.3" y2="100.3" stroke="#FFD700" stroke-width="1.2"/>
<line x1="182.0" y1="114.0" x2="182.0" y2="98.0" stroke="#FFD700" stroke-width="1.2"/>
<line x1="176.3" y1="111.7" x2="187.7" y2="100.3" stroke="#FFD700" stroke-width="1.2"/>
<circle cx="182" cy="106" r="1.8" fill="#FFD700"/>

  <line x1="5" y1="112" x2="198" y2="112" stroke="#888" stroke-width="2.5"/>


  <text x="100" y="126" font-family="Arial,sans-serif" font-size="7" fill="#555" text-anchor="middle">Vossloh Euro 4000 · 2004</text>
</svg>