<svg xmlns="http://www.w3.org/2000/svg" viewBox="0 0 200 130" width="200" height="130">

  <path d="M10,68 Q18,42 36,38 L185,38 L188,68 L185,98 L36,98 Q18,94 10,68 Z" fill="#1a4a9c"/>
  <!-- cream band WAP-7 style -->
  <rect x="36" y="58" width="152" height="20" fill="#F5F5DC"/>
  <path d="M10,68 Q14,62 28,60 L28,76 Q14,74 10,68 Z" fill="#F5F5DC"/>
  <!-- Indian flag colors on nose -->
  <rect x="13" y="50" width="18" height="6" fill="#FF9933"/>
  <rect x="13" y="56" width="18" height="6" fill="#fff"/>
  <rect x="13" y="62" width="18" height="6" fill="#138808"/>
  <!-- Ashoka chakra blue dot -->
  <circle cx="22" cy="74" r="4" fill="#000080"/>
  <rect x="152" y="38" width="36" height="60" rx="4" fill="#163a7c"/>
  <rect x="155" y="42" width="18" height="16" rx="2" fill="#87CEEB" opacity="0.7"/>
  <!-- pantograph -->
  <line x1="80" y1="38" x2="76" y2="20" stroke="#888" stroke-width="1.5"/>
  <line x1="100" y1="38" x2="104" y2="20" stroke="#888" stroke-width="1.5"/>
  <line x1="74" y1="20" x2="106" y2="20" stroke="#aaa" stroke-width="2.5"/>
  <circle cx="28" cy="106" r="9" fill="#1a3a7c" stroke="#F5F5DC" stroke-width="2"/>
<line x1="37.0" y1="106.0" x2="19.0" y2="106.0" stroke="#F5F5DC" stroke-width="1.2"/>
<line x1="34.4" y1="112.4" x2="21.6" y2="99.6" stroke="#F5F5DC" stroke-width="1.2"/>
<line x1="28.0" y1="115.0" x2="28.0" y2="97.0" stroke="#F5F5DC" stroke-width="1.2"/>
<line x1="21.6" y1="112.4" x2="34.4" y2="99.6" stroke="#F5F5DC" stroke-width="1.2"/>
<circle cx="28" cy="106" r="2.0" fill="#F5F5DC"/>

  <circle cx="54" cy="106" r="9" fill="#1a3a7c" stroke="#F5F5DC" stroke-width="2"/>
<line x1="63.0" y1="106.0" x2="45.0" y2="106.0" stroke="#F5F5DC" stroke-width="1.2"/>
<line x1="60.4" y1="112.4" x2="47.6" y2="99.6" stroke="#F5F5DC" stroke-width="1.2"/>
<line x1="54.0" y1="115.0" x2="54.0" y2="97.0" stroke="#F5F5DC" stroke-width="1.2"/>
<line x1="47.6" y1="112.4" x2="60.4" y2="99.6" stroke="#F5F5DC" stroke-width="1.2"/>
<circle cx="54" cy="106" r="2.0" fill="#F5F5DC"/>

  <circle cx="130" cy="106" r="9" fill="#1a3a7c" stroke="#F5F5DC" stroke-width="2"/>
<line x1="139.0" y1="106.0" x2="121.0" y2="106.0" stroke="#F5F5DC" stroke-width="1.2"/>
<line x1="136.4" y1="112.4" x2="123.6" y2="99.6" stroke="#F5F5DC" stroke-width="1.2"/>
<line x1="130.0" y1="115.0" x2="130.0" y2="97.0" stroke="#F5F5DC" stroke-width="1.2"/>
<line x1="123.6" y1="112.4" x2="136.4" y2="99.6" stroke="#F5F5DC" stroke-width="1.2"/>
<circle cx="130" cy="106" r="2.0" fill="#F5F5DC"/>

  <circle cx="158" cy="106" r="9" fill="#1a3a7c" stroke="#F5F5DC" stroke-width="2"/>
<line x1="167.0" y1="106.0" x2="149.0" y2="106.0" stroke="#F5F5DC" stroke-width="1.2"/>
<line x1="164.4" y1="112.4" x2="151.6" y2="99.6" stroke="#F5F5DC" stroke-width="1.2"/>
<line x1="158.0" y1="115.0" x2="158.0" y2="97.0" stroke="#F5F5DC" stroke-width="1.2"/>
<line x1="151.6" y1="112.4" x2="164.4" y2="99.6" stroke="#F5F5DC" stroke-width="1.2"/>
<circle cx="158" cy="106" r="2.0" fill="#F5F5DC"/>

  <line x1="5" y1="112" x2="198" y2="112" stroke="#888" stroke-width="2.5"/>


  <text x="100" y="126" font-family="Arial,sans-serif" font-size="7" fill="#555" text-anchor="middle">WAP-7 India · 1999</text>
</svg>