<svg xmlns="http://www.w3.org/2000/svg" viewBox="0 0 200 130" width="200" height="130">

  <!-- NSW diesel green/yellow -->
  <rect x="10" y="44" width="178" height="58" rx="6" fill="#1a5c1a"/>
  <path d="M10,73 Q10,44 24,42 L188,42 L188,44 L10,44 Z" fill="#2a7a2a"/>
  <!-- yellow stripe NSW style -->
  <rect x="10" y="68" width="178" height="10" fill="#FFD700"/>
  <!-- cab front -->
  <rect x="148" y="44" width="40" height="58" rx="4" fill="#1a4a1a"/>
  <rect x="152" y="48" width="18" height="16" rx="2" fill="#87CEEB" opacity="0.7"/>
  <!-- NSW rounded nose -->
  <path d="M10,44 Q10,102 22,102 L10,102 Z" fill="#1a4a1a"/>
  <circle cx="14" cy="73" r="6" fill="#FFE040" opacity="0.9"/>
  <!-- exhaust stacks -->
  <rect x="30" y="32" width="9" height="14" rx="3" fill="#1a1a1a"/>
  <rect x="50" y="34" width="9" height="12" rx="3" fill="#1a1a1a"/>
  <circle cx="28" cy="110" r="8" fill="#1a3a1a" stroke="#FFD700" stroke-width="2"/>
<line x1="36.0" y1="110.0" x2="20.0" y2="110.0" stroke="#FFD700" stroke-width="1.2"/>
<line x1="33.7" y1="115.7" x2="22.3" y2="104.3" stroke="#FFD700" stroke-width="1.2"/>
<line x1="28.0" y1="118.0" x2="28.0" y2="102.0" stroke="#FFD700" stroke-width="1.2"/>
<line x1="22.3" y1="115.7" x2="33.7" y2="104.3" stroke="#FFD700" stroke-width="1.2"/>
<circle cx="28" cy="110" r="1.8" fill="#FFD700"/>

  <circle cx="55" cy="110" r="8" fill="#1a3a1a" stroke="#FFD700" stroke-width="2"/>
<line x1="63.0" y1="110.0" x2="47.0" y2="110.0" stroke="#FFD700" stroke-width="1.2"/>
<line x1="60.7" y1="115.7" x2="49.3" y2="104.3" stroke="#FFD700" stroke-width="1.2"/>
<line x1="55.0" y1="118.0" x2="55.0" y2="102.0" stroke="#FFD700" stroke-width="1.2"/>
<line x1="49.3" y1="115.7" x2="60.7" y2="104.3" stroke="#FFD700" stroke-width="1.2"/>
<circle cx="55" cy="110" r="1.8" fill="#FFD700"/>

  <circle cx="95" cy="110" r="8" fill="#1a3a1a" stroke="#FFD700" stroke-width="2"/>
<line x1="103.0" y1="110.0" x2="87.0" y2="110.0" stroke="#FFD700" stroke-width="1.2"/>
<line x1="100.7" y1="115.7" x2="89.3" y2="104.3" stroke="#FFD700" stroke-width="1.2"/>
<line x1="95.0" y1="118.0" x2="95.0" y2="102.0" stroke="#FFD700" stroke-width="1.2"/>
<line x1="89.3" y1="115.7" x2="100.7" y2="104.3" stroke="#FFD700" stroke-width="1.2"/>
<circle cx="95" cy="110" r="1.8" fill="#FFD700"/>

  <circle cx="130" cy="110" r="8" fill="#1a3a1a" stroke="#FFD700" stroke-width="2"/>
<line x1="138.0" y1="110.0" x2="122.0" y2="110.0" stroke="#FFD700" stroke-width="1.2"/>
<line x1="135.7" y1="115.7" x2="124.3" y2="104.3" stroke="#FFD700" stroke-width="1.2"/>
<line x1="130.0" y1="118.0" x2="130.0" y2="102.0" stroke="#FFD700" stroke-width="1.2"/>
<line x1="124.3" y1="115.7" x2="135.7" y2="104.3" stroke="#FFD700" stroke-width="1.2"/>
<circle cx="130" cy="110" r="1.8" fill="#FFD700"/>

  <circle cx="160" cy="110" r="8" fill="#1a3a1a" stroke="#FFD700" stroke-width="2"/>
<line x1="168.0" y1="110.0" x2="152.0" y2="110.0" stroke="#FFD700" stroke-width="1.2"/>
<line x1="165.7" y1="115.7" x2="154.3" y2="104.3" stroke="#FFD700" stroke-width="1.2"/>
<line x1="160.0" y1="118.0" x2="160.0" y2="102.0" stroke="#FFD700" stroke-width="1.2"/>
<line x1="154.3" y1="115.7" x2="165.7" y2="104.3" stroke="#FFD700" stroke-width="1.2"/>
<circle cx="160" cy="110" r="1.8" fill="#FFD700"/>

  <line x1="5" y1="112" x2="198" y2="112" stroke="#888" stroke-width="2.5"/>


  <text x="100" y="126" font-family="Arial,sans-serif" font-size="7" fill="#555" text-anchor="middle">Waratah NSR · 1960</text>
</svg>