<svg version="1.2" xmlns="http://www.w3.org/2000/svg" viewBox="0 0 1563 1347" width="1563" height="1347">
	<title>Astra_Agro_Lestari-svg</title>
	<style>
		.s0 { fill: #ffffff } 
		.s1 { fill: #231f20 } 
		.s2 { fill: #64b345 } 
		.s3 { fill: #e7b809 } 
		.s4 { fill: #ed1c24 } 
	</style>
	<g id="layer1">
		<g id="g8004">
			<ellipse id="path6432" class="s0" cx="787.1" cy="673.1" rx="665.6" ry="665.4"/>
			<path id="path6434" class="s1" d="m38.8 893.8l107.3-35.3 30.6 89.1c-70.1-18.4-139.2-48.4-139.2-48.4 0 0 1.3-5.4 1.3-5.4z"/>
			<path id="path6436" class="s1" d="m1526.1 899.2c0 0-69.1 30-139.2 48.4l30.6-89.1 107.3 35.3z"/>
			<path id="path6438" fill-rule="evenodd" class="s2" d="m1050.1 1270.2c-4.8 10.3-10.3 21.8-10.3 21.8 0 0-118.8 59.7-263.4 51.9-53.8-2.9-104.2-12.1-147.2-22.9l16.3-69.8c8.8 2.1 17.7 4.1 26.6 6 24.7 5.4 49.2 9.6 73.2 12.9-58.2 40.6-98.2 49.8-98.2 49.8l19.6 4.9c0 0 41.4-9.5 101.2-51.9 60.3 6.8 117.1 8 166.5 6.4-76.6 39.9-134.1 57.1-134.1 57.1l20.2 4.1c0 0 63.2-18.6 145.1-62.6 33-1.8 61.6-4.8 84.5-7.7zm-101.7-142.8c0.4 2.4 1.4 4.2 3.3 4.9 7.7 2.5 16.6 8.9 33.1 6.3 11.4-1.7 15.6-1.7 19.6-4.8 23.6 2.5 45.8 4.4 66.6 5.9 6.4 4.9 22.7 4.1 27.2 14.2 2 4.4 1.5 10.3-0.2 16.8-46.3 39.1-94.4 70.4-138 94.8-51.3 2.2-111.3 1.5-175-5.3 39.2-30.4 84.7-74.2 130.9-137.2q16.6 2.3 32.5 4.4zm66-6.8c4.3-8.2 6.2-16.4 11.2-21.5 6.4-6.3 22.9-16.5 22.9-16.5 0 0 12.8 25.5 15.3 33.1 1.1 3.3 1.5 6.4 1.9 9.5-16.2-1.3-33.3-2.8-51.3-4.6zm71.8 79.9l-0.7 1.8c-6.4 15.3-26.8 45.8-29.3 53.5l-0.8 2c-18.5 2.2-40.2 4.4-64.4 6 30.6-17.6 63-38.6 95.2-63.3zm-155.5-98.2c7.8 1.8 13.5 3.3 15.9 4.5 1.6 0.8 2 3.1 1.9 6.1l-23.1-3.1zm-85.4-4.9c18.5-2.8 35.7-5.6 52.9-2l12.5 2.6-6.3 8.9c-19-2.8-38.8-6-59.1-9.5zm-168.8 22.2c11.6 5.6 27.6 10.2 34.5 10.2 8.9 0 59 6.3 70.3-2.6 8.2-6.5 11.1-16.5 23.1-22.3 31.6 5.8 61.8 10.8 90.5 15.1-46.9 63.6-92.9 107.5-132.4 137.5-25.6-3.3-51.8-7.7-78.2-13.4-11.9-2.6-23.6-5.3-35.1-8.1zm-138.8 83.1l10.3-15.7c14-21.6 28-44.5 33.1-47.1 5.1-2.5 34.4-20.3 50.9-21.6 14.2-1.1 22.8-8.7 31.3-6.1l-28.2 120.1c-34.1-8.8-66.7-18.9-97.4-29.6zm-16.3 24.5c28.8 54.4 55.1 78.1 55.1 78.1l19.5 5.1c0 0-30.6-27.5-61.9-91.6 30.4 10.4 62.9 20.3 97.4 29l-15.9 67.7 7.8 4.1c-79.6-20.7-132.7-46.4-132.7-46.4z"/>
			<path id="path6440" fill-rule="evenodd" class="s3" d="m991 1263.8c24.2-1.6 45.9-3.8 64.4-6-1.2 3.1-3.2 7.6-5.3 12.4-22.9 2.9-51.5 5.9-84.5 7.7-81.9 44-145.1 62.6-145.1 62.6l-20.2-4.1c0 0 57.5-17.2 134.1-57.1-49.4 1.6-106.2 0.4-166.5-6.4-59.8 42.4-101.2 52-101.2 52l-19.6-5c0 0 40-9.2 98.2-49.8-24-3.3-48.5-7.5-73.2-12.8q-13.4-3-26.6-6.1l-16.3 69.8-5.7-1.5-7.9-4.1 15.9-67.6c-34.5-8.8-67-18.6-97.4-29 31.3 64 61.9 91.6 61.9 91.6l-19.5-5.2c0 0-26.3-23.6-55.1-78l16.3-24.5c30.7 10.7 63.3 20.7 97.4 29.6l28.3-120.1c1.4 0.4 2.8 1.1 4.3 2.2 2.3 1.8 5.4 3.5 8.8 5.1l-27.3 116.4c11.5 2.8 23.2 5.6 35.1 8.1 26.4 5.7 52.5 10.1 78.2 13.5 39.5-30.1 85.5-74 132.4-137.5-28.7-4.3-58.9-9.3-90.5-15.2 4.4-2.1 9.9-3.7 17.4-4.4 8.1-0.7 15.9-1.9 23.4-3 20.4 3.5 40.1 6.6 59.2 9.4l6.3-8.9c7.5 1.6 14.3 3.1 20 4.4l-5.3 7.5 23.1 3.1c0 4.5-0.8 10.4-0.1 14.5q-15.9-2.1-32.5-4.4c-46.2 63-91.7 106.8-130.8 137.2 63.7 6.8 123.6 7.5 174.9 5.3 43.6-24.4 91.7-55.7 138-94.8-2.6 9.7-7.9 20.7-11.8 29.8-32.2 24.7-64.7 45.7-95.2 63.3zm80-124.1c-20.8-1.5-43-3.4-66.7-5.9 1.9-1.4 3.6-3.4 6-6.6 1.6-2.2 3-4.4 4.1-6.6 18 1.8 35.1 3.3 51.3 4.6 0.5 3.9 1.1 7.8 3.2 12.1 0.5 1 1.2 1.7 2.1 2.4z"/>
			<path id="path6442" fill-rule="evenodd" class="s2" d="m549.8 100.2c48.3-3.1 108.7-4.6 174.6-0.7-37.9 40.9-81.7 97.4-123.2 172.4-86.2-7.1-160.9-7.6-218.6-5.7 54.3-72.7 114.6-127 167.2-166zm302.1 209c-81.7-17.8-159.1-28.8-229.4-35.4 42.3-75.6 86.7-132.2 124.7-172.7 47 3.6 96.3 10 145.4 20.6l3.2 0.7zm58-183.5c57.6 13.3 111.2 30.2 159.7 48.4 18.8 54 36.5 124.8 43.1 210.3-72.9-26.2-156-51.6-246.7-72.1zm271.8 18.1c20.7 16.1 39.9 32.2 58 47.7 95.8 81.5 137.7 189.9 137.7 189.9l-44.4-39.6c0 0-30.8-19-40.3-19-9.5 0 6.4 26.9 6.4 26.9l35.5 122.7c0.5 1.7 1 4.2 1.5 7.2l-9.8-4.9c-3.9-17.1-8.2-33.8-12.8-50q-0.1 0-0.1 0.1c6.1-6.7-3.3-27.7-9.6-43.4-6.3-15.9-7.9-25.4-17.4-46-2.3-5-5.2-9.3-8.4-12.9-9.9-24-20.1-46.1-30.1-66.1 55.9 30.8 87.7 53.8 87.7 53.8l-12.2-21c0 0-30.7-24.1-87.4-55.9-22.8-43-43.3-73.8-54.3-89.5zm126.9 322.4q-13.3-6.4-28-13.1c2.3-3.6 5.3-8.1 10.5-14 3.6-4 6.4-6.4 8.8-7.9q4.6 17.1 8.7 35zm-36.5-1.7c13.7 7.5 27.6 14.1 40.5 20.4q3.6 17.4 6.5 35.6l-73.9-22.1 9.5-18.1c0 0 9.9-9.9 16.3-15 4.4-3.3 6.1-6.4 8.8-10.8-2.7 4.4-4.3 7.4-7.7 10zm29.9-34.5c4.6-2.2 7.3-1.2 11.4-5.2q-0.1 0-0.1 0c-3.9 4-6.7 3-11.3 5.2zm0 0q-1 0.5-2.1 1.2 1.1-0.7 2.1-1.2zm-22.2 24.5q0.4-0.7 0.8-1.4-0.4 0.7-0.8 1.4zm-1145.8 94.6c9.5-95.7 78.4-231.8 156.7-322.8 64.9-75.3 195.5-175.7 373.8-208-13.8 6-60.9 27.9-119.9 69.9-57 4.3-92.5 10.5-92.5 10.5l-15.3 13.6c0 0 34.1-5.9 89-10.3-52 39.3-111 93.5-164 165.2-68.3 3-108 9.1-108 9.1l-6.1 13.6c0 0 38.2-5.8 104.1-8.9-41.8 59.2-79.2 129.8-105.5 213.2-4.1-14.2-4.8-36.5-10.1-44-8-11.1 0-31.7 3.1-41.2 3.2-9.5-15.8-14.9-33.3-7.9-17.4 7 0 26.9 3.2 36.4 3.2 9.5-7.9 30.1-15.8 48.2-8 18.1 6.3 20.6 6.3 20.6l19 14.3c0 0-86.3 45.3-84.7 28.5zm687.2-108.7c-76.5-3.8-210.5 6.4-278.2 12.3 21.7-62.7 46.4-117.6 72.1-165.2 71.4 6.6 150.2 17.9 233.5 36.1zm294.1 34l-30-5.2c0 0 0-19-4.7-30.1-4.8-11.1-24.5-41.8-35.6-41.8-11.1 0-11.1 0-22.2 8.5-11.1 8.6-19 47.6-19 47.6 0 0-69.6-6-168-12.2l27-114.5c92.2 21 176.8 47.2 251.1 74.2 1.3 23.5 1.9 48 1.4 73.5zm66.1-47.6c-15 11.7-40.6 51.9-40.6 51.9l-5.9-1c0.4-24.1-0.1-47.2-1.3-69.5q24.7 9.3 47.8 18.6zm76.5-117.8c-5.4-1.9-10.8-2.7-15.9-2.7-15.8 0-30.8 32.3-29.2 51.3 1.6 19 6.4 41.2-1.6 48.2-4.8 4.3-8.5 7.5-13.9 11.2-20.5-8.4-42.1-16.9-64.8-25.3-6.3-84.9-23.7-155.4-42.3-209.5 54 21.3 100.8 43.7 138.6 63.8 9.6 19.1 19.5 40.2 29.1 63zm80.5 188.6c1.5 14.5 2.6 29.3 2.6 29.3l-4.8-1.4q-2.7-16.2-5.9-32zm-666.5-480.4c34.7-5.9 71.3-9.2 109.5-9.2 176.6 0 290.8 56.2 377.1 118.5l-2.6-1c0 0 27.6 35.5 60.8 97.2-36.3-19.4-81.2-40.8-133.8-61-25.9-68.8-51.8-105.8-51.8-105.8l-19.6-5c0 0 25.2 36.1 50.8 103.1-44.7-16.2-94.5-31.2-148.7-43.4l18.8-80.1-13.7-4.8-19.3 81.9c-47.2-9.9-94.4-16.1-139.3-19.6 49.6-50.3 85.3-71.7 85.3-71.7l-19.5-5.1c0 0-37.5 22.3-88.9 75.2-63.1-3.7-121.1-2.5-168.1 0.2 67.6-47.2 118-67.3 118-67.3zm-150.7 437.6l-19.8 1.9c0 0-4.7-33.3-4.7-38.1 0-4.7-12.7-18.1-17.5-26-4.7-7.9-12.6-11.1-23.7-22.2-11.1-11.1-12.7-15.8-12.7-25.3 0-9.5-9.5-15.9-21.3-38.7-11.8-22.9-15.8-15.9-30.1-22.2-14.3-6.4-15.9 6.3-28.5 19-12.7 12.7 1.5 7.9 7.9 14.3 6.3 6.3 7.9 14.9 4.7 26-3.1 11.1 1.6 9.5 12.7 26.9 11.1 17.5 1.6 12.7-6.3 40.3-8 27.6-56.2 42.8-70.4 55.5-14.3 12.7-19.1 0-31.8 9.5-9.8 7.4-11 22.8-17.4 28.6 27-88.2 66.3-162.4 110.3-224 58-2.1 133.7-1.8 221.3 5.4-26 48.7-51 104.8-72.7 169.1z"/>
			<path id="path6444" fill-rule="evenodd" class="s3" d="m918.6 25.5l13.7 4.8-18.8 80.1c54.3 12.1 104 27.2 148.7 43.4-25.6-67.1-50.8-103.1-50.8-103.1l19.6 5c0 0 25.9 37 51.8 105.8 52.6 20.1 97.5 41.6 133.8 61-33.2-61.8-60.8-97.2-60.8-97.2l2.6 0.9c8 5.8 15.7 11.6 23.3 17.5 11 15.7 31.5 46.5 54.3 89.4 56.7 31.8 87.4 56 87.4 56l12.2 20.9c0 0-31.8-22.9-87.7-53.8 10 20 20.2 42.2 30 66.2-5.8-6.5-12.8-10.9-20.1-13.5-9.6-22.9-19.4-43.9-29-63-37.9-20.1-84.7-42.6-138.6-63.9 18.6 54.2 35.9 124.6 42.3 209.6 22.7 8.4 44.3 16.9 64.8 25.2-3.4 2.3-7.5 4.8-13 7.9q-1.4 0.8-3 2-23-9.3-47.7-18.6c1.2 22.2 1.7 45.4 1.3 69.5l-19.6-3.4c0.5-25.5-0.1-50-1.5-73.4-74.2-27-158.8-53.3-251.1-74.2l-26.9 114.5-8.4-0.5-6.2-0.4 27.4-116.8c-83.3-18.2-162.1-29.4-233.5-36.1-25.7 47.7-50.4 102.5-72.1 165.3l-22 1.9c21.8-64.2 46.7-120.3 72.8-169-87.6-7.2-163.3-7.5-221.3-5.5-44 61.7-83.4 135.8-110.3 224-1.8 1.7-4 2.6-7 2.2-4.3-0.5-7-5.4-8.9-12.1 26.3-83.4 63.7-154 105.5-213.2-65.9 3.1-104.1 8.9-104.1 8.9l6.1-13.6c0 0 39.7-6.1 108-9.2 53-71.7 112-125.8 164-165.1-54.9 4.4-89 10.2-89 10.2l15.3-13.6c0 0 35.5-6.1 92.5-10.4 59-42 106.1-63.9 119.9-69.9l7.3-1.3 15 2.2c0 0-50.4 20.1-117.9 67.3 46.9-2.8 104.9-4 168.1-0.2 51.4-52.9 88.8-75.3 88.8-75.3l19.5 5.2c0 0-35.7 21.4-85.3 71.7 45 3.5 92.1 9.7 139.3 19.6zm-66.6 283.7l43.9-186.7-3.2-0.8c-49.2-10.5-98.4-17-145.4-20.6-38 40.5-82.5 97.1-124.7 172.7 70.3 6.6 147.7 17.7 229.4 35.4zm58-183.6l-43.9 186.7c90.7 20.4 173.8 45.9 246.7 72.1-6.6-85.5-24.3-156.3-43.1-210.3-48.5-18.2-102.1-35.1-159.7-48.5zm-360.1-25.4c-52.6 39-113 93.4-167.3 166 57.8-1.9 132.4-1.4 218.6 5.7 41.6-75 85.4-131.5 123.2-172.4-65.8-3.9-126.2-2.4-174.5 0.7zm763.7 324.4c4.6 16.2 8.9 32.9 12.7 50l9.8 4.9c0.8 5 1.6 11.5 2.3 17.9l-8-4c2.1 10.5 4 21.2 5.8 32l-17-5.1q-2.9-18.1-6.5-35.5c-12.9-6.3-26.8-12.9-41.6-19.6 4.8-3.7 6.4-7 9.6-12.3q14.6 6.8 28 13.2-4.1-17.9-8.7-35c5.9-3.8 8.9-1.8 13.4-6.4 0 0 0.1-0.1 0.2-0.1z"/>
			<path id="path6446" class="s2" d="m682.1 766.4c0.8 3.4 0.8 13.3 4.1 14.9 3.3 1.7-2.4 5-6.6 8.2-4.1 3.4-10.5 9.9-13.8 13.3-3.3 3.3-6.6 1.6-14 1.6-7.5 0-0.9-2.5-9.1-6.6-8.3-4.1-9.1 7.4-9.9-6.6-0.8-14 1.6-17.3-0.8-20.6-2.5-3.3 9-7.4 16.5-7.4 7.4 0 32.8 0 33.6 3.2z"/>
			<path id="path6448" fill-rule="evenodd" class="s2" d="m709.8 914.5c-0.9-1-1.3-2.3-1.3-4 0-5.8-1.6-9.1-5.8-10.8-4.1-1.6 4.2-14.6 7.5-17.9 3.3-3.3-10.8-4.1-11.6-7.5-0.8-3.3-3.3-8.2 1.7-14 1.3-1.5 2-3.5 2.4-5.6l20 4.8zm127-29c-1.5 8.4 0.2 16.7-11.2 22.4-13.3 6.7-17.4-3.3-20.7 7.5-3.3 10.7 5.8 7.4 2.5 11.5-3.3 4.1-9.1 2.5-9.1 7.5 0 4.9 1.7 15.6-4.1 15.6-5.8 0-6.6-11.5-9.1-13.2-2.5-1.6-4.9 3.3-13.2 6.6-8.2 3.3-9.9-6.6-9.9-10.7 0-4.1 1-6.6-15.5-11.6-16.5-4.9-10.7 0.9-22.3-1.6l12.6-56.7c28.2 6.6 59 13.6 92.6 21.1zm-90.2-64.2c4.9-2.9 8.9-5.6 12.2-7.2 4.9-2.5 11.5-6.7 18.9-4.2 7.5 2.5 10.8-0.6 19-8.9 8.3-8.2 34.5-21.4 41.1-26.4 6.6-4.9 0.8-12.3 11.6-10.7 10.7 1.7 14.8 2.5 13.2 8.3-1.7 5.7-5 14-5 14 0 0 7.4 1.6 7.4 4.1 0 2.5 5.8 4.2 8.3 3.3 2.5-0.8 11.5 5.8 11.5 5.8 0 0-0.8 6.8-5.7 8.2-5 1.5-19-1-19 3.2 0 4.1 2.5 1.6 7.4 6.5 5 5-2.5 9.1-12.4 7.5-9.9-1.7-5.7-5.8-6.6 8.2-0.8 14.1 7.5 20.6 0.9 27.3-3.9 3.8-6.1 7.2-7.9 11.3l-5.9-1.4c-34.7-7.7-66.4-14.9-95.4-21.8zm-30.5-3.9c3.3 0.8 5.7 1.6 9 4.1 2 1.5 3 4 5.4 5.1l-4.3 18.5-23.9-5.7c0.5-3.8 1.8-10.6 4.7-12.9 4.1-3.4 5.7-9.9 9.1-9.1z"/>
			<path id="path6450" class="s2" d="m999.1 790.4c2.5 0 5 2.5 5.8 6.6 0.8 4.1-5.8 8.2-5.8 8.2 0 0-7.2-0.8-7.2-6.6 0-5.7 4.7-8.2 7.2-8.2z"/>
			<path id="path6452" fill-rule="evenodd" class="s2" d="m922 902.3l-2.8 7.3c0 0-6.4 7.4-8.9 11.6-2.4 4.1 7.3 7.4 13.9 17.3 6.6 9.9 3.3 14.8 0.8 19.8-2.5 4.9-2.5-1.6-9.1-3.3-6.6-1.6-1.4 7.4-8 12.4-6.6 4.9-2.5-8.3-1.7-10.7 0.9-2.5 0-6.6-5.8-13.2-5.7-6.6 1.7-7.5 4.2-13.2 2.5-5.8-0.9-5.8-7.5-6.7-6.6-0.8-7.4 10.8-8.2 14.1-0.8 3.3-3.3 18.1-4.1 27.2-0.9 9.1-4.2 10.5-8.3 13.8-4.1 3.3-9.1-8-4.1-9.7 4.9-1.6 4.9-21.4 4.9-25.5 0-4.2-2.4-5-8.2-9.9-5.8-5-1.7-13.2 3.3-22.3 4.9-9.1 5.8-10.7 5.8-10.7 0 0 2.5-2.9 4.2-5.6 13.4 2.6 26.6 5 39.6 7.3zm49.2-39.5c5 4.1-6.6 12.4-9 15.7-2.5 3.3-13.2 5.7-19 5.7-2.6 0-6.8 2.6-10.5 5.3q-23.4-4.1-47.6-8.8l0.5-3.9 6.6-10.7c0 0 7.4-3.3 11.5-6.6 4.2-3.3 9.9 5.8 9.9 5.8l12.2 9.9c0 0 12.4 1.6 17.4 1.6 4.9 0 9.9-3.3 14-4.1 4.1-0.8 9.1-14 14-9.9z"/>
			<path id="path6454" class="s2" d="m669.9 899.7c-3.3-4.1-8.2-8.9-10.7-10.5-2.5-1.7-8.3-2.5-5.8-9.1 2.5-6.6 0.8-7.4-1.6-10.7-2.5-3.3 9 0.8 13.2 2.5 4.1 1.6 6.2 8.2 5.5 12.3-0.6 4.2 2.7 19.6-0.6 15.5z"/>
			<path id="path6456" fill-rule="evenodd" class="s2" d="m625.2 835.5c0.4 3.4 1.7 7.1 3.4 10 2.5 4.1 8.3 6.6 8.3 10.7 0 4.1 3.3 3.3 2.5 11.5-0.8 8.3 6.6 18.2 9.1 19 2.4 0.9 7.4 22.9 7.4 25.4 0 2.5 0.8 9.1-5.8 14.9-6.6 5.7-6.6 10.7-19.8 9-13.2-1.6-9.1 0-10.7-8.2-1.7-8.3 0-8.3-8.3-10.8-8.2-2.4-14.8-4.9-17.3-11.5-2.5-6.6-3.1-22.9-7.2-27.8-4.2-5-13.2 4.9-14.1-4.2-0.8-9 5-21.4-0.8-29.7-5.8-8.2 1.7-12.4-8.3-22.3q-1.7-1.7-2.9-3.3c18.5 5.2 39.9 11 64.5 17.3zm-53.3-60.8c6.6 5.8 21.3 13.2 21.3 13.2l14.8 9.1c0 0 5 4.3 8.3 8.2 3.3 3.9 9.9 3.9 9.9 8.9l-0.1 6.2c-46.2-12.1-81.1-22.1-107.4-30.3-3.7-1.9-6.4-3.8-7.1-5.4-2.4-6.6 4.2-7.4 10-7.4 5.7 0 43.7-8.3 50.3-2.5z"/>
			<path id="path6458" fill-rule="evenodd" class="s2" d="m542.2 831.4c0-6.6 4.1-1.6 4.1-1.6 0 0 5 6.6 4.1 10.7-0.8 4.1 3.3 16.5 3.3 16.5l-7.4-7.4c-2.5-2.5-4.1-11.6-4.1-18.2z"/>
			<path id="path6460" fill-rule="evenodd" class="s2" d="m715 955.6l4.3 3.5c0 0 12.3-0.8 17.3-4.9 4.9-4.1 7.4 0.8 13.2 0.8 5.8 0 18.8 4.1 19.6 9.9 0.8 5.8 1.7 9.7 1.7 9.7 0 0 9.9 0 18.1 1.7 8.3 1.6 0.9 4.1 4.1 7.4 3.3 3.3 14.9 4.1 21.5 8.2 6.6 4.2-2.5 4.2-5.8 5.8-3.3 1.7-9-2.5-18.1-4.9-3-0.9-4-1.1-4.1-1-0.2 0.4 3.5 2.6 2.4 5.9-1.6 5-17.3-5.8-26.4-9.1-9.1-3.3-20.4-4.1-27-7.4-6.6-3.3-3.3-1.6-15.7-8.3-3.6-1.9-6.3-2.7-8.5-3.1zm-48.3-22.9c9.1-2.5 8.9 1.7 18.8 1.7 9.9 0 5.7-1.7 10.7 1.6 2.7 1.8 4.7 4.6 6.8 7.5l-6 25.7c-11.5-3.3-7.4-9.3-15.7-6.8-8.2 2.5-9.9 2.5-13 0-3.1-2.5 3.1-9.9-0.8-10.7-3.9-0.8-13.2-1.6-14-5.8-0.8-4.1 4.1-10.7 13.2-13.2z"/>
			<path id="path6462" class="s2" d="m788.4 964.9c2.5 0 7.4 3.3 7.4 3.3 0 0 1.7 5.6-4.1 4.7-5.8-0.8-14.9-0.6-14.9-3 0-2.5 4.5-6.7 4.5-6.7 0 0 4.6 1.7 7.1 1.7z"/>
			<path id="path6464" class="s2" d="m823.9 988.6c-1.7-4.1 9.7 2.5 9.7 5 0 2.5 1.6 2.5 6.6 1.6 4.9-0.8 4.9 0.9 10.7 5 5.8 4.1-4.9 8.2-7.4 11.5-2.5 3.3-14.7-0.8-18.8-4.1-4.1-3.3-3.3-9.9-3.3-9.9 0 0 4.1-4.9 2.5-9.1z"/>
			<path id="path6466" class="s2" d="m869.1 1020c5.8-1.7 9.9-2.5 14 0.8 4.1 3.3 15.7 14 9.9 17.3-5.8 3.3-11.5 2.5-11.5-3.3 0-5.7-5-4.9-12.4-4.9-7.4 0-5.8-8.3 0-9.9z"/>
			<path id="path6468" class="s2" d="m928.3 1007.6c0 0-20.4 3.3-23.7 4.1-3.3 0.9-20.7-2.4-24.8-2.4-4.1 0-4.9-5.8-4.9-5.8 0 0 3.3-2.5 12.3-2.5 9.1 0 14.1 3.3 17.4 3.3 3.3 0 23.7 3.3 23.7 3.3z"/>
			<path id="path6470" class="s2" d="m868.3 992.8l-1.7 10.7c0 0-6.6 4.1-11.5 0.8-5-3.3 4.9-8.2 4.9-8.2 0 0 8.3-3.3 8.3-3.3z"/>
			<path id="path6472" fill-rule="evenodd" class="s2" d="m944.5 1045.3c-2.2-0.9-4.2-2-5.5-3-4.1-3.3 0-11.6 2.5-12.4 2.5-0.8 10.7-5.8 14.1-9.9 1-1.3 3.2-2.6 5.7-3.8q-8.3 15-16.8 29.1zm46.6-19.6c8-2.4 16.3-13.2 16.3-13.2 0 0-12.2-5.7-20.2-2.8-4.2 7.7-8.3 15.1-13.5 22.7l1-0.3c5.9-1.7 8.7-4 16.4-6.4z"/>
			<path id="path6474" fill-rule="evenodd" class="s2" d="m965.1 1009.4c-6.2 1.3-17.9 3.1-21.1-0.1-4.1-4.1 3.3-4.1 3.3-4.1 0 0 13.2 0 16.5-2.5 1.6-1.2 3.7-2.2 6.4-2.8zm36.5-10c0 0-6.6 3.5-11.8 5.5l2.8-5.2c5.1 0 9-0.3 9-0.3z"/>
			<path id="path6476" class="s2" d="m1017.3 966.6c1.6-2.5 8.2 2.4 8.2 2.4v8.9c0 0-4.1 3.3-10.7-0.8-6.6-4.2 0.8-8.1 2.5-10.5z"/>
			<path id="path6478" fill-rule="evenodd" class="s2" d="m1010.4 915.9c-3.1 8.4-6.4 15.6-9.7 22.7-1.4-1.9-2.4-3.4-2.4-3.4 0 0-0.7-6.6-7.2-9.1-6.7-2.5-10.8-4.1-10.8-7.4v-7c10.2 1.5 20.2 2.9 30.1 4.2zm141.2 76.9c-8.1-3.3-14-11.6-15.7-16.5-1.6-5 11.6-2.5 12.4-6.4 0.8-4-5-5-13.2-5.8-8.3-0.9-25.6-18.2-25.6-18.2 0 0-28.9-13.2-41.1-17.3-12.2-4.1-15.6 0-15.6 0l-11.6 4.1c0 0-8.3 5-10.7 5.8-1.2 0.4-4-1.1-6.5-2.9l-6.8 14.6c5.4 2.1 12.4 5.3 18.2 6.5 8.3 1.6 14-1.7 16.5 1.6 2.5 3.3 3.3 10.7 3.3 10.7 0 0 4.2 8.9 5 11.4 0.8 2.5-3.3 3.3-7.4 7.4-4.2 4.1 2.4 8.3 10.7 5.8 8.2-2.5 10.7 2.5 10.7 2.5 0 0 16.3 6.6 18.8 6.6 2.5 0 9.1-5.8 12.4-9.1 3.3-3.3 6.6-5 15.7-4.1 9 0.8 9.9 9 13.2 12.3 3.3 3.4 17.3 12.4 20.6 13.2 3.3 0.9 19.6 0 22.9 0 3.3 0-18.1-18.9-26.2-22.2z"/>
			<path id="path6480" class="s3" d="m1008.2 910.5c0.9 0.6 1.7 2.9 2.2 5.4-9.9-1.3-19.9-2.7-30.1-4.2v-2.9c0 0 25.4 0 27.9 1.7zm-7.5 28.1q5-10.7 9.9-21.7c0.6 3.7 0.9 7.6 0.9 7.6l7.4 7.4c0 0 2.4 2 5.1 3.7l-6.8 14.6c-2.3-0.9-4.2-1.5-5.7-1.8-3.3-0.5-7.9-6.1-10.8-9.8z"/>
			<path id="path6482" class="s3" d="m992.5 999.7l-2.7 5.1c-2.3 0.9-4.3 1.4-5.4 1.2-3.3-0.9-13.2 1.6-15.6 2.4-0.6 0.2-1.9 0.6-3.7 1l5.1-9.5c3.1-0.7 7-1 11.8-0.5 3.5 0.3 7.3 0.4 10.5 0.3z"/>
			<path id="path6484" class="s3" d="m973.7 1011.7c0 0 7.2 0 13.5-1.9q-6.2 11.4-12.5 22.3c-7.6 1.9-15 7.7-17.5 12.7-1.7 3.4-7.7 2.4-12.7 0.5q8.5-14.1 16.8-29.1c5.5-2.5 12.4-4.5 12.4-4.5z"/>
			<path id="path6486" class="s3" d="m711.6 969.8c-5.1-0.8-7.7 1.3-14.7-0.6l6.1-25.7c1.8 2.5 3.7 5.1 6.4 7.4l5.6 4.7c0 0-3.4 14.2-3.4 14.2z"/>
			<path id="path6488" class="s3" d="m518.7 790c26.3 8.2 61.2 18.2 107.4 30.3 0 4.1-0.2 8.5-0.7 11.1-0.3 1.3-0.3 2.7-0.1 4.1-24.6-6.3-46-12.1-64.6-17.3-6.3-7.8-4-12.4-6.9-14.6-2.5-1.9-23.7-7.9-35.1-13.6z"/>
			<path id="path6490" class="s3" d="m885.1 880.7q24.2 4.7 47.6 8.8c-4.6 3.3-8.5 6.9-8.5 6.9l-2.2 5.9c-13-2.3-26.2-4.7-39.6-7.3 0.9-1.4 1.5-2.7 1.5-3.5 0-1.6 0.7-7 1.2-10.8z"/>
			<path id="path6492" class="s3" d="m736.8 862.8l-13.3 56.6c-7.6-1.6-11.8-2.6-13.7-4.9l12.9-55-20-4.8c1-5.8-0.8-12.5-0.8-12.5l0.3-2.8 23.8 5.7 4.4-18.5c1.7 0.8 4 0.8 7.8-0.9 3.1-1.4 5.8-2.9 8.3-4.3l-6.4 27.1c29 6.8 60.7 14.1 95.4 21.8l5.9 1.3c-1.2 2.9-2.3 6.1-3.7 10.2q-0.6 1.9-1 3.8l-7.3-1.7c-33.7-7.5-64.5-14.5-92.6-21.1z"/>
			<path id="path6494" fill-rule="evenodd" class="s1" d="m841.5 871.6q22.1 4.8 43.6 9.1c-0.5 3.8-1.2 9.2-1.2 10.8 0 0.8-0.6 2.1-1.5 3.5q-22.5-4.4-45.6-9.4c0.2-1.3 0.5-2.6 0.9-3.8 1.4-4.1 2.5-7.3 3.8-10.2zm-4.7 14q0 0 0 0c-1.6 8.4 0.2 16.6-11.3 22.4-13.2 6.6-17.3-3.3-20.6 7.4-1.1 3.6-0.8 5.7-0.1 6.9-0.7-1.2-1-3.3 0.1-6.9 3.3-10.7 7.4-0.8 20.6-7.4 11.5-5.8 9.7-14 11.3-22.5q0 0 0 0.1zm-28.8 39.5c0.2 0.4 0.1 0.9-0.6 1.9-3.3 4.1-9.1 2.4-9.1 7.4q0 0 0 0c0-5 5.8-3.3 9.1-7.4 0.7-1 0.8-1.5 0.6-1.9zm-10.1 21.8c-0.6 1.9-1.7 3.2-3.7 3.2-5.8 0-6.6-11.6-9.1-13.2-2.5-1.7-5 3.2-13.2 6.6-8.3 3.3-9.9-6.6-9.9-10.8q0 0 0 0c0 4.2 1.6 14.1 9.9 10.8 8.2-3.4 10.7-8.3 13.2-6.6 2.5 1.6 3.3 13.2 9.1 13.2 2 0 3.1-1.3 3.7-3.2zm-35.9-14.2q0-0.5 0-0.9 0 0.4 0 0.9 0 0 0 0zm0-0.9c0-3.6-0.3-6.1-15.5-10.6-4-1.2-6.7-1.8-8.7-2 2 0.2 4.7 0.8 8.7 2 15.2 4.5 15.5 7 15.5 10.6zm-37.2-12.2q-0.3 0-0.6-0.1 0.3 0.1 0.6 0.1zm-9.8 36l-5.6-4.7c-2.7-2.3-4.6-4.9-6.4-7.4l6.8-29c1.9 2.3 6.1 3.3 13.7 4.9q0.4 0.1 0.7 0.1zm83.3-21.2q0 0 0 0c0 3.2 0.7 9-0.4 12.5 1.1-3.5 0.4-9.3 0.4-12.5zm6.6-12.1c0.9 1.6 2.7 1.9 3.1 2.8-0.4-0.9-2.2-1.2-3.1-2.8zm-67-3.1c-6-0.6-5 2.1-13.1 0.4 7.9 1.5 7.3-1 13.1-0.4zm533.1-454c-27-12.4-57-25.4-89.6-38.5q1.5-1.2 2.9-2c5.5-3.1 9.6-5.6 13-7.9 30.4 12.4 58.2 24.6 83.4 36.1-3.3 5.3-4.8 8.6-8.6 11.4zm-596 597.3l21.9-93.2c7 1.8 9.7-0.3 14.8 0.6l-22.6 96q12.3 2.9 24.7 5.6c46.2 10.3 90.1 18.8 131.5 25.9-7.6 1.2-15.4 2.3-23.5 3.1-7.5 0.7-13 2.2-17.4 4.4-30.9-5.7-63.2-12.3-96.7-19.7l-21.9-5-9.3 39.4c-3.4-1.6-6.5-3.4-8.8-5.1-1.4-1.1-2.9-1.8-4.3-2.3l8.3-35.3c-70.8-17.2-136.2-36.9-194.9-57.4 10.2 75.3 28.5 134.1 47.8 178.6l13.1 4.6-16.2 24.5q-4-7.4-7.9-15.6c-63.4-23.1-116.5-48.4-157.9-70.8 29.1 47.7 51.5 74.9 51.5 74.9l-19.7-6.2c0 0-24.9-30-56.1-82.2-50.6-29.2-77.9-50.6-77.9-50.6l-12.1-21c0 0 27.4 19.9 76 47.4-26.8-48.2-56.1-110.7-77.3-183.1-61.2-30.7-94.8-52.2-94.8-52.2l1.4-16.1c0 0 31.3 19.8 87.9 48.7-21.9-82.5-32.7-176.8-17.9-277 6.8-46.1 16.9-89.2 29.6-129.3 1.9 6.7 4.6 11.6 8.9 12.2 3 0.3 5.2-0.6 7-2.2-11.6 38-20.9 78.6-27.3 121.9-15.1 102.9-3.2 200 20.1 284.6 51.1 25.2 118.9 55.6 200 85.2-6.9-60.4-8.5-130.8-1.5-212.2-8.6-3.6-11.2-5.3-11.2-5.3l1.4-16.1c0 0 2.8 1.7 11.2 5.3 2.3-23.6 5.4-48.2 9.2-73.7 13.5-90 33.3-169.4 57-239.2l21.9-2c-24.7 71.6-45.4 153.3-59.4 246.3-3.9 26.4-7 51.8-9.4 76.2 10.9 4 25.4 8.9 44.6 14.9 11.3 5.7 32.5 11.8 35 13.6 2.9 2.2 0.6 6.8 6.9 14.7-42.3-11.9-70-20.9-87.9-27.3-6.8 81.3-5 151.6 1.9 211.8 60.3 21.3 127.5 42 200.3 59.7zm-414.3-132.4c22.4 74.2 53 137.8 80.5 186.1 42.9 23.1 98.1 49.7 162.8 74.2-19.1-44.4-37-103.1-47-177.9-79.1-28.4-145.4-57.7-196.3-82.4zm672-40.6c29.1 5.1 57.2 9.3 84.2 12.9 8.6-20 16.9-40.9 25.1-62.8 51.3-137.3 71.2-259.9 73.3-365.3l19.6 3.3c-1.9 105.8-21.7 229-73.3 367-7.8 21-15.9 41.1-24.1 60.3 99.1 12 182.1 14.4 244.1 13.5 53.3-143.5 56.6-280 37.6-398l17 5c19 116.5 16.3 251-34.8 392.5 67-2 104.5-7.8 104.5-7.8l-6.1 13.7c0 0-37.1 5.7-103.5 7.7-30.5 79.3-77.6 145.1-130.5 199 65.5 1.6 101.3-1.3 101.3-1.3l-6.1 13.6c0 0-38.5 3.2-108.7 1.2-21.5 20.7-43.7 39.5-66.1 56.6 3.9-9.1 9.2-20.1 11.8-29.9 10.4-8.8 20.8-18 31-27.6-17.8-0.8-37.1-1.8-58-3.4-0.9-0.6-1.6-1.4-2.1-2.3-2.1-4.3-2.6-8.2-3.2-12.2 28.5 2.2 54.2 3.7 77 4.5 53.8-53.5 102-119 133.6-197.7-62 1-145.3-1.4-244.7-13.4l-7.6 17.1c-2.7-1.8-5.1-3.8-5.1-3.8l-7.4-7.4c0 0-0.3-3.9-0.9-7.6-0.7-3.5-1.4-5.8-2.4-6.4-2.5-1.7-27.9-1.7-27.9-1.7v3q-28.4-4.2-58.3-9.4l2.2-5.9c0 0 4-3.7 8.5-7zm-202.3-62.8l90.8-386.4 6.2 0.3 8.4 0.5-89.3 380.3c-2.4 1.5-5.2 2.9-8.3 4.3-3.7 1.7-6.1 1.7-7.8 1zm-104.2-6.3c22.5 5.9 47.8 12.2 76 19.1l-0.2 2.7c0 0 1.8 6.7 0.7 12.6-28.8-6.9-54.5-13.3-77.4-19.2-0.2-1.5-0.1-2.9 0.1-4.1 0.5-2.7 0.7-7 0.8-11.1zm348.5 211.8c-14.5 25.5-29.3 48.8-44 70.1-5.6-1.3-12.4-2.7-20-4.3 11.3-16.4 22.6-33.9 33.9-52.7 4.9 2 10.9 2.9 12.6-0.5 2.5-5 9.9-10.7 16.5-12.4zm15.1-27.2l-2.6 4.9c-6.3 2-13.5 2-13.5 2 0 0-6.9 1.9-12.4 4.4l3.8-6.8c1.8-0.4 3.1-0.8 3.7-0.9 2.4-0.9 12.3-3.3 15.7-2.5 1 0.3 3-0.3 5.3-1.1zm27.4-54.7c-8.1 17.3-16.4 33.8-24.7 49.5-3.2 0.1-7 0-10.5-0.3-4.8-0.5-8.7-0.2-11.8 0.5 10.3-19.3 20.5-39.7 30.5-61.3 2.9 3.7 7.6 9.3 10.8 9.8 1.5 0.3 3.5 0.9 5.7 1.8zm-352.7-932l4.1-1.7 3.2 0.5zm671.6 461.2c62.9 31.3 98 53.3 98 53.3l-1.5 16.2c0 0-33.8-21.1-94.2-51.5-0.7-6.5-1.5-12.9-2.3-18zm-58.1-157.1c12.8 31.1 25 65.3 35.5 102.2-4.7 4.7-7.6 2.7-13.6 6.5-12-44.7-26.7-85.7-42-122.2 7.2 2.6 14.3 7 20.1 13.5zm-119.6-196.1l14.7 5.6c0 0 3.1 4.1 8.6 11.8-7.5-5.8-15.3-11.6-23.3-17.4zm-102.9 1131.6c43-5.2 68.7-10.7 68.7-10.7l-15.3 13.5c0 0-21.7 4.7-58.8 9.5 2.2-4.7 4.2-9.3 5.4-12.3zm-51.1-124q-26.8-2.8-56-6.5c-0.7-4.1 0.1-9.9 0.2-14.4 23.1 3 45.1 5.5 65.9 7.6-1.2 2.2-2.5 4.4-4.1 6.6-2.4 3.2-4.2 5.3-6 6.7z"/>
			<path id="path6496" fill-rule="evenodd" class="s1" d="m784.5 1347c-372.3 0-673.3-300.9-673.3-673 0-372.2 301-673 673.3-673 372.2 0 673.2 300.8 673.2 673 0 372.1-301 673-673.2 673zm659.1-673c0-364.4-294.6-658.9-659.2-658.9-364.5 0-659.1 294.5-659.1 658.9 0 364.4 294.6 658.9 659.1 658.9 364.6 0 659.2-294.5 659.2-658.9z"/>
			<path id="path6498" class="s0" d="m16.3 589.6c0 0 359.8-147.4 765-147.4 405.2 0 764.3 149.3 764.3 149.3 0 0 36.8 151.6-25.3 297 0 0-358.2-134-739-134-380.8 0-740 134-740 134 0 0-57.9-132.1-25-298.9z"/>
			<path id="path6500" fill-rule="evenodd" class="s4" d="m577.7 561.9l-37.6 4.7-5.1 19.3-29.2 3.6 27.5-111.7 30.4-3.7 52.7 101.8-29.3 3.6zm-32.6-17.2l22.8-2.9-15.4-32.2z"/>
			<path id="path6502" class="s4" d="m692.7 492.4l-6.9-3.6q-5-2.7-11.7-2.3c-3.4 0.2-6.2 1-8.4 2.6q-3.4 2.3-3.1 6.7 0 0.8 0.1 1.1 0.4 2.8 2.2 4.4 1.7 1.6 3.8 2.4 2.2 0.8 6.5 2l15.7 4.5q9.1 2.5 14.3 10.1 5.2 7.6 5.7 17.6 0.2 4.1-0.4 8.4-1.5 9-7.3 15.7-5.8 6.7-14.4 10.4-8.6 3.7-18.2 4.2c-8.1 0.4-15.7-0.8-22.6-3.7l-14.8-6.2 10.5-23 11.5 6.6q6 3.5 13 3.1 5.3-0.3 9.2-2.9 3.9-2.6 4.5-6.9 0-1 0-1.5-0.1-3.1-2.4-5.6-2.1-2.5-5.4-3.5l-20.8-6.2q-5.6-1.8-10-5.9-4.3-4.2-6.8-9.7-2.5-5.7-2.8-11.7c-0.2-3.4 0.2-6.6 1.1-9.7q2.4-7.8 7.6-13.8 5.2-5.9 12.4-9.3 7.2-3.4 15.5-3.9 9.5-0.5 18.8 3l13.7 5c0 0-10.1 21.6-10.1 21.6z"/>
			<path id="path6504" class="s4" d="m756.8 570.3v-84.2h-22.9v-23.5h74.3v23.5h-23v84.2z"/>
			<path id="path6506" fill-rule="evenodd" class="s4" d="m830.7 570.2l5.7-107.5 39.2 2.1q7.8 0.4 14.4 2.5 6.7 2.1 11.7 6.1 5.1 4 8.1 10.5 3.1 6.4 3.3 15.2 0.1 1.2 0 2.8c-0.2 3.6-0.9 6.9-2.2 9.9q-1.9 4.5-5.3 8-3.3 3.5-7.7 5.9-4.4 2.3-9.7 3.7l30.8 45.7-34.4-1.8-24.2-43-2.2 41.3zm41.6-57.7c3.1-0.1 5.8-1.3 8.1-3.7q3.3-3.5 3.6-8.5c0.2-3.4-0.9-6.4-3-8.9q-3.3-3.8-8.4-4.4l-9.4-1.1-1.4 27.2c0 0 10.5-0.6 10.5-0.6z"/>
			<path id="path6508" fill-rule="evenodd" class="s4" d="m1008.7 564.8l-37.6-3.9-9.4 17.7-29.2-3.1 51.9-102.6 30.4 3.2 28.5 111-29.4-3zm-5-21.8l-7.7-34.9c0 0-15.1 32.5-15.1 32.5z"/>
			<path id="path6510" fill-rule="evenodd" class="s1" d="m200.8 787.6l-36.4 10.4-2.1 19.9-28.2 8.1 9.7-114.6 29.4-8.4 68 92.3-28.4 8.1zm-12.8-18.3l-20.2-29.4c0 0-1.9 35.8-1.9 35.8z"/>
			<path id="path6512" class="s1" d="m331.3 701.8q-4.5-6.8-11.2-9.7-6.7-2.8-14.7-1.5-0.5 0.1-1.3 0.3-7 1.6-11.5 7.1-4.6 5.4-6.3 13-1.7 7.5-0.6 15.4c0.3 1.9 0.5 3.1 0.6 3.6q1.9 7.9 6.5 14.2 4.6 6.3 11.5 9.6 6.8 3.2 15 2 0.8-0.1 2.3-0.4 7.1-1.6 11.7-6.5 4.5-4.9 4.8-11.8l0.2-4.9-22.2 5.1-4.8-20.9 52.9-12.2 2.7 11.9q2.4 10.4 0.3 20.3-2.1 9.9-8 18.4-5.8 8.5-14.6 14.5-8.7 6-19.1 8.6l-0.9 0.2q-14.5 3.4-28.5-1.1-14-4.5-24.3-15.3-10.2-10.8-13.9-25.4l-0.3-1.2q-3.4-14.8 1-29.3 4.4-14.6 15.3-25.1 11-10.6 25.9-14 32.3-6.9 53.9 18.2c0 0-22.4 16.9-22.4 16.9z"/>
			<path id="path6514" fill-rule="evenodd" class="s1" d="m410.8 755.2l-18.7-105.9 38.6-6.8q7.8-1.4 14.7-0.8 6.9 0.5 12.8 3.3 5.8 2.8 10.2 8.4 4.5 5.6 6.6 14.1 0.4 1.2 0.7 2.7 0.9 5.4 0 10.2-0.8 4.7-3.3 8.9-2.5 4.2-6.2 7.5-3.7 3.3-8.6 5.8l40.3 37.6-34 6-33.2-36.5 7.2 40.8zm27.4-65.6q4.6-1.2 7.1-5.4 2.5-4.2 1.6-9.1-0.9-5.1-4.9-8-4.1-3-9.1-2.4l-9.5 1.1 4.8 26.7c0 0 10-2.9 10-2.9z"/>
			<path id="path6516" fill-rule="evenodd" class="s1" d="m571.6 621.3q15.8-1.7 29.8 4.1 14 5.8 23.2 17.6 9.2 11.7 11.2 26.8l0.1 1.5q1.6 15-4.6 28.6-6.2 13.5-18.3 22.6-12.2 9-27.2 11c-0.4 0.1-0.7 0.1-0.9 0.1-0.3 0.1-0.5 0.1-0.8 0.1q-11.5 1.2-22.5-2-11-3.3-19.9-10.3-9-6.9-14.7-16.9-5.7-10.1-6.9-21.7-0.1-1.6-0.2-2.4c-0.4-7.4 0.5-14.5 3-21.3q3.6-10.3 10.7-18.4 7.2-8 17-13.1 9.8-5.1 21-6.3zm-23.1 58q0 0.5 0.1 1.5 0.8 8.1 5.7 14.5 4.8 6.4 12.2 9.7 7.4 3.2 15.5 2.4 8-1 14.2-5.8 6.3-4.9 9.5-12.3 3.2-7.4 2.4-15.6-1.1-7.8-5.9-14-4.9-6.3-12.2-9.4-7.2-3.1-15.3-2.2-7.7 0.9-13.8 5.3-6.2 4.4-9.5 11.3-3.3 6.8-2.9 14.6z"/>
			<path id="path6518" class="s1" d="m739 612h28v83.7h32.8v24h-60.8z"/>
			<path id="path6520" class="s1" d="m828.6 719.7l5.7-107.6 61 3.2-1.3 24.4-33.3-1.8-0.9 17.6 30.9 1.7-1.2 23.4-30.6-1.6-1 18.7 32.5 1.7-1.2 23.4c0 0-60.6-3.1-60.6-3.1z"/>
			<path id="path6522" class="s1" d="m993.2 651.7l-6.2-4.7q-4.6-3.4-11.3-4.1-5-0.5-8.7 1.3-3.6 1.8-4.1 6.1-0.1 0.8 0 1.2 0 2.8 1.4 4.6 1.5 1.9 3.5 3 2 1.1 6 3l14.9 6.9q8.5 3.9 12.5 12.2 3.9 8.3 2.9 18.3c-0.3 2.7-0.9 5.5-1.8 8.2q-2.8 8.7-9.6 14.4-6.8 5.7-15.9 8-9.1 2.3-18.6 1.3-12.1-1.3-21.8-7.2l-13.6-8.4 14-21.1 10.3 8.3q5.4 4.3 12.3 5.1 5.4 0.5 9.6-1.4 4.2-2 5.5-6.2c0.2-0.6 0.2-1.1 0.3-1.4 0.2-2.1-0.3-4-1.5-5.9q-1.7-2.8-4.8-4.3l-19.6-9.4q-5.3-2.6-8.9-7.4-3.6-4.8-5.3-10.7-1.5-5.9-0.9-11.9 0.5-5.1 2.6-9.5 3.6-7.3 9.7-12.3 6-5.1 13.7-7.3 7.7-2.3 15.9-1.4 9.5 1 18.2 5.9l12.7 7c0 0-13.4 19.8-13.4 19.8z"/>
			<path id="path6524" class="s1" d="m1055.3 739.9l13.2-83.1-22.6-3.6 3.7-23.2 73.3 11.6-3.7 23.2-22.7-3.6-13.2 83.2c0 0-28-4.5-28-4.5z"/>
			<path id="path6526" fill-rule="evenodd" class="s1" d="m1196.7 745.2l-37.1-7.2-10.9 16.8-28.8-5.6 60.6-97.7 30 5.8 18.7 113.1-29-5.6zm-3-22.1l-4.7-35.4c0 0-17.9 31-17.9 31z"/>
			<path id="path6528" fill-rule="evenodd" class="s1" d="m1259.8 778.7l26.1-104.3 38.1 9.4q7.5 1.9 13.7 5.3 6.1 3.3 10.3 8.2 4.2 4.9 5.9 11.8 1.8 6.9 0.3 15.6c-0.1 0.8-0.3 1.7-0.5 2.7q-1.3 5.3-4.1 9.3-2.7 4-6.7 6.8-3.9 2.9-8.7 4.4-4.7 1.5-10.2 1.7l21.5 50.8-33.4-8.4-15.6-46.7-10 40.1zm51.8-48.7q4.7 0.7 8.6-2.1 4-2.8 5.2-7.7 1.3-4.9-1.2-9.3-2.5-4.4-7.4-5.9l-9-2.8-6.6 26.3c0 0 10.4 1.5 10.4 1.5z"/>
			<path id="path6530" class="s1" d="m1409.8 707.9l27.1 8.2-31.5 102.9-27.1-8.2z"/>
			<path id="path6532" fill-rule="evenodd" class="s1" d="m781.3 764.4c-349.2-7.5-631.6 94.6-744.7 135.1-60.5-116.1-27.7-313-27.7-313 0 0 344.3-153.6 772.4-153.6 428.1 0 772.3 153.6 772.3 153.6 0 0 32.9 196.9-27.6 313-113.2-40.5-395.6-142.6-744.7-135.1zm743.2 99.3l-35.4-10.8c-3-0.9-4.8-4.1-3.8-7.2l0.5-1.9c1-3 4.2-4.7 7.3-3.8l35.6 11q2.1-6.7 3.9-13.4l-38.3-11.7c-3.1-0.9-4.8-4.2-3.9-7.3l0.6-1.8c0.9-3.1 4.1-4.8 7.2-3.8l37.6 11.5q1.8-7.8 3.3-15.7l-36.9-11.2c-3.1-1-4.8-4.2-3.9-7.3l0.6-1.8c0.9-3.1 4.2-4.8 7.2-3.9l35.4 10.9q1.1-6.9 2-13.7l-38.5-11.7c-3.1-1-4.8-4.2-3.9-7.3l0.6-1.8c0.9-3.1 4.2-4.8 7.3-3.9l36.1 11.2q0.9-9 1.6-17.7l-37-11.3c-3.1-1-4.8-4.2-3.9-7.3l0.6-1.8c0.9-3.1 4.1-4.8 7.2-3.9l34 10.5q0.4-8.6 0.6-16.9l-38.5-11.8c-3.1-0.9-4.8-4.1-3.9-7.2l0.6-1.8c0.9-3.1 4.1-4.8 7.2-3.9l34.9 10.8q0-8.3-0.1-16.2l-39.2-12c-3.1-0.9-4.8-4.2-3.9-7.2l0.6-1.8c0.9-3.1 4.2-4.8 7.2-3.9l34.9 10.7c-0.3-5.8-0.5-11.4-0.9-16.8l-37-11.3c-3-0.9-4.8-4.2-3.8-7.2l0.5-1.9c1-3 4.2-4.7 7.3-3.8l32 9.9-1.2-13.6-39.9-12.2c-3.1-0.9-4.8-4.2-3.9-7.2l0.6-1.8c0.9-3.1 4.2-4.8 7.3-3.9l34.3 10.6c-1.5-12-2.7-18.9-2.7-18.9-73.7-31.5-389.3-154.2-759.3-146.3-370-7.9-685.6 114.8-759.4 146.3 0 0-1.2 6.9-2.7 18.9l34.4-10.6c3.1-0.9 6.3 0.8 7.2 3.9l0.6 1.8c1 3-0.8 6.3-3.8 7.2l-40 12.3-1.2 13.5 32.1-9.9c3-0.9 6.3 0.8 7.2 3.8l0.6 1.9c0.9 3-0.8 6.3-3.9 7.2l-37 11.3c-0.3 5.4-0.6 11-0.8 16.8l34.8-10.7c3.1-0.9 6.3 0.8 7.2 3.9l0.6 1.8c0.9 3-0.8 6.3-3.8 7.2l-39.2 12c-0.1 5.3-0.1 10.6-0.1 16.2l34.8-10.8c3.1-0.9 6.3 0.8 7.3 3.9l0.5 1.8c1 3.1-0.8 6.3-3.8 7.3l-38.6 11.7c0.1 5.6 0.3 11.2 0.6 16.9l34-10.5c3.1-0.9 6.3 0.8 7.3 3.9l0.5 1.8c1 3.1-0.8 6.3-3.8 7.3l-37.1 11.3q0.7 8.7 1.6 17.7l36.2-11.2c3-0.9 6.3 0.8 7.2 3.9l0.6 1.8c0.9 3.1-0.8 6.3-3.8 7.3l-38.5 11.7q0.9 6.8 2 13.7l35.3-10.9c3.1-0.9 6.3 0.8 7.2 3.9l0.6 1.8c0.9 3.1-0.8 6.3-3.9 7.3l-36.9 11.2q1.5 7.9 3.3 15.7l37.6-11.5c3.1-1 6.3 0.7 7.3 3.8l0.5 1.8c1 3.1-0.8 6.4-3.8 7.3l-38.3 11.7q1.8 6.7 3.8 13.4l35.6-11c3.1-0.9 6.4 0.8 7.3 3.8l0.6 1.9c0.9 3.1-0.8 6.3-3.9 7.2l-35.4 10.8q3.4 9.8 7.5 19.3c0 0 339.4-137 735.8-137 396.3 0 735.8 137 735.8 137q4-9.5 7.4-19.3z"/>
		</g>
	</g>
</svg>