<svg version="1.2" xmlns="http://www.w3.org/2000/svg" viewBox="0 0 1547 750" width="1547" height="750"><style>.a{fill:#0097d8}</style><path fill-rule="evenodd" class="a" d="m476.4 0.8h-400c-28.4 0.4-51.2 23.2-51.2 51.6 0 28.4 22.8 51.6 51.2 51.6h226.8c19.6 0 35.6 16.4 35.6 36 0 7.6-2.4 14.4-6 20-0.4 0.4-322.8 507.6-322.8 507.6-1.2 1.6-3.2 4.8-3.2 4.8-3.2 5.6-6.8 15.2-6.8 25.6 0 28.4 22.4 51.2 50.4 51.6h426c28.4-0.4 50.8-23.2 50.8-51.6 0-28.4-22.4-51.2-50.8-51.6h-251.2c-19.6 0-36-16-36-36 0-6 1.6-12.4 4.4-16.8l326.8-514c4.8-8 7.6-17.2 7.6-27.2 0-28.4-23.2-51.6-51.6-51.6zm540.8 0h-398.8c-28.4 0-51.6 23.2-51.6 51.6 0 28.8 23.2 51.6 51.6 51.6h90.4c28.4 0 51.2 23.2 51.2 51.6v536c0 32 26 58 58 58 32 0 58-26 58-58v-536c0-28.4 23.2-51.6 51.6-51.6h89.6c28.8 0 51.6-22.8 51.6-51.6 0-28.4-22.8-51.6-51.6-51.6zm478 645.6h-220c-28.4 0-51.6-22.8-51.6-51.2v-117.2c0-28.4 23.2-51.6 51.6-51.6h182c28.4 0 51.6-23.2 51.6-51.6 0-28.4-23.2-51.6-51.6-51.6h-182.8c-28-0.4-50.8-23.2-50.8-51.6v-116.4c0.4-28.4 23.2-51.2 51.6-51.2h220.8c28 0 50.8-23.2 50.8-51.6 0-28.4-22.8-51.2-50.8-51.6h-336.8c-28.8 0-51.6 23.2-51.6 51.6v645.6c0 28.4 22.8 51.6 50.8 52h337.6c28-0.4 50.8-23.6 50.8-52 0-28.4-23.2-51.6-51.6-51.6z"/></svg>